<?xml version="1.0" encoding="utf-8"?>
<!-- Generator: Adobe Illustrator 16.2.1, SVG Export Plug-In . SVG Version: 6.00 Build 0)  -->
<!DOCTYPE svg PUBLIC "-//W3C//DTD SVG 1.1//EN" "http://www.w3.org/Graphics/SVG/1.1/DTD/svg11.dtd">
<svg version="1.1"
	 id="svg2" sodipodi:docname="all-targets.svg" inkscape:version="0.48.3.1 r9886" xmlns:osb="http://www.openswatchbook.org/uri/2009/osb" xmlns:dc="http://purl.org/dc/elements/1.1/" xmlns:cc="http://creativecommons.org/ns#" xmlns:rdf="http://www.w3.org/1999/02/22-rdf-syntax-ns#" xmlns:svg="http://www.w3.org/2000/svg" xmlns:sodipodi="http://sodipodi.sourceforge.net/DTD/sodipodi-0.dtd" xmlns:inkscape="http://www.inkscape.org/namespaces/inkscape"
	 xmlns="http://www.w3.org/2000/svg" xmlns:xlink="http://www.w3.org/1999/xlink" x="0px" y="0px" width="768px" height="374px"
	 viewBox="0 0 768 374" enable-background="new 0 0 768 374" xml:space="preserve">
<g>
	<path id="polygon3118-1" inkscape:connector-curvature="0" fill="#F48821" d="M412.059,28.674l6.093,68.271l27.312,7.583
		l27.392-7.583l6.093-68.271H412.059z M424.447,42.457h42.061l-0.832,8.509h-32.036l0.913,8.576h30.438l-2.269,25.728l-17.165,4.858
		c0,0-17.312-4.479-17.312-4.858s-1.208-13.206-1.208-13.206h8.348l0.832,6.536l9.261,2.724l9.273-2.577l0.899-11.005h-28.842
		L424.447,42.457z"/>
	<path id="path3126-4" inkscape:connector-curvature="0" fill="#F48821" d="M418.282,10.122h4.255v4.204h3.893v-4.204h4.256v12.731
		h-4.256V18.59h-3.893v4.263h-4.255V10.122L418.282,10.122z"/>
	<path id="path3128-3" inkscape:connector-curvature="0" fill="#F48821" d="M436.281,14.344h-3.746v-4.222h11.75v4.222h-3.748v8.51
		h-4.256V14.344L436.281,14.344z"/>
	<path id="path3130-3" inkscape:connector-curvature="0" fill="#F48821" d="M446.15,10.122h4.438l2.729,4.474l2.727-4.474h4.438
		v12.731h-4.237v-6.311l-2.928,4.527h-0.073l-2.93-4.527v6.311h-4.164V10.122z"/>
	<path id="path3132-3" inkscape:connector-curvature="0" fill="#F48821" d="M462.6,10.122h4.256v8.523h5.984v4.208H462.6V10.122z"/>
</g>
<g>
	<rect id="rect6046-3" x="163.18" y="45.213" fill="#F48821" width="8.805" height="38.308"/>
	<path id="path6048-0" sodipodi:nodetypes="ssssscssssc" inkscape:connector-curvature="0" fill="#F48821" d="M203.109,30.039
		c-13.096,0-23.715,9.763-23.715,27.412s10.619,27.411,23.715,27.411s23.53-11.783,23.53-27.387
		C226.639,40.12,216.204,30.039,203.109,30.039z M203.162,37.685c7.583,0,14.014,10.477,13.868,20.937
		c-0.145,10.461-6.285,18.593-13.867,18.593s-14.229-7.044-14.229-19.765C188.934,44.729,195.581,37.685,203.162,37.685
		L203.162,37.685z"/>
	
		<path id="path6050-5" sodipodi:type="arc" sodipodi:cx="260.44312" sodipodi:cy="480.71344" sodipodi:rx="10.869913" sodipodi:ry="9.8916216" fill="#F48821" d="
		M173.372,35.12c0,2.945-2.556,5.332-5.708,5.332s-5.708-2.387-5.708-5.332c0-2.944,2.556-5.332,5.708-5.332
		S173.372,32.176,173.372,35.12z"/>
	<path id="path6052-5" sodipodi:nodetypes="csssssccsssssscc" inkscape:connector-curvature="0" fill="#F48821" d="M232.839,72.82
		c0,0,5.521,3.513,12.797,3.387s8.656-4.391,8.531-8.029c-0.126-3.638-5.135-6.609-11.668-8.657
		c-8.405-2.634-11.793-11.542-10.789-17.94c1.004-6.398,9.284-11.542,18.567-11.166c9.284,0.376,11.417,2.76,11.417,2.76
		l-2.133,7.904c0,0-4.768-3.387-8.656-3.262c-3.89,0.125-9.535,2.133-9.911,5.521c-0.377,3.387,2.76,6.774,7.025,8.782
		s16.561,6.524,15.933,17.062c-0.627,10.539-9.283,13.173-13.298,14.428s-11.04,0.125-14.177-0.753
		c-3.137-0.878-6.273-1.882-6.273-1.882L232.839,72.82z"/>
</g>
<g>
	<path id="path3891" inkscape:connector-curvature="0" fill="#F48821" d="M319.097,34.716h37.841c3.342,0,6.033,2.691,6.033,6.033
		V78.59c0,3.342-2.691,6.033-6.033,6.033h-37.841c-3.343,0-6.033-2.69-6.033-6.033V40.749
		C313.064,37.407,315.754,34.716,319.097,34.716z"/>
	<path id="rect3461-9" fill="#F48821" d="M321.668,11.332L321.668,11.332c-0.861,0.477-1.173,1.562-0.695,2.423l9.705,17.508
		c0.477,0.861,1.562,1.172,2.423,0.695l0,0c0.86-0.477,1.172-1.562,0.694-2.423l-9.704-17.508
		C323.614,11.166,322.529,10.854,321.668,11.332z"/>
	<path id="c-7" fill="#F48821" d="M370.649,40.475L370.649,40.475c-3.635,0-6.581,2.946-6.581,6.581v23.308
		c0,3.634,2.946,6.581,6.581,6.581l0,0c3.635,0,6.581-2.947,6.581-6.581V47.056C377.23,43.421,374.283,40.475,370.649,40.475z"/>
	<path id="c-7_1_" fill="#F48821" d="M347.34,67.073L347.34,67.073c-3.635,0-6.581,2.946-6.581,6.581v23.308
		c0,3.634,2.946,6.581,6.581,6.581l0,0c3.635,0,6.581-2.947,6.581-6.581V73.654C353.921,70.02,350.975,67.073,347.34,67.073z"/>
	<path id="rect3461-9_1_" fill="#F48821" d="M354.366,11.332L354.366,11.332c0.861,0.477,1.172,1.562,0.695,2.423l-9.705,17.508
		c-0.478,0.861-1.562,1.172-2.423,0.695l0,0c-0.861-0.477-1.172-1.562-0.695-2.423l9.705-17.508
		C352.421,11.166,353.506,10.854,354.366,11.332z"/>
	<path id="c-7_2_" fill="#F48821" d="M305.386,40.475L305.386,40.475c3.635,0,6.581,2.946,6.581,6.581v23.308
		c0,3.634-2.946,6.581-6.581,6.581l0,0c-3.635,0-6.581-2.947-6.581-6.581V47.056C298.805,43.421,301.751,40.475,305.386,40.475z"/>
	<path id="c-7_3_" fill="#F48821" d="M328.694,67.073L328.694,67.073c3.635,0,6.581,2.946,6.581,6.581v23.308
		c0,3.634-2.946,6.581-6.581,6.581l0,0c-3.634,0-6.581-2.947-6.581-6.581V73.654C322.113,70.02,325.06,67.073,328.694,67.073z"/>
	<path id="ellipse3467-9" inkscape:connector-curvature="0" fill="#F48821" d="M337.97,17.264
		c-13.781,0-24.957,10.301-24.957,23.022s11.176,23.044,24.957,23.044c13.782,0,24.937-10.323,24.937-23.044
		S351.752,17.264,337.97,17.264z M326.277,26.938c1.157,0,2.106,0.949,2.106,2.106c0,1.158-0.949,2.085-2.106,2.085
		c-1.158,0-2.086-0.927-2.086-2.085C324.191,27.886,325.118,26.938,326.277,26.938z M349.406,26.938
		c1.157,0,2.106,0.949,2.106,2.106c0,1.158-0.949,2.085-2.106,2.085c-1.158,0-2.086-0.927-2.086-2.085
		C347.321,27.886,348.248,26.938,349.406,26.938z"/>
	<path id="rect3469-7" inkscape:connector-curvature="0" fill="#F48821" d="M319.097,34.716h37.841c3.342,0,6.033,2.691,6.033,6.033
		V78.59c0,3.342-2.691,6.033-6.033,6.033h-37.841c-3.343,0-6.033-2.69-6.033-6.033V40.749
		C313.064,37.407,315.754,34.716,319.097,34.716z"/>
</g>
<g>
	<path id="path4902-3" inkscape:connector-curvature="0" fill="#F48821" d="M533.772,71.824c0,0,4.468-5.361,11.271-6.426
		c-4.158-0.103-5.571,1.071-6.786,0.196s1.579-3.621,1.579-3.621S530.696,67.313,533.772,71.824z"/>
	<path id="path4906-7" inkscape:connector-curvature="0" fill="#F48821" d="M543.506,43.165c0,0,6.658,5.541,8.213,3.013
		C553.275,43.651,548.365,43.068,543.506,43.165z"/>
	<path id="path4906-0-9" inkscape:connector-curvature="0" fill="#F48821" d="M576.416,43.083c0,0-6.658,5.54-8.213,3.013
		C566.648,43.569,571.557,42.985,576.416,43.083z"/>
	<path id="path4937-5" inkscape:connector-curvature="0" fill="#F48821" d="M586.639,71.824c0,0-4.468-5.361-11.271-6.426
		c4.158-0.103,5.571,1.071,6.786,0.196s-1.579-3.621-1.579-3.621S589.715,67.313,586.639,71.824z"/>
	<path id="path4939-4" inkscape:connector-curvature="0" fill="#F48821" d="M531.308,21.001c-0.292,1.167,0.196,3.99,0.196,3.99
		s2.313,2.953,3.304,5.83c0.977,2.837,1.262,4.664-1.557,11.176c-2.333,4.471-2.375,8.017-3.108,9.428
		c-1.174,2.257-2.044,1.266-1.753,7.098c0,0,8.069-6.321,5.542-7.779c-1.944-1.167,1.46-4.078,7.681-4.856
		c-2.527-2.43-0.487-6.026,3.887-5.443c4.374,0.583,7.515,3.723,11.371,5.634c0.996,0.494,1.458-1.475,0.577-2.448
		c-1.179-1.304-2.998-1.555-3.005-2.897c-0.006-1.024,2.913-1.651,2.33-3.206c-0.944-2.517-4.858-0.585-5.83-2.335
		c-0.973-1.75-0.196-2.719,1.747-3.011c1.944-0.292-0.095-6.319-5.149-4.18c-5.055,2.138-6.71,0.486-9.82-2.624
		C535.507,23.164,533.543,21.876,531.308,21.001z M533.251,25.914c6.513,2.187,8.31,6.124,8.31,6.124s-1.942,1.942-4.81,2.866
		C538.064,28.051,533.251,25.914,533.251,25.914z"/>
	<path id="path4944-0" inkscape:connector-curvature="0" fill="#F48821" d="M587.932,21.001c0.291,1.167-0.196,3.99-0.196,3.99
		s-2.314,2.953-3.305,5.83c-0.976,2.837-1.262,4.664,1.558,11.176c2.332,4.471,2.374,8.017,3.107,9.428
		c1.174,2.257,2.045,1.266,1.753,7.098c0,0-8.068-6.321-5.541-7.779c1.943-1.167-1.46-4.078-7.681-4.856
		c2.527-2.43,0.487-6.026-3.887-5.443c-4.374,0.583-7.516,3.723-11.372,5.634c-0.996,0.494-1.458-1.475-0.577-2.448
		c1.179-1.304,2.998-1.555,3.006-2.897c0.005-1.024-2.914-1.651-2.33-3.206c0.943-2.517,4.857-0.585,5.83-2.335
		c0.972-1.75,0.196-2.719-1.748-3.011c-1.943-0.292,0.096-6.319,5.15-4.18c5.054,2.138,6.709,0.486,9.819-2.624
		C583.733,23.164,585.696,21.876,587.932,21.001z M585.989,25.914c-6.513,2.187-8.31,6.124-8.31,6.124s1.941,1.942,4.809,2.866
		C581.176,28.051,585.989,25.914,585.989,25.914z"/>
	
		<path id="path4946-9" sodipodi:nodetypes="cscsccccssccccccsccccccsssssssscssssssssssscsccsccscscccccccccccscccccccccssccc" inkscape:connector-curvature="0" fill="#F48821" d="
		M525.281,10.119c-1.166,11.275,5.442,21.48,5.929,22.841c0.485,1.361,0.293,3.497-1.165,5.052
		c-4.374,5.443-6.025,21.874-5.929,28.192c0.098,6.318,1.846,7.093,1.846,7.093s0.192-0.779,1.067-2.237
		c0.097,3.111,1.168,8.943,7,14.289c1.555-12.927,13.122-13.414,16.232-12.928c0.098,1.555,3.302,10.112,3.69,10.599
		c0.39,0.486,7.876,3.111,11.764,0.098s1.266-6.517,4.376-10.696c12.442-1.555,16.229,8.945,15.743,13.124
		c4.763-4.763,5.835-10.593,5.835-10.593s1.264,0.871,2.042,1.552c6.123-18.663-3.6-38.102-5.737-41.795
		c7.289-14.969,6.32-20.604,5.737-24.104c-5.152,4.568-16.43,12.15-19.929,12.15s-5.347-2.043-10.207-2.918
		c0,1.944-3.5,6.026-3.5,6.026s-2.525-3.11-3.887-6.026c-4.471-0.194-7.289,3.597-10.789,2.722
		C537.82,20.711,525.281,10.119,525.281,10.119z M590.5,16.145c0,0,0.975,2.426,0.392,3.495s-1.457,3.6-1.943,5.155
		c-0.485,1.555-1.363,5.249-2.335,6.707s-2.136,3.014,1.654,9.624c3.791,6.609,5.687,20.946,3.645,20.897
		c-2.041-0.049-5.199-5.346-9.33-7.046c-4.131-1.701-7.778-1.85-11.181-1.753c-2.127,0.061-4.738,0.792-4.902,2.299
		c-0.105,0.97,1.405,0.667,3.737,1.299c2.382,0.68,1.95,1.733,1.506,2.82c-0.461,1.124-2.718,0.223-4.918-0.294
		c-2.118-0.498-4.621-1.456-4.412-2.186c0.583-2.042,2.647-2.347,2.623-4.469c-0.014-1.215-2.335-2.918-5.057-2.918
		s-3.789,0.779-4.567,2.14c-0.777,1.361,1.246,3.381,1.851,4.469c0.973,1.75-3.891,4.664-7.196,3.887
		c-3.305-0.778,0.139-3.855,2.722-4.083c3.306-0.292,0.002-2.722-4.469-2.722s-6.221,0.781-8.748,1.753
		c-2.526,0.972-5.832,1.553-12.247,7.191c-0.973-12.248,4.662-21.774,5.634-23.135s1.948-3.106,1.17-4.856
		c-4.082-9.331-5.247-18.083-5.247-18.083s4.855,3.693,10.299,7.387c5.443,3.694,9.138,2.336,14.97,0.392
		c1.556,8.748,6.026,12.248,6.026,12.248c3.499-3.11,4.765-8.652,4.376-10.304c-0.389-1.653-0.097-3.401,3.5-1.943
		c5.93,1.944,7.092,1.75,12.341-0.681S590.5,16.146,590.5,16.145L590.5,16.145z M544.138,58.136
		c3.208,3.985,3.306,3.982,6.902,4.371c1.458,3.985,0.583,5.25,5.346,13.609c0-0.389,0.098-13.124,0.098-13.124
		s1.456,0.341,1.358,1.604c0.098,1.458-0.023,2.893-0.023,2.893l1.289-1.41l1.114,1.409l1.291-1.288l1.168,1.291
		c0,0,0.093-2.166,0.119-3.139c0.017-0.616,1.411-1.551,1.411-1.551v6.464l-0.732,7.139c0,0,3.499-5.051,4.665-13.021
		c4.666-1.555,6.902-3.405,6.902-5.155c3.402-0.583,14.387,2.82,14.97,10.304c-0.194,3.791-1.846,8.166-1.846,8.166
		s-4.959-8.166-19.15-7.485c-2.818,4.471-3.399,7.875-3.788,10.402c-0.486,2.235-2.822,2.722-4.475,2.722s-3.983-0.877-5.149-2.335
		c-1.167-1.458-2.724-9.04-4.278-10.789c-2.916-1.264-14.773,0.776-19.439,7.871C529.266,68.629,530.725,58.914,544.138,58.136z"/>
	<path id="path5458-5" sodipodi:nodetypes="cccccccc" inkscape:connector-curvature="0" fill="#F48821" d="M557.551,76.213h5.055
		v-3.062l-1.409,1.409l-1.118-1.312l-1.127,1.169l-1.333-1.285L557.551,76.213z"/>
	<path id="path5490-2" inkscape:connector-curvature="0" fill="#F48821" d="M513.777,92.23h3.397l9.998,7.972V92.23h3.397v12.245
		h-3.397l-10.081-7.862v7.89h-3.287L513.777,92.23z"/>
	<path id="path5494-4" inkscape:connector-curvature="0" fill="#F48821" d="M539.116,92.258h16.683v3.314h-16.71L539.116,92.258z"/>
	<path id="path5496-5" inkscape:connector-curvature="0" fill="#F48821" d="M539.116,96.721h16.683v3.315h-16.71L539.116,96.721z"/>
	<path id="path5498-3" inkscape:connector-curvature="0" fill="#F48821" d="M539.116,101.184h16.683v3.315h-16.71L539.116,101.184z"
		/>
	<path id="path5500-7" inkscape:connector-curvature="0" fill="#F48821" d="M564.401,92.23h3.287v4.465h5.973l3.314-4.493h4.137
		l-3.343,4.52h3.343v7.78h-3.343v-4.465h-10.054v4.493h-3.314V92.23z"/>
	<path id="path5502-3" inkscape:connector-curvature="0" fill="#F48821" d="M589.308,92.231v12.238h16.736V92.231H589.308z
		 M592.666,95.567h10.007v5.648h-10.007V95.567z"/>
</g>
<g>
	<path fill="#F48821" d="M308.745,295.823h-19.593l-8.473,42.894h10.061l2.118-11.121h9.532c9.003,0.53,19.063-6.884,19.063-19.593
		C321.454,300.59,317.218,296.353,308.745,295.823z M301.332,319.652h-6.355l2.648-15.886h6.884c3.707,0,6.354,1.589,6.354,4.766
		C310.334,317.535,306.098,319.123,301.332,319.652z"/>
	<path id="h-7" inkscape:connector-curvature="0" fill="#F48821" d="M318.278,327.596l8.473-42.893h10.062l-2.118,11.12h9.532
		c8.473,0.529,11.649,4.767,10.591,10.062l-3.707,21.711h-10.591l3.707-19.593c0.529-2.647,0.529-4.236-3.178-4.236h-7.943
		l-4.766,23.829H318.278z"/>
	<g>
		<path fill="#F48821" d="M379.705,295.823h-19.594l-8.473,42.894H361.7l2.118-11.121h9.532c9.002,0.53,19.063-6.884,19.063-19.593
			C392.414,300.59,388.178,296.353,379.705,295.823z M372.291,319.652h-6.354l2.647-15.886h6.885c3.707,0,6.354,1.589,6.354,4.766
			C381.294,317.535,377.058,319.123,372.291,319.652z"/>
	</g>
</g>
<g>
	<path id="path3730-3" inkscape:connector-curvature="0" fill="#F48821" d="M232.603,296.16c0-3.996-0.003-7.988,0.003-11.984
		c0.844-0.003,1.69-0.003,2.536-0.003c0.013,3.772,0,7.544,0.006,11.315c1.896-0.503,3.784-1.018,5.68-1.521
		c0.003,2.104,0.003,4.207,0,6.314c-1.893,0.512-3.79,1.015-5.68,1.529c0,5.143-0.003,10.289,0,15.432
		c1.896-0.504,3.784-1.019,5.68-1.521c0.003,2.104,0,4.207,0,6.311c-1.893,0.516-3.787,1.016-5.68,1.53
		c-0.006,3.723,0,7.445-0.003,11.168c-0.846,0-1.695,0-2.542-0.003c-0.003-3.508,0.003-7.02,0-10.527
		c-3.777,1.016-7.553,2.03-11.327,3.055c-0.003,3.998,0.003,7.994-0.003,11.992c-0.853,0-1.705,0-2.558,0
		c-0.006-3.771,0.003-7.547-0.003-11.318c-1.889,0.503-3.771,1.019-5.661,1.518c-0.003-2.115-0.003-4.23,0-6.347
		c1.887-0.516,3.775-1.013,5.661-1.527c0-5.13,0.006-10.263,0-15.394c-1.889,0.5-3.771,1.016-5.661,1.518
		c-0.003-2.106-0.003-4.21,0-6.313c1.887-0.515,3.775-1.012,5.661-1.526c0.003-3.727,0-7.455,0.003-11.184
		c0.853,0,1.705,0,2.561,0.003c0.003,3.511-0.003,7.024,0,10.539C225.053,298.199,228.828,297.184,232.603,296.16 M221.279,305.533
		c-0.006,5.134-0.003,10.268-0.003,15.4c3.777-1.018,7.553-2.036,11.327-3.055c0-5.133,0.003-10.263-0.003-15.396
		C228.825,303.494,225.053,304.52,221.279,305.533L221.279,305.533z"/>
	<path id="path3732-6" inkscape:connector-curvature="0" fill="#F48821" d="M175.304,287.182c4.489-2.195,9.638-2.794,14.571-2.248
		c4.688,0.527,9.27,2.6,12.483,6.102c2.334,2.496,3.86,5.637,4.827,8.891c-2.245,0.533-4.489,1.066-6.737,1.594
		c-1.187-3.814-3.45-7.559-7.133-9.395c-4.094-2.019-9.009-1.844-13.277-0.473c-4.723,1.551-8.019,5.829-9.466,10.447
		c-1.662,5.295-1.61,11.008-0.659,16.433c0.76,4.373,2.919,8.63,6.604,11.232c4.035,2.96,9.47,3.478,14.226,2.272
		c3.643-0.926,6.703-3.561,8.401-6.885c0.97-1.799,1.598-3.762,2.082-5.742c2.282,0.582,4.569,1.146,6.848,1.747
		c-1.267,4.817-3.578,9.567-7.537,12.735c-4.085,3.357-9.469,4.795-14.7,4.63c-5.879-0.058-12.116-1.689-16.271-6.083
		c-4.168-4.515-6.492-10.519-7.188-16.572c-0.576-5.682-0.248-11.597,1.936-16.93C166.371,293.848,170.376,289.592,175.304,287.182z
		"/>
</g>
<g>
	<path id="path3829-6" inkscape:connector-curvature="0" fill="#F48821" d="M483.64,338.955h-0.355v-0.199h0.957v0.199h-0.354v0.992
		h-0.248V338.955z M485.55,339.006h-0.006l-0.353,0.941h-0.161l-0.351-0.941h-0.004v0.941h-0.234v-1.191h0.345l0.324,0.844
		l0.324-0.844h0.343v1.191h-0.229L485.55,339.006L485.55,339.006z"/>
	<path id="path3831-6" inkscape:connector-curvature="0" fill="#F48821" d="M451.799,314.585c0,0-2.475,1.438,1.762,1.926
		c5.131,0.585,7.754,0.501,13.409-0.569c0,0,1.486,0.933,3.562,1.74C457.856,323.115,441.842,317.367,451.799,314.585"/>
	<path id="path3833-2" inkscape:connector-curvature="0" fill="#F48821" d="M450.25,307.494c0,0-2.775,2.055,1.463,2.494
		c5.482,0.564,9.811,0.611,17.302-0.831c0,0,1.036,1.05,2.665,1.625C456.353,315.264,439.281,311.135,450.25,307.494"/>
	<path id="path3835-2" inkscape:connector-curvature="0" fill="#F48821" d="M463.309,295.468c3.124,3.597-0.82,6.833-0.82,6.833
		s7.932-4.095,4.289-9.223c-3.402-4.781-6.011-7.156,8.112-15.348C474.89,277.73,452.721,283.268,463.309,295.468"/>
	<path id="path3837-4" inkscape:connector-curvature="0" fill="#F48821" d="M480.075,319.829c0,0,1.831,1.509-2.017,2.676
		c-7.317,2.217-30.456,2.886-36.884,0.089c-2.311-1.006,2.022-2.4,3.386-2.693c1.422-0.309,2.234-0.25,2.234-0.25
		c-2.57-1.811-16.609,3.554-7.132,5.09C465.51,328.932,486.78,322.854,480.075,319.829"/>
	<path id="path3839-3" inkscape:connector-curvature="0" fill="#F48821" d="M452.99,300.148c0,0-11.77,2.796-4.168,3.811
		c3.209,0.43,9.607,0.333,15.567-0.166c4.871-0.411,9.762-1.285,9.762-1.285s-1.717,0.736-2.96,1.584
		c-11.952,3.144-35.04,1.682-28.394-1.534C448.418,299.841,452.99,300.148,452.99,300.148"/>
	<path id="path3841-9" inkscape:connector-curvature="0" fill="#F48821" d="M474.103,311.95c12.149-6.313,6.531-12.38,2.61-11.563
		c-0.961,0.201-1.389,0.374-1.389,0.374s0.356-0.56,1.038-0.801c7.757-2.728,13.722,8.043-2.504,12.309
		C473.859,312.269,474.046,312.101,474.103,311.95"/>
	<path id="path3843-8" inkscape:connector-curvature="0" fill="#F48821" d="M466.778,264.504c0,0,6.729,6.73-6.382,17.081
		c-10.514,8.303-2.397,13.036-0.005,18.445c-6.137-5.536-10.64-10.411-7.619-14.947
		C457.207,278.424,469.492,275.195,466.778,264.504"/>
	<path id="path3845-1" inkscape:connector-curvature="0" fill="#F48821" d="M454.183,329.059c11.662,0.746,29.57-0.414,29.995-5.933
		c0,0-0.815,2.092-9.639,3.753c-9.953,1.873-22.23,1.654-29.512,0.454C445.028,327.333,446.519,328.566,454.183,329.059"/>
	<path id="path3847-4" inkscape:connector-curvature="0" fill="#F48821" d="M452.272,350.143c-1.1,0.955-2.262,1.49-3.305,1.49
		c-1.488,0-2.292-0.893-2.292-2.324c0-1.548,0.861-2.68,4.317-2.68h1.279V350.143 M455.308,353.568v-10.602
		c0-2.709-1.545-4.496-5.27-4.496c-2.174,0-4.079,0.537-5.627,1.222l0.447,1.876c1.219-0.447,2.796-0.863,4.345-0.863
		c2.146,0,3.068,0.863,3.068,2.65v1.34h-1.07c-5.213,0-7.564,2.023-7.564,5.061c0,2.621,1.55,4.111,4.467,4.111
		c1.876,0,3.275-0.775,4.585-1.908l0.237,1.609H455.308L455.308,353.568z"/>
	<path id="path3849-6" inkscape:connector-curvature="0" fill="#F48821" d="M465.439,353.568h-3.786l-4.557-14.829h3.307l2.827,9.11
		l0.628,2.74c1.431-3.961,2.442-7.98,2.948-11.851h3.217C469.16,343.623,467.61,348.982,465.439,353.568"/>
	<path id="path3851-9" inkscape:connector-curvature="0" fill="#F48821" d="M479.963,350.143c-1.103,0.955-2.267,1.49-3.31,1.49
		c-1.485,0-2.292-0.893-2.292-2.324c0-1.548,0.864-2.68,4.32-2.68h1.281V350.143 M482.998,353.568v-10.602
		c0-2.709-1.549-4.496-5.269-4.496c-2.176,0-4.081,0.537-5.629,1.222l0.446,1.876c1.22-0.447,2.8-0.863,4.348-0.863
		c2.144,0,3.068,0.863,3.068,2.65v1.34h-1.073c-5.214,0-7.564,2.023-7.564,5.061c0,2.621,1.549,4.111,4.466,4.111
		c1.876,0,3.275-0.775,4.587-1.908l0.238,1.609H482.998L482.998,353.568z"/>
	<path id="path3853-1" inkscape:connector-curvature="0" fill="#F48821" d="M440.308,356.086c-0.865,1.264-2.263,2.264-3.793,2.829
		l-1.499-1.764c1.165-0.598,2.164-1.562,2.628-2.462c0.401-0.799,0.567-1.83,0.567-4.295v-16.93h3.226v16.698
		C441.437,353.458,441.173,354.789,440.308,356.086"/>
</g>
<g>
	
		<path id="path3918-6" sodipodi:nodetypes="scscsccscccccssscccssccccsssscccccccccccccccccccccccccccccccccc" inkscape:connector-curvature="0" fill="#F48821" d="
		M419.826,137.315c-3.283-0.102-5.436,1.53-5.436,1.53s-26.456,15.008-31.968,18.454c-5.513,3.445-4.939,8.388-4.939,8.388v38.464
		c0,3.445,0.846,4.08,0.846,4.08c1.312,1.559,2.939,2.684,2.939,2.684s28.364,16.729,33.86,19.555c5.495,2.824,9.072,0,9.072,0
		s30.146-17.503,33.176-19.152c2.297-1.588,3.019-2.665,3.194-2.965l-16.633-9.815c0,0-7.063,14.476-25.414,14.069
		c-12.533,0-19.86-6.271-23.729-13.837c-2.597-5.08-3.637-10.743-3.637-15.474c0-11.774,10.714-26.949,28.009-26.868
		c17.296,0.081,24.668,14.132,24.668,14.132l16.896-9.703c-2.176-2.743-3.784-3.517-3.784-3.517s-26.077-15.054-32.035-18.494
		C423.051,137.771,421.319,137.361,419.826,137.315L419.826,137.315z M443.836,170.559c-0.646,0.371-1.18,0.679-1.865,1.073
		l-2.537,1.463l-7.851,4.55c-1.232-2.573-6.486-7.18-12.495-7.18s-13.891,6.662-13.891,14.132c0,2.469,0.794,4.864,2.121,6.965
		c2.687,4.257,7.573,7.302,12.575,7.247c7.47-0.081,11.605-7.539,11.605-7.539c-21.176-12.356,22.564,13.271,29.072,17.082
		l0.083-0.117c0,0,1.251-1.707,1.165-3.855c-0.049-1.229-0.014-40.222-0.014-40.222s-0.099-1.749-1.076-3.305
		C459.632,161.485,449.678,167.199,443.836,170.559L443.836,170.559z M441.152,179.832h3.222v3.194h3.193v3.208h-3.193v3.248h-3.222
		v-3.248h-3.234v-3.208h3.234V179.832z M452.895,179.832h3.208v3.194h3.207v3.208h-3.207v3.248h-3.208v-3.248h-3.234v-3.208h3.234
		V179.832z"/>
</g>
<g>
	<g>
		<defs>
			<rect id="SVGID_1_" x="13.684" y="156.194" width="210.49" height="56.648"/>
		</defs>
		<clipPath id="SVGID_2_">
			<use xlink:href="#SVGID_1_"  overflow="visible"/>
		</clipPath>
		<path id="path22-2" inkscape:connector-curvature="0" clip-path="url(#SVGID_2_)" fill="#F48821" d="M45.246,186.298
			c0-0.612-0.321-1.174-0.85-1.478l-14.081-8.104c-0.238-0.14-0.506-0.212-0.776-0.224c-0.023,0-0.125,0-0.146,0
			c-0.269,0.011-0.536,0.084-0.777,0.224l-14.081,8.104c-0.524,0.303-0.852,0.866-0.852,1.478l0.031,21.821
			c0,0.304,0.157,0.586,0.424,0.734c0.262,0.156,0.585,0.156,0.846,0l8.368-4.791c0.529-0.314,0.852-0.869,0.852-1.477v-10.194
			c0-0.608,0.322-1.171,0.85-1.473l3.562-2.052c0.266-0.154,0.556-0.229,0.853-0.229c0.29,0,0.588,0.074,0.847,0.229l3.562,2.052
			c0.527,0.302,0.851,0.864,0.851,1.473v10.194c0,0.607,0.326,1.165,0.853,1.477l8.366,4.791c0.263,0.156,0.59,0.156,0.85,0
			c0.26-0.148,0.423-0.431,0.423-0.734L45.246,186.298"/>
		<path id="path24-1" inkscape:connector-curvature="0" clip-path="url(#SVGID_2_)" fill="#F48821" d="M119.13,197.66
			c0,0.152-0.081,0.293-0.213,0.367l-4.836,2.789c-0.132,0.075-0.294,0.075-0.425,0l-4.837-2.789
			c-0.132-0.074-0.213-0.215-0.213-0.367v-5.585c0-0.151,0.081-0.292,0.213-0.368l4.836-2.793c0.132-0.076,0.294-0.076,0.426,0
			l4.837,2.793c0.131,0.076,0.212,0.217,0.212,0.368V197.66z M120.437,156.302c-0.263-0.147-0.584-0.144-0.845,0.009
			c-0.26,0.152-0.42,0.432-0.42,0.733v21.61c0,0.212-0.113,0.409-0.297,0.515c-0.185,0.107-0.411,0.107-0.596,0l-3.527-2.032
			c-0.525-0.303-1.173-0.303-1.699,0l-14.087,8.13c-0.526,0.304-0.851,0.865-0.851,1.473v16.263c0,0.607,0.324,1.169,0.851,1.473
			l14.086,8.137c0.526,0.303,1.175,0.303,1.702,0l14.089-8.137c0.526-0.304,0.85-0.865,0.85-1.473v-40.539
			c0-0.617-0.334-1.185-0.873-1.486L120.437,156.302"/>
		<path id="path26-8" inkscape:connector-curvature="0" clip-path="url(#SVGID_2_)" fill="#F48821" d="M170.835,191.93
			c0.524-0.305,0.846-0.865,0.846-1.471v-3.941c0-0.606-0.321-1.167-0.847-1.471l-13.995-8.126
			c-0.528-0.306-1.177-0.306-1.706-0.002l-14.081,8.13c-0.526,0.304-0.851,0.865-0.851,1.473v16.259
			c0,0.611,0.329,1.175,0.859,1.477l13.995,7.975c0.516,0.295,1.148,0.298,1.668,0.01l8.464-4.705
			c0.269-0.149,0.436-0.432,0.438-0.738s-0.162-0.59-0.428-0.742l-14.17-8.135c-0.266-0.15-0.429-0.433-0.429-0.737v-5.095
			c0-0.305,0.163-0.585,0.426-0.736l4.411-2.543c0.263-0.152,0.586-0.152,0.85,0l4.412,2.543c0.263,0.151,0.426,0.432,0.426,0.736
			v4.008c0,0.305,0.163,0.586,0.426,0.738c0.265,0.152,0.588,0.15,0.852-0.002L170.835,191.93"/>
		<path id="path28-8" inkscape:connector-curvature="0" clip-path="url(#SVGID_2_)" fill="#F48821" d="M70.862,176.833
			c0.526-0.304,1.175-0.304,1.7,0l14.086,8.128c0.526,0.304,0.851,0.865,0.851,1.474v16.268c0,0.608-0.324,1.169-0.85,1.474
			l-14.086,8.135c-0.526,0.304-1.175,0.304-1.701,0l-14.082-8.135c-0.526-0.305-0.851-0.865-0.851-1.474v-16.269
			c0-0.607,0.324-1.169,0.851-1.473L70.862,176.833"/>
		<path id="path30-1" inkscape:connector-curvature="0" clip-path="url(#SVGID_2_)" fill="#F48821" d="M198.183,212.543
			c-0.485,0-0.968-0.127-1.392-0.373l-4.436-2.623c-0.661-0.371-0.339-0.502-0.12-0.578c0.884-0.307,1.062-0.377,2.005-0.912
			c0.099-0.055,0.229-0.035,0.33,0.025l3.406,2.022c0.124,0.068,0.298,0.068,0.412,0l13.281-7.666
			c0.124-0.07,0.203-0.213,0.203-0.359v-15.328c0-0.15-0.079-0.29-0.206-0.366l-13.276-7.66c-0.123-0.071-0.285-0.071-0.41,0
			l-13.272,7.662c-0.129,0.074-0.21,0.218-0.21,0.364v15.328c0,0.146,0.081,0.285,0.209,0.354l3.639,2.103
			c1.974,0.987,3.184-0.175,3.184-1.343V188.06c0-0.214,0.172-0.383,0.385-0.383h1.686c0.21,0,0.384,0.169,0.384,0.383v15.134
			c0,2.635-1.435,4.145-3.933,4.145c-0.768,0-1.372,0-3.06-0.831l-3.482-2.005c-0.86-0.497-1.393-1.428-1.393-2.423v-15.328
			c0-0.996,0.532-1.925,1.393-2.421l13.282-7.674c0.84-0.476,1.957-0.476,2.79,0l13.281,7.674c0.86,0.498,1.395,1.425,1.395,2.421
			v15.328c0,0.995-0.534,1.922-1.395,2.423l-13.281,7.668C199.156,212.416,198.676,212.543,198.183,212.543"/>
		<path id="path32-1" inkscape:connector-curvature="0" clip-path="url(#SVGID_2_)" fill="#F48821" d="M202.286,201.982
			c-5.812,0-7.03-2.667-7.03-4.905c0-0.212,0.172-0.382,0.384-0.382h1.718c0.192,0,0.352,0.137,0.382,0.324
			c0.259,1.749,1.032,2.631,4.547,2.631c2.797,0,3.988-0.633,3.988-2.117c0-0.855-0.338-1.491-4.686-1.917
			c-3.634-0.359-5.881-1.162-5.881-4.069c0-2.68,2.258-4.278,6.045-4.278c4.255,0,6.36,1.478,6.627,4.646
			c0.01,0.109-0.028,0.214-0.101,0.295c-0.073,0.076-0.175,0.123-0.281,0.123h-1.725c-0.179,0-0.336-0.127-0.373-0.3
			c-0.413-1.84-1.419-2.428-4.147-2.428c-3.055,0-3.409,1.064-3.409,1.861c0,0.966,0.419,1.247,4.543,1.794
			c4.081,0.539,6.021,1.303,6.021,4.172C208.907,200.326,206.494,201.982,202.286,201.982"/>
		<path id="path34-3" inkscape:connector-curvature="0" clip-path="url(#SVGID_2_)" fill="#F48821" d="M220.601,176.691v0.394
			h-1.118v2.913h-0.451v-2.913h-1.113v-0.394H220.601"/>
		<path id="path36-5" inkscape:connector-curvature="0" clip-path="url(#SVGID_2_)" fill="#F48821" d="M220.999,176.691h0.643
			l0.948,2.794l0.945-2.794h0.639v3.306h-0.429v-1.951c0-0.068,0.001-0.179,0.004-0.334c0.004-0.159,0.007-0.326,0.007-0.504
			l-0.945,2.789h-0.444l-0.953-2.789v0.099c0,0.082,0,0.205,0.006,0.373c0.003,0.165,0.008,0.287,0.008,0.366v1.951h-0.428V176.691"
			/>
		<path id="path38-6" inkscape:connector-curvature="0" clip-path="url(#SVGID_2_)" fill="#F48821" d="M155.779,191.168
			c0.102-0.059,0.226-0.059,0.326,0l2.703,1.56c0.101,0.058,0.163,0.165,0.163,0.282v3.121c0,0.117-0.062,0.225-0.163,0.283
			l-2.703,1.56c-0.101,0.059-0.225,0.059-0.326,0l-2.7-1.56c-0.102-0.059-0.164-0.166-0.164-0.283v-3.121
			c0-0.117,0.062-0.225,0.164-0.282L155.779,191.168"/>
	</g>
</g>
<g>
	<path id="rect35764-6" inkscape:connector-curvature="0" fill="#F48821" d="M257.277,137.312c-4.244,0-7.665,3.415-7.665,7.659
		v79.094c0,4.244,3.421,7.658,7.665,7.658h79.087c4.245,0,7.666-3.414,7.666-7.658v-79.094c0-4.245-3.421-7.659-7.666-7.659H257.277
		z M322.219,147.403c0.826,0,1.299,0.04,1.299,0.04v14.586c-13.841,0-18.291,14.83-18.291,14.83h10.876v14.085h-16.069
		c-7.415,28.671-34.847,29.904-34.847,29.904v-15.318c8.156-0.988,11.366-2.719,14.085-5.932s6.921-12.114,8.897-19.035
		c1.978-6.92,2.72-13.1,12.358-23.728C308.36,148.2,318.64,147.4,322.219,147.403L322.219,147.403z"/>
</g>
<g>
	<path id="path46" inkscape:connector-curvature="0" fill="#F48821" d="M592.937,185.011c0-7.945-2.265-12.024-6.796-12.248
		c-1.803-0.085-3.563,0.202-5.275,0.867c-1.367,0.489-2.287,0.973-2.771,1.462v18.964c2.898,1.818,5.473,2.664,7.717,2.531
		C590.56,196.275,592.937,192.42,592.937,185.011z M598.527,185.341c0,4.036-0.946,7.387-2.851,10.051
		c-2.122,3.016-5.062,4.568-8.822,4.652c-2.835,0.091-5.755-0.797-8.76-2.658v17.236l-4.86-1.734V174.63
		c0.798-0.979,1.824-1.819,3.068-2.531c2.894-1.686,6.408-2.553,10.546-2.595l0.069,0.069c3.781-0.048,6.695,1.505,8.743,4.653
		C597.57,177.114,598.527,180.815,598.527,185.341z"/>
	<path id="path48" inkscape:connector-curvature="0" fill="#F48821" d="M628.233,196.652c0,5.414-0.542,9.163-1.627,11.248
		c-1.09,2.084-3.164,3.749-6.228,4.988c-2.483,0.979-5.169,1.51-8.052,1.601l-0.803-3.063c2.931-0.398,4.994-0.797,6.19-1.196
		c2.355-0.798,3.973-2.021,4.86-3.659c0.713-1.334,1.063-3.882,1.063-7.652v-1.266c-3.323,1.51-6.807,2.26-10.449,2.26
		c-2.394,0-4.505-0.75-6.323-2.26c-2.043-1.643-3.063-3.729-3.063-6.254v-20.23l4.86-1.665v20.363c0,2.175,0.702,3.85,2.106,5.025
		c1.403,1.175,3.223,1.738,5.451,1.696c2.228-0.048,4.616-0.909,7.152-2.595v-23.756h4.86V196.652z"/>
	<path id="path50" inkscape:connector-curvature="0" fill="#F48821" d="M647.208,199.779c-0.58,0.049-1.111,0.069-1.601,0.069
		c-2.75,0-4.893-0.653-6.425-1.968c-1.526-1.313-2.292-3.127-2.292-5.439v-19.146h-3.329v-3.058h3.329v-8.121l4.855-1.729v9.849
		h5.462v3.058h-5.462v19.012c0,1.824,0.489,3.116,1.468,3.872c0.841,0.622,2.175,0.979,3.994,1.068V199.779z"/>
	<path id="path52" inkscape:connector-curvature="0" fill="#F48821" d="M676.638,199.381h-4.86v-18.762
		c0-1.909-0.447-3.552-1.335-4.924c-1.026-1.553-2.451-2.33-4.281-2.33c-2.228,0-5.015,1.175-8.359,3.526v22.49h-4.861v-44.847
		l4.861-1.532v20.427c3.105-2.26,6.498-3.393,10.184-3.393c2.574,0,4.659,0.867,6.254,2.595c1.601,1.729,2.398,3.882,2.398,6.456
		V199.381L676.638,199.381z"/>
	<path id="path54" inkscape:connector-curvature="0" fill="#F48821" d="M702.474,184.246c0-3.053-0.58-5.573-1.734-7.568
		c-1.372-2.43-3.504-3.712-6.387-3.845c-5.329,0.309-7.987,4.127-7.987,11.444c0,3.355,0.553,6.158,1.67,8.408
		c1.425,2.866,3.562,4.281,6.413,4.232C699.798,196.876,702.474,192.653,702.474,184.246z M707.797,184.277
		c0,4.346-1.111,7.961-3.329,10.85c-2.441,3.232-5.813,4.855-10.115,4.855c-4.265,0-7.589-1.623-9.987-4.855
		c-2.175-2.889-3.26-6.504-3.26-10.85c0-4.084,1.175-7.52,3.525-10.317c2.483-2.967,5.749-4.457,9.785-4.457
		c4.037,0,7.323,1.489,9.854,4.457C706.621,176.758,707.797,180.193,707.797,184.277z"/>
	<path id="path56" inkscape:connector-curvature="0" fill="#F48821" d="M735.663,199.381h-4.86v-19.826
		c0-2.175-0.654-3.872-1.963-5.095c-1.308-1.218-3.053-1.808-5.228-1.76c-2.308,0.042-4.504,0.797-6.589,2.26v24.421h-4.86v-25.021
		c2.797-2.037,5.371-3.366,7.722-3.989c2.218-0.58,4.175-0.867,5.86-0.867c1.154,0,2.239,0.112,3.26,0.335
		c1.909,0.441,3.462,1.26,4.659,2.462c1.334,1.33,1.999,2.925,1.999,4.792V199.381z"/>
	<path id="path1948" inkscape:connector-curvature="0" fill="#F48821" d="M525.226,154.713c-2.501,0.012-4.89,0.225-6.991,0.597
		c-6.19,1.093-7.314,3.383-7.314,7.604v5.576h14.63v1.858h-14.63h-5.49c-4.251,0-7.974,2.556-9.139,7.417
		c-1.343,5.572-1.402,9.049,0,14.868c1.04,4.331,3.523,7.417,7.775,7.417h5.029v-6.685c0-4.828,4.178-9.087,9.139-9.087h14.612
		c4.067,0,7.314-3.349,7.314-7.434v-13.93c0-3.964-3.345-6.942-7.314-7.604C530.334,154.892,527.727,154.702,525.226,154.713z
		 M517.315,159.197c1.511,0,2.745,1.254,2.745,2.796c0,1.537-1.234,2.779-2.745,2.779c-1.517,0-2.745-1.242-2.745-2.779
		C514.57,160.452,515.798,159.197,517.315,159.197z"/>
	<path id="path1950" inkscape:connector-curvature="0" fill="#F48821" d="M541.986,170.348v6.496c0,5.037-4.27,9.275-9.139,9.275
		h-14.612c-4.002,0-7.314,3.425-7.314,7.434v13.93c0,3.965,3.448,6.296,7.314,7.435c4.631,1.361,9.072,1.607,14.612,0
		c3.683-1.066,7.314-3.213,7.314-7.435v-5.575H525.55v-1.858h14.611h7.314c4.252,0,5.836-2.966,7.314-7.417
		c1.527-4.582,1.463-8.989,0-14.868c-1.051-4.233-3.058-7.417-7.314-7.417H541.986z M533.768,205.625
		c1.517,0,2.745,1.242,2.745,2.779c0,1.542-1.229,2.796-2.745,2.796c-1.511,0-2.745-1.254-2.745-2.796
		C531.023,206.867,532.257,205.625,533.768,205.625z"/>
	<path id="text3004" sodipodi:nodetypes="ccccccccccccccccccccccc" inkscape:connector-curvature="0" fill="#F48821" d="
		M745.129,165.904h0.852v-5.345H748v-0.637h-4.89v0.637h2.019V165.904 M748.756,165.904h0.728v-4.882l1.58,4.881h0.811l1.647-4.865
		v4.865h0.794v-5.982h-1.051l-1.8,5.125l-1.534-5.125h-1.175V165.904"/>
</g>
<g id="Layer_2">
	<g>
		<path fill="none" stroke="#F48821" stroke-width="1.1256" stroke-dasharray="4.2331" d="M623.558,292.559
			c12.163,23.869,2.673,53.079-21.197,65.241c-23.869,12.163-53.079,2.673-65.241-21.197c-12.163-23.869-2.674-53.079,21.196-65.242
			c15.441-7.867,33.906-6.899,48.441,2.539"/>
		<polygon fill="none" points="570.174,330.57 558.019,330.57 558.019,308.723 554.878,308.723 554.878,333.339 570.175,333.339 
			570.174,333.339 		"/>
		<path fill="none" d="M584.248,315.646v9.758c0,3.613-1.892,5.977-4.829,5.977c-2.229,0-3.646-1.351-3.646-3.478v-12.258h-2.803
			v13.372c0,2.938,2.194,4.829,5.64,4.829c2.6,0,4.254-0.912,5.909-3.242v2.735h2.531v-17.693H584.248z"/>
		<path fill="none" d="M607.029,331.211c-0.979,0-1.52-0.507-1.52-1.385v-9.859c0-3.14-2.297-4.828-6.652-4.828
			c-4.288,0-6.923,1.654-7.091,5.74h2.836c0.236-2.161,1.52-3.141,4.153-3.141c2.532,0,3.951,0.946,3.951,2.634v0.743
			c0,1.182-0.709,1.688-2.938,1.959c-3.983,0.506-4.592,0.641-5.672,1.08c-2.061,0.844-3.107,2.432-3.107,4.592
			c0,3.208,2.229,5.1,5.809,5.1c2.262,0,4.457-0.946,6.01-2.601c0.304,1.351,1.52,2.33,2.904,2.33c0.573,0,1.013-0.067,1.925-0.305
			l0,0v-2.127C607.332,331.211,607.197,331.211,607.029,331.211z M602.706,327.227c0,2.533-2.566,4.153-5.302,4.153
			c-2.194,0-3.478-0.776-3.478-2.701c0-1.857,1.249-2.668,4.254-3.106c2.972-0.405,3.579-0.54,4.525-0.979V327.227L602.706,327.227z
			"/>
		<path fill="#F48821" d="M580.337,277.062c-20.72,0-37.518,16.796-37.518,37.517c0,20.722,16.798,37.518,37.518,37.518
			c20.721,0,37.518-16.796,37.518-37.518C617.855,293.858,601.058,277.062,580.337,277.062z M554.878,333.339v-24.616h3.141v21.848
			h12.155v2.769h0.001H554.878z M587.05,333.339L587.05,333.339h-2.532v-2.735c-1.654,2.33-3.309,3.242-5.908,3.242
			c-3.445,0-5.64-1.892-5.64-4.829v-13.372h2.803v12.258c0,2.127,1.418,3.478,3.646,3.478c2.938,0,4.829-2.363,4.829-5.977v-9.758
			h2.802V333.339L587.05,333.339L587.05,333.339z M584.89,299.04c0-6.069,4.92-10.988,10.988-10.988
			c6.069,0,10.988,4.919,10.988,10.988c0,6.068-4.919,10.988-10.988,10.988C589.81,310.028,584.89,305.108,584.89,299.04z
			 M607.636,333.271c-0.912,0.237-1.352,0.305-1.925,0.305c-1.385,0-2.601-0.979-2.904-2.33c-1.553,1.654-3.748,2.601-6.01,2.601
			c-3.579,0-5.809-1.892-5.809-5.1c0-2.16,1.047-3.748,3.107-4.592c1.08-0.439,1.688-0.574,5.672-1.08
			c2.229-0.271,2.938-0.777,2.938-1.959v-0.743c0-1.688-1.418-2.634-3.95-2.634c-2.634,0-3.917,0.979-4.153,3.141h-2.836
			c0.168-4.086,2.803-5.74,7.091-5.74c4.355,0,6.652,1.688,6.652,4.828v9.859c0,0.878,0.54,1.385,1.52,1.385
			c0.168,0,0.304,0,0.607-0.067V333.271L607.636,333.271L607.636,333.271z"/>
		<path fill="#F48821" d="M593.927,328.679c0,1.925,1.283,2.701,3.478,2.701c2.735,0,5.302-1.62,5.302-4.153v-2.633
			c-0.946,0.438-1.554,0.573-4.525,0.979C595.176,326.011,593.927,326.821,593.927,328.679z"/>
		<polygon fill="#FFFFFF" points="587.05,333.339 587.05,333.339 587.05,333.339 		"/>
		<circle fill="#F48821" cx="617.856" cy="277.062" r="10.99"/>
	</g>
</g>
</svg>
