<?xml version="1.0" encoding="utf-8"?>
<!-- Generator: Adobe Illustrator 16.0.0, SVG Export Plug-In . SVG Version: 6.00 Build 0)  -->
<!DOCTYPE svg PUBLIC "-//W3C//DTD SVG 1.1//EN" "http://www.w3.org/Graphics/SVG/1.1/DTD/svg11.dtd">
<svg version="1.1" id="Layer_1" xmlns="http://www.w3.org/2000/svg" xmlns:xlink="http://www.w3.org/1999/xlink" x="0px" y="0px"
	 width="361.958px" height="444.604px" viewBox="0 0 361.958 444.604" enable-background="new 0 0 361.958 444.604"
	 xml:space="preserve">
<g id="background">
</g>
<g id="Layer_1_1_">
	<g id="layer1_1_" transform="translate(0,-1031.3622)">
		<g id="g3332_1_" transform="matrix(0.24008588,0,0,0.24008588,-2.2890548,790.44159)">
			<path id="path24_1_" fill="#FBC712" d="M751.584,1350.484l-294.194-26.878l-230.937-104.398h262.563l262.569,131.146"/>
			<path id="path26_1_" fill="#FBC712" d="M751.584,1350.484l311.798-36.112l213.351-95.165h-262.585l-262.565,131.146"/>
			<path id="path28_1_" fill="#F6871F" d="M751.584,2138.194l262.565,31.251l262.585,100.017h-262.585l-262.565-131.415"/>
			<path id="path30_1_" fill="#F15E22" d="M751.584,2138.194l-262.569,28.221l-262.563,103.047h262.563l262.569-131.415"/>
			<path id="path32_1_" fill="#FCEE23" d="M357.733,1744.341l-38.752,308.28l-92.529,216.841v-262.548l131.28-262.719"/>
			<path id="path34_1_" fill="#FCEE23" d="M357.733,1744.341l-29.518-282.329l-101.762-242.804v262.561l131.28,262.426"/>
			<path id="path36_1_" fill="#F04923" d="M1145.433,1744.341l37.885-285.408l93.399-239.725v262.561l-131.284,262.426"/>
			<path id="path38_1_" fill="#F04923" d="M1145.433,1744.341l25.617,289.817l105.667,235.304v-262.548l-131.284-262.719"/>
			<path id="path16_1_" fill="#F8B218" d="M226.453,1219.208l525.131,131.276v393.633H357.733l-131.28-524.645"/>
			<path id="path22_1_" fill="#F89D1C" d="M226.453,2269.462l131.28-525.121l393.851-0.224v393.776l-525.131,131.036"/>
			<path id="path18_1_" fill="#F37321" d="M1276.734,1219.208l-131.301,525.109l-393.849-0.199v-393.654l525.15-130.991"/>
			<path id="path20_1_" fill="#F15E22" d="M1276.734,2269.462l-525.15-131.268v-394.077l393.849,0.224l131.301,524.588"/>
			<path id="path14_1_" fill="#F6871F" d="M751.584,1350.484l-393.851,393.857l393.851,393.853l393.849-393.877l-393.849-393.963"/>
		</g>
		<g id="g3347_1_" transform="matrix(0.63314038,0,0,0.63314038,21.66293,338.04867)">
			<path id="path40_1_" fill="#FFFFFF" stroke="#141419" stroke-width="2" stroke-miterlimit="10" d="M47.59,1627.049h31.149v35.098
				h29.158v-35.098h31.149v101.074h-31.149v-40.061H78.739v40.061H47.59V1627.049"/>
			<path id="path42_1_" fill="#FFFFFF" stroke="#141419" stroke-width="2" stroke-miterlimit="10" d="M207.584,1692.017
				l-9.074-31.132h-0.281l-9.76,31.132H207.584z M183.098,1627.049h30.416l36.817,101.074h-32.278l-4.245-14.426h-32.136
				l-4.527,14.426h-31.3l37.252-100.926"/>
			<path id="path44_1_" fill="#FFFFFF" stroke="#141419" stroke-width="2" stroke-miterlimit="10" d="M284.041,1674.33
				l-33.272-47.284h36.52l15.288,27.427l15.017-27.459h34.535l-32.406,47.568l36.086,53.514h-37.511l-17.272-30.163l-17.84,30.163
				h-35.675l36.53-53.818"/>
			<path id="path46_1_" fill="#FFFFFF" stroke="#141419" stroke-width="2" stroke-miterlimit="10" d="M362.198,1627.049h83.66
				v25.897h-52.519v12.606h47.71v24.082h-47.71v12.592h54.083v25.903h-85.224V1627.049"/>
		</g>
	</g>
</g>
</svg>
