<svg enable-background="new 0 0 595.281 227.273" height="227.273" viewBox="0 0 595.281 227.273" width="595.281" xmlns="http://www.w3.org/2000/svg"><g transform="matrix(.24008588 0 0 .24008588 -2.289055 -240.92061)"><path d="m658.268 1326.858-112-10.234-87.916-39.744h99.956l99.96 49.929" fill="#fbc712"/><path d="m658.268 1326.858 118.699-13.748 81.225-36.23h-99.968l-99.956 49.929" fill="#fbc712"/><path d="m658.268 1626.734 99.956 11.898 99.968 38.076h-99.968l-99.956-50.031" fill="#f6871f"/><path d="m658.268 1626.734-99.96 10.742-99.956 39.232h99.956l99.96-50.031" fill="#f15e22"/><path d="m508.33 1476.796-14.753 117.361-35.225 82.551v-99.952l49.978-100.017" fill="#fcee23"/><path d="m508.33 1476.796-11.239-107.481-38.739-92.435v99.956l49.978 99.903" fill="#fcee23"/><path d="m808.206 1476.796 14.424-108.652 35.555-91.264v99.956l-49.978 99.903" fill="#f04923"/><path d="m808.206 1476.796 9.75 110.332 40.228 89.58v-99.952l-49.978-100.017" fill="#f04923"/><path d="m458.352 1276.88 199.916 49.978v149.853h-149.938l-49.978-199.729" fill="#f8b218"/><path d="m458.352 1676.708 49.978-199.912 149.938-.085v149.91l-199.916 49.884" fill="#f89d1c"/><path d="m858.193 1276.88-49.986 199.908-149.938-.077v-149.861l199.924-49.868" fill="#f37321"/><path d="m858.193 1676.708-199.924-49.974v-150.024l149.938.085 49.986 199.709" fill="#f15e22"/><path d="m658.268 1326.858-149.938 149.938 149.938 149.938 149.938-149.946-149.938-149.979" fill="#f6871f"/></g><g fill="#fff" stroke="#141419" stroke-miterlimit="10" stroke-width="2" transform="matrix(.63314038 0 0 .63314038 21.66293 -693.31353)"><path d="m335.962 1223.986h31.149v35.098h29.158v-35.098h31.149v101.074h-31.149v-40.06h-29.158v40.061h-31.149z"/><path d="m495.957 1288.954-9.076-31.132h-.281l-9.76 31.132zm-24.487-64.968h30.416l36.817 101.074h-32.277l-4.245-14.426h-32.138l-4.525 14.426h-31.301l37.252-100.926"/><path d="m572.415 1271.267-33.273-47.284h36.521l15.285 27.427 15.02-27.459h34.532l-32.403 47.568 36.083 53.514h-37.508l-17.275-30.163-17.836 30.163h-35.676l36.53-53.818"/><path d="m650.569 1223.986h83.66v25.897h-52.519v12.606h47.713v24.082h-47.713v12.592h54.086v25.903h-85.227z"/></g></svg>