<svg enable-background="new 0 0 595.2803 227.2729" height="227.2729" viewBox="0 0 595.2803 227.2729" width="595.2803" xmlns="http://www.w3.org/2000/svg"><g transform="matrix(.24008588 0 0 .24008588 -2.289055 -240.92061)"><path d="m658.2683 1326.8569-112.0001-10.234-87.9161-39.744h99.956l99.9601 49.9292" fill="#fbc712"/><path d="m658.2683 1326.8569 118.6993-13.7483 81.225-36.2297h-99.9683l-99.956 49.9292" fill="#fbc712"/><path d="m658.2683 1626.7332 99.956 11.8976 99.9683 38.0764h-99.9683l-99.956-50.0309" fill="#f6871f"/><path d="m658.2683 1626.7332-99.9601 10.7424-99.956 39.2316h99.956l99.9601-50.0309" fill="#f15e22"/><path d="m508.3302 1476.795-14.753 117.3611-35.225 82.551v-99.952l49.978-100.017" fill="#fcee23"/><path d="m508.3302 1476.795-11.2386-107.481-38.7394-92.4352v99.9561l49.978 99.9032" fill="#fcee23"/><path d="m808.2064 1476.795 14.4235-108.6525 35.5545-91.2637v99.9561l-49.978 99.9032" fill="#f04923"/><path d="m808.2064 1476.795 9.7499 110.3324 40.2281 89.5797v-99.952l-49.978-100.017" fill="#f04923"/><path d="m458.3521 1276.8789 199.9162 49.978v149.8527h-149.9381l-49.978-199.729" fill="#f8b218"/><path d="m458.3521 1676.7072 49.978-199.9121 149.9381-.0854v149.9097l-199.9162 49.8845" fill="#f89d1c"/><path d="m858.1926 1276.8789-49.9861 199.9081-149.9381-.0774v-149.8608l199.9243-49.8682" fill="#f37321"/><path d="m858.1926 1676.7072-199.9243-49.974v-150.0236l149.9381.0854 49.9861 199.7087" fill="#f15e22"/><path d="m658.2683 1326.8569-149.9381 149.9381 149.9381 149.9381 149.9381-149.9462-149.9381-149.9789" fill="#f6871f"/></g><g fill="#fff" transform="matrix(.63314038 0 0 .63314038 21.66293 -693.31353)"><path d="m335.9622 1223.9861h31.149v35.0975h29.1577v-35.0975h31.149v101.0742h-31.149v-40.061h-29.1577v40.061h-31.149z"/><path d="m495.9565 1288.954-9.074-31.132h-.2807l-9.7604 31.132zm-24.4858-64.9679h30.4163l36.8174 101.0742h-32.278l-4.2448-14.4263h-32.1361l-4.527 14.4263h-31.3001l37.2523-100.9261"/><path d="m572.4138 1271.2671-33.2729-47.2842h36.5212l15.2869 27.4272 15.0184-27.4596h34.5331l-32.4045 47.568 36.0847 53.5139h-37.5099l-17.2734-30.1633-17.838 30.1633h-35.676l36.5305-53.8177"/><path d="m650.5693 1223.9861h83.6604v25.8971h-52.5191v12.6061h47.7114v24.0817h-47.7114v12.5923h54.0847v25.9032h-85.226z"/></g></svg>