<?xml version="1.0" encoding="utf-8"?>
<!-- Generator: Adobe Illustrator 16.0.0, SVG Export Plug-In . SVG Version: 6.00 Build 0)  -->
<!DOCTYPE svg PUBLIC "-//W3C//DTD SVG 1.1//EN" "http://www.w3.org/Graphics/SVG/1.1/DTD/svg11.dtd">
<svg version="1.1" id="Layer_1" xmlns="http://www.w3.org/2000/svg" xmlns:xlink="http://www.w3.org/1999/xlink" x="0px" y="0px"
	 width="595.281px" height="227.273px" viewBox="0 0 595.281 227.273" enable-background="new 0 0 595.281 227.273"
	 xml:space="preserve">
<g id="background">
</g>
<g id="Layer_1_1_">
	<g id="layer1_1_" transform="translate(0,-1031.3622)">
		<g id="g3332_1_" transform="matrix(0.24008588,0,0,0.24008588,-2.2890548,790.44159)">
			<path id="path24_1_" fill="#FBC712" d="M658.268,1326.858l-112-10.234l-87.916-39.744h99.956l99.96,49.929"/>
			<path id="path26_1_" fill="#FBC712" d="M658.268,1326.858l118.699-13.748l81.225-36.23h-99.968l-99.956,49.929"/>
			<path id="path28_1_" fill="#F6871F" d="M658.268,1626.734l99.956,11.898l99.968,38.076h-99.968l-99.956-50.031"/>
			<path id="path30_1_" fill="#F15E22" d="M658.268,1626.734l-99.96,10.742l-99.956,39.232h99.956l99.96-50.031"/>
			<path id="path32_1_" fill="#FCEE23" d="M508.33,1476.796l-14.753,117.361l-35.225,82.551v-99.952l49.978-100.017"/>
			<path id="path34_1_" fill="#FCEE23" d="M508.33,1476.796l-11.239-107.481l-38.739-92.435v99.956l49.978,99.903"/>
			<path id="path36_1_" fill="#F04923" d="M808.206,1476.796l14.424-108.652l35.555-91.264v99.956l-49.978,99.903"/>
			<path id="path38_1_" fill="#F04923" d="M808.206,1476.796l9.75,110.332l40.228,89.58v-99.952l-49.978-100.017"/>
			<path id="path16_1_" fill="#F8B218" d="M458.352,1276.88l199.916,49.978v149.853H508.33l-49.978-199.729"/>
			<path id="path22_1_" fill="#F89D1C" d="M458.352,1676.708l49.978-199.912l149.938-0.085v149.91l-199.916,49.884"/>
			<path id="path18_1_" fill="#F37321" d="M858.193,1276.88l-49.986,199.908l-149.938-0.077V1326.85l199.924-49.868"/>
			<path id="path20_1_" fill="#F15E22" d="M858.193,1676.708l-199.924-49.974v-150.024l149.938,0.085l49.986,199.709"/>
			<path id="path14_1_" fill="#F6871F" d="M658.268,1326.858L508.33,1476.796l149.938,149.938l149.938-149.946l-149.938-149.979"/>
		</g>
		<g id="g3347_1_" transform="matrix(0.63314038,0,0,0.63314038,21.66293,338.04867)">
			<path id="path40_1_" fill="#FFFFFF" stroke="#141419" stroke-width="2" stroke-miterlimit="10" d="M335.962,1223.986h31.149
				v35.098h29.158v-35.098h31.149v101.074h-31.149V1285h-29.158v40.061h-31.149V1223.986"/>
			<path id="path42_1_" fill="#FFFFFF" stroke="#141419" stroke-width="2" stroke-miterlimit="10" d="M495.957,1288.954
				l-9.076-31.132h-0.281l-9.76,31.132H495.957z M471.47,1223.986h30.416l36.817,101.074h-32.277l-4.245-14.426h-32.138
				l-4.525,14.426h-31.301l37.252-100.926"/>
			<path id="path44_1_" fill="#FFFFFF" stroke="#141419" stroke-width="2" stroke-miterlimit="10" d="M572.415,1271.267
				l-33.273-47.284h36.521l15.285,27.427l15.02-27.459H640.5l-32.403,47.568l36.083,53.514h-37.508l-17.275-30.163l-17.836,30.163
				h-35.676l36.53-53.818"/>
			<path id="path46_1_" fill="#FFFFFF" stroke="#141419" stroke-width="2" stroke-miterlimit="10" d="M650.569,1223.986h83.66
				v25.897H681.71v12.606h47.713v24.082H681.71v12.592h54.086v25.903h-85.227V1223.986"/>
		</g>
	</g>
</g>
</svg>
