<?xml version="1.0" encoding="utf-8"?>
<!DOCTYPE svg PUBLIC "-//W3C//DTD SVG 1.1//EN" "http://www.w3.org/Graphics/SVG/1.1/DTD/svg11.dtd">
<svg version="1.1" id="Layer_1" xmlns="http://www.w3.org/2000/svg" xmlns:xlink="http://www.w3.org/1999/xlink" x="0px" y="0px"
	 width="230px" height="230px" viewBox="0 0 230 230" enable-background="new 0 0 230 230" xml:space="preserve">
<g id="background" display="none">
	<rect display="inline" width="230" height="230"/>
</g>
<g id="Layer_1_1_">
	<g id="layer1_2_" transform="translate(0,-1031.3622)">
		<g id="g3332_2_" transform="matrix(0.24008588,0,0,0.24008588,-2.2890548,790.44159)">
			
				<path id="path24_2_" fill="none" stroke="#000000" stroke-width="3" stroke-linecap="round" stroke-linejoin="round" stroke-miterlimit="10" d="
				M488.5212,1149.7881v-0.1079L44.9383,1038.8962h221.7874l221.7955,110.7839"/>
			
				<path id="path26_2_" fill="none" stroke="#000000" stroke-width="3" stroke-linecap="round" stroke-linejoin="round" stroke-miterlimit="10" d="
				M488.5212,1149.7881v-0.1079l443.5992-110.7839H710.3085l-221.7874,110.7839"/>
			
				<path id="path28_2_" fill="none" stroke="#000000" stroke-width="3" stroke-linecap="round" stroke-linejoin="round" stroke-miterlimit="10" d="
				M488.5212,1815.1521l443.5992,110.8938l0,0H710.3085l-221.7874-111.0077"/>
			
				<path id="path30_2_" fill="none" stroke="#000000" stroke-width="3" stroke-linecap="round" stroke-linejoin="round" stroke-miterlimit="10" d="
				M488.5212,1815.1521L44.9383,1926.0459l0,0h221.7874l221.7955-111.0077"/>
			
				<path id="path32_2_" fill="none" stroke="#000000" stroke-width="3" stroke-linecap="round" stroke-linejoin="round" stroke-miterlimit="10" d="
				M155.832,1482.469v-0.126L44.9383,1926.0459v-221.7671L155.832,1482.343"/>
			
				<path id="path34_2_" fill="none" stroke="#000000" stroke-width="3" stroke-linecap="round" stroke-linejoin="round" stroke-miterlimit="10" d="
				M155.832,1482.469v-0.126L44.9383,1038.8962v221.7854L155.832,1482.343"/>
			
				<path id="path36_2_" fill="none" stroke="#000000" stroke-width="3" stroke-linecap="round" stroke-linejoin="round" stroke-miterlimit="10" d="
				M821.2104,1482.469v-0.126l110.8937-443.4468v221.7854L821.2104,1482.343"/>
			
				<path id="path38_2_" fill="none" stroke="#000000" stroke-width="3" stroke-linecap="round" stroke-linejoin="round" stroke-miterlimit="10" d="
				M821.2104,1482.469l110.8937,443.5687l0,0v-221.7589l-110.8937-221.9379"/>
			
				<path id="path16_2_" fill="none" stroke="#000000" stroke-width="3" stroke-linecap="round" stroke-linejoin="round" stroke-miterlimit="10" d="
				M44.9383,1038.8962l443.5829,110.8918L155.832,1482.2942l0,0L44.9383,1039.1221"/>
			
				<path id="path22_2_" fill="none" stroke="#000000" stroke-width="3" stroke-linecap="round" stroke-linejoin="round" stroke-miterlimit="10" d="
				M44.9383,1926.0459l110.8937-443.5748l332.6891,332.437l0,0L44.9383,1925.5944"/>
			
				<path id="path18_2_" fill="none" stroke="#000000" stroke-width="3" stroke-linecap="round" stroke-linejoin="round" stroke-miterlimit="10" d="
				M932.1204,1038.8962l-110.91,443.5546l0,0l-332.6892-332.681l443.5992-110.6477"/>
			
				<path id="path20_2_" fill="none" stroke="#000000" stroke-width="3" stroke-linecap="round" stroke-linejoin="round" stroke-miterlimit="10" d="
				M932.1204,1926.0459l-443.5992-110.8856l0,0l332.6892-332.6892l110.91,443.1233"/>
			
				<path id="path14_2_" fill="none" stroke="#000000" stroke-width="3" stroke-linecap="round" stroke-linejoin="round" stroke-miterlimit="10" d="
				M488.5212,1149.7881L155.832,1482.469l332.6891,332.6831l332.6892-332.7013l-332.6892-332.7726"/>
		</g>
	</g>
</g>
</svg>
