<?xml version="1.0" encoding="utf-8"?>
<!-- Generator: Adobe Illustrator 16.0.0, SVG Export Plug-In . SVG Version: 6.00 Build 0)  -->
<!DOCTYPE svg PUBLIC "-//W3C//DTD SVG 1.1//EN" "http://www.w3.org/Graphics/SVG/1.1/DTD/svg11.dtd">
<svg version="1.1" xmlns="http://www.w3.org/2000/svg" xmlns:xlink="http://www.w3.org/1999/xlink" x="0px" y="0px"
	 width="361.958px" height="444.604px" viewBox="0 0 361.958 444.604" enable-background="new 0 0 361.958 444.604"
	 xml:space="preserve">
<g id="background">
</g>
<g id="Layer_1">
	<g id="layer1_1_" transform="translate(0,-1031.3622)">
		<g id="g3332_1_" transform="matrix(0.24008588,0,0,0.24008588,-2.2890548,790.44159)">
			<path id="path24_1_" fill="#FBC712" d="M751.584,1350.4854l-294.1939-26.8804
				l-230.9373-104.3978h262.5626l262.5687,131.15"/>
			<path id="path26_1_" fill="#FBC712" d="M751.584,1350.4854l311.8004-36.1117l213.3512-95.1665
				h-262.5849l-262.5667,131.15"/>
			<path id="path28_1_" fill="#F6871F" d="M751.584,2138.1953l262.5667,31.2512l262.5849,100.0168
				h-262.5849L751.584,2138.0491"/>
			<path id="path30_1_" fill="#F15E22" d="M751.584,2138.1953l-262.5687,28.2207
				l-262.5626,103.0474h262.5626l262.5687-131.4143"/>
			<path id="path32_1_" fill="#FCEE23" d="M357.7331,1744.3425l-38.7516,308.2798
				l-92.5287,216.8411V2006.915l131.2803-262.719"/>
			<path id="path34_1_" fill="#FCEE23" d="M357.7331,1744.3425l-29.5182-282.329
				l-101.762-242.8064v262.5625l131.2803,262.4264"/>
			<path id="path36_1_" fill="#F04923" d="M1145.4351,1744.3425l37.8851-285.4081
				l93.3992-239.7273v262.5625l-131.2843,262.4264"/>
			<path id="path38_1_" fill="#F04923" d="M1145.4351,1744.3425l25.6174,289.8171
				l105.6669,235.3037V2006.915l-131.2843-262.719"/>
			<path id="path16_1_" fill="#F8B218" d="M226.4528,1219.2072l525.1312,131.2782v393.6333
				h-393.851l-131.2803-524.6451"/>
			<path id="path22_1_" fill="#F89D1C" d="M226.4528,2269.4634l131.2803-525.1208l393.851-0.2239
				v393.7759l-525.1312,131.0361"/>
			<path id="path18_1_" fill="#F37321" d="M1276.7356,1219.2072l-131.3005,525.111
				l-393.851-0.1995V1350.465l525.1516-130.9915"/>
			<path id="path20_1_" fill="#F15E22" d="M1276.7356,2269.4634L751.584,2138.1953v-394.0767
				l393.851,0.2239l131.3005,524.5881"/>
			<path id="path14_1_" fill="#F6871F" d="M751.584,1350.4854l-393.851,393.8572l393.851,393.8528
				l393.851-393.8772l-393.851-393.9609"/>
		</g>
		<g id="g3347_1_" transform="matrix(0.63314038,0,0,0.63314038,21.66293,338.04867)">
			<path id="path40_1_" fill="#FFFFFF" d="M47.5898,1627.0476h31.149v35.0974h29.1577v-35.0974
				h31.149v101.0742h-31.149v-40.0613H78.7388v40.0613h-31.149V1627.0476"/>
			<path id="path42_1_" fill="#FFFFFF" d="M207.5842,1692.0154l-9.074-31.1321h-0.2807
				l-9.7604,31.1321H207.5842z M183.0984,1627.0476h30.4164l36.8174,101.0742h-32.278l-4.2447-14.4263h-32.1361l-4.527,14.4263
				h-31.3002l37.2523-100.9263"/>
			<path id="path44_1_" fill="#FFFFFF" d="M284.0415,1674.3286l-33.2729-47.2842h36.5212
				l15.2868,27.4272l15.0185-27.4597h34.5331l-32.4045,47.5681l36.0847,53.5139h-37.5099l-17.2735-30.1633l-17.838,30.1633h-35.676
				l36.5305-53.8179"/>
			<path id="path46_1_" fill="#FFFFFF" d="M362.1971,1627.0476h83.6604v25.897h-52.5191v12.6062
				h47.7114v24.0815h-47.7114v12.5923h54.0847v25.9033h-85.2259V1627.0476"/>
		</g>
	</g>
</g>
</svg>
