<svg enable-background="new 0 0 361.958 444.604" height="444.604" viewBox="0 0 361.958 444.604" width="361.958" xmlns="http://www.w3.org/2000/svg"><g transform="matrix(.24008588 0 0 .24008588 -2.289055 -240.92061)"><path d="m751.584 1350.4854-294.1939-26.8804-230.9373-104.3978h262.5626l262.5687 131.15" fill="#fbc712"/><path d="m751.584 1350.4854 311.8004-36.1117 213.3512-95.1665h-262.5849l-262.5667 131.15" fill="#fbc712"/><path d="m751.584 2138.1953 262.5667 31.2512 262.5849 100.0168h-262.5849l-262.5667-131.4142" fill="#f6871f"/><path d="m751.584 2138.1953-262.5687 28.2207-262.5626 103.0474h262.5626l262.5687-131.4143" fill="#f15e22"/><path d="m357.7331 1744.3425-38.7516 308.2798-92.5287 216.8411v-262.5484l131.2803-262.719" fill="#fcee23"/><path d="m357.7331 1744.3425-29.5182-282.329-101.762-242.8064v262.5625l131.2803 262.4264" fill="#fcee23"/><path d="m1145.4351 1744.3425 37.8851-285.4081 93.3992-239.7273v262.5625l-131.2843 262.4264" fill="#f04923"/><path d="m1145.4351 1744.3425 25.6174 289.8171 105.6669 235.3037v-262.5483l-131.2843-262.719" fill="#f04923"/><path d="m226.4528 1219.2072 525.1312 131.2782v393.6333h-393.851l-131.2803-524.6451" fill="#f8b218"/><path d="m226.4528 2269.4634 131.2803-525.1208 393.851-.2239v393.7759l-525.1312 131.0361" fill="#f89d1c"/><path d="m1276.7356 1219.2072-131.3005 525.111-393.851-.1995v-393.6537l525.1516-130.9915" fill="#f37321"/><path d="m1276.7356 2269.4634-525.1516-131.2681v-394.0767l393.851.2239 131.3005 524.5881" fill="#f15e22"/><path d="m751.584 1350.4854-393.851 393.8572 393.851 393.8528 393.851-393.8772-393.851-393.9609" fill="#f6871f"/></g><g fill="#fff" transform="matrix(.63314038 0 0 .63314038 21.66293 -693.31353)"><path d="m47.5898 1627.0476h31.149v35.0974h29.1577v-35.0974h31.149v101.0742h-31.149v-40.0613h-29.1577v40.0613h-31.149z"/><path d="m207.5842 1692.0154-9.074-31.1321h-.2807l-9.7604 31.1321zm-24.4858-64.9678h30.4164l36.8174 101.0742h-32.278l-4.2447-14.4263h-32.1361l-4.527 14.4263h-31.3002l37.2523-100.9263"/><path d="m284.0415 1674.3286-33.2729-47.2842h36.5212l15.2868 27.4272 15.0185-27.4597h34.5331l-32.4045 47.5681 36.0847 53.5139h-37.5099l-17.2735-30.1633-17.838 30.1633h-35.676l36.5305-53.8179"/><path d="m362.1971 1627.0476h83.6604v25.897h-52.5191v12.6062h47.7114v24.0815h-47.7114v12.5923h54.0847v25.9033h-85.2259v-101.0803"/></g></svg>