<svg enable-background="new 0 0 361.958 444.604" height="444.604" viewBox="0 0 361.958 444.604" width="361.958" xmlns="http://www.w3.org/2000/svg"><g transform="matrix(.24008588 0 0 .24008588 -2.289055 -240.92061)"><path d="m751.584 1350.484-294.194-26.878-230.937-104.398h262.563l262.569 131.146" fill="#fbc712"/><path d="m751.584 1350.484 311.798-36.112 213.351-95.165h-262.585l-262.565 131.146" fill="#fbc712"/><path d="m751.584 2138.194 262.565 31.251 262.585 100.017h-262.585l-262.565-131.415" fill="#f6871f"/><path d="m751.584 2138.194-262.569 28.221-262.563 103.047h262.563l262.569-131.415" fill="#f15e22"/><path d="m357.733 1744.341-38.752 308.28-92.529 216.841v-262.548l131.28-262.719" fill="#fcee23"/><path d="m357.733 1744.341-29.518-282.329-101.762-242.804v262.561l131.28 262.426" fill="#fcee23"/><path d="m1145.433 1744.341 37.885-285.408 93.399-239.725v262.561l-131.284 262.426" fill="#f04923"/><path d="m1145.433 1744.341 25.617 289.817 105.667 235.304v-262.548l-131.284-262.719" fill="#f04923"/><path d="m226.453 1219.208 525.131 131.276v393.633h-393.851l-131.28-524.645" fill="#f8b218"/><path d="m226.453 2269.462 131.28-525.121 393.851-.224v393.776l-525.131 131.036" fill="#f89d1c"/><path d="m1276.734 1219.208-131.301 525.109-393.849-.199v-393.654l525.15-130.991" fill="#f37321"/><path d="m1276.734 2269.462-525.15-131.268v-394.077l393.849.224 131.301 524.588" fill="#f15e22"/><path d="m751.584 1350.484-393.851 393.857 393.851 393.853 393.849-393.877-393.849-393.963" fill="#f6871f"/></g><g fill="#fff" stroke="#141419" stroke-miterlimit="10" stroke-width="2" transform="matrix(.63314038 0 0 .63314038 21.66293 -693.31353)"><path d="m47.59 1627.049h31.149v35.098h29.158v-35.098h31.149v101.074h-31.149v-40.061h-29.158v40.061h-31.149z"/><path d="m207.584 1692.017-9.074-31.132h-.281l-9.76 31.132zm-24.486-64.968h30.416l36.817 101.074h-32.278l-4.245-14.426h-32.136l-4.527 14.426h-31.3l37.252-100.926"/><path d="m284.041 1674.33-33.272-47.284h36.52l15.288 27.427 15.017-27.459h34.535l-32.406 47.568 36.086 53.514h-37.511l-17.272-30.163-17.84 30.163h-35.675l36.53-53.818"/><path d="m362.198 1627.049h83.66v25.897h-52.519v12.606h47.71v24.082h-47.71v12.592h54.083v25.903h-85.224z"/></g></svg>