<svg enable-background="new 0 0 230 230" height="230" viewBox="0 0 230 230" width="230" xmlns="http://www.w3.org/2000/svg"><g style="fill:none;stroke:#000;stroke-width:3;stroke-linecap:round;stroke-linejoin:round;stroke-miterlimit:10" transform="matrix(.24008588 0 0 .24008588 -2.289055 -240.92061)"><path d="m488.5212 1149.7881v-.1079l-443.5829-110.784h221.7874l221.7955 110.7839"/><path d="m488.5212 1149.7881v-.1079l443.5992-110.7839h-221.8119l-221.7874 110.7839"/><path d="m488.5212 1815.1521 443.5992 110.8938h-221.8119l-221.7874-111.0077"/><path d="m488.5212 1815.1521-443.5829 110.8938h221.7874l221.7955-111.0077"/><path d="m155.832 1482.469v-.126l-110.8937 443.7029v-221.7671l110.8937-221.9358"/><path d="m155.832 1482.469v-.126l-110.8937-443.4468v221.7854l110.8937 221.6614"/><path d="m821.2104 1482.469v-.126l110.8937-443.4468v221.7854l-110.8937 221.6614"/><path d="m821.2104 1482.469 110.8937 443.5687v-221.7589l-110.8937-221.9379"/><path d="m44.9383 1038.8962 443.5829 110.8918-332.6892 332.5062-110.8937-443.1721"/><path d="m44.9383 1926.0459 110.8937-443.5748 332.6891 332.437-443.5828 110.6863"/><path d="m932.1204 1038.8962-110.91 443.5546-332.6892-332.681 443.5992-110.6477"/><path d="m932.1204 1926.0459-443.5992-110.8856 332.6892-332.6892 110.91 443.1233"/><path d="m488.5212 1149.7881-332.6892 332.6809 332.6891 332.6831 332.6892-332.7013-332.6892-332.7726"/></g></svg>