<?xml version="1.0" encoding="utf-8"?>
<!-- Generator: Adobe Illustrator 16.0.0, SVG Export Plug-In . SVG Version: 6.00 Build 0)  -->
<!DOCTYPE svg PUBLIC "-//W3C//DTD SVG 1.1//EN" "http://www.w3.org/Graphics/SVG/1.1/DTD/svg11.dtd">
<svg version="1.1" xmlns="http://www.w3.org/2000/svg" xmlns:xlink="http://www.w3.org/1999/xlink" x="0px" y="0px"
	 width="595.2803px" height="227.2729px" viewBox="0 0 595.2803 227.2729" enable-background="new 0 0 595.2803 227.2729"
	 xml:space="preserve">
<g id="background">
</g>
<g id="Layer_1">
	<g id="layer1_1_" transform="translate(0,-1031.3622)">
		<g id="g3332_1_" transform="matrix(0.24008588,0,0,0.24008588,-2.2890548,790.44159)">
			<path id="path24_1_" fill="#FBC712" d="M658.2683,1326.8569l-112.0001-10.234l-87.9161-39.744
				h99.956l99.9601,49.9292"/>
			<path id="path26_1_" fill="#FBC712" d="M658.2683,1326.8569l118.6993-13.7483l81.225-36.2297
				h-99.9683l-99.956,49.9292"/>
			<path id="path28_1_" fill="#F6871F" d="M658.2683,1626.7332l99.956,11.8976l99.9683,38.0764
				h-99.9683l-99.956-50.0309"/>
			<path id="path30_1_" fill="#F15E22" d="M658.2683,1626.7332l-99.9601,10.7424l-99.956,39.2316
				h99.956l99.9601-50.0309"/>
			<path id="path32_1_" fill="#FCEE23" d="M508.3302,1476.795l-14.753,117.3611l-35.225,82.551
				v-99.952l49.978-100.017"/>
			<path id="path34_1_" fill="#FCEE23" d="M508.3302,1476.795l-11.2386-107.481l-38.7394-92.4352
				v99.9561l49.978,99.9032"/>
			<path id="path36_1_" fill="#F04923" d="M808.2064,1476.795l14.4235-108.6525l35.5545-91.2637
				v99.9561l-49.978,99.9032"/>
			<path id="path38_1_" fill="#F04923" d="M808.2064,1476.795l9.7499,110.3324l40.2281,89.5797
				v-99.952l-49.978-100.017"/>
			<path id="path16_1_" fill="#F8B218" d="M458.3521,1276.8789l199.9162,49.978v149.8527H508.3302
				l-49.978-199.729"/>
			<path id="path22_1_" fill="#F89D1C" d="M458.3521,1676.7072l49.978-199.9121l149.9381-0.0854
				v149.9097l-199.9162,49.8845"/>
			<path id="path18_1_" fill="#F37321" d="M858.1926,1276.8789l-49.9861,199.9081
				l-149.9381-0.0774v-149.8608l199.9243-49.8682"/>
			<path id="path20_1_" fill="#F15E22" d="M858.1926,1676.7072l-199.9243-49.974v-150.0236
				l149.9381,0.0854l49.9861,199.7087"/>
			<path id="path14_1_" fill="#F6871F" d="M658.2683,1326.8569L508.3302,1476.795
				l149.9381,149.9381l149.9381-149.9462l-149.9381-149.9789"/>
		</g>
		<g id="g3347_1_" transform="matrix(0.63314038,0,0,0.63314038,21.66293,338.04867)">
			<path id="path40_1_" fill="#FFFFFF" d="M335.9622,1223.9861h31.149v35.0975h29.1577v-35.0975
				h31.149v101.0742h-31.149v-40.061h-29.1577v40.061h-31.149V1223.9861"/>
			<path id="path42_1_" fill="#FFFFFF" d="M495.9565,1288.954l-9.074-31.132h-0.2807
				l-9.7604,31.132H495.9565z M471.4707,1223.9861h30.4163l36.8174,101.0742h-32.278l-4.2448-14.4263h-32.1361l-4.527,14.4263
				h-31.3001l37.2523-100.9261"/>
			<path id="path44_1_" fill="#FFFFFF" d="M572.4138,1271.2671l-33.2729-47.2842h36.5212
				l15.2869,27.4272l15.0184-27.4596h34.5331l-32.4045,47.568l36.0847,53.5139h-37.5099l-17.2734-30.1633l-17.838,30.1633h-35.676
				l36.5305-53.8177"/>
			<path id="path46_1_" fill="#FFFFFF" d="M650.5693,1223.9861h83.6604v25.8971h-52.5191v12.6061
				h47.7114v24.0817h-47.7114v12.5923h54.0847v25.9032h-85.226V1223.9861"/>
		</g>
	</g>
</g>
</svg>
