<svg height="314" width="230" xmlns="http://www.w3.org/2000/svg"><g transform="matrix(.1838103125 0 0 -.1838103125 0 313.99999)"><path d="m625.645 1548.82-469.239-469.23 469.239-469.219 469.215 469.219z" fill="#f68712"/><path d="m0 1705.23 625.645-156.41-469.239-469.23z" fill="#fab20b"/><path d="m1251.29 1705.23-156.43-625.64-469.215 469.23z" fill="#f47216"/><path d="m1251.29 453.961-625.645 156.41 469.215 469.219z" fill="#f25c19"/><path d="m0 453.961 156.406 625.629 469.239-469.219z" fill="#f89c0e"/><path d="m625.645 1548.82-625.645 156.41h312.812z" fill="#fbc707"/><path d="m625.645 1548.82 625.645 156.41h-312.833z" fill="#fbc707"/><path d="m625.645 610.371 625.645-156.41h-312.833z" fill="#f68712"/><path d="m625.645 610.371-625.645-156.41h312.812z" fill="#f25c19"/><path d="m156.406 1079.59-156.406-625.629v312.812z" fill="#fff200"/><path d="m156.406 1079.59-156.406 625.64v-312.81z" fill="#fff200"/><path d="m1094.86 1079.59 156.43 625.64v-312.81z" fill="#f1471d"/><path d="m1094.86 1079.59 156.43-625.629v312.812z" fill="#f1471d"/><g fill="#4f4c4c"><path d="m0 316.32h97.4805v-109.84h91.2495v109.84h97.481v-316.32h-97.481v125.371h-91.2495v-125.371h-97.4805z"/><path d="m500.703 113.02-28.398 97.41h-.879l-30.547-97.41zm-76.621 203.3h95.195l115.215-316.32h-101.015l-13.282 45.1719h-100.586l-14.16-45.1719h-97.949z"/><path d="m739.98 168.352-104.14 147.968h114.316l47.832-85.929 46.992 85.929h108.086l-101.425-148.859 112.929-167.461h-117.382l-54.043 94.3711-55.821-94.3711h-111.66z"/><path d="m984.551 316.32h261.839v-81.031h-164.36v-39.449h149.3v-75.36h-149.3v-39.4097h169.26v-81.0703h-266.739z"/></g></g></svg>