<svg viewBox="0 0 107 21" xmlns="http://www.w3.org/2000/svg"><path d="m10.5 2.62-5.86-.52-4.6-2.1h5.23l5.24 2.62" fill="#fbc707"/><path d="m10.5 2.62 6.25-.72 4.27-1.9h-5.28l-5.24 2.63" fill="#fbc707"/><path d="m10.5 18.37 5.27.63 5.25 2h-5.28l-5.23-2.63" fill="#f68712"/><path d="m10.5 18.37-5.25.58-5.25 2.05h5.25l5.26-2.63" fill="#f25c19"/><path d="m2.63 10.5-.77 6.17-1.84 4.33v-5.24l2.6-5.26" fill="#fff200"/><path d="m2.63 10.5-.6-5.64-2.03-4.86v5.26z" fill="#fff200"/><path d="m18.38 10.5.77-5.72 1.87-4.8v5.26z" fill="#f1471d"/><path d="m18.38 10.5.5 5.78 2.12 4.7v-5.25z" fill="#f1471d"/><path d="m0 0 10.48 2.62-.96 7.16-6.9.72-2.64-10.5" fill="#fab20b"/><path d="m0 21 2.6-10.5 7.04.7.84 7.17-10.5 2.63" fill="#f89c0e"/><path d="m21 0-2.62 10.5-6.86-1.1-1-6.78 10.48-2.6" fill="#f47216"/><path d="m21 21-10.5-2.63 1.06-7.06 6.82-.8z" fill="#f25c19"/><path d="m10.5 2.62-7.86 7.88 7.88 7.87 7.88-7.87-7.87-7.88" fill="#f68712"/><g fill="#141419"><path d="m27.68 3.52h4.3v4.88h4.06v-4.88h4.3v14h-4.3v-5.58h-4.06v5.57h-4.3v-13.96"/><path d="m49.84 12.5-1.27-4.3h-.06l-1.3 4.3h2.66zm-3.36-8.98h4.24l5.13 14h-4.5l-.56-2.03h-4.46l-.64 2h-4.4l5.18-14"/><path d="m60.47 10.04-4.62-6.52h5.07l2.1 3.8 2.08-3.8h4.8l-4.5 6.6 5 7.4h-5.18l-2.4-4.2-2.47 4.2h-4.95z"/><path d="m71.3 3.52h11.6v3.6h-7.3v1.78h6.6v3.36h-6.6v1.77h7.48v3.6h-11.78v-14.1"/></g></svg>