<svg enable-background="new 0 0 107 21" height="21" viewBox="0 0 107 21" width="107" xmlns="http://www.w3.org/2000/svg"><g transform="matrix(.24008588 0 0 .24008588 -2.289055 -240.92061)"><path d="m53.269 1014.41-24.501-2.239-19.233-8.694h21.867l21.867 10.923" fill="#fbc707"/><path d="m53.269 1014.41 25.967-3.008 17.769-7.926h-21.869l-21.867 10.924" fill="#fbc707"/><path d="m53.269 1080.011 21.867 2.607 21.869 8.326h-21.869l-21.867-10.944" fill="#f68712"/><path d="m53.269 1080.011-21.867 2.351-21.867 8.583h21.867l21.867-10.945" fill="#f25c19"/><path d="m20.468 1047.211-3.228 25.674-7.706 18.06v-21.867l10.934-21.878" fill="#fff200"/><path d="m20.468 1047.211-2.459-23.513-8.475-20.222v21.867l10.934 21.857" fill="#fff200"/><path d="m86.069 1047.211 3.156-23.769 7.779-19.966v21.867l-10.935 21.857" fill="#f1471d"/><path d="m86.069 1047.211 2.133 24.137 8.802 19.597v-21.867l-10.935-21.878" fill="#f1471d"/><path d="m9.534 1003.476 43.734 10.934-4.006 29.783-28.794 3-10.934-43.693" fill="#fab20b"/><path d="m9.534 1090.945 10.933-43.734 29.307 2.876 3.494 29.9-43.734 10.913" fill="#f89c0e"/><path d="m97.005 1003.476-10.936 43.734-28.609-4.554-4.192-28.247 43.737-10.909" fill="#f47216"/><path d="m97.005 1090.945-43.736-10.934 4.448-29.412 28.353-3.388 10.935 43.689" fill="#f25c19"/><path d="m53.269 1014.41-32.801 32.801 32.801 32.8 32.801-32.801-32.801-32.81" fill="#f68712"/></g><g fill="#fff" transform="matrix(.63314038 0 0 .63314038 21.66293 -693.31353)"><path d="m9.535 1100.568h6.814v7.678h6.379v-7.678h6.814v22.112h-6.814v-8.764h-6.379v8.764h-6.814z"/><path d="m44.536 1114.78-1.986-6.81h-.061l-2.135 6.81zm-5.357-14.212h6.655l8.054 22.112h-7.061l-.929-3.157h-7.031l-.99 3.157h-6.847l8.149-22.08"/><path d="m61.262 1110.911-7.279-10.344h7.99l3.344 6 3.285-6.007h7.555l-7.089 10.406 7.894 11.706h-8.206l-3.779-6.597-3.902 6.597h-7.805l7.992-11.772"/><path d="m78.359 1100.568h18.302v5.665h-11.489v2.758h10.438v5.268h-10.438v2.755h11.832v5.667h-18.645z"/></g></svg>