<svg enable-background="new 0 0 230 230" height="230" viewBox="0 0 230 230" width="230" xmlns="http://www.w3.org/2000/svg"><g transform="matrix(.1838103125 0 0 -.1838103125 0 313.44271375)"><path d="m625.646 1548.821-356.346 39.464-269.3 116.948h312.812l312.834-156.433" fill="#fbc707"/><path d="m625.646 1548.821 364.507 31.304 261.139 125.108h-312.834l-312.812-156.433" fill="#fbc707"/><path d="m625.646 610.373 340.025-12.241 285.621-144.171h-312.834l-312.812 156.439" fill="#f68712"/><path d="m625.646 610.373h-342.745l-282.901-156.411h312.812l312.834 156.438" fill="#f25c19"/><path d="m156.406 1079.592v-329.128l-156.406-296.502v312.812l156.406 312.826" fill="#fff200"/><path d="m156.406 1079.592-25.837 326.44-130.569 299.201v-312.81l156.406-312.823" fill="#fff200"/><path d="m1094.859 1079.592 34.024 342.761 122.409 282.88v-312.81l-156.433-312.823" fill="#f1471d"/><path d="m1094.859 1079.592 28.583-367.211 127.849-258.419v312.812l-156.432 312.826" fill="#f1471d"/><path d="m0 1705.233 625.646-156.412-100.647-398.488-368.593-70.741-156.406 625.608" fill="#fab20b"/><path d="m1251.292 1705.233-156.433-625.641-420.25 76.2-48.964 393.048 625.647 156.36" fill="#f47216"/><path d="m1251.292 453.962-625.646 156.411 70.725 414.8 398.488 54.388 156.433-625.561" fill="#f25c19"/><path d="m0 453.962 156.406 625.63 376.753-84.31 92.487-384.908-625.646-156.374" fill="#f89c0e"/><path d="m625.646 1548.821-469.24-469.229 469.24-469.219 469.213 469.219-469.213 469.208" fill="#f68712"/></g></svg>