<svg id="svg3238" xmlns="http://www.w3.org/2000/svg" viewBox="0 0 107 21"><style>.st0{fill:#FBC707;} .st1{fill:#F68712;} .st2{fill:#F25C19;} .st3{fill:#FFF200;} .st4{fill:#F1471D;} .st5{fill:#FAB20B;} .st6{fill:#F89C0E;} .st7{fill:#F47216;} .st8{fill:#141419;}</style><g id="layer1"><g id="g3332"><path id="path24" class="st0" d="M10.5 2.62L4.64 2.1.04 0h5.23l5.24 2.62"/><path id="path26" class="st0" d="M10.5 2.62l6.25-.72L21.02 0h-5.28L10.5 2.63"/><path id="path28" class="st1" d="M10.5 18.37l5.27.63 5.25 2h-5.28l-5.23-2.63"/><path id="path30" class="st2" d="M10.5 18.37l-5.25.58L0 21h5.25l5.26-2.63"/><path id="path32" class="st3" d="M2.63 10.5l-.77 6.17L.02 21v-5.24l2.6-5.26"/><path id="path34" class="st3" d="M2.63 10.5l-.6-5.64L0 0v5.26l2.63 5.24"/><path id="path36" class="st4" d="M18.38 10.5l.77-5.72 1.87-4.8v5.26l-2.64 5.26"/><path id="path38" class="st4" d="M18.38 10.5l.5 5.78 2.12 4.7v-5.25l-2.62-5.23"/><path id="path16" class="st5" d="M0 0l10.48 2.62-.96 7.16-6.9.72L-.02 0"/><path id="path22" class="st6" d="M0 21l2.6-10.5 7.04.7.84 7.17L-.02 21"/><path id="path18" class="st7" d="M21 0l-2.62 10.5-6.86-1.1-1-6.78L21 .02"/><path id="path20" class="st2" d="M21 21l-10.5-2.63 1.06-7.06 6.82-.8L21 21"/><path id="path14" class="st1" d="M10.5 2.62L2.64 10.5l7.88 7.87 7.88-7.87-7.87-7.88"/></g><g id="g3347"><path id="path40" class="st8" d="M27.68 3.52h4.3V8.4h4.06V3.52h4.3v14h-4.3v-5.58h-4.06v5.57h-4.3V3.55"/><path id="path42" class="st8" d="M49.84 12.5l-1.27-4.3h-.06l-1.3 4.3h2.66zm-3.36-8.98h4.24l5.13 14h-4.5l-.56-2.03h-4.46l-.64 2h-4.4l5.18-14"/><path id="path44" class="st8" d="M60.47 10.04l-4.62-6.52h5.07l2.1 3.8 2.08-3.8h4.8l-4.5 6.6 5 7.4h-5.18l-2.4-4.2-2.47 4.2H55.4l5.07-7.48"/><path id="path46" class="st8" d="M71.3 3.52h11.6v3.6h-7.3V8.9h6.6v3.36h-6.6v1.77h7.48v3.6H71.3V3.53"/></g></g></svg>
