<?xml version="1.0" encoding="UTF-8" standalone="no"?>
<!-- Generator: Adobe Illustrator 22.1.0, SVG Export Plug-In . SVG Version: 6.00 Build 0)  -->

<svg
   xmlns:dc="http://purl.org/dc/elements/1.1/"
   xmlns:cc="http://creativecommons.org/ns#"
   xmlns:rdf="http://www.w3.org/1999/02/22-rdf-syntax-ns#"
   xmlns:svg="http://www.w3.org/2000/svg"
   xmlns="http://www.w3.org/2000/svg"
   xmlns:sodipodi="http://sodipodi.sourceforge.net/DTD/sodipodi-0.dtd"
   xmlns:inkscape="http://www.inkscape.org/namespaces/inkscape"
   version="1.1"
   id="svg2"
   inkscape:version="0.92.3 (2405546, 2018-03-11)"
   sodipodi:docname="android.svg"
   x="0px"
   y="0px"
   viewBox="0 0 78.400002 92.476402"
   xml:space="preserve"
   width="78.400002"
   height="92.476402"><metadata
   id="metadata207"><rdf:RDF><cc:Work
       rdf:about=""><dc:format>image/svg+xml</dc:format><dc:type
         rdf:resource="http://purl.org/dc/dcmitype/StillImage" /></cc:Work></rdf:RDF></metadata><defs
   id="defs205" /><sodipodi:namedview
   pagecolor="#ffffff"
   bordercolor="#666666"
   borderopacity="1"
   objecttolerance="10"
   gridtolerance="10"
   guidetolerance="10"
   inkscape:pageopacity="0"
   inkscape:pageshadow="2"
   inkscape:window-width="1366"
   inkscape:window-height="705"
   id="namedview203"
   showgrid="false"
   inkscape:zoom="0.25"
   inkscape:cx="-577.03984"
   inkscape:cy="-333.43669"
   inkscape:window-x="-8"
   inkscape:window-y="-8"
   inkscape:window-maximized="1"
   inkscape:current-layer="svg2" />
<style
   type="text/css"
   id="style2">
	.st0{fill:#F48821;}
	.st1{clip-path:url(#SVGID_2_);fill:#F48821;}
	.st2{clip-path:url(#SVGID_4_);fill:#F48821;}
	.st3{clip-path:url(#SVGID_6_);fill:#F48821;}
	.st4{clip-path:url(#SVGID_8_);fill:#F48821;}
	.st5{clip-path:url(#SVGID_10_);fill:#F48821;}
	.st6{clip-path:url(#SVGID_12_);fill:#F48821;}
	.st7{clip-path:url(#SVGID_14_);fill:#F48821;}
	.st8{clip-path:url(#SVGID_16_);fill:#F48821;}
	.st9{clip-path:url(#SVGID_18_);fill:#F48821;}
	.st10{fill:none;stroke:#F48821;stroke-width:1.1256;stroke-dasharray:4.2331;}
	.st11{fill:none;}
	.st12{fill:#FFFFFF;}
	.st13{fill:none;stroke:#F48821;stroke-width:0.5;stroke-miterlimit:10;}
</style>


<g
   id="g26"
   transform="translate(-298.8,-11.123595)">
	<path
   id="path3891"
   inkscape:connector-curvature="0"
   class="st0"
   d="m 319.1,34.7 h 37.8 c 3.3,0 6,2.7 6,6 v 37.8 c 0,3.3 -2.7,6 -6,6 h -37.8 c -3.3,0 -6,-2.7 -6,-6 V 40.7 c 0,-3.3 2.7,-6 6,-6 z"
   style="fill:#f48821" />
	<path
   id="rect3461-9"
   class="st0"
   d="m 321.7,11.3 v 0 c -0.9,0.5 -1.2,1.6 -0.7,2.4 l 9.7,17.5 c 0.5,0.9 1.6,1.2 2.4,0.7 v 0 c 0.9,-0.5 1.2,-1.6 0.7,-2.4 L 324.1,12 c -0.5,-0.8 -1.6,-1.1 -2.4,-0.7 z"
   inkscape:connector-curvature="0"
   style="fill:#f48821" />
	<path
   id="c-7"
   class="st0"
   d="m 370.6,40.5 v 0 c -3.6,0 -6.6,2.9 -6.6,6.6 v 23.3 c 0,3.6 2.9,6.6 6.6,6.6 v 0 c 3.6,0 6.6,-2.9 6.6,-6.6 V 47.1 c 0,-3.7 -2.9,-6.6 -6.6,-6.6 z"
   inkscape:connector-curvature="0"
   style="fill:#f48821" />
	<path
   id="c-7_1_"
   class="st0"
   d="m 347.3,67.1 v 0 c -3.6,0 -6.6,2.9 -6.6,6.6 V 97 c 0,3.6 2.9,6.6 6.6,6.6 v 0 c 3.6,0 6.6,-2.9 6.6,-6.6 V 73.7 c 0,-3.7 -2.9,-6.6 -6.6,-6.6 z"
   inkscape:connector-curvature="0"
   style="fill:#f48821" />
	<path
   id="rect3461-9_1_"
   class="st0"
   d="m 354.4,11.3 v 0 c 0.9,0.5 1.2,1.6 0.7,2.4 l -9.7,17.5 c -0.5,0.9 -1.6,1.2 -2.4,0.7 v 0 c -0.9,-0.5 -1.2,-1.6 -0.7,-2.4 L 352,12 c 0.4,-0.8 1.5,-1.1 2.4,-0.7 z"
   inkscape:connector-curvature="0"
   style="fill:#f48821" />
	<path
   id="c-7_2_"
   class="st0"
   d="m 305.4,40.5 v 0 c 3.6,0 6.6,2.9 6.6,6.6 v 23.3 c 0,3.6 -2.9,6.6 -6.6,6.6 v 0 c -3.6,0 -6.6,-2.9 -6.6,-6.6 V 47.1 c 0,-3.7 3,-6.6 6.6,-6.6 z"
   inkscape:connector-curvature="0"
   style="fill:#f48821" />
	<path
   id="c-7_3_"
   class="st0"
   d="m 328.7,67.1 v 0 c 3.6,0 6.6,2.9 6.6,6.6 V 97 c 0,3.6 -2.9,6.6 -6.6,6.6 v 0 c -3.6,0 -6.6,-2.9 -6.6,-6.6 V 73.7 c 0,-3.7 3,-6.6 6.6,-6.6 z"
   inkscape:connector-curvature="0"
   style="fill:#f48821" />
	<path
   id="ellipse3467-9"
   inkscape:connector-curvature="0"
   class="st0"
   d="m 338,17.3 c -13.8,0 -25,10.3 -25,23 0,12.7 11.2,23 25,23 13.8,0 24.9,-10.3 24.9,-23 0,-12.7 -11.1,-23 -24.9,-23 z m -11.7,9.6 c 1.2,0 2.1,0.9 2.1,2.1 0,1.2 -0.9,2.1 -2.1,2.1 -1.2,0 -2.1,-0.9 -2.1,-2.1 0,-1.2 0.9,-2.1 2.1,-2.1 z m 23.1,0 c 1.2,0 2.1,0.9 2.1,2.1 0,1.2 -0.9,2.1 -2.1,2.1 -1.2,0 -2.1,-0.9 -2.1,-2.1 0,-1.1 0.9,-2.1 2.1,-2.1 z"
   style="fill:#f48821" />
	<path
   id="rect3469-7"
   inkscape:connector-curvature="0"
   class="st0"
   d="m 319.1,34.7 h 37.8 c 3.3,0 6,2.7 6,6 v 37.8 c 0,3.3 -2.7,6 -6,6 h -37.8 c -3.3,0 -6,-2.7 -6,-6 V 40.7 c 0,-3.3 2.7,-6 6,-6 z"
   style="fill:#f48821" />
</g>










</svg>