<svg height="92.476402" viewBox="0 0 78.400002 92.476402" width="78.400002" xmlns="http://www.w3.org/2000/svg"><g fill="#f48821" transform="translate(-298.8 -11.123595)"><path d="m319.1 34.7h37.8c3.3 0 6 2.7 6 6v37.8c0 3.3-2.7 6-6 6h-37.8c-3.3 0-6-2.7-6-6v-37.8c0-3.3 2.7-6 6-6z"/><path d="m321.7 11.3c-.9.5-1.2 1.6-.7 2.4l9.7 17.5c.5.9 1.6 1.2 2.4.7.9-.5 1.2-1.6.7-2.4l-9.7-17.5c-.5-.8-1.6-1.1-2.4-.7z"/><path d="m370.6 40.5c-3.6 0-6.6 2.9-6.6 6.6v23.3c0 3.6 2.9 6.6 6.6 6.6 3.6 0 6.6-2.9 6.6-6.6v-23.3c0-3.7-2.9-6.6-6.6-6.6z"/><path d="m347.3 67.1c-3.6 0-6.6 2.9-6.6 6.6v23.3c0 3.6 2.9 6.6 6.6 6.6 3.6 0 6.6-2.9 6.6-6.6v-23.3c0-3.7-2.9-6.6-6.6-6.6z"/><path d="m354.4 11.3c.9.5 1.2 1.6.7 2.4l-9.7 17.5c-.5.9-1.6 1.2-2.4.7-.9-.5-1.2-1.6-.7-2.4l9.7-17.5c.4-.8 1.5-1.1 2.4-.7z"/><path d="m305.4 40.5c3.6 0 6.6 2.9 6.6 6.6v23.3c0 3.6-2.9 6.6-6.6 6.6-3.6 0-6.6-2.9-6.6-6.6v-23.3c0-3.7 3-6.6 6.6-6.6z"/><path d="m328.7 67.1c3.6 0 6.6 2.9 6.6 6.6v23.3c0 3.6-2.9 6.6-6.6 6.6-3.6 0-6.6-2.9-6.6-6.6v-23.3c0-3.7 3-6.6 6.6-6.6z"/><path d="m338 17.3c-13.8 0-25 10.3-25 23s11.2 23 25 23 24.9-10.3 24.9-23-11.1-23-24.9-23zm-11.7 9.6c1.2 0 2.1.9 2.1 2.1s-.9 2.1-2.1 2.1-2.1-.9-2.1-2.1.9-2.1 2.1-2.1zm23.1 0c1.2 0 2.1.9 2.1 2.1s-.9 2.1-2.1 2.1-2.1-.9-2.1-2.1c0-1.1.9-2.1 2.1-2.1z"/><path d="m319.1 34.7h37.8c3.3 0 6 2.7 6 6v37.8c0 3.3-2.7 6-6 6h-37.8c-3.3 0-6-2.7-6-6v-37.8c0-3.3 2.7-6 6-6z"/></g></svg>