<svg height="94.548943" viewBox="0 0 84.324738 94.548943" width="84.324738" xmlns="http://www.w3.org/2000/svg"><path d="m419.8 137.3c-3.3-.1-5.4 1.5-5.4 1.5s-26.5 15-32 18.5c-5.5 3.4-4.9 8.4-4.9 8.4v38.5c0 3.4.8 4.1.8 4.1 1.3 1.6 2.9 2.7 2.9 2.7s28.4 16.7 33.9 19.6c5.5 2.8 9.1 0 9.1 0s30.1-17.5 33.2-19.2c2.3-1.6 3-2.7 3.2-3l-16.6-9.8s-7.1 14.5-25.4 14.1c-12.5 0-19.9-6.3-23.7-13.8-2.6-5.1-3.6-10.7-3.6-15.5 0-11.8 10.7-26.9 28-26.9 17.3.1 24.7 14.1 24.7 14.1l16.9-9.7c-2.2-2.7-3.8-3.5-3.8-3.5s-26.1-15.1-32-18.5c-2-1.1-3.8-1.5-5.3-1.6zm24 33.3c-.6.4-1.2.7-1.9 1.1l-2.5 1.5-7.9 4.6c-1.2-2.6-6.5-7.2-12.5-7.2s-13.9 6.7-13.9 14.1c0 2.5.8 4.9 2.1 7 2.7 4.3 7.6 7.3 12.6 7.2 7.5-.1 11.6-7.5 11.6-7.5-21.2-12.4 22.6 13.3 29.1 17.1l.1-.1s1.3-1.7 1.2-3.9c0-1.2 0-40.2 0-40.2s-.1-1.7-1.1-3.3c-1.1.5-11 6.2-16.9 9.6zm-2.6 9.2h3.2v3.2h3.2v3.2h-3.2v3.2h-3.2v-3.2h-3.2v-3.2h3.2zm11.7 0h3.2v3.2h3.2v3.2h-3.2v3.2h-3.2v-3.2h-3.2v-3.2h3.2z" fill="#f48821" transform="translate(-377.48075 -137.2955)"/></svg>