<?xml version="1.0" encoding="UTF-8" standalone="no"?>
<!-- Generator: Adobe Illustrator 22.1.0, SVG Export Plug-In . SVG Version: 6.00 Build 0)  -->

<svg
   xmlns:dc="http://purl.org/dc/elements/1.1/"
   xmlns:cc="http://creativecommons.org/ns#"
   xmlns:rdf="http://www.w3.org/1999/02/22-rdf-syntax-ns#"
   xmlns:svg="http://www.w3.org/2000/svg"
   xmlns="http://www.w3.org/2000/svg"
   xmlns:sodipodi="http://sodipodi.sourceforge.net/DTD/sodipodi-0.dtd"
   xmlns:inkscape="http://www.inkscape.org/namespaces/inkscape"
   version="1.1"
   id="svg2"
   inkscape:version="0.92.3 (2405546, 2018-03-11)"
   sodipodi:docname="cpp.svg"
   x="0px"
   y="0px"
   viewBox="0 0 84.324738 94.548943"
   xml:space="preserve"
   width="84.324738"
   height="94.548943"><metadata
   id="metadata207"><rdf:RDF><cc:Work
       rdf:about=""><dc:format>image/svg+xml</dc:format><dc:type
         rdf:resource="http://purl.org/dc/dcmitype/StillImage" /></cc:Work></rdf:RDF></metadata><defs
   id="defs205" /><sodipodi:namedview
   pagecolor="#ffffff"
   bordercolor="#666666"
   borderopacity="1"
   objecttolerance="10"
   gridtolerance="10"
   guidetolerance="10"
   inkscape:pageopacity="0"
   inkscape:pageshadow="2"
   inkscape:window-width="1366"
   inkscape:window-height="705"
   id="namedview203"
   showgrid="false"
   inkscape:zoom="0.18684896"
   inkscape:cx="-1346.7607"
   inkscape:cy="-803.23131"
   inkscape:window-x="-8"
   inkscape:window-y="-8"
   inkscape:window-maximized="1"
   inkscape:current-layer="svg2" />
<style
   type="text/css"
   id="style2">
	.st0{fill:#F48821;}
	.st1{clip-path:url(#SVGID_2_);fill:#F48821;}
	.st2{clip-path:url(#SVGID_4_);fill:#F48821;}
	.st3{clip-path:url(#SVGID_6_);fill:#F48821;}
	.st4{clip-path:url(#SVGID_8_);fill:#F48821;}
	.st5{clip-path:url(#SVGID_10_);fill:#F48821;}
	.st6{clip-path:url(#SVGID_12_);fill:#F48821;}
	.st7{clip-path:url(#SVGID_14_);fill:#F48821;}
	.st8{clip-path:url(#SVGID_16_);fill:#F48821;}
	.st9{clip-path:url(#SVGID_18_);fill:#F48821;}
	.st10{fill:none;stroke:#F48821;stroke-width:1.1256;stroke-dasharray:4.2331;}
	.st11{fill:none;}
	.st12{fill:#FFFFFF;}
	.st13{fill:none;stroke:#F48821;stroke-width:0.5;stroke-miterlimit:10;}
</style>







<g
   id="g73"
   transform="translate(-377.48075,-137.2955)">
	
		<path
   id="path3918-6"
   inkscape:connector-curvature="0"
   sodipodi:nodetypes="scscsccscccccssscccssccccsssscccccccccccccccccccccccccccccccccc"
   class="st0"
   d="m 419.8,137.3 c -3.3,-0.1 -5.4,1.5 -5.4,1.5 0,0 -26.5,15 -32,18.5 -5.5,3.4 -4.9,8.4 -4.9,8.4 v 38.5 c 0,3.4 0.8,4.1 0.8,4.1 1.3,1.6 2.9,2.7 2.9,2.7 0,0 28.4,16.7 33.9,19.6 5.5,2.8 9.1,0 9.1,0 0,0 30.1,-17.5 33.2,-19.2 2.3,-1.6 3,-2.7 3.2,-3 L 444,198.6 c 0,0 -7.1,14.5 -25.4,14.1 -12.5,0 -19.9,-6.3 -23.7,-13.8 -2.6,-5.1 -3.6,-10.7 -3.6,-15.5 0,-11.8 10.7,-26.9 28,-26.9 17.3,0.1 24.7,14.1 24.7,14.1 l 16.9,-9.7 c -2.2,-2.7 -3.8,-3.5 -3.8,-3.5 0,0 -26.1,-15.1 -32,-18.5 -2,-1.1 -3.8,-1.5 -5.3,-1.6 z m 24,33.3 c -0.6,0.4 -1.2,0.7 -1.9,1.1 l -2.5,1.5 -7.9,4.6 c -1.2,-2.6 -6.5,-7.2 -12.5,-7.2 -6,0 -13.9,6.7 -13.9,14.1 0,2.5 0.8,4.9 2.1,7 2.7,4.3 7.6,7.3 12.6,7.2 7.5,-0.1 11.6,-7.5 11.6,-7.5 -21.2,-12.4 22.6,13.3 29.1,17.1 l 0.1,-0.1 c 0,0 1.3,-1.7 1.2,-3.9 0,-1.2 0,-40.2 0,-40.2 0,0 -0.1,-1.7 -1.1,-3.3 -1.1,0.5 -11,6.2 -16.9,9.6 z m -2.6,9.2 h 3.2 v 3.2 h 3.2 v 3.2 h -3.2 v 3.2 h -3.2 v -3.2 H 438 V 183 h 3.2 z m 11.7,0 h 3.2 v 3.2 h 3.2 v 3.2 h -3.2 v 3.2 h -3.2 v -3.2 h -3.2 V 183 h 3.2 z"
   style="fill:#f48821" />
</g>





</svg>