<?xml version="1.0" encoding="UTF-8" standalone="no"?>
<!-- Generator: Adobe Illustrator 22.1.0, SVG Export Plug-In . SVG Version: 6.00 Build 0)  -->

<svg
   xmlns:dc="http://purl.org/dc/elements/1.1/"
   xmlns:cc="http://creativecommons.org/ns#"
   xmlns:rdf="http://www.w3.org/1999/02/22-rdf-syntax-ns#"
   xmlns:svg="http://www.w3.org/2000/svg"
   xmlns="http://www.w3.org/2000/svg"
   xmlns:sodipodi="http://sodipodi.sourceforge.net/DTD/sodipodi-0.dtd"
   xmlns:inkscape="http://www.inkscape.org/namespaces/inkscape"
   version="1.1"
   id="svg2"
   inkscape:version="0.92.3 (2405546, 2018-03-11)"
   sodipodi:docname="csharp.svg"
   x="0px"
   y="0px"
   viewBox="0 0 78.753571 55.099998"
   xml:space="preserve"
   width="78.753571"
   height="55.099998"><metadata
   id="metadata207"><rdf:RDF><cc:Work
       rdf:about=""><dc:format>image/svg+xml</dc:format><dc:type
         rdf:resource="http://purl.org/dc/dcmitype/StillImage" /></cc:Work></rdf:RDF></metadata><defs
   id="defs205" /><sodipodi:namedview
   pagecolor="#ffffff"
   bordercolor="#666666"
   borderopacity="1"
   objecttolerance="10"
   gridtolerance="10"
   guidetolerance="10"
   inkscape:pageopacity="0"
   inkscape:pageshadow="2"
   inkscape:window-width="1366"
   inkscape:window-height="705"
   id="namedview203"
   showgrid="false"
   inkscape:zoom="0.18684896"
   inkscape:cx="-1052.2264"
   inkscape:cy="-697.77575"
   inkscape:window-x="-8"
   inkscape:window-y="-8"
   inkscape:window-maximized="1"
   inkscape:current-layer="svg2" />
<style
   type="text/css"
   id="style2">
	.st0{fill:#F48821;}
	.st1{clip-path:url(#SVGID_2_);fill:#F48821;}
	.st2{clip-path:url(#SVGID_4_);fill:#F48821;}
	.st3{clip-path:url(#SVGID_6_);fill:#F48821;}
	.st4{clip-path:url(#SVGID_8_);fill:#F48821;}
	.st5{clip-path:url(#SVGID_10_);fill:#F48821;}
	.st6{clip-path:url(#SVGID_12_);fill:#F48821;}
	.st7{clip-path:url(#SVGID_14_);fill:#F48821;}
	.st8{clip-path:url(#SVGID_16_);fill:#F48821;}
	.st9{clip-path:url(#SVGID_18_);fill:#F48821;}
	.st10{fill:none;stroke:#F48821;stroke-width:1.1256;stroke-dasharray:4.2331;}
	.st11{fill:none;}
	.st12{fill:#FFFFFF;}
	.st13{fill:none;stroke:#F48821;stroke-width:0.5;stroke-miterlimit:10;}
</style>





<g
   id="g55"
   transform="translate(-82.946427,-282.2)">
	<path
   id="path3730-3"
   inkscape:connector-curvature="0"
   class="st0"
   d="m 153.5,294.2 c 0,-4 0,-8 0,-12 0.8,0 1.7,0 2.5,0 0,3.8 0,7.5 0,11.3 1.9,-0.5 3.8,-1 5.7,-1.5 0,2.1 0,4.2 0,6.3 -1.9,0.5 -3.8,1 -5.7,1.5 0,5.1 0,10.3 0,15.4 1.9,-0.5 3.8,-1 5.7,-1.5 0,2.1 0,4.2 0,6.3 -1.9,0.5 -3.8,1 -5.7,1.5 0,3.7 0,7.4 0,11.2 -0.8,0 -1.7,0 -2.5,0 0,-3.5 0,-7 0,-10.5 -3.8,1 -7.6,2 -11.3,3.1 0,4 0,8 0,12 -0.9,0 -1.7,0 -2.6,0 0,-3.8 0,-7.5 0,-11.3 -1.9,0.5 -3.8,1 -5.7,1.5 0,-2.1 0,-4.2 0,-6.3 1.9,-0.5 3.8,-1 5.7,-1.5 0,-5.1 0,-10.3 0,-15.4 -1.9,0.5 -3.8,1 -5.7,1.5 0,-2.1 0,-4.2 0,-6.3 1.9,-0.5 3.8,-1 5.7,-1.5 0,-3.7 0,-7.5 0,-11.2 0.9,0 1.7,0 2.6,0 0,3.5 0,7 0,10.5 3.7,-1.1 7.5,-2.1 11.3,-3.1 m -11.3,9.3 c 0,5.1 0,10.3 0,15.4 3.8,-1 7.6,-2 11.3,-3.1 0,-5.1 0,-10.3 0,-15.4 -3.8,1.1 -7.6,2.1 -11.3,3.1 z"
   style="fill:#f48821" />
	<path
   id="path3732-6"
   inkscape:connector-curvature="0"
   class="st0"
   d="m 96.2,285.2 c 4.5,-2.2 9.6,-2.8 14.6,-2.2 4.7,0.5 9.3,2.6 12.5,6.1 2.3,2.5 3.9,5.6 4.8,8.9 -2.2,0.5 -4.5,1.1 -6.7,1.6 -1.2,-3.8 -3.4,-7.6 -7.1,-9.4 -4.1,-2 -9,-1.8 -13.3,-0.5 -4.7,1.6 -8,5.8 -9.5,10.4 -1.7,5.3 -1.6,11 -0.7,16.4 0.8,4.4 2.9,8.6 6.6,11.2 4,3 9.5,3.5 14.2,2.3 3.6,-0.9 6.7,-3.6 8.4,-6.9 1,-1.8 1.6,-3.8 2.1,-5.7 2.3,0.6 4.6,1.1 6.8,1.7 -1.3,4.8 -3.6,9.6 -7.5,12.7 -4.1,3.4 -9.5,4.8 -14.7,4.6 -5.9,-0.1 -12.1,-1.7 -16.3,-6.1 -4.2,-4.5 -6.5,-10.5 -7.2,-16.6 -0.6,-5.7 -0.2,-11.6 1.9,-16.9 2.2,-5 6.2,-9.2 11.1,-11.6 z"
   style="fill:#f48821" />
</g>







</svg>