<svg height="55.099998" viewBox="0 0 78.753571 55.099998" width="78.753571" xmlns="http://www.w3.org/2000/svg"><g fill="#f48821" transform="translate(-82.946427 -282.2)"><path d="m153.5 294.2c0-4 0-8 0-12h2.5v11.3l5.7-1.5v6.3c-1.9.5-3.8 1-5.7 1.5v15.4l5.7-1.5v6.3c-1.9.5-3.8 1-5.7 1.5v11.2c-.8 0-1.7 0-2.5 0 0-3.5 0-7 0-10.5-3.8 1-7.6 2-11.3 3.1v12c-.9 0-1.7 0-2.6 0 0-3.8 0-7.5 0-11.3-1.9.5-3.8 1-5.7 1.5 0-2.1 0-4.2 0-6.3l5.7-1.5c0-5.1 0-10.3 0-15.4-1.9.5-3.8 1-5.7 1.5 0-2.1 0-4.2 0-6.3l5.7-1.5c0-3.7 0-7.5 0-11.2h2.6v10.5c3.7-1.1 7.5-2.1 11.3-3.1m-11.3 9.3v15.4c3.8-1 7.6-2 11.3-3.1 0-5.1 0-10.3 0-15.4-3.8 1.1-7.6 2.1-11.3 3.1z"/><path d="m96.2 285.2c4.5-2.2 9.6-2.8 14.6-2.2 4.7.5 9.3 2.6 12.5 6.1 2.3 2.5 3.9 5.6 4.8 8.9-2.2.5-4.5 1.1-6.7 1.6-1.2-3.8-3.4-7.6-7.1-9.4-4.1-2-9-1.8-13.3-.5-4.7 1.6-8 5.8-9.5 10.4-1.7 5.3-1.6 11-.7 16.4.8 4.4 2.9 8.6 6.6 11.2 4 3 9.5 3.5 14.2 2.3 3.6-.9 6.7-3.6 8.4-6.9 1-1.8 1.6-3.8 2.1-5.7 2.3.6 4.6 1.1 6.8 1.7-1.3 4.8-3.6 9.6-7.5 12.7-4.1 3.4-9.5 4.8-14.7 4.6-5.9-.1-12.1-1.7-16.3-6.1-4.2-4.5-6.5-10.5-7.2-16.6-.6-5.7-.2-11.6 1.9-16.9 2.2-5 6.2-9.2 11.1-11.6z"/></g></svg>