<?xml version="1.0" encoding="UTF-8" standalone="no"?>
<!-- Generator: Adobe Illustrator 22.1.0, SVG Export Plug-In . SVG Version: 6.00 Build 0)  -->

<svg
   xmlns:dc="http://purl.org/dc/elements/1.1/"
   xmlns:cc="http://creativecommons.org/ns#"
   xmlns:rdf="http://www.w3.org/1999/02/22-rdf-syntax-ns#"
   xmlns:svg="http://www.w3.org/2000/svg"
   xmlns="http://www.w3.org/2000/svg"
   xmlns:sodipodi="http://sodipodi.sourceforge.net/DTD/sodipodi-0.dtd"
   xmlns:inkscape="http://www.inkscape.org/namespaces/inkscape"
   version="1.1"
   id="svg2"
   inkscape:version="0.92.3 (2405546, 2018-03-11)"
   sodipodi:docname="flash.svg"
   x="0px"
   y="0px"
   viewBox="0 0 94.5 94.5"
   xml:space="preserve"
   width="94.5"
   height="94.5"><metadata
   id="metadata207"><rdf:RDF><cc:Work
       rdf:about=""><dc:format>image/svg+xml</dc:format><dc:type
         rdf:resource="http://purl.org/dc/dcmitype/StillImage" /></cc:Work></rdf:RDF></metadata><defs
   id="defs205" /><sodipodi:namedview
   pagecolor="#ffffff"
   bordercolor="#666666"
   borderopacity="1"
   objecttolerance="10"
   gridtolerance="10"
   guidetolerance="10"
   inkscape:pageopacity="0"
   inkscape:pageshadow="2"
   inkscape:window-width="1366"
   inkscape:window-height="705"
   id="namedview203"
   showgrid="false"
   inkscape:zoom="0.18684896"
   inkscape:cx="-1218.88"
   inkscape:cy="-803.27575"
   inkscape:window-x="-8"
   inkscape:window-y="-8"
   inkscape:window-maximized="1"
   inkscape:current-layer="svg2" />
<style
   type="text/css"
   id="style2">
	.st0{fill:#F48821;}
	.st1{clip-path:url(#SVGID_2_);fill:#F48821;}
	.st2{clip-path:url(#SVGID_4_);fill:#F48821;}
	.st3{clip-path:url(#SVGID_6_);fill:#F48821;}
	.st4{clip-path:url(#SVGID_8_);fill:#F48821;}
	.st5{clip-path:url(#SVGID_10_);fill:#F48821;}
	.st6{clip-path:url(#SVGID_12_);fill:#F48821;}
	.st7{clip-path:url(#SVGID_14_);fill:#F48821;}
	.st8{clip-path:url(#SVGID_16_);fill:#F48821;}
	.st9{clip-path:url(#SVGID_18_);fill:#F48821;}
	.st10{fill:none;stroke:#F48821;stroke-width:1.1256;stroke-dasharray:4.2331;}
	.st11{fill:none;}
	.st12{fill:#FFFFFF;}
	.st13{fill:none;stroke:#F48821;stroke-width:0.5;stroke-miterlimit:10;}
</style>









<g
   id="g161"
   transform="translate(-249.6,-137.3)">
	<path
   id="rect35764-6"
   inkscape:connector-curvature="0"
   class="st0"
   d="m 257.3,137.3 c -4.2,0 -7.7,3.4 -7.7,7.7 v 79.1 c 0,4.2 3.4,7.7 7.7,7.7 h 79.1 c 4.2,0 7.7,-3.4 7.7,-7.7 V 145 c 0,-4.2 -3.4,-7.7 -7.7,-7.7 z m 64.9,10.1 c 0.8,0 1.3,0 1.3,0 V 162 c -13.8,0 -18.3,14.8 -18.3,14.8 h 10.9 v 14.1 H 300 c -7.4,28.7 -34.8,29.9 -34.8,29.9 v -15.3 c 8.2,-1 11.4,-2.7 14.1,-5.9 2.7,-3.2 6.9,-12.1 8.9,-19 2,-6.9 2.7,-13.1 12.4,-23.7 7.8,-8.7 18,-9.5 21.6,-9.5 z"
   style="fill:#f48821" />
</g>



</svg>