<?xml version="1.0" encoding="UTF-8" standalone="no"?>
<!-- Generator: Adobe Illustrator 22.1.0, SVG Export Plug-In . SVG Version: 6.00 Build 0)  -->

<svg
   xmlns:dc="http://purl.org/dc/elements/1.1/"
   xmlns:cc="http://creativecommons.org/ns#"
   xmlns:rdf="http://www.w3.org/1999/02/22-rdf-syntax-ns#"
   xmlns:svg="http://www.w3.org/2000/svg"
   xmlns="http://www.w3.org/2000/svg"
   xmlns:sodipodi="http://sodipodi.sourceforge.net/DTD/sodipodi-0.dtd"
   xmlns:inkscape="http://www.inkscape.org/namespaces/inkscape"
   version="1.1"
   id="svg2"
   inkscape:version="0.92.3 (2405546, 2018-03-11)"
   sodipodi:docname="html5.svg"
   x="0px"
   y="0px"
   viewBox="0 0 66.900002 94.5"
   xml:space="preserve"
   width="66.900002"
   height="94.5"><metadata
   id="metadata207"><rdf:RDF><cc:Work
       rdf:about=""><dc:format>image/svg+xml</dc:format><dc:type
         rdf:resource="http://purl.org/dc/dcmitype/StillImage" /></cc:Work></rdf:RDF></metadata><defs
   id="defs205" /><sodipodi:namedview
   pagecolor="#ffffff"
   bordercolor="#666666"
   borderopacity="1"
   objecttolerance="10"
   gridtolerance="10"
   guidetolerance="10"
   inkscape:pageopacity="0"
   inkscape:pageshadow="2"
   inkscape:window-width="1366"
   inkscape:window-height="705"
   id="namedview203"
   showgrid="false"
   inkscape:zoom="0.18684896"
   inkscape:cx="-1391.38"
   inkscape:cy="-930.47575"
   inkscape:window-x="-8"
   inkscape:window-y="-8"
   inkscape:window-maximized="1"
   inkscape:current-layer="svg2" />
<style
   type="text/css"
   id="style2">
	.st0{fill:#F48821;}
	.st1{clip-path:url(#SVGID_2_);fill:#F48821;}
	.st2{clip-path:url(#SVGID_4_);fill:#F48821;}
	.st3{clip-path:url(#SVGID_6_);fill:#F48821;}
	.st4{clip-path:url(#SVGID_8_);fill:#F48821;}
	.st5{clip-path:url(#SVGID_10_);fill:#F48821;}
	.st6{clip-path:url(#SVGID_12_);fill:#F48821;}
	.st7{clip-path:url(#SVGID_14_);fill:#F48821;}
	.st8{clip-path:url(#SVGID_16_);fill:#F48821;}
	.st9{clip-path:url(#SVGID_18_);fill:#F48821;}
	.st10{fill:none;stroke:#F48821;stroke-width:1.1256;stroke-dasharray:4.2331;}
	.st11{fill:none;}
	.st12{fill:#FFFFFF;}
	.st13{fill:none;stroke:#F48821;stroke-width:0.5;stroke-miterlimit:10;}
</style>
<g
   id="g9"
   transform="translate(-422.1,-10.1)">
	<path
   id="polygon3118-1"
   inkscape:connector-curvature="0"
   class="st0"
   d="m 422.1,28.7 6.1,68.3 27.3,7.6 27.4,-7.6 6.1,-68.3 c -0.1,0 -66.9,0 -66.9,0 z m 12.3,13.8 h 42.1 l -0.8,8.5 h -32 l 0.9,8.6 H 475 l -2.3,25.7 -17.2,4.9 c 0,0 -17.3,-4.5 -17.3,-4.9 0,-0.4 -1.2,-13.2 -1.2,-13.2 h 8.3 l 0.8,6.5 9.3,2.7 9.3,-2.6 0.9,-11 h -28.8 z"
   style="fill:#f48821" />
	<path
   id="path3126-4"
   inkscape:connector-curvature="0"
   class="st0"
   d="m 428.3,10.1 h 4.3 v 4.2 h 3.9 v -4.2 h 4.3 v 12.7 h -4.3 v -4.3 h -3.9 v 4.3 h -4.3 z"
   style="fill:#f48821" />
	<path
   id="path3128-3"
   inkscape:connector-curvature="0"
   class="st0"
   d="m 446.3,14.3 h -3.7 v -4.2 h 11.8 v 4.2 h -3.7 v 8.5 h -4.3 v -8.5 z"
   style="fill:#f48821" />
	<path
   id="path3130-3"
   inkscape:connector-curvature="0"
   class="st0"
   d="m 456.1,10.1 h 4.4 l 2.7,4.5 2.7,-4.5 h 4.4 v 12.7 h -4.2 v -6.3 l -2.9,4.5 h -0.1 l -2.9,-4.5 v 6.3 H 456 Z"
   style="fill:#f48821" />
	<path
   id="path3132-3"
   inkscape:connector-curvature="0"
   class="st0"
   d="m 472.6,10.1 h 4.3 v 8.5 h 6 v 4.2 H 472.7 V 10.1 Z"
   style="fill:#f48821" />
</g>












</svg>