<svg height="94.5" viewBox="0 0 66.900002 94.5" width="66.900002" xmlns="http://www.w3.org/2000/svg"><g fill="#f48821" transform="translate(-422.1 -10.1)"><path d="m422.1 28.7 6.1 68.3 27.3 7.6 27.4-7.6 6.1-68.3c-.1 0-66.9 0-66.9 0zm12.3 13.8h42.1l-.8 8.5h-32l.9 8.6h30.4l-2.3 25.7-17.2 4.9s-17.3-4.5-17.3-4.9-1.2-13.2-1.2-13.2h8.3l.8 6.5 9.3 2.7 9.3-2.6.9-11h-28.8z"/><path d="m428.3 10.1h4.3v4.2h3.9v-4.2h4.3v12.7h-4.3v-4.3h-3.9v4.3h-4.3z"/><path d="m446.3 14.3h-3.7v-4.2h11.8v4.2h-3.7v8.5h-4.3v-8.5z"/><path d="m456.1 10.1h4.4l2.7 4.5 2.7-4.5h4.4v12.7h-4.2v-6.3l-2.9 4.5h-.1l-2.9-4.5v6.3h-4.2z"/><path d="m472.6 10.1h4.3v8.5h6v4.2h-10.2v-12.7z"/></g></svg>