<?xml version="1.0" encoding="UTF-8" standalone="no"?>
<!-- Generator: Adobe Illustrator 22.1.0, SVG Export Plug-In . SVG Version: 6.00 Build 0)  -->

<svg
   xmlns:dc="http://purl.org/dc/elements/1.1/"
   xmlns:cc="http://creativecommons.org/ns#"
   xmlns:rdf="http://www.w3.org/1999/02/22-rdf-syntax-ns#"
   xmlns:svg="http://www.w3.org/2000/svg"
   xmlns="http://www.w3.org/2000/svg"
   xmlns:sodipodi="http://sodipodi.sourceforge.net/DTD/sodipodi-0.dtd"
   xmlns:inkscape="http://www.inkscape.org/namespaces/inkscape"
   version="1.1"
   id="svg2"
   inkscape:version="0.92.3 (2405546, 2018-03-11)"
   sodipodi:docname="ios.svg"
   x="0px"
   y="0px"
   viewBox="0 0 102.04169 56.972622"
   xml:space="preserve"
   width="102.04169"
   height="56.972622"><metadata
   id="metadata207"><rdf:RDF><cc:Work
       rdf:about=""><dc:format>image/svg+xml</dc:format><dc:type
         rdf:resource="http://purl.org/dc/dcmitype/StillImage" /></cc:Work></rdf:RDF></metadata><defs
   id="defs205" /><sodipodi:namedview
   pagecolor="#ffffff"
   bordercolor="#666666"
   borderopacity="1"
   objecttolerance="10"
   gridtolerance="10"
   guidetolerance="10"
   inkscape:pageopacity="0"
   inkscape:pageshadow="2"
   inkscape:window-width="1366"
   inkscape:window-height="705"
   id="namedview203"
   showgrid="false"
   inkscape:zoom="0.18684896"
   inkscape:cx="-251.48034"
   inkscape:cy="-308.04578"
   inkscape:window-x="-8"
   inkscape:window-y="-8"
   inkscape:window-maximized="1"
   inkscape:current-layer="svg2" />
<style
   type="text/css"
   id="style2">
	.st0{fill:#F48821;}
	.st1{clip-path:url(#SVGID_2_);fill:#F48821;}
	.st2{clip-path:url(#SVGID_4_);fill:#F48821;}
	.st3{clip-path:url(#SVGID_6_);fill:#F48821;}
	.st4{clip-path:url(#SVGID_8_);fill:#F48821;}
	.st5{clip-path:url(#SVGID_10_);fill:#F48821;}
	.st6{clip-path:url(#SVGID_12_);fill:#F48821;}
	.st7{clip-path:url(#SVGID_14_);fill:#F48821;}
	.st8{clip-path:url(#SVGID_16_);fill:#F48821;}
	.st9{clip-path:url(#SVGID_18_);fill:#F48821;}
	.st10{fill:none;stroke:#F48821;stroke-width:1.1256;stroke-dasharray:4.2331;}
	.st11{fill:none;}
	.st12{fill:#FFFFFF;}
	.st13{fill:none;stroke:#F48821;stroke-width:0.5;stroke-miterlimit:10;}
</style>

<g
   id="g15"
   transform="translate(-151.88679,-27.827377)">
	<rect
   id="rect6046-3"
   x="153.2"
   y="45.200001"
   class="st0"
   width="8.8000002"
   height="38.299999"
   style="fill:#f48821" />
	<path
   id="path6048-0"
   inkscape:connector-curvature="0"
   sodipodi:nodetypes="ssssscssssc"
   class="st0"
   d="m 193.1,30 c -13.1,0 -23.7,9.8 -23.7,27.4 0,17.6 10.6,27.4 23.7,27.4 13.1,0 23.5,-11.8 23.5,-27.4 C 216.6,40.1 206.2,30 193.1,30 Z m 0.1,7.7 c 7.6,0 14,10.5 13.9,20.9 -0.1,10.5 -6.3,18.6 -13.9,18.6 -7.6,0 -14.2,-7 -14.2,-19.8 -0.1,-12.7 6.6,-19.7 14.2,-19.7 z"
   style="fill:#f48821" />
	
		<ellipse
   id="path6050-5"
   class="st0"
   cx="157.67841"
   cy="33.097752"
   rx="5.7916198"
   ry="5.2703743"
   style="fill:#f48821;stroke-width:0.532812" />
	<path
   id="path6052-5"
   inkscape:connector-curvature="0"
   sodipodi:nodetypes="csssssccsssssscc"
   class="st0"
   d="m 222.8,72.8 c 0,0 5.5,3.5 12.8,3.4 7.3,-0.1 8.7,-4.4 8.5,-8 C 244,64.6 239,61.6 232.4,59.5 224,56.9 220.6,48 221.6,41.6 c 1,-6.4 9.4,-11.6 18.7,-11.2 9.3,0.4 11.4,2.8 11.4,2.8 l -2.1,7.9 c 0,0 -4.8,-3.4 -8.7,-3.3 -3.9,0.1 -9.5,2.1 -9.9,5.5 -0.4,3.4 2.8,6.8 7,8.8 4.2,2 16.6,6.5 15.9,17.1 -0.6,10.5 -9.3,13.2 -13.3,14.4 -4,1.2 -11,0.1 -14.2,-0.8 -3.1,-0.9 -6.3,-1.9 -6.3,-1.9 z"
   style="fill:#f48821" />
</g>











</svg>