<svg height="56.972622" viewBox="0 0 102.04169 56.972622" width="102.04169" xmlns="http://www.w3.org/2000/svg"><g fill="#f48821" transform="translate(-151.88679 -27.827377)"><path d="m153.2 45.200001h8.8v38.299999h-8.8z"/><path d="m193.1 30c-13.1 0-23.7 9.8-23.7 27.4s10.6 27.4 23.7 27.4 23.5-11.8 23.5-27.4c0-17.3-10.4-27.4-23.5-27.4zm.1 7.7c7.6 0 14 10.5 13.9 20.9-.1 10.5-6.3 18.6-13.9 18.6s-14.2-7-14.2-19.8c-.1-12.7 6.6-19.7 14.2-19.7z"/><ellipse cx="157.67841" cy="33.097752" rx="5.79162" ry="5.270374" stroke-width=".532812"/><path d="m222.8 72.8s5.5 3.5 12.8 3.4 8.7-4.4 8.5-8c-.1-3.6-5.1-6.6-11.7-8.7-8.4-2.6-11.8-11.5-10.8-17.9s9.4-11.6 18.7-11.2 11.4 2.8 11.4 2.8l-2.1 7.9s-4.8-3.4-8.7-3.3-9.5 2.1-9.9 5.5 2.8 6.8 7 8.8 16.6 6.5 15.9 17.1c-.6 10.5-9.3 13.2-13.3 14.4s-11 .1-14.2-.8c-3.1-.9-6.3-1.9-6.3-1.9z"/></g></svg>