<svg height="94.400002" viewBox="0 0 50.5 94.400002" width="50.5" xmlns="http://www.w3.org/2000/svg"><g fill="#f48821" transform="translate(-355.9 -262.5)"><path d="m404.5 337h-.4v-.2h1v.2h-.4v1h-.2zm1.9 0-.4.9h-.2l-.4-.9v.9h-.2v-1.2h.3l.3.8.3-.8h.3v1.2h-.2z"/><path d="m372.7 312.6s-2.5 1.4 1.8 1.9c5.1.6 7.8.5 13.4-.6 0 0 1.5.9 3.6 1.7-12.8 5.5-28.8-.2-18.8-3"/><path d="m371.1 305.5s-2.8 2.1 1.5 2.5c5.5.6 9.8.6 17.3-.8 0 0 1 1 2.7 1.6-15.4 4.5-32.4.3-21.5-3.3"/><path d="m384.2 293.5c3.1 3.6-.8 6.8-.8 6.8s7.9-4.1 4.3-9.2c-3.4-4.8-6-7.2 8.1-15.3 0-.1-22.2 5.5-11.6 17.7"/><path d="m401 317.8s1.8 1.5-2 2.7c-7.3 2.2-30.5 2.9-36.9.1-2.3-1 2-2.4 3.4-2.7s2.2-.3 2.2-.3c-2.6-1.8-16.6 3.6-7.1 5.1 25.8 4.2 47.1-1.8 40.4-4.9"/><path d="m373.9 298.1s-11.8 2.8-4.2 3.8c3.2.4 9.6.3 15.6-.2 4.9-.4 9.8-1.3 9.8-1.3s-1.7.7-3 1.6c-12 3.1-35 1.7-28.4-1.5 5.6-2.7 10.2-2.4 10.2-2.4"/><path d="m395 310c12.1-6.3 6.5-12.4 2.6-11.6-1 .2-1.4.4-1.4.4s.4-.6 1-.8c7.8-2.7 13.7 8-2.5 12.3.1 0 .2-.2.3-.3"/><path d="m387.7 262.5s6.7 6.7-6.4 17.1c-10.5 8.3-2.4 13 0 18.4-6.1-5.5-10.6-10.4-7.6-14.9 4.4-6.7 16.7-9.9 14-20.6"/><path d="m375.1 327.1c11.7.7 29.6-.4 30-5.9 0 0-.8 2.1-9.6 3.8-10 1.9-22.2 1.7-29.5.5-.1-.2 1.4 1.1 9.1 1.6"/><path d="m373.2 348.1c-1.1 1-2.3 1.5-3.3 1.5-1.5 0-2.3-.9-2.3-2.3 0-1.5.9-2.7 4.3-2.7h1.3zm3 3.5v-10.6c0-2.7-1.5-4.5-5.3-4.5-2.2 0-4.1.5-5.6 1.2l.4 1.9c1.2-.4 2.8-.9 4.3-.9 2.1 0 3.1.9 3.1 2.6v1.3h-1.1c-5.2 0-7.6 2-7.6 5.1 0 2.6 1.5 4.1 4.5 4.1 1.9 0 3.3-.8 4.6-1.9l.2 1.6h2.5z"/><path d="m386.3 351.6h-3.8l-4.6-14.8h3.3l2.8 9.1.6 2.7c1.4-4 2.4-8 2.9-11.9h3.2c-.6 4.9-2.2 10.3-4.4 14.9"/><path d="m400.9 348.1c-1.1 1-2.3 1.5-3.3 1.5-1.5 0-2.3-.9-2.3-2.3 0-1.5.9-2.7 4.3-2.7h1.3zm3 3.5v-10.6c0-2.7-1.5-4.5-5.3-4.5-2.2 0-4.1.5-5.6 1.2l.4 1.9c1.2-.4 2.8-.9 4.3-.9 2.1 0 3.1.9 3.1 2.6v1.3h-1.1c-5.2 0-7.6 2-7.6 5.1 0 2.6 1.5 4.1 4.5 4.1 1.9 0 3.3-.8 4.6-1.9l.2 1.6h2.5z"/><path d="m361.2 354.1c-.9 1.3-2.3 2.3-3.8 2.8l-1.5-1.8c1.2-.6 2.2-1.6 2.6-2.5.4-.8.6-1.8.6-4.3v-16.9h3.2v16.7c0 3.4-.2 4.7-1.1 6"/></g></svg>