<svg height="64.788223" viewBox="0 0 168.41376 64.788224" width="168.41376" xmlns="http://www.w3.org/2000/svg"><g fill="#f48821"><path d="m15.364302 50.1s-2.5 1.4 1.8 1.9c5.1.6 7.8.5 13.4-.6 0 0 1.5.9 3.6 1.7-12.8 5.5-28.8-.2-18.8-3"/><path d="m13.764302 43s-2.8 2.1 1.5 2.5c5.5.6 9.8.6 17.3-.8 0 0 1 1 2.7 1.6-15.4 4.5-32.4.3-21.5-3.3"/><path d="m26.864302 31c3.1 3.6-.8 6.8-.8 6.8s7.9-4.1 4.3-9.2c-3.4-4.8-6-7.2 8.1-15.3 0-.1-22.2 5.5-11.6 17.7"/><path d="m43.664302 55.3s1.8 1.5-2 2.7c-7.3 2.2-30.5 2.9-36.9.1-2.3-1 2-2.4 3.4-2.7s2.2-.3 2.2-.3c-2.6-1.8-16.6 3.6-7.1 5.1 25.8 4.2 47.1-1.8 40.4-4.9"/><path d="m16.564302 35.6s-11.8 2.8-4.2 3.8c3.2.4 9.6.3 15.6-.2 4.9-.4 9.8-1.3 9.8-1.3s-1.7.7-3 1.6c-12 3.1-35.00000002 1.7-28.4-1.5 5.6-2.7 10.2-2.4 10.2-2.4"/><path d="m37.664302 47.5c12.1-6.3 6.5-12.4 2.6-11.6-1 .2-1.4.4-1.4.4s.4-.6 1-.8c7.8-2.7 13.7 8-2.5 12.3.1 0 .2-.2.3-.3"/><path d="m30.364302 0s6.7 6.7-6.4 17.1c-10.5 8.3-2.4 13 0 18.4-6.1-5.5-10.6-10.4-7.6-14.9 4.4-6.7 16.7-9.9 14-20.6"/><path d="m17.764302 64.6c11.7.7 29.6-.4 30-5.9 0 0-.8 2.1-9.6 3.8-10 1.9-22.2 1.7-29.5.5-.1-.2 1.4 1.1 9.1 1.6"/><g stroke-width="2.059785"><path d="m164.50017 19.15476h-.82391v-.41196h2.05978v.41196h-.82391v2.05979h-.41196zm3.91359 0-.82391 1.85381h-.41196l-.82391-1.85381v1.85381h-.41196v-2.47175h.61794l.61793 1.64783.61794-1.64783h.61793v2.47175h-.41195z"/><path d="m100.02889 42.01838c-2.265771 2.05978-4.737511 3.08968-6.797291 3.08968-3.08968 0-4.73751-1.85381-4.73751-4.73751 0-3.08968 1.85381-5.56142 8.85708-5.56142h2.677721zm6.17935 7.20925v-21.83373c0-5.56142-3.08967-9.26903-10.916861-9.26903-4.53153 0-8.44512 1.02989-11.5348 2.47174l.82392 3.91359c2.47174-.82391 5.7674-1.8538 8.85707-1.8538 4.32555 0 6.38534 1.8538 6.38534 5.35544v2.67772h-2.26576c-10.71089 0-15.65437 4.11957-15.65437 10.5049 0 5.35545 3.08967 8.44512 9.26903 8.44512 3.91359 0 6.79729-1.64782 9.475011-3.91359l.41196 3.29566h5.14946z"/><path d="m127.01208 49.22763h-7.82719l-9.47501-30.48483h6.79729l5.7674 18.74405 1.23587 5.56142c2.8837-8.23914 4.94349-16.47828 5.97338-24.51145h6.59131c-1.23587 10.09295-4.53153 21.21579-9.06305 30.69081"/><path d="m157.08494 42.01838c-2.26576 2.05978-4.7375 3.08968-6.79729 3.08968-3.08968 0-4.73751-1.85381-4.73751-4.73751 0-3.08968 1.85381-5.56142 8.85708-5.56142h2.67772zm6.17936 7.20925v-21.83373c0-5.56142-3.08968-9.26903-10.91686-9.26903-4.53153 0-8.44512 1.02989-11.5348 2.47174l.82391 3.91359c2.47174-.82391 5.7674-1.8538 8.85708-1.8538 4.32555 0 6.38533 1.8538 6.38533 5.35544v2.67772h-2.26576c-10.71088 0-15.65437 4.11957-15.65437 10.5049 0 5.35545 3.08968 8.44512 9.26904 8.44512 3.91359 0 6.79729-1.64782 9.47501-3.91359l.41196 3.29566h5.14946z"/><path d="m75.311459 54.37709c-1.8538 2.67772-4.7375 4.73751-7.82718 5.7674l-3.08968-3.70761c2.47174-1.23587 4.53153-3.29566 5.35544-5.14947.82392-1.64783 1.23587-3.70761 1.23587-8.85707v-34.8103797h6.59132v34.3984197c0 7.00327-.41196 9.68099-2.26577 12.35871"/></g></g></svg>