<?xml version="1.0" encoding="UTF-8" standalone="no"?>
<!-- Generator: Adobe Illustrator 22.1.0, SVG Export Plug-In . SVG Version: 6.00 Build 0)  -->

<svg
   xmlns:dc="http://purl.org/dc/elements/1.1/"
   xmlns:cc="http://creativecommons.org/ns#"
   xmlns:rdf="http://www.w3.org/1999/02/22-rdf-syntax-ns#"
   xmlns:svg="http://www.w3.org/2000/svg"
   xmlns="http://www.w3.org/2000/svg"
   xmlns:sodipodi="http://sodipodi.sourceforge.net/DTD/sodipodi-0.dtd"
   xmlns:inkscape="http://www.inkscape.org/namespaces/inkscape"
   version="1.1"
   id="svg2"
   inkscape:version="0.92.3 (2405546, 2018-03-11)"
   sodipodi:docname="java.svg"
   x="0px"
   y="0px"
   viewBox="0 0 50.5 94.400002"
   xml:space="preserve"
   width="50.5"
   height="94.400002"><metadata
   id="metadata207"><rdf:RDF><cc:Work
       rdf:about=""><dc:format>image/svg+xml</dc:format><dc:type
         rdf:resource="http://purl.org/dc/dcmitype/StillImage" /></cc:Work></rdf:RDF></metadata><defs
   id="defs205" /><sodipodi:namedview
   pagecolor="#ffffff"
   bordercolor="#666666"
   borderopacity="1"
   objecttolerance="10"
   gridtolerance="10"
   guidetolerance="10"
   inkscape:pageopacity="0"
   inkscape:pageshadow="2"
   inkscape:window-width="1366"
   inkscape:window-height="705"
   id="namedview203"
   showgrid="false"
   inkscape:zoom="0.18684896"
   inkscape:cx="-1325.18"
   inkscape:cy="-678.17575"
   inkscape:window-x="-8"
   inkscape:window-y="-8"
   inkscape:window-maximized="1"
   inkscape:current-layer="svg2" />
<style
   type="text/css"
   id="style2">
	.st0{fill:#F48821;}
	.st1{clip-path:url(#SVGID_2_);fill:#F48821;}
	.st2{clip-path:url(#SVGID_4_);fill:#F48821;}
	.st3{clip-path:url(#SVGID_6_);fill:#F48821;}
	.st4{clip-path:url(#SVGID_8_);fill:#F48821;}
	.st5{clip-path:url(#SVGID_10_);fill:#F48821;}
	.st6{clip-path:url(#SVGID_12_);fill:#F48821;}
	.st7{clip-path:url(#SVGID_14_);fill:#F48821;}
	.st8{clip-path:url(#SVGID_16_);fill:#F48821;}
	.st9{clip-path:url(#SVGID_18_);fill:#F48821;}
	.st10{fill:none;stroke:#F48821;stroke-width:1.1256;stroke-dasharray:4.2331;}
	.st11{fill:none;}
	.st12{fill:#FFFFFF;}
	.st13{fill:none;stroke:#F48821;stroke-width:0.5;stroke-miterlimit:10;}
</style>






<g
   id="g70"
   transform="translate(-355.9,-262.5)">
	<path
   id="path3829-6"
   inkscape:connector-curvature="0"
   class="st0"
   d="m 404.5,337 h -0.4 v -0.2 h 1 v 0.2 h -0.4 v 1 h -0.2 z m 1.9,0 v 0 l -0.4,0.9 h -0.2 l -0.4,-0.9 v 0 0.9 h -0.2 v -1.2 h 0.3 l 0.3,0.8 0.3,-0.8 h 0.3 v 1.2 h -0.2 z"
   style="fill:#f48821" />
	<path
   id="path3831-6"
   inkscape:connector-curvature="0"
   class="st0"
   d="m 372.7,312.6 c 0,0 -2.5,1.4 1.8,1.9 5.1,0.6 7.8,0.5 13.4,-0.6 0,0 1.5,0.9 3.6,1.7 -12.8,5.5 -28.8,-0.2 -18.8,-3"
   style="fill:#f48821" />
	<path
   id="path3833-2"
   inkscape:connector-curvature="0"
   class="st0"
   d="m 371.1,305.5 c 0,0 -2.8,2.1 1.5,2.5 5.5,0.6 9.8,0.6 17.3,-0.8 0,0 1,1 2.7,1.6 -15.4,4.5 -32.4,0.3 -21.5,-3.3"
   style="fill:#f48821" />
	<path
   id="path3835-2"
   inkscape:connector-curvature="0"
   class="st0"
   d="m 384.2,293.5 c 3.1,3.6 -0.8,6.8 -0.8,6.8 0,0 7.9,-4.1 4.3,-9.2 -3.4,-4.8 -6,-7.2 8.1,-15.3 0,-0.1 -22.2,5.5 -11.6,17.7"
   style="fill:#f48821" />
	<path
   id="path3837-4"
   inkscape:connector-curvature="0"
   class="st0"
   d="m 401,317.8 c 0,0 1.8,1.5 -2,2.7 -7.3,2.2 -30.5,2.9 -36.9,0.1 -2.3,-1 2,-2.4 3.4,-2.7 1.4,-0.3 2.2,-0.3 2.2,-0.3 -2.6,-1.8 -16.6,3.6 -7.1,5.1 25.8,4.2 47.1,-1.8 40.4,-4.9"
   style="fill:#f48821" />
	<path
   id="path3839-3"
   inkscape:connector-curvature="0"
   class="st0"
   d="m 373.9,298.1 c 0,0 -11.8,2.8 -4.2,3.8 3.2,0.4 9.6,0.3 15.6,-0.2 4.9,-0.4 9.8,-1.3 9.8,-1.3 0,0 -1.7,0.7 -3,1.6 -12,3.1 -35,1.7 -28.4,-1.5 5.6,-2.7 10.2,-2.4 10.2,-2.4"
   style="fill:#f48821" />
	<path
   id="path3841-9"
   inkscape:connector-curvature="0"
   class="st0"
   d="m 395,310 c 12.1,-6.3 6.5,-12.4 2.6,-11.6 -1,0.2 -1.4,0.4 -1.4,0.4 0,0 0.4,-0.6 1,-0.8 7.8,-2.7 13.7,8 -2.5,12.3 0.1,0 0.2,-0.2 0.3,-0.3"
   style="fill:#f48821" />
	<path
   id="path3843-8"
   inkscape:connector-curvature="0"
   class="st0"
   d="m 387.7,262.5 c 0,0 6.7,6.7 -6.4,17.1 -10.5,8.3 -2.4,13 0,18.4 -6.1,-5.5 -10.6,-10.4 -7.6,-14.9 4.4,-6.7 16.7,-9.9 14,-20.6"
   style="fill:#f48821" />
	<path
   id="path3845-1"
   inkscape:connector-curvature="0"
   class="st0"
   d="m 375.1,327.1 c 11.7,0.7 29.6,-0.4 30,-5.9 0,0 -0.8,2.1 -9.6,3.8 -10,1.9 -22.2,1.7 -29.5,0.5 -0.1,-0.2 1.4,1.1 9.1,1.6"
   style="fill:#f48821" />
	<path
   id="path3847-4"
   inkscape:connector-curvature="0"
   class="st0"
   d="m 373.2,348.1 c -1.1,1 -2.3,1.5 -3.3,1.5 -1.5,0 -2.3,-0.9 -2.3,-2.3 0,-1.5 0.9,-2.7 4.3,-2.7 h 1.3 v 3.5 m 3,3.5 V 341 c 0,-2.7 -1.5,-4.5 -5.3,-4.5 -2.2,0 -4.1,0.5 -5.6,1.2 l 0.4,1.9 c 1.2,-0.4 2.8,-0.9 4.3,-0.9 2.1,0 3.1,0.9 3.1,2.6 v 1.3 H 372 c -5.2,0 -7.6,2 -7.6,5.1 0,2.6 1.5,4.1 4.5,4.1 1.9,0 3.3,-0.8 4.6,-1.9 l 0.2,1.6 h 2.5 z"
   style="fill:#f48821" />
	<path
   id="path3849-6"
   inkscape:connector-curvature="0"
   class="st0"
   d="m 386.3,351.6 h -3.8 l -4.6,-14.8 h 3.3 l 2.8,9.1 0.6,2.7 c 1.4,-4 2.4,-8 2.9,-11.9 h 3.2 c -0.6,4.9 -2.2,10.3 -4.4,14.9"
   style="fill:#f48821" />
	<path
   id="path3851-9"
   inkscape:connector-curvature="0"
   class="st0"
   d="m 400.9,348.1 c -1.1,1 -2.3,1.5 -3.3,1.5 -1.5,0 -2.3,-0.9 -2.3,-2.3 0,-1.5 0.9,-2.7 4.3,-2.7 h 1.3 v 3.5 m 3,3.5 V 341 c 0,-2.7 -1.5,-4.5 -5.3,-4.5 -2.2,0 -4.1,0.5 -5.6,1.2 l 0.4,1.9 c 1.2,-0.4 2.8,-0.9 4.3,-0.9 2.1,0 3.1,0.9 3.1,2.6 v 1.3 h -1.1 c -5.2,0 -7.6,2 -7.6,5.1 0,2.6 1.5,4.1 4.5,4.1 1.9,0 3.3,-0.8 4.6,-1.9 l 0.2,1.6 h 2.5 z"
   style="fill:#f48821" />
	<path
   id="path3853-1"
   inkscape:connector-curvature="0"
   class="st0"
   d="m 361.2,354.1 c -0.9,1.3 -2.3,2.3 -3.8,2.8 l -1.5,-1.8 c 1.2,-0.6 2.2,-1.6 2.6,-2.5 0.4,-0.8 0.6,-1.8 0.6,-4.3 v -16.9 h 3.2 v 16.7 c 0,3.4 -0.2,4.7 -1.1,6"
   style="fill:#f48821" />
</g>






</svg>