<svg viewBox="0 0 630 630" xmlns="http://www.w3.org/2000/svg"><path d="m0 0v630h630v-630zm479.5 285.89062c37.64 0 64.69922 13.09844 84.19922 47.39844l-46.09961 29.60156c-10.15-18.19999-21.09961-25.37109-38.09961-25.37109-17.34 0-28.33008 11.00109-28.33008 25.37109 0 17.76 11.00039 24.94922 36.40039 35.94922l14.79883 6.33985c50.3 21.57 78.70117 43.56 78.70117 93 0 53.3-41.86961 82.5-98.09961 82.5-54.98 0-90.50086-26.19907-107.88086-60.53907l48.10938-27.95117c12.69 20.72 29.20039 35.95117 58.40039 35.95117 24.53 0 40.20117-12.26117 40.20117-29.20117 0-20.3-16.10156-27.48882-43.10156-39.29883l-14.79883-6.35156c-42.72-18.2-71.09961-40.99922-71.09961-89.19922 0-44.4 33.82922-78.19921 86.69922-78.19922zm-195.60938 3.37891h59.19922v202.09961c0 61.3-35.94039 89.20117-88.40039 89.20117-47.4 0-74.84859-24.53117-88.80859-54.07617l48.18945-29.17383c9.3 16.5 17.75961 30.44922 38.09961 30.44922 19.45 0 31.72071-7.60922 31.7207-37.19922z" fill="#f48821"/></svg>