<?xml version="1.0" encoding="UTF-8" standalone="no"?>
<!-- Generator: Adobe Illustrator 22.1.0, SVG Export Plug-In . SVG Version: 6.00 Build 0)  -->

<svg
   xmlns:dc="http://purl.org/dc/elements/1.1/"
   xmlns:cc="http://creativecommons.org/ns#"
   xmlns:rdf="http://www.w3.org/1999/02/22-rdf-syntax-ns#"
   xmlns:svg="http://www.w3.org/2000/svg"
   xmlns="http://www.w3.org/2000/svg"
   xmlns:sodipodi="http://sodipodi.sourceforge.net/DTD/sodipodi-0.dtd"
   xmlns:inkscape="http://www.inkscape.org/namespaces/inkscape"
   version="1.1"
   id="svg2"
   inkscape:version="0.92.3 (2405546, 2018-03-11)"
   sodipodi:docname="java-2.svg"
   x="0px"
   y="0px"
   viewBox="0 0 168.41376 64.788224"
   xml:space="preserve"
   width="168.41376"
   height="64.788223"
   inkscape:export-filename="F:\Github\haxe.org22\buttons\icons\java-2.png"
   inkscape:export-xdpi="300"
   inkscape:export-ydpi="300"><metadata
   id="metadata207"><rdf:RDF><cc:Work
       rdf:about=""><dc:format>image/svg+xml</dc:format><dc:type
         rdf:resource="http://purl.org/dc/dcmitype/StillImage" /></cc:Work></rdf:RDF></metadata><defs
   id="defs205">
	
	
	
	
	
	
	
	
	
	
	
	
	
</defs><sodipodi:namedview
   pagecolor="#ffffff"
   bordercolor="#666666"
   borderopacity="1"
   objecttolerance="10"
   gridtolerance="10"
   guidetolerance="10"
   inkscape:pageopacity="0"
   inkscape:pageshadow="2"
   inkscape:window-width="1366"
   inkscape:window-height="705"
   id="namedview203"
   showgrid="false"
   inkscape:zoom="0.74739584"
   inkscape:cx="-76.527976"
   inkscape:cy="95.399408"
   inkscape:window-x="-8"
   inkscape:window-y="-8"
   inkscape:window-maximized="1"
   inkscape:current-layer="svg2" />
<style
   type="text/css"
   id="style2">
	.st0{fill:#F48821;}
	.st1{clip-path:url(#SVGID_2_);fill:#F48821;}
	.st2{clip-path:url(#SVGID_4_);fill:#F48821;}
	.st3{clip-path:url(#SVGID_6_);fill:#F48821;}
	.st4{clip-path:url(#SVGID_8_);fill:#F48821;}
	.st5{clip-path:url(#SVGID_10_);fill:#F48821;}
	.st6{clip-path:url(#SVGID_12_);fill:#F48821;}
	.st7{clip-path:url(#SVGID_14_);fill:#F48821;}
	.st8{clip-path:url(#SVGID_16_);fill:#F48821;}
	.st9{clip-path:url(#SVGID_18_);fill:#F48821;}
	.st10{fill:none;stroke:#F48821;stroke-width:1.1256;stroke-dasharray:4.2331;}
	.st11{fill:none;}
	.st12{fill:#FFFFFF;}
	.st13{fill:none;stroke:#F48821;stroke-width:0.5;stroke-miterlimit:10;}
</style>






<path
   style="fill:#f48821"
   d="m 15.364302,50.1 c 0,0 -2.5,1.4 1.8,1.9 5.1,0.6 7.8,0.5 13.4,-0.6 0,0 1.5,0.9 3.6,1.7 -12.8,5.5 -28.8,-0.2 -18.8,-3"
   class="st0"
   inkscape:connector-curvature="0"
   id="path3831-6" /><path
   style="fill:#f48821"
   d="m 13.764302,43 c 0,0 -2.8,2.1 1.5,2.5 5.5,0.6 9.8,0.6 17.3,-0.8 0,0 1,1 2.7,1.6 -15.4,4.5 -32.4,0.3 -21.5,-3.3"
   class="st0"
   inkscape:connector-curvature="0"
   id="path3833-2" /><path
   style="fill:#f48821"
   d="m 26.864302,31 c 3.1,3.6 -0.8,6.8 -0.8,6.8 0,0 7.9,-4.1 4.3,-9.2 -3.4,-4.8 -6,-7.2 8.1,-15.3 0,-0.1 -22.2,5.5 -11.6,17.7"
   class="st0"
   inkscape:connector-curvature="0"
   id="path3835-2" /><path
   style="fill:#f48821"
   d="m 43.664302,55.3 c 0,0 1.8,1.5 -2,2.7 -7.3,2.2 -30.5,2.9 -36.9,0.1 -2.3,-1 2,-2.4 3.4,-2.7 1.4,-0.3 2.2,-0.3 2.2,-0.3 -2.6,-1.8 -16.6,3.6 -7.1,5.1 25.8,4.2 47.1,-1.8 40.4,-4.9"
   class="st0"
   inkscape:connector-curvature="0"
   id="path3837-4" /><path
   style="fill:#f48821"
   d="m 16.564302,35.6 c 0,0 -11.8,2.8 -4.2,3.8 3.2,0.4 9.6,0.3 15.6,-0.2 4.9,-0.4 9.8,-1.3 9.8,-1.3 0,0 -1.7,0.7 -3,1.6 -12,3.1 -35.00000002,1.7 -28.4,-1.5 5.6,-2.7 10.2,-2.4 10.2,-2.4"
   class="st0"
   inkscape:connector-curvature="0"
   id="path3839-3" /><path
   style="fill:#f48821"
   d="m 37.664302,47.5 c 12.1,-6.3 6.5,-12.4 2.6,-11.6 -1,0.2 -1.4,0.4 -1.4,0.4 0,0 0.4,-0.6 1,-0.8 7.8,-2.7 13.7,8 -2.5,12.3 0.1,0 0.2,-0.2 0.3,-0.3"
   class="st0"
   inkscape:connector-curvature="0"
   id="path3841-9" /><path
   style="fill:#f48821"
   d="m 30.364302,0 c 0,0 6.7,6.7 -6.4,17.1 -10.5,8.3 -2.4,13 0,18.4 -6.1,-5.5 -10.6,-10.4 -7.6,-14.9 4.4,-6.7 16.7,-9.9 14,-20.6"
   class="st0"
   inkscape:connector-curvature="0"
   id="path3843-8" /><path
   style="fill:#f48821"
   d="m 17.764302,64.6 c 11.7,0.7 29.6,-0.4 30,-5.9 0,0 -0.8,2.1 -9.6,3.8 -10,1.9 -22.2,1.7 -29.5,0.5 -0.1,-0.2 1.4,1.1 9.1,1.6"
   class="st0"
   inkscape:connector-curvature="0"
   id="path3845-1" />






<path
   style="fill:#f48821;stroke-width:2.05978537"
   d="m 164.50017,19.15476 h -0.82391 V 18.7428 h 2.05978 v 0.41196 h -0.82391 v 2.05979 h -0.41196 z m 3.91359,0 v 0 l -0.82391,1.85381 h -0.41196 l -0.82391,-1.85381 v 0 1.85381 h -0.41196 v -2.47175 h 0.61794 l 0.61793,1.64783 0.61794,-1.64783 h 0.61793 v 2.47175 h -0.41195 z"
   class="st0"
   inkscape:connector-curvature="0"
   id="path3829-6" /><path
   style="fill:#f48821;stroke-width:2.05978537"
   d="m 100.02889,42.01838 c -2.265771,2.05978 -4.737511,3.08968 -6.797291,3.08968 -3.08968,0 -4.73751,-1.85381 -4.73751,-4.73751 0,-3.08968 1.85381,-5.56142 8.85708,-5.56142 h 2.677721 v 7.20925 m 6.17935,7.20925 V 27.3939 c 0,-5.56142 -3.08967,-9.26903 -10.916861,-9.26903 -4.53153,0 -8.44512,1.02989 -11.5348,2.47174 l 0.82392,3.91359 c 2.47174,-0.82391 5.7674,-1.8538 8.85707,-1.8538 4.32555,0 6.38534,1.8538 6.38534,5.35544 v 2.67772 h -2.26576 c -10.71089,0 -15.65437,4.11957 -15.65437,10.5049 0,5.35545 3.08967,8.44512 9.26903,8.44512 3.91359,0 6.79729,-1.64782 9.475011,-3.91359 l 0.41196,3.29566 h 5.14946 z"
   class="st0"
   inkscape:connector-curvature="0"
   id="path3847-4" /><path
   style="fill:#f48821;stroke-width:2.05978537"
   d="m 127.01208,49.22763 h -7.82719 L 109.70988,18.7428 h 6.79729 l 5.7674,18.74405 1.23587,5.56142 c 2.8837,-8.23914 4.94349,-16.47828 5.97338,-24.51145 h 6.59131 c -1.23587,10.09295 -4.53153,21.21579 -9.06305,30.69081"
   class="st0"
   inkscape:connector-curvature="0"
   id="path3849-6" /><path
   style="fill:#f48821;stroke-width:2.05978537"
   d="m 157.08494,42.01838 c -2.26576,2.05978 -4.7375,3.08968 -6.79729,3.08968 -3.08968,0 -4.73751,-1.85381 -4.73751,-4.73751 0,-3.08968 1.85381,-5.56142 8.85708,-5.56142 h 2.67772 v 7.20925 m 6.17936,7.20925 V 27.3939 c 0,-5.56142 -3.08968,-9.26903 -10.91686,-9.26903 -4.53153,0 -8.44512,1.02989 -11.5348,2.47174 l 0.82391,3.91359 c 2.47174,-0.82391 5.7674,-1.8538 8.85708,-1.8538 4.32555,0 6.38533,1.8538 6.38533,5.35544 v 2.67772 h -2.26576 c -10.71088,0 -15.65437,4.11957 -15.65437,10.5049 0,5.35545 3.08968,8.44512 9.26904,8.44512 3.91359,0 6.79729,-1.64782 9.47501,-3.91359 l 0.41196,3.29566 h 5.14946 z"
   class="st0"
   inkscape:connector-curvature="0"
   id="path3851-9" /><path
   style="fill:#f48821;stroke-width:2.05978537"
   d="m 75.311459,54.37709 c -1.8538,2.67772 -4.7375,4.73751 -7.82718,5.7674 l -3.08968,-3.70761 c 2.47174,-1.23587 4.53153,-3.29566 5.35544,-5.14947 0.82392,-1.64783 1.23587,-3.70761 1.23587,-8.85707 V 7.6199603 h 6.59132 V 42.01838 c 0,7.00327 -0.41196,9.68099 -2.26577,12.35871"
   class="st0"
   inkscape:connector-curvature="0"
   id="path3853-1" /></svg>