<svg height="98.14595" viewBox="0 0 98.158783 98.14595" width="98.158783" xmlns="http://www.w3.org/2000/svg"><g transform="translate(-452.12061 -263.53344)"><g fill="none"><path d="m544.4 290.6c12.2 23.9 2.7 53.1-21.2 65.2-23.9 12.2-53.1 2.7-65.2-21.2-12.2-23.9-2.7-53.1 21.2-65.2 15.4-7.9 33.9-6.9 48.4 2.5" stroke="#f48821" stroke-dasharray="4.2331" stroke-width="1.1256"/><path d="m478.9 306.7h-3.1v24.6h15.3v-2.7h-12.2z"/><path d="m505.1 313.6v9.8c0 3.6-1.9 6-4.8 6-2.2 0-3.6-1.4-3.6-3.5v-12.3h-2.8v13.4c0 2.9 2.2 4.8 5.6 4.8 2.6 0 4.3-.9 5.9-3.2v2.7h2.5v-17.7z"/><path d="m527.9 329.2c-1 0-1.5-.5-1.5-1.4v-9.8c0-3.1-2.3-4.8-6.7-4.8-4.3 0-6.9 1.7-7.1 5.7h2.8c.2-2.2 1.5-3.1 4.2-3.1 2.5 0 4 .9 4 2.6v.7c0 1.2-.7 1.7-2.9 2-4 .5-4.6.6-5.7 1.1-2.1.8-3.1 2.4-3.1 4.6 0 3.2 2.2 5.1 5.8 5.1 2.3 0 4.5-.9 6-2.6.3 1.4 1.5 2.3 2.9 2.3.6 0 1-.1 1.9-.3v-2.1c-.3 0-.4 0-.6 0zm-4.3-4c0 2.5-2.6 4.2-5.3 4.2-2.2 0-3.5-.8-3.5-2.7s1.2-2.7 4.3-3.1c3-.4 3.6-.5 4.5-1z"/></g><path d="m501.2 275.1c-20.7 0-37.5 16.8-37.5 37.5s16.8 37.5 37.5 37.5 37.5-16.8 37.5-37.5-16.8-37.5-37.5-37.5zm-25.4 56.2v-24.6h3.1v21.8h12.2v2.8zm32.1 0h-2.5v-2.7c-1.7 2.3-3.3 3.2-5.9 3.2-3.4 0-5.6-1.9-5.6-4.8v-13.4h2.8v12.3c0 2.1 1.4 3.5 3.6 3.5 2.9 0 4.8-2.4 4.8-6v-9.8h2.8zm-2.1-34.3c0-6.1 4.9-11 11-11s11 4.9 11 11-4.9 11-11 11-11-4.9-11-11zm22.7 34.3c-.9.2-1.4.3-1.9.3-1.4 0-2.6-1-2.9-2.3-1.6 1.7-3.7 2.6-6 2.6-3.6 0-5.8-1.9-5.8-5.1 0-2.2 1-3.7 3.1-4.6 1.1-.4 1.7-.6 5.7-1.1 2.2-.3 2.9-.8 2.9-2v-.7c0-1.7-1.4-2.6-4-2.6s-3.9 1-4.2 3.1h-2.8c.2-4.1 2.8-5.7 7.1-5.7 4.4 0 6.7 1.7 6.7 4.8v9.9c0 .9.5 1.4 1.5 1.4.2 0 .3 0 .6-.1z" fill="#f48821"/><path d="m514.8 326.7c0 1.9 1.3 2.7 3.5 2.7 2.7 0 5.3-1.6 5.3-4.2v-2.6c-.9.4-1.6.6-4.5 1-3 .4-4.3 1.2-4.3 3.1z" fill="#f48821"/><circle cx="538.70001" cy="275.10001" fill="#f48821" r="11"/></g></svg>