<?xml version="1.0" encoding="UTF-8" standalone="no"?>
<!-- Generator: Adobe Illustrator 22.1.0, SVG Export Plug-In . SVG Version: 6.00 Build 0)  -->

<svg
   xmlns:dc="http://purl.org/dc/elements/1.1/"
   xmlns:cc="http://creativecommons.org/ns#"
   xmlns:rdf="http://www.w3.org/1999/02/22-rdf-syntax-ns#"
   xmlns:svg="http://www.w3.org/2000/svg"
   xmlns="http://www.w3.org/2000/svg"
   xmlns:sodipodi="http://sodipodi.sourceforge.net/DTD/sodipodi-0.dtd"
   xmlns:inkscape="http://www.inkscape.org/namespaces/inkscape"
   version="1.1"
   id="svg2"
   inkscape:version="0.92.3 (2405546, 2018-03-11)"
   sodipodi:docname="lua.svg"
   x="0px"
   y="0px"
   viewBox="0 0 98.158783 98.14595"
   xml:space="preserve"
   width="98.158783"
   height="98.14595"><metadata
   id="metadata207"><rdf:RDF><cc:Work
       rdf:about=""><dc:format>image/svg+xml</dc:format><dc:type
         rdf:resource="http://purl.org/dc/dcmitype/StillImage" /></cc:Work></rdf:RDF></metadata><defs
   id="defs205" /><sodipodi:namedview
   pagecolor="#ffffff"
   bordercolor="#666666"
   borderopacity="1"
   objecttolerance="10"
   gridtolerance="10"
   guidetolerance="10"
   inkscape:pageopacity="0"
   inkscape:pageshadow="2"
   inkscape:window-width="1366"
   inkscape:window-height="705"
   id="namedview203"
   showgrid="false"
   inkscape:zoom="0.18684896"
   inkscape:cx="-1421.4006"
   inkscape:cy="-673.39636"
   inkscape:window-x="-8"
   inkscape:window-y="-8"
   inkscape:window-maximized="1"
   inkscape:current-layer="svg2" />
<style
   type="text/css"
   id="style2">
	.st0{fill:#F48821;}
	.st1{clip-path:url(#SVGID_2_);fill:#F48821;}
	.st2{clip-path:url(#SVGID_4_);fill:#F48821;}
	.st3{clip-path:url(#SVGID_6_);fill:#F48821;}
	.st4{clip-path:url(#SVGID_8_);fill:#F48821;}
	.st5{clip-path:url(#SVGID_10_);fill:#F48821;}
	.st6{clip-path:url(#SVGID_12_);fill:#F48821;}
	.st7{clip-path:url(#SVGID_14_);fill:#F48821;}
	.st8{clip-path:url(#SVGID_16_);fill:#F48821;}
	.st9{clip-path:url(#SVGID_18_);fill:#F48821;}
	.st10{fill:none;stroke:#F48821;stroke-width:1.1256;stroke-dasharray:4.2331;}
	.st11{fill:none;}
	.st12{fill:#FFFFFF;}
	.st13{fill:none;stroke:#F48821;stroke-width:0.5;stroke-miterlimit:10;}
</style>











<g
   id="Layer_2_1_"
   transform="translate(-452.12061,-263.53344)">
	<g
   id="g190">
		<path
   class="st10"
   d="m 544.4,290.6 c 12.2,23.9 2.7,53.1 -21.2,65.2 -23.9,12.2 -53.1,2.7 -65.2,-21.2 -12.2,-23.9 -2.7,-53.1 21.2,-65.2 15.4,-7.9 33.9,-6.9 48.4,2.5"
   id="path174"
   inkscape:connector-curvature="0"
   style="fill:none;stroke:#f48821;stroke-width:1.12559998;stroke-dasharray:4.2331" />
		<polygon
   class="st11"
   points="478.9,306.7 475.8,306.7 475.8,331.3 491.1,331.3 491.1,331.3 491.1,328.6 478.9,328.6 "
   id="polygon176"
   style="fill:none" />
		<path
   class="st11"
   d="m 505.1,313.6 v 9.8 c 0,3.6 -1.9,6 -4.8,6 -2.2,0 -3.6,-1.4 -3.6,-3.5 v -12.3 h -2.8 V 327 c 0,2.9 2.2,4.8 5.6,4.8 2.6,0 4.3,-0.9 5.9,-3.2 v 2.7 h 2.5 v -17.7 z"
   id="path178"
   inkscape:connector-curvature="0"
   style="fill:none" />
		<path
   class="st11"
   d="m 527.9,329.2 c -1,0 -1.5,-0.5 -1.5,-1.4 V 318 c 0,-3.1 -2.3,-4.8 -6.7,-4.8 -4.3,0 -6.9,1.7 -7.1,5.7 h 2.8 c 0.2,-2.2 1.5,-3.1 4.2,-3.1 2.5,0 4,0.9 4,2.6 v 0.7 c 0,1.2 -0.7,1.7 -2.9,2 -4,0.5 -4.6,0.6 -5.7,1.1 -2.1,0.8 -3.1,2.4 -3.1,4.6 0,3.2 2.2,5.1 5.8,5.1 2.3,0 4.5,-0.9 6,-2.6 0.3,1.4 1.5,2.3 2.9,2.3 0.6,0 1,-0.1 1.9,-0.3 v 0 -2.1 c -0.3,0 -0.4,0 -0.6,0 z m -4.3,-4 c 0,2.5 -2.6,4.2 -5.3,4.2 -2.2,0 -3.5,-0.8 -3.5,-2.7 0,-1.9 1.2,-2.7 4.3,-3.1 3,-0.4 3.6,-0.5 4.5,-1 z"
   id="path180"
   inkscape:connector-curvature="0"
   style="fill:none" />
		<path
   class="st0"
   d="m 501.2,275.1 c -20.7,0 -37.5,16.8 -37.5,37.5 0,20.7 16.8,37.5 37.5,37.5 20.7,0 37.5,-16.8 37.5,-37.5 0,-20.7 -16.8,-37.5 -37.5,-37.5 z m -25.4,56.2 v -24.6 h 3.1 v 21.8 h 12.2 v 2.8 0 z m 32.1,0 v 0 h -2.5 v -2.7 c -1.7,2.3 -3.3,3.2 -5.9,3.2 -3.4,0 -5.6,-1.9 -5.6,-4.8 v -13.4 h 2.8 v 12.3 c 0,2.1 1.4,3.5 3.6,3.5 2.9,0 4.8,-2.4 4.8,-6 v -9.8 h 2.8 v 17.7 z M 505.8,297 c 0,-6.1 4.9,-11 11,-11 6.1,0 11,4.9 11,11 0,6.1 -4.9,11 -11,11 -6.1,0 -11,-4.9 -11,-11 z m 22.7,34.3 c -0.9,0.2 -1.4,0.3 -1.9,0.3 -1.4,0 -2.6,-1 -2.9,-2.3 -1.6,1.7 -3.7,2.6 -6,2.6 -3.6,0 -5.8,-1.9 -5.8,-5.1 0,-2.2 1,-3.7 3.1,-4.6 1.1,-0.4 1.7,-0.6 5.7,-1.1 2.2,-0.3 2.9,-0.8 2.9,-2 v -0.7 c 0,-1.7 -1.4,-2.6 -4,-2.6 -2.6,0 -3.9,1 -4.2,3.1 h -2.8 c 0.2,-4.1 2.8,-5.7 7.1,-5.7 4.4,0 6.7,1.7 6.7,4.8 v 9.9 c 0,0.9 0.5,1.4 1.5,1.4 0.2,0 0.3,0 0.6,-0.1 v 2.1 z"
   id="path182"
   inkscape:connector-curvature="0"
   style="fill:#f48821" />
		<path
   class="st0"
   d="m 514.8,326.7 c 0,1.9 1.3,2.7 3.5,2.7 2.7,0 5.3,-1.6 5.3,-4.2 v -2.6 c -0.9,0.4 -1.6,0.6 -4.5,1 -3,0.4 -4.3,1.2 -4.3,3.1 z"
   id="path184"
   inkscape:connector-curvature="0"
   style="fill:#f48821" />
		<path
   class="st12"
   d="M 507.9,331.3 Z"
   id="path186"
   inkscape:connector-curvature="0"
   style="fill:#ffffff" />
		<circle
   class="st0"
   cx="538.70001"
   cy="275.10001"
   r="11"
   id="circle188"
   style="fill:#f48821" />
	</g>
</g>

</svg>