<svg height="94.400002" viewBox="0 0 92.199997 94.400002" width="92.199997" xmlns="http://www.w3.org/2000/svg"><g fill="#f48821" transform="translate(-543.8 -10.1)"><path d="m563.8 71.8s4.5-5.4 11.3-6.4c-4.2-.1-5.6 1.1-6.8.2s1.6-3.6 1.6-3.6-9.2 5.3-6.1 9.8z"/><path d="m573.5 43.2s6.7 5.5 8.2 3c1.6-2.5-3.3-3.1-8.2-3z"/><path d="m606.4 43.1s-6.7 5.5-8.2 3 3.4-3.1 8.2-3z"/><path d="m616.6 71.8s-4.5-5.4-11.3-6.4c4.2-.1 5.6 1.1 6.8.2s-1.6-3.6-1.6-3.6 9.2 5.3 6.1 9.8z"/><path d="m561.3 21c-.3 1.2.2 4 .2 4s2.3 3 3.3 5.8 1.3 4.7-1.6 11.2c-2.3 4.5-2.4 8-3.1 9.4-1.2 2.3-2 1.3-1.8 7.1 0 0 8.1-6.3 5.5-7.8-1.9-1.2 1.5-4.1 7.7-4.9-2.5-2.4-.5-6 3.9-5.4s7.5 3.7 11.4 5.6c1 .5 1.5-1.5.6-2.4-1.2-1.3-3-1.6-3-2.9 0-1 2.9-1.7 2.3-3.2-.9-2.5-4.9-.6-5.8-2.3-1-1.8-.2-2.7 1.7-3s-.1-6.3-5.1-4.2c-5.1 2.1-6.7.5-9.8-2.6-2.2-2.2-4.2-3.5-6.4-4.4zm2 4.9c6.5 2.2 8.3 6.1 8.3 6.1s-1.9 1.9-4.8 2.9c1.3-6.8-3.5-9-3.5-9z"/><path d="m617.9 21c.3 1.2-.2 4-.2 4s-2.3 3-3.3 5.8-1.3 4.7 1.6 11.2c2.3 4.5 2.4 8 3.1 9.4 1.2 2.3 2 1.3 1.8 7.1 0 0-8.1-6.3-5.5-7.8 1.9-1.2-1.5-4.1-7.7-4.9 2.5-2.4.5-6-3.9-5.4s-7.5 3.7-11.4 5.6c-1 .5-1.5-1.5-.6-2.4 1.2-1.3 3-1.6 3-2.9 0-1-2.9-1.7-2.3-3.2.9-2.5 4.9-.6 5.8-2.3 1-1.8.2-2.7-1.7-3s.1-6.3 5.2-4.2 6.7.5 9.8-2.6c2.1-2.2 4.1-3.5 6.3-4.4zm-1.9 4.9c-6.5 2.2-8.3 6.1-8.3 6.1s1.9 1.9 4.8 2.9c-1.3-6.8 3.5-9 3.5-9z"/><path d="m555.3 10.1c-1.2 11.3 5.4 21.5 5.9 22.8.5 1.4.3 3.5-1.2 5.1-4.4 5.4-6 21.9-5.9 28.2s1.8 7.1 1.8 7.1.2-.8 1.1-2.2c.1 3.1 1.2 8.9 7 14.3 1.6-12.9 13.1-13.4 16.2-12.9.1 1.6 3.3 10.1 3.7 10.6s7.9 3.1 11.8.1 1.3-6.5 4.4-10.7c12.4-1.6 16.2 8.9 15.7 13.1 4.8-4.8 5.8-10.6 5.8-10.6s1.3.9 2 1.6c6.1-18.7-3.6-38.1-5.7-41.8 7.3-15 6.3-20.6 5.7-24.1-5.2 4.6-16.4 12.1-19.9 12.1s-5.3-2-10.2-2.9c0 1.9-3.5 6-3.5 6s-2.5-3.1-3.9-6c-4.5-.2-7.3 3.6-10.8 2.7-7.5-1.9-20-12.5-20-12.5zm65.2 6s1 2.4.4 3.5-1.5 3.6-1.9 5.2c-.5 1.6-1.4 5.2-2.3 6.7-1 1.5-2.1 3 1.7 9.6s5.7 20.9 3.6 20.9c-2 0-5.2-5.3-9.3-7s-7.8-1.8-11.2-1.8c-2.1.1-4.7.8-4.9 2.3-.1 1 1.4.7 3.7 1.3 2.4.7 2 1.7 1.5 2.8s-2.7.2-4.9-.3c-2.1-.5-4.6-1.5-4.4-2.2.6-2 2.6-2.3 2.6-4.5 0-1.2-2.3-2.9-5.1-2.9s-3.8.8-4.6 2.1c-.8 1.4 1.2 3.4 1.9 4.5 1 1.8-3.9 4.7-7.2 3.9s.1-3.9 2.7-4.1c3.3-.3 0-2.7-4.5-2.7s-6.2.8-8.7 1.8-5.8 1.6-12.2 7.2c-1-12.2 4.7-21.8 5.6-23.1s1.9-3.1 1.2-4.9c-4.1-9.3-5.2-18.1-5.2-18.1s4.9 3.7 10.3 7.4 9.1 2.3 15 .4c1.6 8.7 6 12.2 6 12.2 3.5-3.1 4.8-8.7 4.4-10.3-.4-1.7-.1-3.4 3.5-1.9 5.9 1.9 7.1 1.8 12.3-.7s10-7.3 10-7.3zm-46.4 42c3.2 4 3.3 4 6.9 4.4 1.5 4 .6 5.3 5.3 13.6 0-.4.1-13.1.1-13.1s1.5.3 1.4 1.6c.1 1.5 0 2.9 0 2.9l1.3-1.4 1.1 1.4 1.3-1.3 1.2 1.3s.1-2.2.1-3.1c0-.6 1.4-1.6 1.4-1.6v6.5l-.7 7.1s3.5-5.1 4.7-13c4.7-1.6 6.9-3.4 6.9-5.2 3.4-.6 14.4 2.8 15 10.3-.2 3.8-1.8 8.2-1.8 8.2s-5-8.2-19.2-7.5c-2.8 4.5-3.4 7.9-3.8 10.4-.5 2.2-2.8 2.7-4.5 2.7s-4-.9-5.1-2.3c-1.2-1.5-2.7-9-4.3-10.8-2.9-1.3-14.8.8-19.4 7.9-2.7-8.5-1.3-18.2 12.1-19z"/><path d="m587.6 76.2h5.1v-3.1l-1.4 1.4-1.1-1.3-1.1 1.2-1.3-1.3z"/><path d="m543.8 92.2h3.4l10 8v-8h3.4v12.2h-3.4l-10.1-7.9v7.9h-3.3z"/><path d="m569.1 92.3h16.7v3.3h-16.7z"/><path d="m569.1 96.7h16.7v3.3h-16.7z"/><path d="m569.1 101.2h16.7v3.3h-16.7z"/><path d="m594.4 92.2h3.3v4.5h6l3.3-4.5h4.1l-3.3 4.5h3.3v7.8h-3.3v-4.5h-10.1v4.5h-3.3z"/><path d="m619.3 92.2v12.2h16.7v-12.2zm3.4 3.4h10v5.6h-10z"/></g></svg>