<?xml version="1.0" encoding="UTF-8" standalone="no"?>
<!-- Generator: Adobe Illustrator 22.1.0, SVG Export Plug-In . SVG Version: 6.00 Build 0)  -->

<svg
   xmlns:dc="http://purl.org/dc/elements/1.1/"
   xmlns:cc="http://creativecommons.org/ns#"
   xmlns:rdf="http://www.w3.org/1999/02/22-rdf-syntax-ns#"
   xmlns:svg="http://www.w3.org/2000/svg"
   xmlns="http://www.w3.org/2000/svg"
   xmlns:sodipodi="http://sodipodi.sourceforge.net/DTD/sodipodi-0.dtd"
   xmlns:inkscape="http://www.inkscape.org/namespaces/inkscape"
   version="1.1"
   id="svg2"
   inkscape:version="0.92.3 (2405546, 2018-03-11)"
   sodipodi:docname="neko.svg"
   x="0px"
   y="0px"
   viewBox="0 0 92.199997 94.400002"
   xml:space="preserve"
   width="92.199997"
   height="94.400002"><metadata
   id="metadata207"><rdf:RDF><cc:Work
       rdf:about=""><dc:format>image/svg+xml</dc:format><dc:type
         rdf:resource="http://purl.org/dc/dcmitype/StillImage" /></cc:Work></rdf:RDF></metadata><defs
   id="defs205" /><sodipodi:namedview
   pagecolor="#ffffff"
   bordercolor="#666666"
   borderopacity="1"
   objecttolerance="10"
   gridtolerance="10"
   guidetolerance="10"
   inkscape:pageopacity="0"
   inkscape:pageshadow="2"
   inkscape:window-width="1366"
   inkscape:window-height="705"
   id="namedview203"
   showgrid="false"
   inkscape:zoom="0.18684896"
   inkscape:cx="-1513.08"
   inkscape:cy="-930.57575"
   inkscape:window-x="-8"
   inkscape:window-y="-8"
   inkscape:window-maximized="1"
   inkscape:current-layer="svg2" />
<style
   type="text/css"
   id="style2">
	.st0{fill:#F48821;}
	.st1{clip-path:url(#SVGID_2_);fill:#F48821;}
	.st2{clip-path:url(#SVGID_4_);fill:#F48821;}
	.st3{clip-path:url(#SVGID_6_);fill:#F48821;}
	.st4{clip-path:url(#SVGID_8_);fill:#F48821;}
	.st5{clip-path:url(#SVGID_10_);fill:#F48821;}
	.st6{clip-path:url(#SVGID_12_);fill:#F48821;}
	.st7{clip-path:url(#SVGID_14_);fill:#F48821;}
	.st8{clip-path:url(#SVGID_16_);fill:#F48821;}
	.st9{clip-path:url(#SVGID_18_);fill:#F48821;}
	.st10{fill:none;stroke:#F48821;stroke-width:1.1256;stroke-dasharray:4.2331;}
	.st11{fill:none;}
	.st12{fill:#FFFFFF;}
	.st13{fill:none;stroke:#F48821;stroke-width:0.5;stroke-miterlimit:10;}
</style>



<g
   id="g42"
   transform="translate(-543.8,-10.1)">
	<path
   id="path4902-3"
   inkscape:connector-curvature="0"
   class="st0"
   d="m 563.8,71.8 c 0,0 4.5,-5.4 11.3,-6.4 -4.2,-0.1 -5.6,1.1 -6.8,0.2 -1.2,-0.9 1.6,-3.6 1.6,-3.6 0,0 -9.2,5.3 -6.1,9.8 z"
   style="fill:#f48821" />
	<path
   id="path4906-7"
   inkscape:connector-curvature="0"
   class="st0"
   d="m 573.5,43.2 c 0,0 6.7,5.5 8.2,3 1.6,-2.5 -3.3,-3.1 -8.2,-3 z"
   style="fill:#f48821" />
	<path
   id="path4906-0-9"
   inkscape:connector-curvature="0"
   class="st0"
   d="m 606.4,43.1 c 0,0 -6.7,5.5 -8.2,3 -1.5,-2.5 3.4,-3.1 8.2,-3 z"
   style="fill:#f48821" />
	<path
   id="path4937-5"
   inkscape:connector-curvature="0"
   class="st0"
   d="m 616.6,71.8 c 0,0 -4.5,-5.4 -11.3,-6.4 4.2,-0.1 5.6,1.1 6.8,0.2 1.2,-0.9 -1.6,-3.6 -1.6,-3.6 0,0 9.2,5.3 6.1,9.8 z"
   style="fill:#f48821" />
	<path
   id="path4939-4"
   inkscape:connector-curvature="0"
   class="st0"
   d="m 561.3,21 c -0.3,1.2 0.2,4 0.2,4 0,0 2.3,3 3.3,5.8 1,2.8 1.3,4.7 -1.6,11.2 -2.3,4.5 -2.4,8 -3.1,9.4 -1.2,2.3 -2,1.3 -1.8,7.1 0,0 8.1,-6.3 5.5,-7.8 -1.9,-1.2 1.5,-4.1 7.7,-4.9 -2.5,-2.4 -0.5,-6 3.9,-5.4 4.4,0.6 7.5,3.7 11.4,5.6 1,0.5 1.5,-1.5 0.6,-2.4 -1.2,-1.3 -3,-1.6 -3,-2.9 0,-1 2.9,-1.7 2.3,-3.2 -0.9,-2.5 -4.9,-0.6 -5.8,-2.3 -1,-1.8 -0.2,-2.7 1.7,-3 1.9,-0.3 -0.1,-6.3 -5.1,-4.2 -5.1,2.1 -6.7,0.5 -9.8,-2.6 -2.2,-2.2 -4.2,-3.5 -6.4,-4.4 z m 2,4.9 c 6.5,2.2 8.3,6.1 8.3,6.1 0,0 -1.9,1.9 -4.8,2.9 1.3,-6.8 -3.5,-9 -3.5,-9 z"
   style="fill:#f48821" />
	<path
   id="path4944-0"
   inkscape:connector-curvature="0"
   class="st0"
   d="m 617.9,21 c 0.3,1.2 -0.2,4 -0.2,4 0,0 -2.3,3 -3.3,5.8 -1,2.8 -1.3,4.7 1.6,11.2 2.3,4.5 2.4,8 3.1,9.4 1.2,2.3 2,1.3 1.8,7.1 0,0 -8.1,-6.3 -5.5,-7.8 1.9,-1.2 -1.5,-4.1 -7.7,-4.9 2.5,-2.4 0.5,-6 -3.9,-5.4 -4.4,0.6 -7.5,3.7 -11.4,5.6 -1,0.5 -1.5,-1.5 -0.6,-2.4 1.2,-1.3 3,-1.6 3,-2.9 0,-1 -2.9,-1.7 -2.3,-3.2 0.9,-2.5 4.9,-0.6 5.8,-2.3 1,-1.8 0.2,-2.7 -1.7,-3 -1.9,-0.3 0.1,-6.3 5.2,-4.2 5.1,2.1 6.7,0.5 9.8,-2.6 2.1,-2.2 4.1,-3.5 6.3,-4.4 z m -1.9,4.9 c -6.5,2.2 -8.3,6.1 -8.3,6.1 0,0 1.9,1.9 4.8,2.9 -1.3,-6.8 3.5,-9 3.5,-9 z"
   style="fill:#f48821" />
	
		<path
   id="path4946-9"
   inkscape:connector-curvature="0"
   sodipodi:nodetypes="cscsccccssccccccsccccccsssssssscssssssssssscsccsccscscccccccccccscccccccccssccc"
   class="st0"
   d="m 555.3,10.1 c -1.2,11.3 5.4,21.5 5.9,22.8 0.5,1.4 0.3,3.5 -1.2,5.1 -4.4,5.4 -6,21.9 -5.9,28.2 0.1,6.3 1.8,7.1 1.8,7.1 0,0 0.2,-0.8 1.1,-2.2 0.1,3.1 1.2,8.9 7,14.3 1.6,-12.9 13.1,-13.4 16.2,-12.9 0.1,1.6 3.3,10.1 3.7,10.6 0.4,0.5 7.9,3.1 11.8,0.1 3.9,-3 1.3,-6.5 4.4,-10.7 12.4,-1.6 16.2,8.9 15.7,13.1 4.8,-4.8 5.8,-10.6 5.8,-10.6 0,0 1.3,0.9 2,1.6 6.1,-18.7 -3.6,-38.1 -5.7,-41.8 7.3,-15 6.3,-20.6 5.7,-24.1 -5.2,4.6 -16.4,12.1 -19.9,12.1 -3.5,0 -5.3,-2 -10.2,-2.9 0,1.9 -3.5,6 -3.5,6 0,0 -2.5,-3.1 -3.9,-6 -4.5,-0.2 -7.3,3.6 -10.8,2.7 -7.5,-1.9 -20,-12.5 -20,-12.5 z m 65.2,6 c 0,0 1,2.4 0.4,3.5 -0.6,1.1 -1.5,3.6 -1.9,5.2 -0.5,1.6 -1.4,5.2 -2.3,6.7 -1,1.5 -2.1,3 1.7,9.6 3.8,6.6 5.7,20.9 3.6,20.9 -2,0 -5.2,-5.3 -9.3,-7 -4.1,-1.7 -7.8,-1.8 -11.2,-1.8 -2.1,0.1 -4.7,0.8 -4.9,2.3 -0.1,1 1.4,0.7 3.7,1.3 2.4,0.7 2,1.7 1.5,2.8 -0.5,1.1 -2.7,0.2 -4.9,-0.3 -2.1,-0.5 -4.6,-1.5 -4.4,-2.2 0.6,-2 2.6,-2.3 2.6,-4.5 0,-1.2 -2.3,-2.9 -5.1,-2.9 -2.8,0 -3.8,0.8 -4.6,2.1 -0.8,1.4 1.2,3.4 1.9,4.5 1,1.8 -3.9,4.7 -7.2,3.9 -3.3,-0.8 0.1,-3.9 2.7,-4.1 3.3,-0.3 0,-2.7 -4.5,-2.7 -4.5,0 -6.2,0.8 -8.7,1.8 -2.5,1 -5.8,1.6 -12.2,7.2 -1,-12.2 4.7,-21.8 5.6,-23.1 0.9,-1.3 1.9,-3.1 1.2,-4.9 -4.1,-9.3 -5.2,-18.1 -5.2,-18.1 0,0 4.9,3.7 10.3,7.4 5.4,3.7 9.1,2.3 15,0.4 1.6,8.7 6,12.2 6,12.2 3.5,-3.1 4.8,-8.7 4.4,-10.3 -0.4,-1.7 -0.1,-3.4 3.5,-1.9 5.9,1.9 7.1,1.8 12.3,-0.7 5.2,-2.5 10,-7.3 10,-7.3 z m -46.4,42 c 3.2,4 3.3,4 6.9,4.4 1.5,4 0.6,5.3 5.3,13.6 0,-0.4 0.1,-13.1 0.1,-13.1 0,0 1.5,0.3 1.4,1.6 0.1,1.5 0,2.9 0,2.9 l 1.3,-1.4 1.1,1.4 1.3,-1.3 1.2,1.3 c 0,0 0.1,-2.2 0.1,-3.1 0,-0.6 1.4,-1.6 1.4,-1.6 v 6.5 l -0.7,7.1 c 0,0 3.5,-5.1 4.7,-13 4.7,-1.6 6.9,-3.4 6.9,-5.2 3.4,-0.6 14.4,2.8 15,10.3 -0.2,3.8 -1.8,8.2 -1.8,8.2 0,0 -5,-8.2 -19.2,-7.5 -2.8,4.5 -3.4,7.9 -3.8,10.4 -0.5,2.2 -2.8,2.7 -4.5,2.7 -1.7,0 -4,-0.9 -5.1,-2.3 -1.2,-1.5 -2.7,-9 -4.3,-10.8 -2.9,-1.3 -14.8,0.8 -19.4,7.9 -2.7,-8.5 -1.3,-18.2 12.1,-19 z"
   style="fill:#f48821" />
	<path
   id="path5458-5"
   inkscape:connector-curvature="0"
   sodipodi:nodetypes="cccccccc"
   class="st0"
   d="m 587.6,76.2 h 5.1 v -3.1 l -1.4,1.4 -1.1,-1.3 -1.1,1.2 -1.3,-1.3 z"
   style="fill:#f48821" />
	<path
   id="path5490-2"
   inkscape:connector-curvature="0"
   class="st0"
   d="m 543.8,92.2 h 3.4 l 10,8 v -8 h 3.4 v 12.2 h -3.4 l -10.1,-7.9 v 7.9 h -3.3 z"
   style="fill:#f48821" />
	<path
   id="path5494-4"
   inkscape:connector-curvature="0"
   class="st0"
   d="m 569.1,92.3 h 16.7 v 3.3 h -16.7 z"
   style="fill:#f48821" />
	<path
   id="path5496-5"
   inkscape:connector-curvature="0"
   class="st0"
   d="m 569.1,96.7 h 16.7 v 3.3 h -16.7 z"
   style="fill:#f48821" />
	<path
   id="path5498-3"
   inkscape:connector-curvature="0"
   class="st0"
   d="m 569.1,101.2 h 16.7 v 3.3 h -16.7 z"
   style="fill:#f48821" />
	<path
   id="path5500-7"
   inkscape:connector-curvature="0"
   class="st0"
   d="m 594.4,92.2 h 3.3 v 4.5 h 6 l 3.3,-4.5 h 4.1 l -3.3,4.5 h 3.3 v 7.8 h -3.3 V 100 h -10.1 v 4.5 h -3.3 z"
   style="fill:#f48821" />
	<path
   id="path5502-3"
   inkscape:connector-curvature="0"
   class="st0"
   d="m 619.3,92.2 v 12.2 H 636 V 92.2 Z m 3.4,3.4 h 10 v 5.6 h -10 z"
   style="fill:#f48821" />
</g>









</svg>