<svg height="56.574997" viewBox="0 0 210.3 56.574997" width="210.3" xmlns="http://www.w3.org/2000/svg" xmlns:xlink="http://www.w3.org/1999/xlink"><clipPath id="a"><path d="m13.7 156.2h210.5v56.599998h-210.5z" height="100%" width="100%"/></clipPath><clipPath id="b"><path d="m13.7 156.2h210.5v56.599998h-210.5z" height="100%" width="100%"/></clipPath><clipPath id="c"><path d="m13.7 156.2h210.5v56.599998h-210.5z" height="100%" width="100%"/></clipPath><clipPath id="d"><path d="m13.7 156.2h210.5v56.599998h-210.5z" height="100%" width="100%"/></clipPath><clipPath id="e"><path d="m13.7 156.2h210.5v56.599998h-210.5z" height="100%" width="100%"/></clipPath><clipPath id="f"><path d="m13.7 156.2h210.5v56.599998h-210.5z" height="100%" width="100%"/></clipPath><clipPath id="g"><path d="m13.7 156.2h210.5v56.599998h-210.5z" height="100%" width="100%"/></clipPath><clipPath id="h"><path d="m13.7 156.2h210.5v56.599998h-210.5z" height="100%" width="100%"/></clipPath><clipPath id="i"><path d="m13.7 156.2h210.5v56.599998h-210.5z" height="100%" width="100%"/></clipPath><g fill="#f48821"><path clip-path="url(#a)" d="m45.2 186.3c0-.6-.3-1.2-.8-1.5l-14.1-8.1c-.2-.1-.5-.2-.8-.2h-.1c-.3 0-.5.1-.8.2l-14.1 8.1c-.5.3-.9.9-.9 1.5v21.8c0 .3.2.6.4.7.3.2.6.2.8 0l8.4-4.8c.5-.3.9-.9.9-1.5v-10.2c0-.6.3-1.2.9-1.5l3.6-2.1c.3-.2.6-.2.9-.2s.6.1.8.2l3.6 2.1c.5.3.9.9.9 1.5v10.2c0 .6.3 1.2.9 1.5l8.4 4.8c.3.2.6.2.8 0 .3-.1.4-.4.4-.7z" transform="translate(-13.7 -156.225)"/><path clip-path="url(#b)" d="m119.1 197.7c0 .2-.1.3-.2.4l-4.8 2.8c-.1.1-.3.1-.4 0l-4.8-2.8c-.1-.1-.2-.2-.2-.4v-5.6c0-.2.1-.3.2-.4l4.8-2.8c.1-.1.3-.1.4 0l4.8 2.8c.1.1.2.2.2.4zm1.3-41.4c-.3-.1-.6-.1-.8 0-.3.2-.4.4-.4.7v21.6c0 .2-.1.4-.3.5s-.4.1-.6 0l-3.5-2c-.5-.3-1.2-.3-1.7 0l-14.1 8.2c-.5.3-.9.9-.9 1.5v16.2c0 .6.3 1.2.9 1.5l14.1 8.1c.5.3 1.2.3 1.7 0l14.1-8.1c.5-.3.9-.9.9-1.5v-40.5c0-.6-.3-1.2-.9-1.5z" transform="translate(-13.7 -156.225)"/><path clip-path="url(#c)" d="m170.8 191.9c.5-.3.8-.9.8-1.5v-3.9c0-.6-.3-1.2-.8-1.5l-14-8.1c-.5-.3-1.2-.3-1.7 0l-14.1 8.1c-.5.3-.9.9-.9 1.5v16.3c0 .6.3 1.2.9 1.5l14 8c.5.3 1.1.3 1.7 0l8.5-4.7c.3-.1.4-.4.4-.7s-.2-.6-.4-.7l-14.2-8.1c-.3-.1-.4-.4-.4-.7v-5.1c0-.3.2-.6.4-.7l4.4-2.5c.3-.2.6-.2.9 0l4.4 2.5c.3.2.4.4.4.7v4c0 .3.2.6.4.7.3.2.6.1.9 0z" transform="translate(-13.7 -156.225)"/><path clip-path="url(#d)" d="m70.9 176.8c.5-.3 1.2-.3 1.7 0l14.1 8.1c.5.3.9.9.9 1.5v16.3c0 .6-.3 1.2-.8 1.5l-14.1 8.1c-.5.3-1.2.3-1.7 0l-14.1-8.1c-.5-.3-.9-.9-.9-1.5v-16.3c0-.6.3-1.2.9-1.5z" transform="translate(-13.7 -156.225)"/><path clip-path="url(#e)" d="m198.2 212.5c-.5 0-1-.1-1.4-.4l-4.4-2.6c-.7-.4-.3-.5-.1-.6.9-.3 1.1-.4 2-.9.1-.1.2 0 .3 0l3.4 2c.1.1.3.1.4 0l13.3-7.7c.1-.1.2-.2.2-.4v-15.3c0-.1-.1-.3-.2-.4l-13.3-7.7c-.1-.1-.3-.1-.4 0l-13.3 7.7c-.1.1-.2.2-.2.4v15.3c0 .1.1.3.2.4l3.6 2.1c2 1 3.2-.2 3.2-1.3v-15.1c0-.2.2-.4.4-.4h1.7c.2 0 .4.2.4.4v15.1c0 2.6-1.4 4.1-3.9 4.1-.8 0-1.4 0-3.1-.8l-3.5-2c-.9-.5-1.4-1.4-1.4-2.4v-15.3c0-1 .5-1.9 1.4-2.4l13.3-7.7c.8-.5 2-.5 2.8 0l13.3 7.7c.9.5 1.4 1.4 1.4 2.4v15.3c0 1-.5 1.9-1.4 2.4l-13.3 7.7c-.4.3-.9.4-1.4.4" transform="translate(-13.7 -156.225)"/><path clip-path="url(#f)" d="m202.3 202c-5.8 0-7-2.7-7-4.9 0-.2.2-.4.4-.4h1.7c.2 0 .4.1.4.3.3 1.7 1 2.6 4.5 2.6 2.8 0 4-.6 4-2.1 0-.9-.3-1.5-4.7-1.9-3.6-.4-5.9-1.2-5.9-4.1 0-2.7 2.3-4.3 6-4.3 4.3 0 6.4 1.5 6.6 4.6 0 .1 0 .2-.1.3s-.2.1-.3.1h-1.7c-.2 0-.3-.1-.4-.3-.4-1.8-1.4-2.4-4.1-2.4-3.1 0-3.4 1.1-3.4 1.9 0 1 .4 1.2 4.5 1.8 4.1.5 6 1.3 6 4.2.1 2.9-2.3 4.6-6.5 4.6" transform="translate(-13.7 -156.225)"/><path clip-path="url(#g)" d="m220.6 176.7v.4h-1.1v2.9h-.5v-2.9h-1.1v-.4z" transform="translate(-13.7 -156.225)"/><path clip-path="url(#h)" d="m221 176.7h.6l.9 2.8.9-2.8h.6v3.3h-.4v-2c0-.1 0-.2 0-.3 0-.2 0-.3 0-.5l-.9 2.8h-.4l-1-2.8v.1.4.4 2h-.3z" transform="translate(-13.7 -156.225)"/><path clip-path="url(#i)" d="m155.8 191.2c.1-.1.2-.1.3 0l2.7 1.6c.1.1.2.2.2.3v3.1c0 .1-.1.2-.2.3l-2.7 1.6c-.1.1-.2.1-.3 0l-2.7-1.6c-.1-.1-.2-.2-.2-.3v-3.2c0-.1.1-.2.2-.3z" transform="translate(-13.7 -156.225)"/></g></svg>