<?xml version="1.0" encoding="UTF-8" standalone="no"?>
<!-- Generator: Adobe Illustrator 22.1.0, SVG Export Plug-In . SVG Version: 6.00 Build 0)  -->

<svg
   xmlns:dc="http://purl.org/dc/elements/1.1/"
   xmlns:cc="http://creativecommons.org/ns#"
   xmlns:rdf="http://www.w3.org/1999/02/22-rdf-syntax-ns#"
   xmlns:svg="http://www.w3.org/2000/svg"
   xmlns="http://www.w3.org/2000/svg"
   xmlns:xlink="http://www.w3.org/1999/xlink"
   xmlns:sodipodi="http://sodipodi.sourceforge.net/DTD/sodipodi-0.dtd"
   xmlns:inkscape="http://www.inkscape.org/namespaces/inkscape"
   version="1.1"
   id="svg2"
   inkscape:version="0.92.3 (2405546, 2018-03-11)"
   sodipodi:docname="nodejs.svg"
   x="0px"
   y="0px"
   viewBox="0 0 210.3 56.574997"
   xml:space="preserve"
   width="210.3"
   height="56.574997"><metadata
   id="metadata207"><rdf:RDF><cc:Work
       rdf:about=""><dc:format>image/svg+xml</dc:format><dc:type
         rdf:resource="http://purl.org/dc/dcmitype/StillImage" /></cc:Work></rdf:RDF></metadata><defs
   id="defs205" /><sodipodi:namedview
   pagecolor="#ffffff"
   bordercolor="#666666"
   borderopacity="1"
   objecttolerance="10"
   gridtolerance="10"
   guidetolerance="10"
   inkscape:pageopacity="0"
   inkscape:pageshadow="2"
   inkscape:window-width="1366"
   inkscape:window-height="705"
   id="namedview203"
   showgrid="false"
   inkscape:zoom="0.18684896"
   inkscape:cx="-982.97995"
   inkscape:cy="-822.27575"
   inkscape:window-x="-8"
   inkscape:window-y="-8"
   inkscape:window-maximized="1"
   inkscape:current-layer="svg2" />
<style
   type="text/css"
   id="style2">
	.st0{fill:#F48821;}
	.st1{clip-path:url(#SVGID_2_);fill:#F48821;}
	.st2{clip-path:url(#SVGID_4_);fill:#F48821;}
	.st3{clip-path:url(#SVGID_6_);fill:#F48821;}
	.st4{clip-path:url(#SVGID_8_);fill:#F48821;}
	.st5{clip-path:url(#SVGID_10_);fill:#F48821;}
	.st6{clip-path:url(#SVGID_12_);fill:#F48821;}
	.st7{clip-path:url(#SVGID_14_);fill:#F48821;}
	.st8{clip-path:url(#SVGID_16_);fill:#F48821;}
	.st9{clip-path:url(#SVGID_18_);fill:#F48821;}
	.st10{fill:none;stroke:#F48821;stroke-width:1.1256;stroke-dasharray:4.2331;}
	.st11{fill:none;}
	.st12{fill:#FFFFFF;}
	.st13{fill:none;stroke:#F48821;stroke-width:0.5;stroke-miterlimit:10;}
</style>








<g
   id="g158"
   transform="translate(-13.7,-156.225)">
	<g
   id="g156">
		<g
   id="g82">
			<defs
   id="defs76">
				<rect
   id="SVGID_1_"
   x="13.7"
   y="156.2"
   width="210.5"
   height="56.599998" />
			</defs>
			<clipPath
   id="SVGID_2_">
				<use
   xlink:href="#SVGID_1_"
   style="overflow:visible"
   id="use78"
   x="0"
   y="0"
   width="100%"
   height="100%" />
			</clipPath>
			<path
   id="path22-2"
   inkscape:connector-curvature="0"
   class="st1"
   d="m 45.2,186.3 c 0,-0.6 -0.3,-1.2 -0.8,-1.5 l -14.1,-8.1 c -0.2,-0.1 -0.5,-0.2 -0.8,-0.2 0,0 -0.1,0 -0.1,0 -0.3,0 -0.5,0.1 -0.8,0.2 l -14.1,8.1 c -0.5,0.3 -0.9,0.9 -0.9,1.5 v 21.8 c 0,0.3 0.2,0.6 0.4,0.7 0.3,0.2 0.6,0.2 0.8,0 l 8.4,-4.8 c 0.5,-0.3 0.9,-0.9 0.9,-1.5 v -10.2 c 0,-0.6 0.3,-1.2 0.9,-1.5 l 3.6,-2.1 c 0.3,-0.2 0.6,-0.2 0.9,-0.2 0.3,0 0.6,0.1 0.8,0.2 l 3.6,2.1 c 0.5,0.3 0.9,0.9 0.9,1.5 v 10.2 c 0,0.6 0.3,1.2 0.9,1.5 l 8.4,4.8 c 0.3,0.2 0.6,0.2 0.8,0 0.3,-0.1 0.4,-0.4 0.4,-0.7 l -0.1,-21.8"
   clip-path="url(#SVGID_2_)"
   style="fill:#f48821" />
		</g>
		<g
   id="g91">
			<defs
   id="defs85">
				<rect
   id="SVGID_3_"
   x="13.7"
   y="156.2"
   width="210.5"
   height="56.599998" />
			</defs>
			<clipPath
   id="SVGID_4_">
				<use
   xlink:href="#SVGID_3_"
   style="overflow:visible"
   id="use87"
   x="0"
   y="0"
   width="100%"
   height="100%" />
			</clipPath>
			<path
   id="path24-1"
   inkscape:connector-curvature="0"
   class="st2"
   d="m 119.1,197.7 c 0,0.2 -0.1,0.3 -0.2,0.4 l -4.8,2.8 c -0.1,0.1 -0.3,0.1 -0.4,0 l -4.8,-2.8 c -0.1,-0.1 -0.2,-0.2 -0.2,-0.4 v -5.6 c 0,-0.2 0.1,-0.3 0.2,-0.4 l 4.8,-2.8 c 0.1,-0.1 0.3,-0.1 0.4,0 l 4.8,2.8 c 0.1,0.1 0.2,0.2 0.2,0.4 z m 1.3,-41.4 c -0.3,-0.1 -0.6,-0.1 -0.8,0 -0.3,0.2 -0.4,0.4 -0.4,0.7 v 21.6 c 0,0.2 -0.1,0.4 -0.3,0.5 -0.2,0.1 -0.4,0.1 -0.6,0 l -3.5,-2 c -0.5,-0.3 -1.2,-0.3 -1.7,0 L 99,185.3 c -0.5,0.3 -0.9,0.9 -0.9,1.5 V 203 c 0,0.6 0.3,1.2 0.9,1.5 l 14.1,8.1 c 0.5,0.3 1.2,0.3 1.7,0 l 14.1,-8.1 c 0.5,-0.3 0.9,-0.9 0.9,-1.5 v -40.5 c 0,-0.6 -0.3,-1.2 -0.9,-1.5 l -8.5,-4.7"
   clip-path="url(#SVGID_4_)"
   style="fill:#f48821" />
		</g>
		<g
   id="g100">
			<defs
   id="defs94">
				<rect
   id="SVGID_5_"
   x="13.7"
   y="156.2"
   width="210.5"
   height="56.599998" />
			</defs>
			<clipPath
   id="SVGID_6_">
				<use
   xlink:href="#SVGID_5_"
   style="overflow:visible"
   id="use96"
   x="0"
   y="0"
   width="100%"
   height="100%" />
			</clipPath>
			<path
   id="path26-8"
   inkscape:connector-curvature="0"
   class="st3"
   d="m 170.8,191.9 c 0.5,-0.3 0.8,-0.9 0.8,-1.5 v -3.9 c 0,-0.6 -0.3,-1.2 -0.8,-1.5 l -14,-8.1 c -0.5,-0.3 -1.2,-0.3 -1.7,0 L 141,185 c -0.5,0.3 -0.9,0.9 -0.9,1.5 v 16.3 c 0,0.6 0.3,1.2 0.9,1.5 l 14,8 c 0.5,0.3 1.1,0.3 1.7,0 l 8.5,-4.7 c 0.3,-0.1 0.4,-0.4 0.4,-0.7 0,-0.3 -0.2,-0.6 -0.4,-0.7 L 151,198.1 c -0.3,-0.1 -0.4,-0.4 -0.4,-0.7 v -5.1 c 0,-0.3 0.2,-0.6 0.4,-0.7 l 4.4,-2.5 c 0.3,-0.2 0.6,-0.2 0.9,0 l 4.4,2.5 c 0.3,0.2 0.4,0.4 0.4,0.7 v 4 c 0,0.3 0.2,0.6 0.4,0.7 0.3,0.2 0.6,0.1 0.9,0 l 8.4,-5.1"
   clip-path="url(#SVGID_6_)"
   style="fill:#f48821" />
		</g>
		<g
   id="g109">
			<defs
   id="defs103">
				<rect
   id="SVGID_7_"
   x="13.7"
   y="156.2"
   width="210.5"
   height="56.599998" />
			</defs>
			<clipPath
   id="SVGID_8_">
				<use
   xlink:href="#SVGID_7_"
   style="overflow:visible"
   id="use105"
   x="0"
   y="0"
   width="100%"
   height="100%" />
			</clipPath>
			<path
   id="path28-8"
   inkscape:connector-curvature="0"
   class="st4"
   d="m 70.9,176.8 c 0.5,-0.3 1.2,-0.3 1.7,0 l 14.1,8.1 c 0.5,0.3 0.9,0.9 0.9,1.5 v 16.3 c 0,0.6 -0.3,1.2 -0.8,1.5 l -14.1,8.1 c -0.5,0.3 -1.2,0.3 -1.7,0 L 56.9,204.2 C 56.4,203.9 56,203.3 56,202.7 v -16.3 c 0,-0.6 0.3,-1.2 0.9,-1.5 l 14,-8.1"
   clip-path="url(#SVGID_8_)"
   style="fill:#f48821" />
		</g>
		<g
   id="g118">
			<defs
   id="defs112">
				<rect
   id="SVGID_9_"
   x="13.7"
   y="156.2"
   width="210.5"
   height="56.599998" />
			</defs>
			<clipPath
   id="SVGID_10_">
				<use
   xlink:href="#SVGID_9_"
   style="overflow:visible"
   id="use114"
   x="0"
   y="0"
   width="100%"
   height="100%" />
			</clipPath>
			<path
   id="path30-1"
   inkscape:connector-curvature="0"
   class="st5"
   d="m 198.2,212.5 c -0.5,0 -1,-0.1 -1.4,-0.4 l -4.4,-2.6 c -0.7,-0.4 -0.3,-0.5 -0.1,-0.6 0.9,-0.3 1.1,-0.4 2,-0.9 0.1,-0.1 0.2,0 0.3,0 l 3.4,2 c 0.1,0.1 0.3,0.1 0.4,0 l 13.3,-7.7 c 0.1,-0.1 0.2,-0.2 0.2,-0.4 v -15.3 c 0,-0.1 -0.1,-0.3 -0.2,-0.4 l -13.3,-7.7 c -0.1,-0.1 -0.3,-0.1 -0.4,0 l -13.3,7.7 c -0.1,0.1 -0.2,0.2 -0.2,0.4 v 15.3 c 0,0.1 0.1,0.3 0.2,0.4 l 3.6,2.1 c 2,1 3.2,-0.2 3.2,-1.3 V 188 c 0,-0.2 0.2,-0.4 0.4,-0.4 h 1.7 c 0.2,0 0.4,0.2 0.4,0.4 v 15.1 c 0,2.6 -1.4,4.1 -3.9,4.1 -0.8,0 -1.4,0 -3.1,-0.8 l -3.5,-2 c -0.9,-0.5 -1.4,-1.4 -1.4,-2.4 v -15.3 c 0,-1 0.5,-1.9 1.4,-2.4 l 13.3,-7.7 c 0.8,-0.5 2,-0.5 2.8,0 l 13.3,7.7 c 0.9,0.5 1.4,1.4 1.4,2.4 V 202 c 0,1 -0.5,1.9 -1.4,2.4 l -13.3,7.7 c -0.4,0.3 -0.9,0.4 -1.4,0.4"
   clip-path="url(#SVGID_10_)"
   style="fill:#f48821" />
		</g>
		<g
   id="g127">
			<defs
   id="defs121">
				<rect
   id="SVGID_11_"
   x="13.7"
   y="156.2"
   width="210.5"
   height="56.599998" />
			</defs>
			<clipPath
   id="SVGID_12_">
				<use
   xlink:href="#SVGID_11_"
   style="overflow:visible"
   id="use123"
   x="0"
   y="0"
   width="100%"
   height="100%" />
			</clipPath>
			<path
   id="path32-1"
   inkscape:connector-curvature="0"
   class="st6"
   d="m 202.3,202 c -5.8,0 -7,-2.7 -7,-4.9 0,-0.2 0.2,-0.4 0.4,-0.4 h 1.7 c 0.2,0 0.4,0.1 0.4,0.3 0.3,1.7 1,2.6 4.5,2.6 2.8,0 4,-0.6 4,-2.1 0,-0.9 -0.3,-1.5 -4.7,-1.9 -3.6,-0.4 -5.9,-1.2 -5.9,-4.1 0,-2.7 2.3,-4.3 6,-4.3 4.3,0 6.4,1.5 6.6,4.6 0,0.1 0,0.2 -0.1,0.3 -0.1,0.1 -0.2,0.1 -0.3,0.1 h -1.7 c -0.2,0 -0.3,-0.1 -0.4,-0.3 -0.4,-1.8 -1.4,-2.4 -4.1,-2.4 -3.1,0 -3.4,1.1 -3.4,1.9 0,1 0.4,1.2 4.5,1.8 4.1,0.5 6,1.3 6,4.2 0.1,2.9 -2.3,4.6 -6.5,4.6"
   clip-path="url(#SVGID_12_)"
   style="fill:#f48821" />
		</g>
		<g
   id="g136">
			<defs
   id="defs130">
				<rect
   id="SVGID_13_"
   x="13.7"
   y="156.2"
   width="210.5"
   height="56.599998" />
			</defs>
			<clipPath
   id="SVGID_14_">
				<use
   xlink:href="#SVGID_13_"
   style="overflow:visible"
   id="use132"
   x="0"
   y="0"
   width="100%"
   height="100%" />
			</clipPath>
			<path
   id="path34-3"
   inkscape:connector-curvature="0"
   class="st7"
   d="m 220.6,176.7 v 0.4 h -1.1 V 180 H 219 v -2.9 h -1.1 v -0.4 h 2.7"
   clip-path="url(#SVGID_14_)"
   style="fill:#f48821" />
		</g>
		<g
   id="g145">
			<defs
   id="defs139">
				<rect
   id="SVGID_15_"
   x="13.7"
   y="156.2"
   width="210.5"
   height="56.599998" />
			</defs>
			<clipPath
   id="SVGID_16_">
				<use
   xlink:href="#SVGID_15_"
   style="overflow:visible"
   id="use141"
   x="0"
   y="0"
   width="100%"
   height="100%" />
			</clipPath>
			<path
   id="path36-5"
   inkscape:connector-curvature="0"
   class="st8"
   d="m 221,176.7 h 0.6 l 0.9,2.8 0.9,-2.8 h 0.6 v 3.3 h -0.4 v -2 c 0,-0.1 0,-0.2 0,-0.3 0,-0.2 0,-0.3 0,-0.5 l -0.9,2.8 h -0.4 l -1,-2.8 v 0.1 c 0,0.1 0,0.2 0,0.4 0,0.2 0,0.3 0,0.4 v 2 H 221 v -3.4"
   clip-path="url(#SVGID_16_)"
   style="fill:#f48821" />
		</g>
		<g
   id="g154">
			<defs
   id="defs148">
				<rect
   id="SVGID_17_"
   x="13.7"
   y="156.2"
   width="210.5"
   height="56.599998" />
			</defs>
			<clipPath
   id="SVGID_18_">
				<use
   xlink:href="#SVGID_17_"
   style="overflow:visible"
   id="use150"
   x="0"
   y="0"
   width="100%"
   height="100%" />
			</clipPath>
			<path
   id="path38-6"
   inkscape:connector-curvature="0"
   class="st9"
   d="m 155.8,191.2 c 0.1,-0.1 0.2,-0.1 0.3,0 l 2.7,1.6 c 0.1,0.1 0.2,0.2 0.2,0.3 v 3.1 c 0,0.1 -0.1,0.2 -0.2,0.3 l -2.7,1.6 c -0.1,0.1 -0.2,0.1 -0.3,0 l -2.7,-1.6 c -0.1,-0.1 -0.2,-0.2 -0.2,-0.3 V 193 c 0,-0.1 0.1,-0.2 0.2,-0.3 l 2.7,-1.5"
   clip-path="url(#SVGID_18_)"
   style="fill:#f48821" />
		</g>
	</g>
</g>




</svg>