<?xml version="1.0" encoding="UTF-8" standalone="no"?>
<!-- Generator: Adobe Illustrator 22.1.0, SVG Export Plug-In . SVG Version: 6.00 Build 0)  -->

<svg
   xmlns:dc="http://purl.org/dc/elements/1.1/"
   xmlns:cc="http://creativecommons.org/ns#"
   xmlns:rdf="http://www.w3.org/1999/02/22-rdf-syntax-ns#"
   xmlns:svg="http://www.w3.org/2000/svg"
   xmlns="http://www.w3.org/2000/svg"
   xmlns:sodipodi="http://sodipodi.sourceforge.net/DTD/sodipodi-0.dtd"
   xmlns:inkscape="http://www.inkscape.org/namespaces/inkscape"
   version="1.1"
   id="svg2"
   inkscape:version="0.92.3 (2405546, 2018-03-11)"
   sodipodi:docname="php.svg"
   x="0px"
   y="0px"
   viewBox="0 0 111.8 54"
   xml:space="preserve"
   width="111.8"
   height="54"><metadata
   id="metadata207"><rdf:RDF><cc:Work
       rdf:about=""><dc:format>image/svg+xml</dc:format><dc:type
         rdf:resource="http://purl.org/dc/dcmitype/StillImage" /></cc:Work></rdf:RDF></metadata><defs
   id="defs205" /><sodipodi:namedview
   pagecolor="#ffffff"
   bordercolor="#666666"
   borderopacity="1"
   objecttolerance="10"
   gridtolerance="10"
   guidetolerance="10"
   inkscape:pageopacity="0"
   inkscape:pageshadow="2"
   inkscape:window-width="1366"
   inkscape:window-height="705"
   id="namedview203"
   showgrid="false"
   inkscape:zoom="0.18684896"
   inkscape:cx="-1170.78"
   inkscape:cy="-698.37575"
   inkscape:window-x="-8"
   inkscape:window-y="-8"
   inkscape:window-maximized="1"
   inkscape:current-layer="svg2" />
<style
   type="text/css"
   id="style2">
	.st0{fill:#F48821;}
	.st1{clip-path:url(#SVGID_2_);fill:#F48821;}
	.st2{clip-path:url(#SVGID_4_);fill:#F48821;}
	.st3{clip-path:url(#SVGID_6_);fill:#F48821;}
	.st4{clip-path:url(#SVGID_8_);fill:#F48821;}
	.st5{clip-path:url(#SVGID_10_);fill:#F48821;}
	.st6{clip-path:url(#SVGID_12_);fill:#F48821;}
	.st7{clip-path:url(#SVGID_14_);fill:#F48821;}
	.st8{clip-path:url(#SVGID_16_);fill:#F48821;}
	.st9{clip-path:url(#SVGID_18_);fill:#F48821;}
	.st10{fill:none;stroke:#F48821;stroke-width:1.1256;stroke-dasharray:4.2331;}
	.st11{fill:none;}
	.st12{fill:#FFFFFF;}
	.st13{fill:none;stroke:#F48821;stroke-width:0.5;stroke-miterlimit:10;}
</style>




<g
   id="g51"
   transform="translate(-201.5,-282.7)">
	<path
   class="st0"
   d="M 229.6,293.8 H 210 l -8.5,42.9 h 10.1 l 2.1,-11.1 h 9.5 c 9,0.5 19.1,-6.9 19.1,-19.6 0,-7.4 -4.2,-11.6 -12.7,-12.2 z m -7.4,23.9 h -6.4 l 2.6,-15.9 h 6.9 c 3.7,0 6.4,1.6 6.4,4.8 -0.5,8.9 -4.7,10.5 -9.5,11.1 z"
   id="path44"
   inkscape:connector-curvature="0"
   style="fill:#f48821" />
	<path
   id="h-7"
   inkscape:connector-curvature="0"
   class="st0"
   d="m 239.2,325.6 8.5,-42.9 h 10.1 l -2.1,11.1 h 9.5 c 8.5,0.5 11.6,4.8 10.6,10.1 l -3.7,21.7 h -10.6 l 3.7,-19.6 c 0.5,-2.6 0.5,-4.2 -3.2,-4.2 h -8 l -4.8,23.8 z"
   style="fill:#f48821" />
	<g
   id="g49">
		<path
   class="st0"
   d="M 300.6,293.8 H 281 l -8.5,42.9 h 10.1 l 2.1,-11.1 h 9.5 c 9,0.5 19.1,-6.9 19.1,-19.6 0,-7.4 -4.2,-11.6 -12.7,-12.2 z m -7.4,23.9 h -6.4 l 2.6,-15.9 h 6.9 c 3.7,0 6.4,1.6 6.4,4.8 -0.5,8.9 -4.8,10.5 -9.5,11.1 z"
   id="path47"
   inkscape:connector-curvature="0"
   style="fill:#f48821" />
	</g>
</g>








</svg>