<svg height="54" viewBox="0 0 111.8 54" width="111.8" xmlns="http://www.w3.org/2000/svg"><g fill="#f48821" transform="translate(-201.5 -282.7)"><path d="m229.6 293.8h-19.6l-8.5 42.9h10.1l2.1-11.1h9.5c9 .5 19.1-6.9 19.1-19.6 0-7.4-4.2-11.6-12.7-12.2zm-7.4 23.9h-6.4l2.6-15.9h6.9c3.7 0 6.4 1.6 6.4 4.8-.5 8.9-4.7 10.5-9.5 11.1z"/><path d="m239.2 325.6 8.5-42.9h10.1l-2.1 11.1h9.5c8.5.5 11.6 4.8 10.6 10.1l-3.7 21.7h-10.6l3.7-19.6c.5-2.6.5-4.2-3.2-4.2h-8l-4.8 23.8z"/><path d="m300.6 293.8h-19.6l-8.5 42.9h10.1l2.1-11.1h9.5c9 .5 19.1-6.9 19.1-19.6 0-7.4-4.2-11.6-12.7-12.2zm-7.4 23.9h-6.4l2.6-15.9h6.9c3.7 0 6.4 1.6 6.4 4.8-.5 8.9-4.8 10.5-9.5 11.1z"/></g></svg>