<svg height="62.826248" viewBox="0 0 259.01285 62.826248" width="259.01285" xmlns="http://www.w3.org/2000/svg"><g fill="#f48821" transform="translate(-495.28715 -153.1)"><path d="m592.9 185c0-7.9-2.3-12-6.8-12.2-1.8-.1-3.6.2-5.3.9-1.4.5-2.3 1-2.8 1.5v19c2.9 1.8 5.5 2.7 7.7 2.5 4.9-.4 7.2-4.3 7.2-11.7zm5.6.3c0 4-.9 7.4-2.9 10.1-2.1 3-5.1 4.6-8.8 4.7-2.8.1-5.8-.8-8.8-2.7v17.2l-4.9-1.7v-38.3c.8-1 1.8-1.8 3.1-2.5 2.9-1.7 6.4-2.6 10.5-2.6l.1.1c3.8 0 6.7 1.5 8.7 4.7 2.1 2.8 3 6.5 3 11z"/><path d="m628.2 196.7c0 5.4-.5 9.2-1.6 11.2-1.1 2.1-3.2 3.7-6.2 5-2.5 1-5.2 1.5-8.1 1.6l-.8-3.1c2.9-.4 5-.8 6.2-1.2 2.4-.8 4-2 4.9-3.7.7-1.3 1.1-3.9 1.1-7.7v-1.3c-3.3 1.5-6.8 2.3-10.4 2.3-2.4 0-4.5-.8-6.3-2.3-2-1.6-3.1-3.7-3.1-6.3v-20.2l4.9-1.7v20.4c0 2.2.7 3.9 2.1 5 1.4 1.2 3.2 1.7 5.5 1.7 2.2 0 4.6-.9 7.2-2.6v-23.8h4.9z"/><path d="m647.2 199.8c-.6 0-1.1.1-1.6.1-2.8 0-4.9-.7-6.4-2s-2.3-3.1-2.3-5.4v-19.1h-3.3v-3.1h3.3v-8.1l4.9-1.7v9.8h5.5v3.1h-5.5v19c0 1.8.5 3.1 1.5 3.9.8.6 2.2 1 4 1.1z"/><path d="m676.6 199.4h-4.9v-18.8c0-1.9-.4-3.6-1.3-4.9-1-1.6-2.5-2.3-4.3-2.3-2.2 0-5 1.2-8.4 3.5v22.5h-4.9v-44.8l4.9-1.5v20.4c3.1-2.3 6.5-3.4 10.2-3.4 2.6 0 4.7.9 6.3 2.6s2.4 3.9 2.4 6.5z"/><path d="m702.5 184.2c0-3.1-.6-5.6-1.7-7.6-1.4-2.4-3.5-3.7-6.4-3.8-5.3.3-8 4.1-8 11.4 0 3.4.6 6.2 1.7 8.4 1.4 2.9 3.6 4.3 6.4 4.2 5.3.1 8-4.1 8-12.6zm5.3.1c0 4.3-1.1 8-3.3 10.9-2.4 3.2-5.8 4.9-10.1 4.9s-7.6-1.6-10-4.9c-2.2-2.9-3.3-6.5-3.3-10.9 0-4.1 1.2-7.5 3.5-10.3 2.5-3 5.7-4.5 9.8-4.5 4 0 7.3 1.5 9.9 4.5 2.3 2.8 3.5 6.2 3.5 10.3z"/><path d="m735.7 199.4h-4.9v-19.8c0-2.2-.7-3.9-2-5.1s-3.1-1.8-5.2-1.8c-2.3 0-4.5.8-6.6 2.3v24.4h-4.9v-25c2.8-2 5.4-3.4 7.7-4 2.2-.6 4.2-.9 5.9-.9 1.2 0 2.2.1 3.3.3 1.9.4 3.5 1.3 4.7 2.5 1.3 1.3 2 2.9 2 4.8z"/><path d="m525.2 154.7c-2.5 0-4.9.2-7 .6-6.2 1.1-7.3 3.4-7.3 7.6v5.6h14.6v1.9h-14.6-5.5c-4.3 0-8 2.6-9.1 7.4-1.3 5.6-1.4 9 0 14.9 1 4.3 3.5 7.4 7.8 7.4h5v-6.7c0-4.8 4.2-9.1 9.1-9.1h14.6c4.1 0 7.3-3.3 7.3-7.4v-13.9c0-4-3.3-6.9-7.3-7.6-2.5-.5-5.1-.7-7.6-.7zm-7.9 4.5c1.5 0 2.7 1.3 2.7 2.8s-1.2 2.8-2.7 2.8-2.7-1.2-2.7-2.8c0-1.5 1.2-2.8 2.7-2.8z"/><path d="m542 170.3v6.5c0 5-4.3 9.3-9.1 9.3h-14.6c-4 0-7.3 3.4-7.3 7.4v13.9c0 4 3.4 6.3 7.3 7.4 4.6 1.4 9.1 1.6 14.6 0 3.7-1.1 7.3-3.2 7.3-7.4v-5.6h-14.6v-1.9h14.6 7.3c4.3 0 5.8-3 7.3-7.4 1.5-4.6 1.5-9 0-14.9-1.1-4.2-3.1-7.4-7.3-7.4zm-8.2 35.3c1.5 0 2.7 1.2 2.7 2.8 0 1.5-1.2 2.8-2.7 2.8s-2.7-1.3-2.7-2.8c-.1-1.5 1.2-2.8 2.7-2.8z"/><path d="m745.1 165.9h.9v-5.3h2v-.6h-4.9v.6h2zm3.7 0h.7v-4.9l1.6 4.9h.8l1.6-4.9v4.9h.8v-6h-1.1l-1.8 5.1-1.5-5.1h-1.2v6"/></g></svg>