<?xml version="1.0" encoding="UTF-8" standalone="no"?>
<!-- Generator: Adobe Illustrator 22.1.0, SVG Export Plug-In . SVG Version: 6.00 Build 0)  -->

<svg
   xmlns:dc="http://purl.org/dc/elements/1.1/"
   xmlns:cc="http://creativecommons.org/ns#"
   xmlns:rdf="http://www.w3.org/1999/02/22-rdf-syntax-ns#"
   xmlns:svg="http://www.w3.org/2000/svg"
   xmlns="http://www.w3.org/2000/svg"
   xmlns:sodipodi="http://sodipodi.sourceforge.net/DTD/sodipodi-0.dtd"
   xmlns:inkscape="http://www.inkscape.org/namespaces/inkscape"
   version="1.1"
   id="svg2"
   inkscape:version="0.92.3 (2405546, 2018-03-11)"
   sodipodi:docname="python-2.svg"
   x="0px"
   y="0px"
   viewBox="0 0 60.637848 61.226246"
   xml:space="preserve"
   width="60.637848"
   height="61.226246"><metadata
   id="metadata207"><rdf:RDF><cc:Work
       rdf:about=""><dc:format>image/svg+xml</dc:format><dc:type
         rdf:resource="http://purl.org/dc/dcmitype/StillImage" /></cc:Work></rdf:RDF></metadata><defs
   id="defs205">
	
	
	
	
	
	
	
	
	
</defs><sodipodi:namedview
   pagecolor="#ffffff"
   bordercolor="#666666"
   borderopacity="1"
   objecttolerance="10"
   gridtolerance="10"
   guidetolerance="10"
   inkscape:pageopacity="0"
   inkscape:pageshadow="2"
   inkscape:window-width="1366"
   inkscape:window-height="705"
   id="namedview203"
   showgrid="false"
   inkscape:zoom="0.74739584"
   inkscape:cx="-10.339548"
   inkscape:cy="-98.379232"
   inkscape:window-x="-8"
   inkscape:window-y="-8"
   inkscape:window-maximized="1"
   inkscape:current-layer="svg2" />
<style
   type="text/css"
   id="style2">
	.st0{fill:#F48821;}
	.st1{clip-path:url(#SVGID_2_);fill:#F48821;}
	.st2{clip-path:url(#SVGID_4_);fill:#F48821;}
	.st3{clip-path:url(#SVGID_6_);fill:#F48821;}
	.st4{clip-path:url(#SVGID_8_);fill:#F48821;}
	.st5{clip-path:url(#SVGID_10_);fill:#F48821;}
	.st6{clip-path:url(#SVGID_12_);fill:#F48821;}
	.st7{clip-path:url(#SVGID_14_);fill:#F48821;}
	.st8{clip-path:url(#SVGID_16_);fill:#F48821;}
	.st9{clip-path:url(#SVGID_18_);fill:#F48821;}
	.st10{fill:none;stroke:#F48821;stroke-width:1.1256;stroke-dasharray:4.2331;}
	.st11{fill:none;}
	.st12{fill:#FFFFFF;}
	.st13{fill:none;stroke:#F48821;stroke-width:0.5;stroke-miterlimit:10;}
</style>










<path
   style="fill:#f48821"
   d="m 29.912847,0 c -2.5,0 -4.9,0.2 -7,0.6 -6.2,1.1 -7.3,3.4 -7.3,7.6 v 5.6 h 14.6 v 1.9 h -14.6 -5.5 c -4.3,0 -8,2.6 -9.1,7.4 -1.30000002,5.6 -1.40000002,9 0,14.9 1,4.3 3.5,7.4 7.8,7.4 h 5 v -6.7 c 0,-4.8 4.2,-9.1 9.1,-9.1 h 14.6 c 4.1,0 7.3,-3.3 7.3,-7.4 V 8.3 c 0,-4 -3.3,-6.9 -7.3,-7.6 -2.5,-0.5 -5.1,-0.7 -7.6,-0.7 z m -7.9,4.5 c 1.5,0 2.7,1.3 2.7,2.8 0,1.5 -1.2,2.8 -2.7,2.8 -1.5,0 -2.7,-1.2 -2.7,-2.8 0,-1.5 1.2,-2.8 2.7,-2.8 z"
   class="st0"
   inkscape:connector-curvature="0"
   id="path1948" /><path
   style="fill:#f48821"
   d="m 46.712847,15.6 v 6.5 c 0,5 -4.3,9.3 -9.1,9.3 h -14.6 c -4,0 -7.3,3.4 -7.3,7.4 v 13.9 c 0,4 3.4,6.3 7.3,7.4 4.6,1.4 9.1,1.6 14.6,0 3.7,-1.1 7.3,-3.2 7.3,-7.4 v -5.6 h -14.6 v -1.9 h 14.6 7.3 c 4.3,0 5.8,-3 7.3,-7.4 1.5,-4.6 1.5,-9 0,-14.9 -1.1,-4.2 -3.1,-7.4 -7.3,-7.4 z m -8.2,35.3 c 1.5,0 2.7,1.2 2.7,2.8 0,1.5 -1.2,2.8 -2.7,2.8 -1.5,0 -2.7,-1.3 -2.7,-2.8 -0.1,-1.5 1.2,-2.8 2.7,-2.8 z"
   class="st0"
   inkscape:connector-curvature="0"
   id="path1950" />


</svg>