<?xml version="1.0" encoding="UTF-8" standalone="no"?>
<!-- Generator: Adobe Illustrator 22.1.0, SVG Export Plug-In . SVG Version: 6.00 Build 0)  -->

<svg
   xmlns:dc="http://purl.org/dc/elements/1.1/"
   xmlns:cc="http://creativecommons.org/ns#"
   xmlns:rdf="http://www.w3.org/1999/02/22-rdf-syntax-ns#"
   xmlns:svg="http://www.w3.org/2000/svg"
   xmlns="http://www.w3.org/2000/svg"
   xmlns:sodipodi="http://sodipodi.sourceforge.net/DTD/sodipodi-0.dtd"
   xmlns:inkscape="http://www.inkscape.org/namespaces/inkscape"
   version="1.1"
   id="svg2"
   inkscape:version="0.92.3 (2405546, 2018-03-11)"
   sodipodi:docname="python.svg"
   x="0px"
   y="0px"
   viewBox="0 0 259.01285 62.826248"
   xml:space="preserve"
   width="259.01285"
   height="62.826248"><metadata
   id="metadata207"><rdf:RDF><cc:Work
       rdf:about=""><dc:format>image/svg+xml</dc:format><dc:type
         rdf:resource="http://purl.org/dc/dcmitype/StillImage" /></cc:Work></rdf:RDF></metadata><defs
   id="defs205" /><sodipodi:namedview
   pagecolor="#ffffff"
   bordercolor="#666666"
   borderopacity="1"
   objecttolerance="10"
   gridtolerance="10"
   guidetolerance="10"
   inkscape:pageopacity="0"
   inkscape:pageshadow="2"
   inkscape:window-width="1366"
   inkscape:window-height="705"
   id="namedview203"
   showgrid="false"
   inkscape:zoom="0.18684896"
   inkscape:cx="-1464.5671"
   inkscape:cy="-819.1495"
   inkscape:window-x="-8"
   inkscape:window-y="-8"
   inkscape:window-maximized="1"
   inkscape:current-layer="svg2" />
<style
   type="text/css"
   id="style2">
	.st0{fill:#F48821;}
	.st1{clip-path:url(#SVGID_2_);fill:#F48821;}
	.st2{clip-path:url(#SVGID_4_);fill:#F48821;}
	.st3{clip-path:url(#SVGID_6_);fill:#F48821;}
	.st4{clip-path:url(#SVGID_8_);fill:#F48821;}
	.st5{clip-path:url(#SVGID_10_);fill:#F48821;}
	.st6{clip-path:url(#SVGID_12_);fill:#F48821;}
	.st7{clip-path:url(#SVGID_14_);fill:#F48821;}
	.st8{clip-path:url(#SVGID_16_);fill:#F48821;}
	.st9{clip-path:url(#SVGID_18_);fill:#F48821;}
	.st10{fill:none;stroke:#F48821;stroke-width:1.1256;stroke-dasharray:4.2331;}
	.st11{fill:none;}
	.st12{fill:#FFFFFF;}
	.st13{fill:none;stroke:#F48821;stroke-width:0.5;stroke-miterlimit:10;}
</style>










<g
   id="g172"
   transform="translate(-495.28715,-153.1)">
	<path
   id="path46"
   inkscape:connector-curvature="0"
   class="st0"
   d="m 592.9,185 c 0,-7.9 -2.3,-12 -6.8,-12.2 -1.8,-0.1 -3.6,0.2 -5.3,0.9 -1.4,0.5 -2.3,1 -2.8,1.5 v 19 c 2.9,1.8 5.5,2.7 7.7,2.5 4.9,-0.4 7.2,-4.3 7.2,-11.7 z m 5.6,0.3 c 0,4 -0.9,7.4 -2.9,10.1 -2.1,3 -5.1,4.6 -8.8,4.7 -2.8,0.1 -5.8,-0.8 -8.8,-2.7 v 17.2 l -4.9,-1.7 v -38.3 c 0.8,-1 1.8,-1.8 3.1,-2.5 2.9,-1.7 6.4,-2.6 10.5,-2.6 l 0.1,0.1 c 3.8,0 6.7,1.5 8.7,4.7 2.1,2.8 3,6.5 3,11 z"
   style="fill:#f48821" />
	<path
   id="path48"
   inkscape:connector-curvature="0"
   class="st0"
   d="m 628.2,196.7 c 0,5.4 -0.5,9.2 -1.6,11.2 -1.1,2.1 -3.2,3.7 -6.2,5 -2.5,1 -5.2,1.5 -8.1,1.6 l -0.8,-3.1 c 2.9,-0.4 5,-0.8 6.2,-1.2 2.4,-0.8 4,-2 4.9,-3.7 0.7,-1.3 1.1,-3.9 1.1,-7.7 v -1.3 c -3.3,1.5 -6.8,2.3 -10.4,2.3 -2.4,0 -4.5,-0.8 -6.3,-2.3 -2,-1.6 -3.1,-3.7 -3.1,-6.3 V 171 l 4.9,-1.7 v 20.4 c 0,2.2 0.7,3.9 2.1,5 1.4,1.2 3.2,1.7 5.5,1.7 2.2,0 4.6,-0.9 7.2,-2.6 V 170 h 4.9 z"
   style="fill:#f48821" />
	<path
   id="path50"
   inkscape:connector-curvature="0"
   class="st0"
   d="m 647.2,199.8 c -0.6,0 -1.1,0.1 -1.6,0.1 -2.8,0 -4.9,-0.7 -6.4,-2 -1.5,-1.3 -2.3,-3.1 -2.3,-5.4 v -19.1 h -3.3 v -3.1 h 3.3 v -8.1 l 4.9,-1.7 v 9.8 h 5.5 v 3.1 h -5.5 v 19 c 0,1.8 0.5,3.1 1.5,3.9 0.8,0.6 2.2,1 4,1.1 z"
   style="fill:#f48821" />
	<path
   id="path52"
   inkscape:connector-curvature="0"
   class="st0"
   d="m 676.6,199.4 h -4.9 v -18.8 c 0,-1.9 -0.4,-3.6 -1.3,-4.9 -1,-1.6 -2.5,-2.3 -4.3,-2.3 -2.2,0 -5,1.2 -8.4,3.5 v 22.5 h -4.9 v -44.8 l 4.9,-1.5 v 20.4 c 3.1,-2.3 6.5,-3.4 10.2,-3.4 2.6,0 4.7,0.9 6.3,2.6 1.6,1.7 2.4,3.9 2.4,6.5 z"
   style="fill:#f48821" />
	<path
   id="path54"
   inkscape:connector-curvature="0"
   class="st0"
   d="m 702.5,184.2 c 0,-3.1 -0.6,-5.6 -1.7,-7.6 -1.4,-2.4 -3.5,-3.7 -6.4,-3.8 -5.3,0.3 -8,4.1 -8,11.4 0,3.4 0.6,6.2 1.7,8.4 1.4,2.9 3.6,4.3 6.4,4.2 5.3,0.1 8,-4.1 8,-12.6 z m 5.3,0.1 c 0,4.3 -1.1,8 -3.3,10.9 -2.4,3.2 -5.8,4.9 -10.1,4.9 -4.3,0 -7.6,-1.6 -10,-4.9 -2.2,-2.9 -3.3,-6.5 -3.3,-10.9 0,-4.1 1.2,-7.5 3.5,-10.3 2.5,-3 5.7,-4.5 9.8,-4.5 4,0 7.3,1.5 9.9,4.5 2.3,2.8 3.5,6.2 3.5,10.3 z"
   style="fill:#f48821" />
	<path
   id="path56"
   inkscape:connector-curvature="0"
   class="st0"
   d="m 735.7,199.4 h -4.9 v -19.8 c 0,-2.2 -0.7,-3.9 -2,-5.1 -1.3,-1.2 -3.1,-1.8 -5.2,-1.8 -2.3,0 -4.5,0.8 -6.6,2.3 v 24.4 h -4.9 v -25 c 2.8,-2 5.4,-3.4 7.7,-4 2.2,-0.6 4.2,-0.9 5.9,-0.9 1.2,0 2.2,0.1 3.3,0.3 1.9,0.4 3.5,1.3 4.7,2.5 1.3,1.3 2,2.9 2,4.8 z"
   style="fill:#f48821" />
	<path
   id="path1948"
   inkscape:connector-curvature="0"
   class="st0"
   d="m 525.2,154.7 c -2.5,0 -4.9,0.2 -7,0.6 -6.2,1.1 -7.3,3.4 -7.3,7.6 v 5.6 h 14.6 v 1.9 h -14.6 -5.5 c -4.3,0 -8,2.6 -9.1,7.4 -1.3,5.6 -1.4,9 0,14.9 1,4.3 3.5,7.4 7.8,7.4 h 5 v -6.7 c 0,-4.8 4.2,-9.1 9.1,-9.1 h 14.6 c 4.1,0 7.3,-3.3 7.3,-7.4 V 163 c 0,-4 -3.3,-6.9 -7.3,-7.6 -2.5,-0.5 -5.1,-0.7 -7.6,-0.7 z m -7.9,4.5 c 1.5,0 2.7,1.3 2.7,2.8 0,1.5 -1.2,2.8 -2.7,2.8 -1.5,0 -2.7,-1.2 -2.7,-2.8 0,-1.5 1.2,-2.8 2.7,-2.8 z"
   style="fill:#f48821" />
	<path
   id="path1950"
   inkscape:connector-curvature="0"
   class="st0"
   d="m 542,170.3 v 6.5 c 0,5 -4.3,9.3 -9.1,9.3 h -14.6 c -4,0 -7.3,3.4 -7.3,7.4 v 13.9 c 0,4 3.4,6.3 7.3,7.4 4.6,1.4 9.1,1.6 14.6,0 3.7,-1.1 7.3,-3.2 7.3,-7.4 v -5.6 h -14.6 v -1.9 h 14.6 7.3 c 4.3,0 5.8,-3 7.3,-7.4 1.5,-4.6 1.5,-9 0,-14.9 -1.1,-4.2 -3.1,-7.4 -7.3,-7.4 z m -8.2,35.3 c 1.5,0 2.7,1.2 2.7,2.8 0,1.5 -1.2,2.8 -2.7,2.8 -1.5,0 -2.7,-1.3 -2.7,-2.8 -0.1,-1.5 1.2,-2.8 2.7,-2.8 z"
   style="fill:#f48821" />
	<path
   id="text3004"
   inkscape:connector-curvature="0"
   sodipodi:nodetypes="ccccccccccccccccccccccc"
   class="st0"
   d="m 745.1,165.9 h 0.9 v -5.3 h 2 V 160 h -4.9 v 0.6 h 2 v 5.3 m 3.7,0 h 0.7 V 161 l 1.6,4.9 h 0.8 l 1.6,-4.9 v 4.9 h 0.8 v -6 h -1.1 l -1.8,5.1 -1.5,-5.1 h -1.2 v 6"
   style="fill:#f48821" />
</g>


</svg>