<svg height="61.226246" viewBox="0 0 60.637848 61.226246" width="60.637848" xmlns="http://www.w3.org/2000/svg"><g fill="#f48821"><path d="m29.912847 0c-2.5 0-4.9.2-7 .6-6.2 1.1-7.3 3.4-7.3 7.6v5.6h14.6v1.9h-14.6-5.5c-4.3 0-8 2.6-9.1 7.4-1.30000002 5.6-1.40000002 9 0 14.9 1 4.3 3.5 7.4 7.8 7.4h5v-6.7c0-4.8 4.2-9.1 9.1-9.1h14.6c4.1 0 7.3-3.3 7.3-7.4v-13.9c0-4-3.3-6.9-7.3-7.6-2.5-.5-5.1-.7-7.6-.7zm-7.9 4.5c1.5 0 2.7 1.3 2.7 2.8s-1.2 2.8-2.7 2.8-2.7-1.2-2.7-2.8c0-1.5 1.2-2.8 2.7-2.8z"/><path d="m46.712847 15.6v6.5c0 5-4.3 9.3-9.1 9.3h-14.6c-4 0-7.3 3.4-7.3 7.4v13.9c0 4 3.4 6.3 7.3 7.4 4.6 1.4 9.1 1.6 14.6 0 3.7-1.1 7.3-3.2 7.3-7.4v-5.6h-14.6v-1.9h14.6 7.3c4.3 0 5.8-3 7.3-7.4 1.5-4.6 1.5-9 0-14.9-1.1-4.2-3.1-7.4-7.3-7.4zm-8.2 35.3c1.5 0 2.7 1.2 2.7 2.8 0 1.5-1.2 2.8-2.7 2.8s-2.7-1.3-2.7-2.8c-.1-1.5 1.2-2.8 2.7-2.8z"/></g></svg>