<svg height="374" width="1024" xmlns="http://www.w3.org/2000/svg" xmlns:xlink="http://www.w3.org/1999/xlink"><clipPath id="a"><path d="m0 501.602v-501.602h1863.85v501.602z"/></clipPath><g fill="#b3b3b3"><g transform="matrix(.22874914 0 0 .22874914 -228.48088966504 86.9550887545)"><g transform="matrix(1.171875 0 0 1.171875 3295.2356 -236.1387)"><path d="m851.84375 58.5 14.1875 158.96875 63.59375 17.65625 63.78125-17.65625 14.18755-158.96875zm28.84375 32.09375h97.9375l-1.9375 19.8125h-74.59375l2.125 19.96875h70.875l-5.28125 59.90625-39.96875 11.3125s-40.3125-10.42862-40.3125-11.3125-2.8125-30.75-2.8125-30.75h19.4375l1.9375 15.21875 21.5625 6.34375 21.59375-6 2.09375-25.625h-67.15625z" transform="matrix(2.3290186 0 0 2.3290186 -1909.327 -35.640073)"/><path d="m108.382 0h23.077v22.8h21.11v-22.8h23.078v69.044h-23.077v-23.12h-21.11v23.12h-23.077v-69.044z"/><path d="m205.994 22.896h-20.316v-22.896h63.72v22.896h-20.325v46.148h-23.078v-46.148z"/><path d="m259.511 0h24.063l14.802 24.26 14.787-24.26h24.072v69.044h-22.982v-34.222l-15.877 24.549h-.397l-15.888-24.549v34.222h-22.58z"/><path d="m348.72 0h23.084v46.222h32.453v22.822h-55.537z"/></g><g transform="matrix(3.6674734 0 0 3.6674734 228.5039679006 -1841.0718770948)"><path d="m253.21504 498.42081h15.257142v66.38195h-15.257142z"/><path d="m322.40625 472.125c-22.69243 0-41.09375 16.91768-41.09375 47.5s18.40133 47.5 41.09375 47.5 40.77417-20.418 40.77417-47.45813c0-30.07215-18.08175-47.54187-40.77417-47.54187zm.0937 13.25c13.13856 0 24.28298 18.15444 24.03125 36.28125-.2517 18.12683-10.89264 32.21875-24.0312 32.21875-13.13855 0-24.65625-12.20554-24.65625-34.25 0-22.04447 11.5177-34.25 24.65625-34.25z"/><path d="m271.31303 480.71344c0 5.46299-4.86663 9.89162-10.86991 9.89162-6.00329 0-10.86992-4.42863-10.86992-9.89162s4.86663-9.89162 10.86992-9.89162c6.00328 0 10.86991 4.42863 10.86991 9.89162z" transform="matrix(.91 0 0 .934066 23.9834 31.9128)"/><path d="m373.92502 546.25901s9.56553 6.08716 22.17462 5.86976c12.6091-.2174 15.00049-7.60894 14.78309-13.91349s-8.89743-11.45223-20.21804-15.00048c-14.56568-4.56537-20.43544-20.00064-18.69625-31.08795 1.73918-11.08732 16.08747-20.00064 32.17494-19.34845s19.78324 4.78276 19.78324 4.78276l-3.69577 13.69609s-8.26113-5.86975-15.00048-5.65235c-6.73934.2174-16.52227 3.69577-17.17446 9.56552-.6522 5.86975 4.78276 11.73951 12.1743 15.21788s28.69657 11.30471 27.60958 29.56616c-1.08699 18.26146-16.08747 22.82682-23.04421 25.00081-6.95675 2.17398-19.13105.21739-24.56601-1.30439-5.43496-1.52179-10.86991-3.26098-10.86991-3.26098z"/></g><g transform="matrix(1.7426699 0 0 1.7426699 2947.9214 -114.69319)"><g><use fill="#b3b3b3" height="1" stroke="#fff" stroke-width="14.4" width="1" xlink:href="#d"/><use fill="#b3b3b3" height="1" transform="scale(-1 1)" width="1" xlink:href="#b"/><g id="b" fill="#b3b3b3" stroke="#fff" stroke-width="7.2"><rect fill="#b3b3b3" height="86" rx="6.5" transform="matrix(.87461971 .48480962 -.48480962 .87461971 0 0)" width="13" x="14" y="-86"/><rect id="c" fill="#b3b3b3" height="133" rx="24" width="48" x="-143" y="41"/><use fill="#b3b3b3" height="1" width="1" x="85" xlink:href="#c" y="97"/></g><g id="d" fill="#b3b3b3"><ellipse cy="41" fill="#b3b3b3" rx="91" ry="84"/><rect fill="#b3b3b3" height="182" rx="22" width="182" x="-91" y="20"/></g></g><g stroke="#fff" stroke-width="7.2"><path d="m-95 44.5h190"/><circle cx="-42" r="4"/><circle cx="42" r="4"/></g></g><path d="m333.98443 502.79806c-19.80118-.61288-32.78532 9.22846-32.78532 9.22846s-159.57888 90.52858-192.82627 111.30819c-33.247377 20.77963-29.790117 50.59463-29.790117 50.59463v232.00675c0 20.77962 5.099939 24.60923 5.099939 24.60923 7.916069 9.40031 17.728358 16.19028 17.728358 16.19028s171.09208 100.9083 204.24042 117.9462c33.14847 17.0378 54.72315 0 54.72315 0s181.83345-105.57206 200.11189-115.51766c13.8522-9.58446 18.20407-16.08037 19.26644-17.89026l-100.32401-59.20189s-42.60642 87.31239-153.29677 84.86349c-75.59749 0-119.79365-37.83099-143.12209-83.46091-15.66571-30.64175-21.93784-64.80579-21.93784-93.33697 0-71.01814 64.62239-162.55451 168.9456-162.06473 104.32321.48979 148.7887 85.24184 148.7887 85.24184l101.90914-58.52685c-13.12184-16.54566-22.81961-21.2103-22.81961-21.2103s-157.29671-90.80428-193.23102-111.55104c-11.22953-6.48336-21.68006-8.94988-30.68059-9.22846zm144.82208 200.51665c-3.89241 2.23806-7.11539 4.09763-11.25225 6.47611l-15.29982 8.8237-47.35657 27.44253c-7.43233-15.51832-39.12202-43.309-75.36577-43.309s-83.78471 40.18205-83.78471 85.24183c0 14.89226 4.78812 29.33897 12.79032 42.01379 16.2102 25.67558 45.68396 44.04168 75.85148 43.71376 45.05978-.48978 70.00563-45.47735 70.00563-45.47735-127.72779-74.53064 136.10503 80.05573 175.3581 103.03375l.50009-.70529s7.54806-10.29382 7.02844-23.25633c-.29715-7.41533-.0809-242.61138-.0809-242.61138s-.59594-10.54958-6.49635-19.93429c-6.62009 3.82212-66.66135 38.28791-101.89759 58.54812zm-16.19029 55.93742h19.42834v19.26644h19.26644v19.34738h-19.26644v19.59025h-19.42834v-19.59025h-19.50929v-19.34738h19.50929zm70.83249 0h19.34739v19.26644h19.34739v19.34738h-19.34739v19.59025h-19.34739v-19.59025h-19.50929v-19.34738h19.50929z" transform="matrix(1.0536099 0 0 1.0536099 1894.35399021464 -765.88685190954)"/><g clip-path="url(#a)" transform="matrix(.71770747 0 0 -.71770747 3987.0869 243.84748)"><g fill-rule="evenodd"><path d="m279.48 235.035c0 5.418-2.847 10.399-7.527 13.086l-124.687 71.758c-2.11 1.238-4.473 1.883-6.868 1.98-.21 0-1.113 0-1.289 0-2.379-.097-4.746-.742-6.882-1.98l-124.68794-71.758c-4.64844-2.687-7.53906-7.668-7.53906-13.086l.273438-193.2225c0-2.6875 1.394532-5.1875 3.757812-6.5039 2.31641-1.3867 5.17578-1.3867 7.48435 0l74.0977 42.4297c4.6875 2.7851 7.5429 7.6953 7.5429 13.0664v90.2733c0 5.383 2.8516 10.363 7.5198 13.039l31.551 18.172c2.351 1.359 4.921 2.023 7.546 2.023 2.571 0 5.207-.664 7.493-2.023l31.543-18.172c4.668-2.676 7.531-7.656 7.531-13.039v-90.2733c0-5.3711 2.89-10.3125 7.547-13.0664l74.082-42.4297c2.324-1.3867 5.222-1.3867 7.527 0 2.297 1.3164 3.742 3.8164 3.742 6.5039z"/><path d="m933.711 134.426c0-1.344-.719-2.59-1.887-3.258l-42.824-24.688c-1.164-.668-2.598-.668-3.762 0l-42.828 24.688c-1.164.668-1.883 1.914-1.883 3.258v49.453c0 1.34.719 2.586 1.879 3.262l42.828 24.734c1.168.676 2.602.676 3.77 0l42.828-24.734c1.16-.676 1.879-1.922 1.879-3.262zm11.57 366.222c-2.332 1.301-5.179 1.27-7.484-.082-2.301-1.351-3.715-3.824-3.715-6.492v-191.355c0-1.879-1.008-3.621-2.633-4.563-1.629-.945-3.64-.945-5.273 0l-31.231 17.992c-4.656 2.684-10.39 2.68-15.047-.003l-124.738-71.989c-4.664-2.691-7.531-7.66-7.531-13.043v-144.0036c0-5.3789 2.867-10.3516 7.527-13.0469l124.731-72.03906c4.664-2.691409 10.406-2.691409 15.07 0l124.753 72.03906c4.66 2.6953 7.53 7.668 7.53 13.0469v358.9646c0 5.461-2.96 10.492-7.73 13.156z"/><path d="m1391.55 185.172c4.64 2.695 7.49 7.656 7.49 13.023v34.895c0 5.367-2.85 10.332-7.5 13.027l-123.93 71.961c-4.67 2.707-10.42 2.711-15.1.02l-124.69-71.989c-4.66-2.691-7.53-7.66-7.53-13.043v-143.9644c0-5.4141 2.91-10.4102 7.61-13.086l123.92-70.60935c4.57-2.60937 10.17-2.63672 14.77-.08203l74.95 41.66018c2.38 1.3203 3.86 3.8164 3.87 6.5312.02 2.7149-1.43 5.2305-3.78 6.5821l-125.48 72.0233c-2.35 1.34-3.79 3.836-3.79 6.531v45.118c0 2.691 1.44 5.179 3.77 6.523l39.06 22.516c2.32 1.343 5.19 1.343 7.52 0l39.07-22.516c2.33-1.344 3.77-3.832 3.77-6.523v-35.497c0-2.695 1.44-5.187 3.77-6.531 2.34-1.347 5.21-1.336 7.54.016z"/><path d="m506.301 318.852c4.656 2.691 10.398 2.691 15.054 0l124.723-71.973c4.664-2.688 7.535-7.66 7.535-13.047v-144.0547c0-5.3828-2.871-10.3515-7.527-13.0468l-124.723-72.03128c-4.664-2.69141-10.406-2.69141-15.07 0l-124.691 72.03128c-4.661 2.6953-7.532 7.664-7.532 13.0468v144.0627c0 5.379 2.871 10.351 7.535 13.039z"/></g><path d="m1633.71 2.64062c-4.3 0-8.57 1.125-12.33 3.30079l-39.27 23.23439c-5.86 3.2812-3 4.4414-1.07 5.1172 7.83 2.7148 9.41 3.3398 17.76 8.0742.87.4883 2.02.3047 2.92-.2227l30.16-17.9101c1.1-.6055 2.64-.6055 3.65 0l117.6 67.8789c1.1.625 1.8 1.8867 1.8 3.1836v135.7231c0 1.328-.7 2.57-1.82 3.242l-117.56 67.824c-1.09.633-2.53.633-3.63 0l-117.53-67.844c-1.14-.652-1.86-1.933-1.86-3.222v-135.7231c0-1.2969.72-2.5274 1.85-3.1446l32.22-18.6132c17.48-8.7383 28.19 1.5547 28.19 11.8945v134.0044c0 1.894 1.52 3.39 3.41 3.39h14.92c1.86 0 3.4-1.496 3.4-3.39v-134.0044c0-23.3281-12.7-36.707-34.82-36.707-6.8 0-12.15 0-27.09 7.3632l-30.84 17.754c-7.62 4.4023-12.33 12.6367-12.33 21.4531v135.7231c0 8.82 4.71 17.05 12.33 21.437l117.61 67.957c7.44 4.211 17.33 4.211 24.71 0l117.6-67.957c7.62-4.406 12.35-12.617 12.35-21.437v-135.7231c0-8.8164-4.73-17.0196-12.35-21.4531l-117.6-67.90239c-3.76-2.17579-8.02-3.30079-12.38-3.30079"/><path d="m1670.04 96.1484c-51.47 0-62.25 23.6216-62.25 43.4376 0 1.883 1.52 3.387 3.4 3.387h15.21c1.7 0 3.11-1.219 3.38-2.879 2.29-15.481 9.14-23.293 40.26-23.293 24.77 0 35.32 5.605 35.32 18.75 0 7.578-2.99 13.203-41.49 16.972-32.18 3.184-52.08 10.293-52.08 36.036 0 23.73 20 37.882 53.53 37.882 37.68 0 56.32-13.078 58.68-41.132.09-.969-.25-1.895-.89-2.618-.65-.675-1.55-1.086-2.49-1.086h-15.27c-1.58 0-2.98 1.125-3.3 2.657-3.66 16.289-12.57 21.496-36.73 21.496-27.05 0-30.19-9.426-30.19-16.485 0-8.554 3.71-11.046 40.23-15.878 36.14-4.778 53.31-11.543 53.31-36.946 0-25.625-21.37-40.3006-58.63-40.3006"/><path d="m1832.21 320.102v-3.485h-9.9v-25.793h-3.99v25.793h-9.86v3.485z"/><path d="m1835.74 320.102h5.69l8.4-24.747 8.37 24.747h5.65v-29.278h-3.79v17.278c0 .605.01 1.589.03 2.957.04 1.406.06 2.89.06 4.464l-8.37-24.699h-3.93l-8.44 24.699v-.878c0-.723 0-1.817.05-3.301.03-1.457.07-2.539.07-3.242v-17.278h-3.79z"/><path d="m1258.22 191.914c.9.52 2 .52 2.89 0l23.94-13.809c.89-.515 1.44-1.468 1.44-2.503v-27.637c0-1.035-.55-1.988-1.44-2.504l-23.94-13.809c-.89-.519-1.99-.519-2.89 0l-23.91 13.809c-.9.516-1.45 1.469-1.45 2.504v27.637c0 1.035.55 1.988 1.45 2.503z" fill-rule="evenodd"/></g></g><g><path d="m1686.4375-157.875c-20.1251 0-36.3437 16.18738-36.3437 36.3125v375c0 20.12512 16.2186 36.3125 36.3437 36.3125h374.9687c20.1252 0 36.3438-16.18738 36.3438-36.3125v-375c0-20.12512-16.2186-36.3125-36.3438-36.3125zm307.9063 47.84375c3.9163.003 6.1562.1875 6.1562.1875v69.15625c-65.6229 0-86.7188 70.3125-86.7188 70.3125h51.5626v66.78125h-76.1876c-35.1551 135.93305-165.2187 141.78125-165.2187 141.78125v-72.625c38.6706-4.68734 53.891-12.89112 66.7813-28.125 12.8902-15.23388 32.8128-57.438569 42.1874-90.25 9.3747-32.811427 12.8922-62.111017 58.5938-112.5 37.1326-40.94105 85.873-44.72991 102.8438-44.71875z" transform="matrix(.30661711138 0 0 .30661711138 -180.82253278758 252.2246399507)"/><g transform="matrix(.76982883302 0 0 .76982883302 88.21511422945 215.47487193698)"><path id="e" d="m45 125 16-81h37c16 1 24 9 24 23 0 24-19 38-36 37h-18l-4 21zm27-36 5-30h13c7 0 12 3 12 9-1 17-9 20-18 21z" fill="#b3b3b3" fill-rule="evenodd" stroke="#fff" stroke-linejoin="round" stroke-width="2"/><g fill="#b3b3b3"><path d="m116 104 16-81h19l-4 21h18c16 1 22 9 20 19l-7 41h-20l7-37c1-5 1-8-6-8h-15l-9 45z" stroke="#fff" stroke-linejoin="round" stroke-width="2"/><use height="1" transform="translate(134)" width="1" xlink:href="#e"/></g></g><g transform="matrix(.44578062818 0 0 .44578062818 766.26247002073 215.14602217331)"><path d="m277.47 77.82c0-13.03-.01-26.05.01-39.08 2.75-.01 5.51-.01 8.27-.01.04 12.3 0 24.6.02 36.9 6.18-1.64 12.34-3.32 18.52-4.96.01 6.86.01 13.72 0 20.59-6.17 1.67-12.36 3.31-18.52 4.99 0 16.77-.01 33.55 0 50.32 6.18-1.64 12.34-3.32 18.52-4.96.01 6.86 0 13.72 0 20.58-6.17 1.68-12.35 3.31-18.52 4.99-.02 12.14 0 24.28-.01 36.42-2.76 0-5.53 0-8.29-.01-.01-11.44.01-22.89 0-34.33-12.32 3.31-24.63 6.62-36.94 9.96-.01 13.04.01 26.07-.01 39.11-2.78 0-5.56 0-8.34 0-.02-12.3.01-24.61-.01-36.91-6.16 1.64-12.3 3.32-18.46 4.95-.01-6.9-.01-13.8 0-20.7 6.15-1.68 12.31-3.3 18.46-4.98 0-16.73.02-33.47 0-50.2-6.16 1.63-12.3 3.31-18.46 4.95-.01-6.87-.01-13.73 0-20.59 6.15-1.68 12.31-3.3 18.46-4.98.01-12.15 0-24.31.01-36.47 2.78 0 5.56 0 8.35.01.01 11.45-.01 22.91 0 34.37 12.32-3.31 24.63-6.62 36.94-9.96m-36.93 30.57c-.02 16.74-.01 33.48-.01 50.22 12.32-3.32 24.63-6.64 36.94-9.96 0-16.74.01-33.47-.01-50.21-12.31 3.3-24.61 6.64-36.92 9.95z"/><path d="m90.61 48.54c14.64-7.16 31.43-9.11 47.52-7.33 15.29 1.72 30.23 8.48 40.71 19.9 7.61 8.14 12.59 18.38 15.74 28.99-7.32 1.74-14.64 3.48-21.97 5.2-3.87-12.44-11.25-24.65-23.26-30.64-13.35-6.58-29.38-6.01-43.3-1.54-15.4 5.06-26.15 19.01-30.87 34.07-5.42 17.27-5.25 35.9-2.15 53.59 2.48 14.26 9.52 28.14 21.54 36.63 13.16 9.65 30.88 11.34 46.39 7.41 11.88-3.02 21.86-11.61 27.4-22.45 3.16-5.87 5.21-12.27 6.79-18.73 7.44 1.9 14.9 3.74 22.33 5.7-4.13 15.71-11.67 31.2-24.58 41.53-13.32 10.95-30.88 15.64-47.94 15.1-19.17-.19-39.51-5.51-53.06-19.84-13.59-14.72-21.17-34.3-23.44-54.04-1.88-18.53-.81-37.82 6.31-55.21 6.71-16.6 19.77-30.48 35.84-38.34z"/></g><g><g transform="matrix(.36892002502 0 0 .36892002502 506.61670366906 124.58280668427)"><path d="m64.777646 457.92374s17.604287-21.12515 44.416974-25.3231c-16.385524-.40625-21.954511 4.22053-26.742257.77336-4.78773-3.44716 6.22406-14.26745 6.22406-14.26745s-36.019732 21.04334-23.898777 38.81719z"/><path d="m103.1354 344.99239s26.23678 21.83208 32.36508 11.87358c6.12831-9.95848-13.21414-12.2566-32.36508-11.87358z"/><path d="m232.82065 344.66842s-26.23681 21.83208-32.3651 11.87359c-6.1283-9.95849 13.21415-12.25661 32.3651-11.87359z"/><path d="m273.10298 457.92374s-17.60429-21.12515-44.41697-25.3231c16.38554-.40625 21.95452 4.22053 26.74226.77336 4.78772-3.44716-6.22407-14.26745-6.22407-14.26745s36.01974 21.04334 23.89878 38.81719z"/><path d="m55.068201 257.65461c-1.149052 4.59623.771881 15.72199.771881 15.72199s9.119025 11.63653 13.020403 22.97359c3.847427 11.18031 4.973129 18.37556-6.134417 44.03782-9.19245 17.61887-9.357928 31.59112-12.248524 37.15182-4.62364 8.8946-8.055358 4.98939-6.906299 27.97052 0 0 31.79458-24.9065 21.836089-30.65178-7.660379-4.59623 5.752633-16.07037 30.265837-19.13452-9.958488-9.57547-1.920109-23.74826 15.315739-21.45014 17.23585 2.2981 29.61317 14.66838 44.8097 22.20171 3.92643 1.94645 5.74624-5.81047 2.27501-9.6485-4.64504-5.13589-11.81442-6.12657-11.84227-11.41571-.0212-4.03732 11.47942-6.50617 9.18132-12.63446-3.71972-9.91928-19.14342-2.30729-22.97361-9.20163-3.83019-6.89435-.77439-10.71353 6.88599-11.86259 7.66037-1.14906-.37535-24.89997-20.29233-16.47355-19.916986 8.42641-26.438977 1.91747-38.695595-10.33913-8.721559-8.72157-16.459489-13.79827-25.268924-17.24544zm7.657867 19.35794c25.662262 8.61793 32.743986 24.13143 32.743986 24.13143s-7.652644 7.65515-18.951703 11.29383c5.170758-27.00283-13.792283-35.42526-13.792283-35.42526z"/><path d="m278.19557 257.65461c1.14904 4.59623-.77189 15.72199-.77189 15.72199s-9.11902 11.63653-13.02041 22.97359c-3.84743 11.18031-4.97313 18.37556 6.13443 44.03782 9.19244 17.61887 9.35792 31.59112 12.24852 37.15182 4.62364 8.8946 8.05536 4.98939 6.9063 27.97052 0 0-31.79458-24.9065-21.8361-30.65178 7.66039-4.59623-5.75263-16.07037-30.26584-19.13452 9.9585-9.57547 1.92012-23.74826-15.31573-21.45014-17.23584 2.2981-29.61317 14.66838-44.80969 22.20171-3.92644 1.94645-5.74625-5.81047-2.27502-9.6485 4.64505-5.13589 11.81443-6.12657 11.84227-11.41571.0212-4.03732-11.47942-6.50617-9.18132-12.63446 3.71973-9.91928 19.14342-2.30729 22.97361-9.20163 3.83019-6.89435.77439-10.71353-6.88599-11.86259s.37536-24.89997 20.29233-16.47355c19.91699 8.42641 26.43899 1.91747 38.69559-10.33913 8.72156-8.72157 16.45949-13.79827 25.26894-17.24544zm-7.65787 19.35794c-25.66228 8.61793-32.74399 24.13143-32.74399 24.13143s7.65264 7.65515 18.95169 11.29383c-5.17075-27.00283 13.7923-35.42526 13.7923-35.42526z"/><path d="m31.32272 214.77462c-4.596222 44.43019 21.444446 84.64306 23.359542 90.00532 1.915094 5.36226 1.154628 13.77809-4.590659 19.9064-17.235847 21.44906-23.742563 86.19362-23.359541 111.08984.383015 24.89624 7.271928 27.9502 7.271928 27.9502s.75754-3.07039 4.204716-8.81568c.383016 12.25661 4.603437 35.24061 27.584569 56.30665 6.128299-50.94152 51.707915-52.85921 63.964525-50.94411.38301 6.1283 13.01177 39.8477 14.54385 41.76279s31.0327 12.25953 46.35345.38594c15.32075-11.87358 4.98883-25.67892 17.24544-42.14873 49.02641-6.1283 63.94991 35.24618 62.03481 51.71599 18.76793-18.76793 22.99391-41.74249 22.99391-41.74249s4.97967 3.43298 8.04382 6.11411c24.13019-73.53963-14.18157-150.14021-22.60798-164.69492 28.72642-58.98491 24.90609-81.19324 22.60798-94.98192-20.30001 18.00188-64.74001 47.8769-78.52869 47.8769-13.78867 0-21.0681-8.04979-40.21904-11.49696 0 7.66039-13.79228 23.74548-13.79228 23.74548s-9.95347-12.25491-15.31574-23.74548c-17.61887-.76604-28.72567 14.17225-42.51435 10.72508-29.875485-7.27737-79.28026-49.01441-79.28026-49.01441zm256.99558 23.74547s3.84187 9.55878 1.54376 13.77198c-2.29812 4.21321-5.74278 14.18434-7.65787 20.31264-1.9151 6.12831-5.37144 20.68147-9.20163 26.42676-3.83018 5.74528-8.41737 11.87842 6.52036 37.9237s22.40444 82.53896 14.36104 82.34746c-8.0434-.19151-20.48758-21.06455-36.76588-27.76739-16.2783-6.70282-30.65247-7.28931-44.05813-6.90629-8.38209.23949-18.67099 3.12264-19.31733 9.05943-.41591 3.82025 5.53421 2.62917 14.72667 5.1188 9.38395 2.68112 7.68416 6.82797 5.93129 11.11101-1.81343 4.43102-10.70898.88056-19.37826-1.15782-8.34461-1.96203-18.20944-5.73618-17.38762-8.61256 2.29811-8.0434 10.43478-9.24636 10.33913-17.61107-.0547-4.78786-9.20217-11.49695-19.9267-11.49695-10.72454 0-14.93286 3.06748-17.997 8.42975-3.06416 5.36226 4.91013 13.32329 7.29224 17.61106 3.83018 6.89434-15.33381 18.37989-28.35645 15.31574-13.02266-3.06415.54441-15.18933 10.72507-16.08762 13.02265-1.14907.007-10.72508-17.61106-10.72508-17.61887 0-24.51207 3.07611-34.470565 6.9063-9.95848 3.8302-22.983587 6.12105-48.262838 28.33614-3.830184-48.26038 18.37153-85.80088 22.201721-91.16315 3.830187-5.36226 7.675115-12.24017 4.610967-19.13451-16.086792-36.76982-20.678269-71.25676-20.678269-71.25676s19.135609 14.5533 40.584658 29.10803c21.449066 14.55471 36.006786 9.20413 58.987936 1.54376 6.12829 34.4717 23.74547 48.26284 23.74547 48.26284 13.78869-12.2566 18.77751-34.09366 17.24544-40.60498-1.53208-6.51132-.37941-13.40314 13.79227-7.65786 23.36416 7.66037 27.94546 6.89419 48.62848-2.68127 20.68302-9.57548 39.8331-28.72209 39.8331-28.72209zm-182.69193 165.46681c12.63963 15.70377 13.02694 15.69305 27.19863 17.22512 5.74529 15.70379 2.29629 20.68577 21.06421 53.62538 0-1.53208.38595-51.71599.38595-51.71599s5.7368 1.34376 5.35377 6.32301c.38303 5.74528-.0958 11.39827-.0958 11.39827l5.08111-5.5571 4.39039 5.55418 5.08682-5.07541 4.60241 5.08703s.36545-8.53368.47008-12.37036c.0662-2.42824 5.55982-6.11119 5.55982-6.11119v25.47205l-2.88439 28.13302s13.78671-19.90218 18.38294-51.30974c18.3849-6.1283 27.19863-13.41831 27.19863-20.31265 13.40566-2.29811 56.6898 11.11253 58.98792 40.60498-.76604 14.93774-7.27193 32.17523-7.27193 32.17523s-19.54072-32.17509-75.46147-29.49395c-11.10755 17.61887-13.39773 31.03241-14.9298 40.99091-1.91509 8.80943-11.12005 10.72508-17.63137 10.72508s-15.69611-3.45635-20.29233-9.20163c-4.59623-5.74528-10.7312-35.62002-16.8595-42.51436-11.49057-4.97925-58.214077 3.05702-76.59898 31.0174-10.341508-33.32264-4.593764-71.60513 48.26284-74.66928z"/><path d="m158.48162 475.21882h19.91699v-12.06509l-5.55378 5.55377-4.40471-5.17076-4.44136 4.6047-5.25243-5.06091z"/></g><g transform="matrix(.54066638941 0 0 .54066638941 498.85829820371 -57.64417312497)"><path d="m4.7877022 504.37191h9.1334628l26.884789 21.43417v-21.43417h9.133463v32.92466h-9.133463l-27.10576-21.13955v21.2132h-8.8388349z" transform="translate(0 200)"/><g><path d="m72.920387 504.44556h44.857083v8.9125h-44.93074z" transform="translate(0 200)"/><path d="m72.920387 716.44556h44.857083v8.9125h-44.93074z"/><path d="m72.920387 728.44556h44.857083v8.9125h-44.93074z"/></g><g transform="translate(0 200)"><path d="m140.90576 504.37191h8.83883v12.00608h16.05722l8.91249-12.07974h11.1222l-8.98615 12.1534h8.98615v20.91857h-8.98615v-12.00608h-27.0321v12.07974h-8.91249z"/><path d="m207.875 504.375v32.90625h45v-32.90625zm9.03125 8.96875h26.90625v15.1875h-26.90625z"/></g></g></g><g transform="matrix(.25373998355 0 0 .25373998355 672.98646257406 202.70126376034)"><path d="m285.104 430.945h-2.038v-1.14h5.486v1.14h-2.024v5.688h-1.424zm10.942.297h-.032l-2.019 5.392h-.924l-2.006-5.392h-.025v5.392h-1.342v-6.828h1.975l1.86 4.835 1.854-4.835h1.968v6.828h-1.31v-5.392z"/><path d="m102.681 291.324s-14.178 8.245 10.09 11.035c29.4 3.354 44.426 2.873 76.825-3.259 0 0 8.518 5.341 20.414 9.967-72.63 31.128-164.376-1.803-107.329-17.743"/><path d="m93.806 250.704s-15.902 11.771 8.384 14.283c31.406 3.24 56.208 3.505 99.125-4.759 0 0 5.936 6.018 15.27 9.309-87.814 25.678-185.623 2.025-122.779-18.833"/><path d="m168.625 181.799c17.896 20.604-4.702 39.145-4.702 39.145s45.441-23.458 24.572-52.833c-19.491-27.394-34.438-41.005 46.479-87.934 0 0-127.013 31.722-66.349 101.622"/><path d="m264.684 321.369s10.492 8.645-11.555 15.333c-41.923 12.7-174.488 16.535-211.314.506-13.238-5.759 11.587-13.751 19.396-15.428 8.144-1.766 12.798-1.437 12.798-1.437-14.722-10.371-95.157 20.364-40.857 29.166 148.084 24.015 269.943-10.814 231.532-28.14"/><path d="m109.499 208.617s-67.431 16.016-23.879 21.832c18.389 2.462 55.047 1.905 89.193-.956 27.906-2.354 55.927-7.359 55.927-7.359s-9.84 4.214-16.959 9.075c-68.475 18.009-200.756 9.631-162.674-8.79 32.206-15.568 58.392-13.802 58.392-13.802"/><path d="m230.462 276.231c69.608-36.171 37.424-70.931 14.96-66.248-5.506 1.146-7.961 2.139-7.961 2.139s2.044-3.202 5.948-4.588c44.441-15.624 78.619 46.081-14.346 70.52 0 .001 1.077-.962 1.399-1.823"/><path d="m188.495 4.399s38.55 38.563-36.563 97.862c-60.233 47.568-13.735 74.69-.025 105.678-35.159-31.722-60.961-59.647-43.651-85.637 25.407-38.151 95.793-56.648 80.239-117.903"/><path d="m116.339 374.246c66.815 4.277 169.417-2.373 171.847-33.988 0 0-4.671 11.985-55.219 21.503-57.028 10.732-127.364 9.479-169.081 2.601.001-.001 8.54 7.068 52.453 9.884"/><path d="m105.389 495.048c-6.303 5.467-12.96 8.536-18.934 8.536-8.527 0-13.134-5.113-13.134-13.314 0-8.871 4.936-15.357 24.739-15.357h7.328v20.135m17.393 19.623v-60.742c0-15.517-8.85-25.756-30.188-25.756-12.457 0-23.369 3.076-32.238 6.999l2.56 10.752c6.983-2.563 16.022-4.949 24.894-4.949 12.292 0 17.58 4.949 17.58 15.181v7.677h-6.135c-29.865 0-43.337 11.593-43.337 28.994 0 15.017 8.878 23.553 25.594 23.553 10.745 0 18.766-4.436 26.264-10.928l1.361 9.22h13.645z"/><path d="m180.825 514.671h-21.692l-26.106-84.96h18.943l16.199 52.2 3.601 15.699c8.195-22.698 13.991-45.726 16.89-67.899h18.427c-4.937 27.977-13.821 58.685-26.262 84.96"/><path d="m264.038 495.048c-6.315 5.467-12.984 8.536-18.958 8.536-8.512 0-13.131-5.113-13.131-13.314 0-8.871 4.948-15.357 24.749-15.357h7.34zm17.39 19.623v-60.742c0-15.517-8.872-25.756-30.185-25.756-12.466 0-23.382 3.076-32.247 6.999l2.556 10.752c6.986-2.563 16.042-4.949 24.907-4.949 12.283 0 17.579 4.949 17.579 15.181v7.677h-6.145c-29.874 0-43.34 11.593-43.34 28.994 0 15.017 8.871 23.553 25.584 23.553 10.751 0 18.769-4.436 26.28-10.928l1.366 9.22h13.645z"/><path d="m36.847 529.099c-4.958 7.239-12.966 12.966-21.733 16.206l-8.587-10.105c6.673-3.424 12.396-8.954 15.055-14.105 2.3-4.581 3.252-10.485 3.252-24.604v-96.995h18.478v95.666c-.001 18.876-1.51 26.501-6.465 33.937"/></g></g></g></svg>