<svg height="600" width="800" xmlns="http://www.w3.org/2000/svg"><g transform="translate(0 -452.36218)"><path d="m157.69009 897.2094 248.58685-142.8534 247.9812 142.81367s-3.53863 7.45481-19.79356 18.70174c-18.27844 9.9456-200.04095 115.49369-200.04095 115.49369s-21.60831 17.0378-54.75679 0c-33.14834-17.0379-204.27362-117.93748-204.27362-117.93748s-9.78706-6.81792-17.70313-16.21822z" fill="#004482"/><path d="m654.71391 611.4354-248.59863 143.01444 247.71859 143.52787s7.95356-10.99988 7.43393-23.9624c-.29715-7.41533-.0859-242.62679-.0859-242.62679s-.5303-10.55281-6.46731-19.95312z" fill="#00599c"/><path d="m157.70533 897.21922s-5.12993-3.8096-5.12993-24.58922c0-20.77961 0-232.03907 0-232.03907s-3.46327-29.78412 29.78411-50.56375c33.24739-20.77961 192.84594-111.33966 192.84594-111.33966s27.50155-20.74674 63.43603 0c35.93433 20.74676 193.22967 111.56122 193.22967 111.56122s9.71794 4.62703 22.87836 21.25072c-32.29458 18.64526-497.04418 285.71976-497.04418 285.71976z" fill="#659ad2"/><g fill="#fff" transform="matrix(1.3853079 0 0 1.3853079 -252.48833 -285.38053)"><path d="m569.630118 730.04968h14v42h-14z"/><path d="m555.567618 743.92468h42v14h-42z"/><path d="m620.75512 730.04968h14v42h-14z"/><path d="m606.69262 743.92468h42v14h-42z"/><path d="m527.9426 720.48718 53.38601-30.82243s-32.11101-61.21308-107.41788-61.56664c-75.30688-.35355-121.97592 65.76093-121.97592 117.02617 0 51.26525 27.93071 127.63278 119.14749 127.63278 79.90306 1.76777 110.30866-60.81118 110.30866-60.81118l-53.88936-31.11304s-17.88198 31.46659-50.40889 31.82014c-32.52692.35356-63.99317-29.34493-63.99317-61.87184s34.29468-61.51829 60.45763-61.51829 49.02033 20.02226 54.38543 31.22433z"/></g></g></svg>