<svg height="140.34723" width="177.48898" xmlns="http://www.w3.org/2000/svg" xmlns:xlink="http://www.w3.org/1999/xlink"><radialGradient id="a" cx="363.84866" cy="494.10422" gradientTransform="matrix(4.39697 -.781364 .273452 1.5388 -1379.4 111.904)" gradientUnits="userSpaceOnUse" r="88.392456"><stop offset="0" stop-color="#fff"/><stop offset=".5"/><stop offset=".51028222" stop-color="#fff"/><stop offset="1"/></radialGradient><linearGradient id="b" gradientUnits="userSpaceOnUse" x1="331.34576" x2="331.34576" y1="452.02783" y2="574.2973"><stop offset="0" stop-color="#fff"/><stop offset="1" stop-color="#838383"/></linearGradient><linearGradient id="c" gradientUnits="userSpaceOnUse" x1="346.11499" x2="346.11499" y1="520.72614" y2="567.32123"><stop offset="0" stop-color="#fff" stop-opacity="0"/><stop offset="1" stop-opacity=".538462"/></linearGradient><filter id="d" color-interpolation-filters="sRGB" height="1.422102" width="1.011807" x="-.005903" y="-.211051"><feGaussianBlur stdDeviation=".13315193"/></filter><filter id="e" color-interpolation-filters="sRGB" height="1.844203" width="1.013727" x="-.006863" y="-.422102"><feGaussianBlur stdDeviation=".13315193"/></filter><filter id="f" color-interpolation-filters="sRGB"><feGaussianBlur stdDeviation=".13315193"/></filter><filter id="g"><feGaussianBlur stdDeviation=".40603442"/></filter><g fill="url(#b)" filter="url(#g)" transform="matrix(1 0 0 1.03961 -252.76954 -490.9065)"><path d="m253.21504 498.42081h15.257142v66.38195h-15.257142z"/><path d="m322.40625 472.125c-22.69243 0-41.09375 16.91768-41.09375 47.5s18.40133 47.5 41.09375 47.5 40.77417-20.418 40.77417-47.45813c0-30.07215-18.08175-47.54187-40.77417-47.54187zm.0937 13.25c13.13856 0 24.28298 18.15444 24.03125 36.28125-.2517 18.12683-10.89264 32.21875-24.0312 32.21875-13.13855 0-24.65625-12.20554-24.65625-34.25 0-22.04447 11.5177-34.25 24.65625-34.25z"/><path d="m271.31303 480.71344c0 5.46299-4.86663 9.89162-10.86991 9.89162-6.00329 0-10.86992-4.42863-10.86992-9.89162s4.86663-9.89162 10.86992-9.89162c6.00328 0 10.86991 4.42863 10.86991 9.89162z" transform="matrix(.91 0 0 .934066 23.9834 31.9128)"/><path d="m373.92502 546.25901s9.56553 6.08716 22.17462 5.86976c12.6091-.2174 15.00049-7.60894 14.78309-13.91349s-8.89743-11.45223-20.21804-15.00048c-14.56568-4.56537-20.43544-20.00064-18.69625-31.08795 1.73918-11.08732 16.08747-20.00064 32.17494-19.34845s19.78324 4.78276 19.78324 4.78276l-3.69577 13.69609s-8.26113-5.86975-15.00048-5.65235c-6.73934.2174-16.52227 3.69577-17.17446 9.56552-.6522 5.86975 4.78276 11.73951 12.1743 15.21788s28.69657 11.30471 27.60958 29.56616c-1.08699 18.26146-16.08747 22.82682-23.04421 25.00081-6.95675 2.17398-19.13105.21739-24.56601-1.30439-5.43496-1.52179-10.86991-3.26098-10.86991-3.26098z"/></g><g fill="url(#c)" opacity=".546729" transform="matrix(1 0 0 -1 -250.391 662.468)"><path d="m253.21504 499.93497h15.257142v66.38195h-15.257142z"/><path d="m322.40625 472.125c-22.69243 0-41.09375 16.91768-41.09375 47.5s18.40133 47.5 41.09375 47.5 40.77417-20.418 40.77417-47.45813c0-30.07215-18.08175-47.54187-40.77417-47.54187zm.0937 13.25c13.13856 0 24.28298 18.15444 24.03125 36.28125-.2517 18.12683-10.89264 32.21875-24.0312 32.21875-13.13855 0-24.65625-12.20554-24.65625-34.25 0-22.04447 11.5177-34.25 24.65625-34.25z"/><path d="m373.92502 546.25901s9.56553 6.08716 22.17462 5.86976c12.6091-.2174 15.00049-7.60894 14.78309-13.91349s-8.89743-11.45223-20.21804-15.00048c-14.56568-4.56537-20.43544-20.00064-18.69625-31.08795 1.73918-11.08732 16.08747-20.00064 32.17494-19.34845s19.78324 4.78276 19.78324 4.78276l-3.69577 13.69609s-8.26113-5.86975-15.00048-5.65235c-6.73934.2174-16.52227 3.69577-17.17446 9.56552-.6522 5.86975 4.78276 11.73951 12.1743 15.21788s28.69657 11.30471 27.60958 29.56616c-1.08699 18.26146-16.08747 22.82682-23.04421 25.00081-6.95675 2.17398-19.13105.21739-24.56601-1.30439-5.43496-1.52179-10.86991-3.26098-10.86991-3.26098z"/></g><g transform="translate(-250.391 -470.222)"><g fill="none" stroke="#000" stroke-width=".5"><path d="m372.10617 567.45068 54.13142-1.51416" filter="url(#d)" opacity=".556075"/><path d="m299.42623 567.07214 46.56059-.75708" filter="url(#e)" opacity=".556075"/><path d="m250.97293 565.17943h19.30561" filter="url(#f)" opacity=".556075"/></g><g fill="url(#a)"><path d="m253.21504 498.42081h15.257142v66.38195h-15.257142z"/><path d="m322.40625 472.125c-22.69243 0-41.09375 16.91768-41.09375 47.5s18.40133 47.5 41.09375 47.5 40.77417-20.418 40.77417-47.45813c0-30.07215-18.08175-47.54187-40.77417-47.54187zm.0937 13.25c13.13856 0 24.28298 18.15444 24.03125 36.28125-.2517 18.12683-10.89264 32.21875-24.0312 32.21875-13.13855 0-24.65625-12.20554-24.65625-34.25 0-22.04447 11.5177-34.25 24.65625-34.25z"/><path d="m271.31303 480.71344a10.869913 9.8916216 0 1 1 -21.73983 0 10.869913 9.8916216 0 1 1 21.73983 0z" transform="matrix(.91 0 0 .934066 23.9834 31.9128)"/><path d="m373.92502 546.25901s9.56553 6.08716 22.17462 5.86976c12.6091-.2174 15.00049-7.60894 14.78309-13.91349s-8.89743-11.45223-20.21804-15.00048c-14.56568-4.56537-20.43544-20.00064-18.69625-31.08795 1.73918-11.08732 16.08747-20.00064 32.17494-19.34845s19.78324 4.78276 19.78324 4.78276l-3.69577 13.69609s-8.26113-5.86975-15.00048-5.65235c-6.73934.2174-16.52227 3.69577-17.17446 9.56552-.6522 5.86975 4.78276 11.73951 12.1743 15.21788s28.69657 11.30471 27.60958 29.56616c-1.08699 18.26146-16.08747 22.82682-23.04421 25.00081-6.95675 2.17398-19.13105.21739-24.56601-1.30439-5.43496-1.52179-10.86991-3.26098-10.86991-3.26098z"/></g></g></svg>