<svg height="62.7" width="232.975" xmlns="http://www.w3.org/2000/svg" xmlns:xlink="http://www.w3.org/1999/xlink"><clipPath id="a"><path d="m0 501.602v-501.602h1863.85v501.602z"/></clipPath><g clip-path="url(#a)" transform="matrix(.125 0 0 -.125 0 62.7)"><path d="m279.48 235.035c0 5.418-2.847 10.399-7.527 13.086l-124.687 71.758c-2.11 1.238-4.473 1.883-6.868 1.98-.21 0-1.113 0-1.289 0-2.379-.097-4.746-.742-6.882-1.98l-124.68794-71.758c-4.64844-2.687-7.53906-7.668-7.53906-13.086l.273438-193.2225c0-2.6875 1.394532-5.1875 3.757812-6.5039 2.31641-1.3867 5.17578-1.3867 7.48435 0l74.0977 42.4297c4.6875 2.7851 7.5429 7.6953 7.5429 13.0664v90.2733c0 5.383 2.8516 10.363 7.5198 13.039l31.551 18.172c2.351 1.359 4.921 2.023 7.546 2.023 2.571 0 5.207-.664 7.493-2.023l31.543-18.172c4.668-2.676 7.531-7.656 7.531-13.039v-90.2733c0-5.3711 2.89-10.3125 7.547-13.0664l74.082-42.4297c2.324-1.3867 5.222-1.3867 7.527 0 2.297 1.3164 3.742 3.8164 3.742 6.5039z" fill="#404137" fill-rule="evenodd"/><path d="m933.711 134.426c0-1.344-.719-2.59-1.887-3.258l-42.824-24.688c-1.164-.668-2.598-.668-3.762 0l-42.828 24.688c-1.164.668-1.883 1.914-1.883 3.258v49.453c0 1.34.719 2.586 1.879 3.262l42.828 24.734c1.168.676 2.602.676 3.77 0l42.828-24.734c1.16-.676 1.879-1.922 1.879-3.262zm11.57 366.222c-2.332 1.301-5.179 1.27-7.484-.082-2.301-1.351-3.715-3.824-3.715-6.492v-191.355c0-1.879-1.008-3.621-2.633-4.563-1.629-.945-3.64-.945-5.273 0l-31.231 17.992c-4.656 2.684-10.39 2.68-15.047-.003l-124.738-71.989c-4.664-2.691-7.531-7.66-7.531-13.043v-144.0036c0-5.3789 2.867-10.3516 7.527-13.0469l124.731-72.03906c4.664-2.691409 10.406-2.691409 15.07 0l124.753 72.03906c4.66 2.6953 7.53 7.668 7.53 13.0469v358.9646c0 5.461-2.96 10.492-7.73 13.156z" fill="#404137" fill-rule="evenodd"/><path d="m1391.55 185.172c4.64 2.695 7.49 7.656 7.49 13.023v34.895c0 5.367-2.85 10.332-7.5 13.027l-123.93 71.961c-4.67 2.707-10.42 2.711-15.1.02l-124.69-71.989c-4.66-2.691-7.53-7.66-7.53-13.043v-143.9644c0-5.4141 2.91-10.4102 7.61-13.086l123.92-70.60935c4.57-2.60937 10.17-2.63672 14.77-.08203l74.95 41.66018c2.38 1.3203 3.86 3.8164 3.87 6.5312.02 2.7149-1.43 5.2305-3.78 6.5821l-125.48 72.0233c-2.35 1.34-3.79 3.836-3.79 6.531v45.118c0 2.691 1.44 5.179 3.77 6.523l39.06 22.516c2.32 1.343 5.19 1.343 7.52 0l39.07-22.516c2.33-1.344 3.77-3.832 3.77-6.523v-35.497c0-2.695 1.44-5.187 3.77-6.531 2.34-1.347 5.21-1.336 7.54.016z" fill="#404137" fill-rule="evenodd"/><g fill="#83cd29"><path d="m506.301 318.852c4.656 2.691 10.398 2.691 15.054 0l124.723-71.973c4.664-2.688 7.535-7.66 7.535-13.047v-144.0547c0-5.3828-2.871-10.3515-7.527-13.0468l-124.723-72.03128c-4.664-2.69141-10.406-2.69141-15.07 0l-124.691 72.03128c-4.661 2.6953-7.532 7.664-7.532 13.0468v144.0627c0 5.379 2.871 10.351 7.535 13.039z" fill-rule="evenodd"/><path d="m1633.71 2.64062c-4.3 0-8.57 1.125-12.33 3.30079l-39.27 23.23439c-5.86 3.2812-3 4.4414-1.07 5.1172 7.83 2.7148 9.41 3.3398 17.76 8.0742.87.4883 2.02.3047 2.92-.2227l30.16-17.9101c1.1-.6055 2.64-.6055 3.65 0l117.6 67.8789c1.1.625 1.8 1.8867 1.8 3.1836v135.7231c0 1.328-.7 2.57-1.82 3.242l-117.56 67.824c-1.09.633-2.53.633-3.63 0l-117.53-67.844c-1.14-.652-1.86-1.933-1.86-3.222v-135.7231c0-1.2969.72-2.5274 1.85-3.1446l32.22-18.6132c17.48-8.7383 28.19 1.5547 28.19 11.8945v134.0044c0 1.894 1.52 3.39 3.41 3.39h14.92c1.86 0 3.4-1.496 3.4-3.39v-134.0044c0-23.3281-12.7-36.707-34.82-36.707-6.8 0-12.15 0-27.09 7.3632l-30.84 17.754c-7.62 4.4023-12.33 12.6367-12.33 21.4531v135.7231c0 8.82 4.71 17.05 12.33 21.437l117.61 67.957c7.44 4.211 17.33 4.211 24.71 0l117.6-67.957c7.62-4.406 12.35-12.617 12.35-21.437v-135.7231c0-8.8164-4.73-17.0196-12.35-21.4531l-117.6-67.90239c-3.76-2.17579-8.02-3.30079-12.38-3.30079"/><path d="m1670.04 96.1484c-51.47 0-62.25 23.6216-62.25 43.4376 0 1.883 1.52 3.387 3.4 3.387h15.21c1.7 0 3.11-1.219 3.38-2.879 2.29-15.481 9.14-23.293 40.26-23.293 24.77 0 35.32 5.605 35.32 18.75 0 7.578-2.99 13.203-41.49 16.972-32.18 3.184-52.08 10.293-52.08 36.036 0 23.73 20 37.882 53.53 37.882 37.68 0 56.32-13.078 58.68-41.132.09-.969-.25-1.895-.89-2.618-.65-.675-1.55-1.086-2.49-1.086h-15.27c-1.58 0-2.98 1.125-3.3 2.657-3.66 16.289-12.57 21.496-36.73 21.496-27.05 0-30.19-9.426-30.19-16.485 0-8.554 3.71-11.046 40.23-15.878 36.14-4.778 53.31-11.543 53.31-36.946 0-25.625-21.37-40.3006-58.63-40.3006"/><path d="m1832.21 320.102v-3.485h-9.9v-25.793h-3.99v25.793h-9.86v3.485z"/><path d="m1835.74 320.102h5.69l8.4-24.747 8.37 24.747h5.65v-29.278h-3.79v17.278c0 .605.01 1.589.03 2.957.04 1.406.06 2.89.06 4.464l-8.37-24.699h-3.93l-8.44 24.699v-.878c0-.723 0-1.817.05-3.301.03-1.457.07-2.539.07-3.242v-17.278h-3.79z"/><path d="m1258.22 191.914c.9.52 2 .52 2.89 0l23.94-13.809c.89-.515 1.44-1.468 1.44-2.503v-27.637c0-1.035-.55-1.988-1.44-2.504l-23.94-13.809c-.89-.519-1.99-.519-2.89 0l-23.91 13.809c-.9.516-1.45 1.469-1.45 2.504v27.637c0 1.035.55 1.988 1.45 2.503z" fill-rule="evenodd"/></g></g></svg>