<svg height="115.02pt" width="388.84pt" xmlns="http://www.w3.org/2000/svg" xmlns:xlink="http://www.w3.org/1999/xlink"><linearGradient id="a" gradientTransform="matrix(.562541 0 0 .567972 -9.399749 -5.305317)" gradientUnits="userSpaceOnUse" x1="150.96111" x2="112.03144" y1="192.35176" y2="137.27299"><stop offset="0" stop-color="#ffd43b"/><stop offset="1" stop-color="#ffe873"/></linearGradient><linearGradient id="b" gradientTransform="matrix(.562541 0 0 .567972 -9.399749 -5.305317)" gradientUnits="userSpaceOnUse" x1="26.648937" x2="135.66525" y1="20.603781" y2="114.39767"><stop offset="0" stop-color="#5a9fd4"/><stop offset="1" stop-color="#306998"/></linearGradient><radialGradient id="c" cx="61.518883" cy="132.28575" gradientTransform="matrix(.00000002 -.296405 1.43676 .00000047 -128.544 150.5202)" gradientUnits="userSpaceOnUse" r="29.036913"><stop offset="0" stop-color="#b8b8b8" stop-opacity=".498039"/><stop offset="1" stop-color="#7f7f7f" stop-opacity="0"/></radialGradient><g fill="#646464"><path d="m184.61344 61.929363c0-14.56215-4.15226-22.03817-12.45678-22.44755-3.30427-.15595-6.53055.37039-9.66912 1.58878-2.505.89673-4.19124 1.78372-5.07823 2.68045v34.75812c5.31216 3.33351 10.02976 4.88329 14.14303 4.63962 8.70415-.57508 13.0611-7.64172 13.0611-21.21942zm10.24419.60432c0 7.39804-1.73498 13.53871-5.22444 18.422-3.88909 5.5266-9.27923 8.37275-16.17042 8.52871-5.1952.1657-10.54635-1.46207-16.05346-4.87355v31.590317l-8.90884-3.17755v-70.120567c1.46206-1.79346 3.34325-3.3335 5.62407-4.63961 5.30242-3.08983 11.74524-4.67861 19.32848-4.75658l.12671.12671c6.93018-.08773 12.27159 2.75843 16.02422 8.5287 3.4992 5.29267 5.25368 12.07665 5.25368 20.37142z"/><path d="m249.30487 83.265743c0 9.92254-.9942 16.794237-2.9826 20.615097-1.99816 3.82086-5.79952 6.8717-11.41385 9.14277-4.55189 1.79346-9.47417 2.76817-14.75709 2.93387l-1.47181-5.61432c5.37064-.73103 9.15252-1.46207 11.34561-2.1931 4.31796-1.46206 7.28108-3.70389 8.90884-6.706 1.30611-2.446517 1.94942-7.115367 1.94942-14.026057v-2.3198c-6.09193 2.76817-12.47628 4.14251-19.15303 4.14251-4.38619 0-8.25579-1.37434-11.58929-4.14251-3.74289-3.01186-5.61433-6.83272-5.61433-11.46258v-37.07793l8.90884-3.05084v37.3216c0 3.98656 1.28662 7.0569 3.85985 9.21101 2.57323 2.1541 5.90674 3.18729 9.99077 3.10932 4.08403-.08773 8.46047-1.66676 13.10983-4.75658v-43.54025h8.90884z"/><path d="m284.08249 88.997033c-1.06243.08772-2.03714.12671-2.93387.12671-5.03925 0-8.96733-1.19889-11.77449-3.60642-2.79742-2.40753-4.20099-5.73129-4.20099-9.97127v-35.08953h-6.10168v-5.60457h6.10168v-14.88381l8.89909-3.16781v18.05162h10.01026v5.60457h-10.01026v34.84585c0 3.34325.89673 5.71179 2.6902 7.09588 1.54004 1.14041 3.98656 1.79347 7.32006 1.95917z"/><path d="m338.02288 88.266003h-8.90884v-34.38773c0-3.49921-.81876-6.51106-2.44651-9.02581-1.88119-2.84615-4.49342-4.26923-7.84641-4.26923-4.08404 0-9.19152 2.15411-15.32242 6.46233v41.22044h-8.90885v-82.1972101l8.90885-2.80716v37.4385701c5.6923-4.14251 11.91093-6.21864 18.66566-6.21864 4.7176 0 8.53846 1.58877 11.46258 4.75658 2.93388 3.1678 4.39594 7.11537 4.39594 11.83296z"/><path d="m385.37424 60.525783c0-5.59483-1.06242-10.21495-3.17755-13.87011-2.51474-4.45442-6.42332-6.80347-11.70625-7.04715-9.76658.56534-14.64012 7.56375-14.64012 20.97574 0 6.15042 1.01369 11.28713 3.06057 15.41015 2.61223 5.25368 6.53056 7.84641 11.755 7.75869 9.80557-.07798 14.70835-7.81717 14.70835-23.22732zm9.75685.05848c0 7.96338-2.03714 14.5914-6.10168 19.88407-4.47391 5.92623-10.65357 8.89909-18.53897 8.89909-7.81716 0-13.90909-2.97286-18.30503-8.89909-3.98656-5.29267-5.97497-11.92069-5.97497-19.88407 0-7.48576 2.15411-13.78238 6.46232-18.90935 4.5519-5.43888 10.53661-8.16806 17.93464-8.16806 7.39805 0 13.42174 2.72918 18.06137 8.16806 4.3082 5.12697 6.46232 11.42359 6.46232 18.90935z"/><path d="m446.20583 88.266003h-8.90884v-36.33715c0-3.98656-1.19889-7.09588-3.59667-9.33772-2.39779-2.23208-5.59483-3.31401-9.58139-3.22628-4.23023.07798-8.25579 1.46206-12.07664 4.14251v44.75864h-8.90884v-45.86006c5.12697-3.73313 9.84456-6.16991 14.15276-7.31032 4.06455-1.06243 7.65148-1.58877 10.74131-1.58877 2.11512 0 4.10352.20469 5.97496.61406 3.49921.80901 6.34535 2.31006 8.53845 4.51291 2.44651 2.43677 3.6649 5.3609 3.6649 8.78212z"/></g><path d="m60.510156 6.3979729c-4.583653.0212983-8.960939.4122177-12.8125 1.09375-11.346216 2.0045038-13.406249 6.2001021-13.40625 13.9375001v10.21875h26.8125v3.40625h-26.8125-10.0625c-7.792459 0-14.6157592 4.683717-16.7500002 13.59375-2.46182 10.212966-2.5710151 16.586023 0 27.25 1.9059283 7.937852 6.4575432 13.593748 14.2500002 13.59375h9.21875v-12.25c0-8.849902 7.657144-16.656248 16.75-16.65625h26.78125c7.454951 0 13.406253-6.138164 13.40625-13.625v-25.53125c0-7.266339-6.12998-12.7247775-13.40625-13.9375001-4.605987-.7667253-9.385097-1.1150483-13.96875-1.09375zm-14.5 8.2187501c2.769547 0 5.03125 2.298646 5.03125 5.125-.000002 2.816336-2.261703 5.09375-5.03125 5.09375-2.779476-.000001-5.03125-2.277415-5.03125-5.09375-.000001-2.826353 2.251774-5.125 5.03125-5.125z" fill="url(#b)"/><path d="m91.228906 35.054223v11.90625c0 9.230755-7.825895 16.999999-16.75 17h-26.78125c-7.335833 0-13.406249 6.278483-13.40625 13.625v25.531247c0 7.26634 6.318588 11.54032 13.40625 13.625 8.487331 2.49561 16.626237 2.94663 26.78125 0 6.750155-1.95439 13.406253-5.88761 13.40625-13.625v-10.218747h-26.78125v-3.40625h26.78125 13.406254c7.79246 0 10.69625-5.435408 13.40624-13.59375 2.79933-8.398886 2.68022-16.475776 0-27.25-1.92578-7.757441-5.60387-13.59375-13.40624-13.59375zm-15.0625 64.65625c2.779478.000003 5.03125 2.277417 5.03125 5.093747-.000002 2.82635-2.251775 5.125-5.03125 5.125-2.76955 0-5.03125-2.29865-5.03125-5.125.000002-2.81633 2.261697-5.093747 5.03125-5.093747z" fill="url(#a)"/><path d="m463.5544 26.909383h1.56195v-9.79624h3.70013v-1.16766h-8.96221v1.16766h3.70013zm6.64702 0h1.33447v-8.94703l2.89641 8.945906h1.48569l3.01816-8.915576v8.9167h1.45579v-10.9639h-1.92589l-3.29831 9.392857-2.81297-9.392857h-2.15335z" fill="#646464"/><path d="m110.46717 132.28575a48.948284 8.6066771 0 1 1 -97.896571 0 48.948284 8.6066771 0 1 1 97.896571 0z" fill="url(#c)" opacity=".44382" transform="matrix(.73406 0 0 .809524 16.24958 27.00935)"/></svg>