<?xml version="1.0" encoding="utf-8"?>
<!-- Generator: Adobe Illustrator 22.1.0, SVG Export Plug-In . SVG Version: 6.00 Build 0)  -->
<svg version="1.1"
	 id="svg2" inkscape:version="0.48.3.1 r9886" sodipodi:docname="all-targets.svg" xmlns:cc="http://creativecommons.org/ns#" xmlns:dc="http://purl.org/dc/elements/1.1/" xmlns:inkscape="http://www.inkscape.org/namespaces/inkscape" xmlns:osb="http://www.openswatchbook.org/uri/2009/osb" xmlns:rdf="http://www.w3.org/1999/02/22-rdf-syntax-ns#" xmlns:sodipodi="http://sodipodi.sourceforge.net/DTD/sodipodi-0.dtd" xmlns:svg="http://www.w3.org/2000/svg"
	 xmlns="http://www.w3.org/2000/svg" xmlns:xlink="http://www.w3.org/1999/xlink" x="0px" y="0px" viewBox="0 0 768 374"
	 style="enable-background:new 0 0 768 374;" xml:space="preserve">
<style type="text/css">
	.st0{fill:#F48821;}
	.st1{clip-path:url(#SVGID_2_);fill:#F48821;}
	.st2{clip-path:url(#SVGID_4_);fill:#F48821;}
	.st3{clip-path:url(#SVGID_6_);fill:#F48821;}
	.st4{clip-path:url(#SVGID_8_);fill:#F48821;}
	.st5{clip-path:url(#SVGID_10_);fill:#F48821;}
	.st6{clip-path:url(#SVGID_12_);fill:#F48821;}
	.st7{clip-path:url(#SVGID_14_);fill:#F48821;}
	.st8{clip-path:url(#SVGID_16_);fill:#F48821;}
	.st9{clip-path:url(#SVGID_18_);fill:#F48821;}
	.st10{fill:none;stroke:#F48821;stroke-width:1.1256;stroke-dasharray:4.2331;}
	.st11{fill:none;}
	.st12{fill:#FFFFFF;}
	.st13{fill:none;stroke:#F48821;stroke-width:0.5;stroke-miterlimit:10;}
</style>
<g>
	<path id="polygon3118-1" inkscape:connector-curvature="0" class="st0" d="M422.1,28.7l6.1,68.3l27.3,7.6l27.4-7.6l6.1-68.3
		C488.9,28.7,422.1,28.7,422.1,28.7z M434.4,42.5h42.1l-0.8,8.5h-32l0.9,8.6H475l-2.3,25.7l-17.2,4.9c0,0-17.3-4.5-17.3-4.9
		S437,72.1,437,72.1h8.3l0.8,6.5l9.3,2.7l9.3-2.6l0.9-11h-28.8L434.4,42.5z"/>
	<path id="path3126-4" inkscape:connector-curvature="0" class="st0" d="M428.3,10.1h4.3v4.2h3.9v-4.2h4.3v12.7h-4.3v-4.3h-3.9v4.3
		h-4.3V10.1L428.3,10.1z"/>
	<path id="path3128-3" inkscape:connector-curvature="0" class="st0" d="M446.3,14.3h-3.7v-4.2h11.8v4.2h-3.7v8.5h-4.3V14.3
		L446.3,14.3z"/>
	<path id="path3130-3" inkscape:connector-curvature="0" class="st0" d="M456.1,10.1h4.4l2.7,4.5l2.7-4.5h4.4v12.7h-4.2v-6.3
		l-2.9,4.5h-0.1l-2.9-4.5v6.3h-4.2L456.1,10.1L456.1,10.1z"/>
	<path id="path3132-3" inkscape:connector-curvature="0" class="st0" d="M472.6,10.1h4.3v8.5h6v4.2h-10.2V10.1z"/>
</g>
<g>
	<rect id="rect6046-3" x="153.2" y="45.2" class="st0" width="8.8" height="38.3"/>
	<path id="path6048-0" inkscape:connector-curvature="0" sodipodi:nodetypes="ssssscssssc" class="st0" d="M193.1,30
		c-13.1,0-23.7,9.8-23.7,27.4s10.6,27.4,23.7,27.4s23.5-11.8,23.5-27.4C216.6,40.1,206.2,30,193.1,30z M193.2,37.7
		c7.6,0,14,10.5,13.9,20.9c-0.1,10.5-6.3,18.6-13.9,18.6s-14.2-7-14.2-19.8C178.9,44.7,185.6,37.7,193.2,37.7L193.2,37.7z"/>
	
		<path id="path6050-5" sodipodi:cx="260.44312" sodipodi:cy="480.71344" sodipodi:rx="10.869913" sodipodi:ry="9.8916216" sodipodi:type="arc" class="st0" d="
		M163.4,35.1c0,2.9-2.6,5.3-5.7,5.3s-5.7-2.4-5.7-5.3c0-2.9,2.6-5.3,5.7-5.3S163.4,32.2,163.4,35.1z"/>
	<path id="path6052-5" inkscape:connector-curvature="0" sodipodi:nodetypes="csssssccsssssscc" class="st0" d="M222.8,72.8
		c0,0,5.5,3.5,12.8,3.4s8.7-4.4,8.5-8c-0.1-3.6-5.1-6.6-11.7-8.7c-8.4-2.6-11.8-11.5-10.8-17.9S231,30,240.3,30.4
		c9.3,0.4,11.4,2.8,11.4,2.8l-2.1,7.9c0,0-4.8-3.4-8.7-3.3c-3.9,0.1-9.5,2.1-9.9,5.5c-0.4,3.4,2.8,6.8,7,8.8s16.6,6.5,15.9,17.1
		c-0.6,10.5-9.3,13.2-13.3,14.4s-11,0.1-14.2-0.8c-3.1-0.9-6.3-1.9-6.3-1.9L222.8,72.8z"/>
</g>
<g>
	<path id="path3891" inkscape:connector-curvature="0" class="st0" d="M319.1,34.7h37.8c3.3,0,6,2.7,6,6v37.8c0,3.3-2.7,6-6,6h-37.8
		c-3.3,0-6-2.7-6-6V40.7C313.1,37.4,315.8,34.7,319.1,34.7z"/>
	<path id="rect3461-9" class="st0" d="M321.7,11.3L321.7,11.3c-0.9,0.5-1.2,1.6-0.7,2.4l9.7,17.5c0.5,0.9,1.6,1.2,2.4,0.7l0,0
		c0.9-0.5,1.2-1.6,0.7-2.4L324.1,12C323.6,11.2,322.5,10.9,321.7,11.3z"/>
	<path id="c-7" class="st0" d="M370.6,40.5L370.6,40.5c-3.6,0-6.6,2.9-6.6,6.6v23.3c0,3.6,2.9,6.6,6.6,6.6l0,0
		c3.6,0,6.6-2.9,6.6-6.6V47.1C377.2,43.4,374.3,40.5,370.6,40.5z"/>
	<path id="c-7_1_" class="st0" d="M347.3,67.1L347.3,67.1c-3.6,0-6.6,2.9-6.6,6.6V97c0,3.6,2.9,6.6,6.6,6.6l0,0
		c3.6,0,6.6-2.9,6.6-6.6V73.7C353.9,70,351,67.1,347.3,67.1z"/>
	<path id="rect3461-9_1_" class="st0" d="M354.4,11.3L354.4,11.3c0.9,0.5,1.2,1.6,0.7,2.4l-9.7,17.5c-0.5,0.9-1.6,1.2-2.4,0.7l0,0
		c-0.9-0.5-1.2-1.6-0.7-2.4l9.7-17.5C352.4,11.2,353.5,10.9,354.4,11.3z"/>
	<path id="c-7_2_" class="st0" d="M305.4,40.5L305.4,40.5c3.6,0,6.6,2.9,6.6,6.6v23.3c0,3.6-2.9,6.6-6.6,6.6l0,0
		c-3.6,0-6.6-2.9-6.6-6.6V47.1C298.8,43.4,301.8,40.5,305.4,40.5z"/>
	<path id="c-7_3_" class="st0" d="M328.7,67.1L328.7,67.1c3.6,0,6.6,2.9,6.6,6.6V97c0,3.6-2.9,6.6-6.6,6.6l0,0
		c-3.6,0-6.6-2.9-6.6-6.6V73.7C322.1,70,325.1,67.1,328.7,67.1z"/>
	<path id="ellipse3467-9" inkscape:connector-curvature="0" class="st0" d="M338,17.3c-13.8,0-25,10.3-25,23s11.2,23,25,23
		c13.8,0,24.9-10.3,24.9-23S351.8,17.3,338,17.3z M326.3,26.9c1.2,0,2.1,0.9,2.1,2.1c0,1.2-0.9,2.1-2.1,2.1c-1.2,0-2.1-0.9-2.1-2.1
		S325.1,26.9,326.3,26.9z M349.4,26.9c1.2,0,2.1,0.9,2.1,2.1c0,1.2-0.9,2.1-2.1,2.1c-1.2,0-2.1-0.9-2.1-2.1
		C347.3,27.9,348.2,26.9,349.4,26.9z"/>
	<path id="rect3469-7" inkscape:connector-curvature="0" class="st0" d="M319.1,34.7h37.8c3.3,0,6,2.7,6,6v37.8c0,3.3-2.7,6-6,6
		h-37.8c-3.3,0-6-2.7-6-6V40.7C313.1,37.4,315.8,34.7,319.1,34.7z"/>
</g>
<g>
	<path id="path4902-3" inkscape:connector-curvature="0" class="st0" d="M563.8,71.8c0,0,4.5-5.4,11.3-6.4c-4.2-0.1-5.6,1.1-6.8,0.2
		s1.6-3.6,1.6-3.6S560.7,67.3,563.8,71.8z"/>
	<path id="path4906-7" inkscape:connector-curvature="0" class="st0" d="M573.5,43.2c0,0,6.7,5.5,8.2,3
		C583.3,43.7,578.4,43.1,573.5,43.2z"/>
	<path id="path4906-0-9" inkscape:connector-curvature="0" class="st0" d="M606.4,43.1c0,0-6.7,5.5-8.2,3S601.6,43,606.4,43.1z"/>
	<path id="path4937-5" inkscape:connector-curvature="0" class="st0" d="M616.6,71.8c0,0-4.5-5.4-11.3-6.4c4.2-0.1,5.6,1.1,6.8,0.2
		s-1.6-3.6-1.6-3.6S619.7,67.3,616.6,71.8z"/>
	<path id="path4939-4" inkscape:connector-curvature="0" class="st0" d="M561.3,21c-0.3,1.2,0.2,4,0.2,4s2.3,3,3.3,5.8
		c1,2.8,1.3,4.7-1.6,11.2c-2.3,4.5-2.4,8-3.1,9.4c-1.2,2.3-2,1.3-1.8,7.1c0,0,8.1-6.3,5.5-7.8c-1.9-1.2,1.5-4.1,7.7-4.9
		c-2.5-2.4-0.5-6,3.9-5.4s7.5,3.7,11.4,5.6c1,0.5,1.5-1.5,0.6-2.4c-1.2-1.3-3-1.6-3-2.9c0-1,2.9-1.7,2.3-3.2
		c-0.9-2.5-4.9-0.6-5.8-2.3c-1-1.8-0.2-2.7,1.7-3c1.9-0.3-0.1-6.3-5.1-4.2c-5.1,2.1-6.7,0.5-9.8-2.6C565.5,23.2,563.5,21.9,561.3,21
		z M563.3,25.9c6.5,2.2,8.3,6.1,8.3,6.1s-1.9,1.9-4.8,2.9C568.1,28.1,563.3,25.9,563.3,25.9z"/>
	<path id="path4944-0" inkscape:connector-curvature="0" class="st0" d="M617.9,21c0.3,1.2-0.2,4-0.2,4s-2.3,3-3.3,5.8
		c-1,2.8-1.3,4.7,1.6,11.2c2.3,4.5,2.4,8,3.1,9.4c1.2,2.3,2,1.3,1.8,7.1c0,0-8.1-6.3-5.5-7.8c1.9-1.2-1.5-4.1-7.7-4.9
		c2.5-2.4,0.5-6-3.9-5.4s-7.5,3.7-11.4,5.6c-1,0.5-1.5-1.5-0.6-2.4c1.2-1.3,3-1.6,3-2.9c0-1-2.9-1.7-2.3-3.2
		c0.9-2.5,4.9-0.6,5.8-2.3c1-1.8,0.2-2.7-1.7-3c-1.9-0.3,0.1-6.3,5.2-4.2c5.1,2.1,6.7,0.5,9.8-2.6C613.7,23.2,615.7,21.9,617.9,21z
		 M616,25.9c-6.5,2.2-8.3,6.1-8.3,6.1s1.9,1.9,4.8,2.9C611.2,28.1,616,25.9,616,25.9z"/>
	
		<path id="path4946-9" inkscape:connector-curvature="0" sodipodi:nodetypes="cscsccccssccccccsccccccsssssssscssssssssssscsccsccscscccccccccccscccccccccssccc" class="st0" d="
		M555.3,10.1c-1.2,11.3,5.4,21.5,5.9,22.8c0.5,1.4,0.3,3.5-1.2,5.1c-4.4,5.4-6,21.9-5.9,28.2c0.1,6.3,1.8,7.1,1.8,7.1
		s0.2-0.8,1.1-2.2c0.1,3.1,1.2,8.9,7,14.3c1.6-12.9,13.1-13.4,16.2-12.9c0.1,1.6,3.3,10.1,3.7,10.6c0.4,0.5,7.9,3.1,11.8,0.1
		s1.3-6.5,4.4-10.7c12.4-1.6,16.2,8.9,15.7,13.1c4.8-4.8,5.8-10.6,5.8-10.6s1.3,0.9,2,1.6c6.1-18.7-3.6-38.1-5.7-41.8
		c7.3-15,6.3-20.6,5.7-24.1c-5.2,4.6-16.4,12.1-19.9,12.1s-5.3-2-10.2-2.9c0,1.9-3.5,6-3.5,6s-2.5-3.1-3.9-6
		c-4.5-0.2-7.3,3.6-10.8,2.7C567.8,20.7,555.3,10.1,555.3,10.1z M620.5,16.1c0,0,1,2.4,0.4,3.5s-1.5,3.6-1.9,5.2
		c-0.5,1.6-1.4,5.2-2.3,6.7c-1,1.5-2.1,3,1.7,9.6c3.8,6.6,5.7,20.9,3.6,20.9c-2,0-5.2-5.3-9.3-7c-4.1-1.7-7.8-1.8-11.2-1.8
		c-2.1,0.1-4.7,0.8-4.9,2.3c-0.1,1,1.4,0.7,3.7,1.3c2.4,0.7,2,1.7,1.5,2.8c-0.5,1.1-2.7,0.2-4.9-0.3c-2.1-0.5-4.6-1.5-4.4-2.2
		c0.6-2,2.6-2.3,2.6-4.5c0-1.2-2.3-2.9-5.1-2.9s-3.8,0.8-4.6,2.1c-0.8,1.4,1.2,3.4,1.9,4.5c1,1.8-3.9,4.7-7.2,3.9
		c-3.3-0.8,0.1-3.9,2.7-4.1c3.3-0.3,0-2.7-4.5-2.7s-6.2,0.8-8.7,1.8c-2.5,1-5.8,1.6-12.2,7.2c-1-12.2,4.7-21.8,5.6-23.1
		s1.9-3.1,1.2-4.9c-4.1-9.3-5.2-18.1-5.2-18.1s4.9,3.7,10.3,7.4c5.4,3.7,9.1,2.3,15,0.4c1.6,8.7,6,12.2,6,12.2
		c3.5-3.1,4.8-8.7,4.4-10.3c-0.4-1.7-0.1-3.4,3.5-1.9c5.9,1.9,7.1,1.8,12.3-0.7S620.5,16.1,620.5,16.1L620.5,16.1z M574.1,58.1
		c3.2,4,3.3,4,6.9,4.4c1.5,4,0.6,5.3,5.3,13.6c0-0.4,0.1-13.1,0.1-13.1s1.5,0.3,1.4,1.6c0.1,1.5,0,2.9,0,2.9l1.3-1.4l1.1,1.4
		l1.3-1.3l1.2,1.3c0,0,0.1-2.2,0.1-3.1c0-0.6,1.4-1.6,1.4-1.6v6.5l-0.7,7.1c0,0,3.5-5.1,4.7-13c4.7-1.6,6.9-3.4,6.9-5.2
		c3.4-0.6,14.4,2.8,15,10.3c-0.2,3.8-1.8,8.2-1.8,8.2s-5-8.2-19.2-7.5c-2.8,4.5-3.4,7.9-3.8,10.4c-0.5,2.2-2.8,2.7-4.5,2.7
		s-4-0.9-5.1-2.3c-1.2-1.5-2.7-9-4.3-10.8c-2.9-1.3-14.8,0.8-19.4,7.9C559.3,68.6,560.7,58.9,574.1,58.1z"/>
	<path id="path5458-5" inkscape:connector-curvature="0" sodipodi:nodetypes="cccccccc" class="st0" d="M587.6,76.2h5.1v-3.1
		l-1.4,1.4l-1.1-1.3l-1.1,1.2l-1.3-1.3L587.6,76.2z"/>
	<path id="path5490-2" inkscape:connector-curvature="0" class="st0" d="M543.8,92.2h3.4l10,8v-8h3.4v12.2h-3.4l-10.1-7.9v7.9h-3.3
		L543.8,92.2z"/>
	<path id="path5494-4" inkscape:connector-curvature="0" class="st0" d="M569.1,92.3h16.7v3.3h-16.7L569.1,92.3z"/>
	<path id="path5496-5" inkscape:connector-curvature="0" class="st0" d="M569.1,96.7h16.7v3.3h-16.7L569.1,96.7z"/>
	<path id="path5498-3" inkscape:connector-curvature="0" class="st0" d="M569.1,101.2h16.7v3.3h-16.7L569.1,101.2z"/>
	<path id="path5500-7" inkscape:connector-curvature="0" class="st0" d="M594.4,92.2h3.3v4.5h6l3.3-4.5h4.1l-3.3,4.5h3.3v7.8h-3.3
		V100h-10.1v4.5h-3.3V92.2z"/>
	<path id="path5502-3" inkscape:connector-curvature="0" class="st0" d="M619.3,92.2v12.2H636V92.2H619.3z M622.7,95.6h10v5.6h-10
		V95.6z"/>
</g>
<g>
	<path class="st0" d="M229.6,293.8H210l-8.5,42.9h10.1l2.1-11.1h9.5c9,0.5,19.1-6.9,19.1-19.6C242.3,298.6,238.1,294.4,229.6,293.8z
		 M222.2,317.7h-6.4l2.6-15.9h6.9c3.7,0,6.4,1.6,6.4,4.8C231.2,315.5,227,317.1,222.2,317.7z"/>
	<path id="h-7" inkscape:connector-curvature="0" class="st0" d="M239.2,325.6l8.5-42.9h10.1l-2.1,11.1h9.5
		c8.5,0.5,11.6,4.8,10.6,10.1l-3.7,21.7h-10.6l3.7-19.6c0.5-2.6,0.5-4.2-3.2-4.2H254l-4.8,23.8L239.2,325.6L239.2,325.6z"/>
	<g>
		<path class="st0" d="M300.6,293.8H281l-8.5,42.9h10.1l2.1-11.1h9.5c9,0.5,19.1-6.9,19.1-19.6C313.3,298.6,309.1,294.4,300.6,293.8
			z M293.2,317.7h-6.4l2.6-15.9h6.9c3.7,0,6.4,1.6,6.4,4.8C302.2,315.5,297.9,317.1,293.2,317.7z"/>
	</g>
</g>
<g>
	<path id="path3730-3" inkscape:connector-curvature="0" class="st0" d="M153.5,294.2c0-4,0-8,0-12c0.8,0,1.7,0,2.5,0
		c0,3.8,0,7.5,0,11.3c1.9-0.5,3.8-1,5.7-1.5c0,2.1,0,4.2,0,6.3c-1.9,0.5-3.8,1-5.7,1.5c0,5.1,0,10.3,0,15.4c1.9-0.5,3.8-1,5.7-1.5
		c0,2.1,0,4.2,0,6.3c-1.9,0.5-3.8,1-5.7,1.5c0,3.7,0,7.4,0,11.2c-0.8,0-1.7,0-2.5,0c0-3.5,0-7,0-10.5c-3.8,1-7.6,2-11.3,3.1
		c0,4,0,8,0,12c-0.9,0-1.7,0-2.6,0c0-3.8,0-7.5,0-11.3c-1.9,0.5-3.8,1-5.7,1.5c0-2.1,0-4.2,0-6.3c1.9-0.5,3.8-1,5.7-1.5
		c0-5.1,0-10.3,0-15.4c-1.9,0.5-3.8,1-5.7,1.5c0-2.1,0-4.2,0-6.3c1.9-0.5,3.8-1,5.7-1.5c0-3.7,0-7.5,0-11.2c0.9,0,1.7,0,2.6,0
		c0,3.5,0,7,0,10.5C145.9,296.2,149.7,295.2,153.5,294.2 M142.2,303.5c0,5.1,0,10.3,0,15.4c3.8-1,7.6-2,11.3-3.1
		c0-5.1,0-10.3,0-15.4C149.7,301.5,145.9,302.5,142.2,303.5L142.2,303.5z"/>
	<path id="path3732-6" inkscape:connector-curvature="0" class="st0" d="M96.2,285.2c4.5-2.2,9.6-2.8,14.6-2.2
		c4.7,0.5,9.3,2.6,12.5,6.1c2.3,2.5,3.9,5.6,4.8,8.9c-2.2,0.5-4.5,1.1-6.7,1.6c-1.2-3.8-3.4-7.6-7.1-9.4c-4.1-2-9-1.8-13.3-0.5
		c-4.7,1.6-8,5.8-9.5,10.4c-1.7,5.3-1.6,11-0.7,16.4c0.8,4.4,2.9,8.6,6.6,11.2c4,3,9.5,3.5,14.2,2.3c3.6-0.9,6.7-3.6,8.4-6.9
		c1-1.8,1.6-3.8,2.1-5.7c2.3,0.6,4.6,1.1,6.8,1.7c-1.3,4.8-3.6,9.6-7.5,12.7c-4.1,3.4-9.5,4.8-14.7,4.6c-5.9-0.1-12.1-1.7-16.3-6.1
		c-4.2-4.5-6.5-10.5-7.2-16.6c-0.6-5.7-0.2-11.6,1.9-16.9C87.3,291.8,91.3,287.6,96.2,285.2z"/>
</g>
<g>
	<path id="path3829-6" inkscape:connector-curvature="0" class="st0" d="M404.5,337h-0.4v-0.2h1v0.2h-0.4v1h-0.2V337z M406.4,337
		L406.4,337l-0.4,0.9h-0.2l-0.4-0.9h0v0.9h-0.2v-1.2h0.3l0.3,0.8l0.3-0.8h0.3v1.2h-0.2L406.4,337L406.4,337z"/>
	<path id="path3831-6" inkscape:connector-curvature="0" class="st0" d="M372.7,312.6c0,0-2.5,1.4,1.8,1.9c5.1,0.6,7.8,0.5,13.4-0.6
		c0,0,1.5,0.9,3.6,1.7C378.7,321.1,362.7,315.4,372.7,312.6"/>
	<path id="path3833-2" inkscape:connector-curvature="0" class="st0" d="M371.1,305.5c0,0-2.8,2.1,1.5,2.5c5.5,0.6,9.8,0.6,17.3-0.8
		c0,0,1,1,2.7,1.6C377.2,313.3,360.2,309.1,371.1,305.5"/>
	<path id="path3835-2" inkscape:connector-curvature="0" class="st0" d="M384.2,293.5c3.1,3.6-0.8,6.8-0.8,6.8s7.9-4.1,4.3-9.2
		c-3.4-4.8-6-7.2,8.1-15.3C395.8,275.7,373.6,281.3,384.2,293.5"/>
	<path id="path3837-4" inkscape:connector-curvature="0" class="st0" d="M401,317.8c0,0,1.8,1.5-2,2.7c-7.3,2.2-30.5,2.9-36.9,0.1
		c-2.3-1,2-2.4,3.4-2.7c1.4-0.3,2.2-0.3,2.2-0.3c-2.6-1.8-16.6,3.6-7.1,5.1C386.4,326.9,407.7,320.9,401,317.8"/>
	<path id="path3839-3" inkscape:connector-curvature="0" class="st0" d="M373.9,298.1c0,0-11.8,2.8-4.2,3.8
		c3.2,0.4,9.6,0.3,15.6-0.2c4.9-0.4,9.8-1.3,9.8-1.3s-1.7,0.7-3,1.6c-12,3.1-35,1.7-28.4-1.5C369.3,297.8,373.9,298.1,373.9,298.1"
		/>
	<path id="path3841-9" inkscape:connector-curvature="0" class="st0" d="M395,310c12.1-6.3,6.5-12.4,2.6-11.6
		c-1,0.2-1.4,0.4-1.4,0.4s0.4-0.6,1-0.8c7.8-2.7,13.7,8-2.5,12.3C394.8,310.3,394.9,310.1,395,310"/>
	<path id="path3843-8" inkscape:connector-curvature="0" class="st0" d="M387.7,262.5c0,0,6.7,6.7-6.4,17.1c-10.5,8.3-2.4,13,0,18.4
		c-6.1-5.5-10.6-10.4-7.6-14.9C378.1,276.4,390.4,273.2,387.7,262.5"/>
	<path id="path3845-1" inkscape:connector-curvature="0" class="st0" d="M375.1,327.1c11.7,0.7,29.6-0.4,30-5.9c0,0-0.8,2.1-9.6,3.8
		c-10,1.9-22.2,1.7-29.5,0.5C365.9,325.3,367.4,326.6,375.1,327.1"/>
	<path id="path3847-4" inkscape:connector-curvature="0" class="st0" d="M373.2,348.1c-1.1,1-2.3,1.5-3.3,1.5
		c-1.5,0-2.3-0.9-2.3-2.3c0-1.5,0.9-2.7,4.3-2.7h1.3L373.2,348.1 M376.2,351.6V341c0-2.7-1.5-4.5-5.3-4.5c-2.2,0-4.1,0.5-5.6,1.2
		l0.4,1.9c1.2-0.4,2.8-0.9,4.3-0.9c2.1,0,3.1,0.9,3.1,2.6v1.3h-1.1c-5.2,0-7.6,2-7.6,5.1c0,2.6,1.5,4.1,4.5,4.1
		c1.9,0,3.3-0.8,4.6-1.9l0.2,1.6H376.2L376.2,351.6z"/>
	<path id="path3849-6" inkscape:connector-curvature="0" class="st0" d="M386.3,351.6h-3.8l-4.6-14.8h3.3l2.8,9.1l0.6,2.7
		c1.4-4,2.4-8,2.9-11.9h3.2C390.1,341.6,388.5,347,386.3,351.6"/>
	<path id="path3851-9" inkscape:connector-curvature="0" class="st0" d="M400.9,348.1c-1.1,1-2.3,1.5-3.3,1.5
		c-1.5,0-2.3-0.9-2.3-2.3c0-1.5,0.9-2.7,4.3-2.7h1.3L400.9,348.1 M403.9,351.6V341c0-2.7-1.5-4.5-5.3-4.5c-2.2,0-4.1,0.5-5.6,1.2
		l0.4,1.9c1.2-0.4,2.8-0.9,4.3-0.9c2.1,0,3.1,0.9,3.1,2.6v1.3h-1.1c-5.2,0-7.6,2-7.6,5.1c0,2.6,1.5,4.1,4.5,4.1
		c1.9,0,3.3-0.8,4.6-1.9l0.2,1.6H403.9L403.9,351.6z"/>
	<path id="path3853-1" inkscape:connector-curvature="0" class="st0" d="M361.2,354.1c-0.9,1.3-2.3,2.3-3.8,2.8l-1.5-1.8
		c1.2-0.6,2.2-1.6,2.6-2.5c0.4-0.8,0.6-1.8,0.6-4.3v-16.9h3.2v16.7C362.3,351.5,362.1,352.8,361.2,354.1"/>
</g>
<g>
	
		<path id="path3918-6" inkscape:connector-curvature="0" sodipodi:nodetypes="scscsccscccccssscccssccccsssscccccccccccccccccccccccccccccccccc" class="st0" d="
		M419.8,137.3c-3.3-0.1-5.4,1.5-5.4,1.5s-26.5,15-32,18.5c-5.5,3.4-4.9,8.4-4.9,8.4v38.5c0,3.4,0.8,4.1,0.8,4.1
		c1.3,1.6,2.9,2.7,2.9,2.7s28.4,16.7,33.9,19.6c5.5,2.8,9.1,0,9.1,0s30.1-17.5,33.2-19.2c2.3-1.6,3-2.7,3.2-3l-16.6-9.8
		c0,0-7.1,14.5-25.4,14.1c-12.5,0-19.9-6.3-23.7-13.8c-2.6-5.1-3.6-10.7-3.6-15.5c0-11.8,10.7-26.9,28-26.9
		c17.3,0.1,24.7,14.1,24.7,14.1l16.9-9.7c-2.2-2.7-3.8-3.5-3.8-3.5s-26.1-15.1-32-18.5C423.1,137.8,421.3,137.4,419.8,137.3
		L419.8,137.3z M443.8,170.6c-0.6,0.4-1.2,0.7-1.9,1.1l-2.5,1.5l-7.9,4.6c-1.2-2.6-6.5-7.2-12.5-7.2s-13.9,6.7-13.9,14.1
		c0,2.5,0.8,4.9,2.1,7c2.7,4.3,7.6,7.3,12.6,7.2c7.5-0.1,11.6-7.5,11.6-7.5c-21.2-12.4,22.6,13.3,29.1,17.1l0.1-0.1
		c0,0,1.3-1.7,1.2-3.9c0-1.2,0-40.2,0-40.2s-0.1-1.7-1.1-3.3C459.6,161.5,449.7,167.2,443.8,170.6L443.8,170.6z M441.2,179.8h3.2
		v3.2h3.2v3.2h-3.2v3.2h-3.2v-3.2h-3.2V183h3.2V179.8z M452.9,179.8h3.2v3.2h3.2v3.2h-3.2v3.2h-3.2v-3.2h-3.2V183h3.2V179.8z"/>
</g>
<g>
	<g>
		<g>
			<defs>
				<rect id="SVGID_1_" x="13.7" y="156.2" width="210.5" height="56.6"/>
			</defs>
			<clipPath id="SVGID_2_">
				<use xlink:href="#SVGID_1_"  style="overflow:visible;"/>
			</clipPath>
			<path id="path22-2" inkscape:connector-curvature="0" class="st1" d="M45.2,186.3c0-0.6-0.3-1.2-0.8-1.5l-14.1-8.1
				c-0.2-0.1-0.5-0.2-0.8-0.2c0,0-0.1,0-0.1,0c-0.3,0-0.5,0.1-0.8,0.2l-14.1,8.1c-0.5,0.3-0.9,0.9-0.9,1.5l0,21.8
				c0,0.3,0.2,0.6,0.4,0.7c0.3,0.2,0.6,0.2,0.8,0l8.4-4.8c0.5-0.3,0.9-0.9,0.9-1.5v-10.2c0-0.6,0.3-1.2,0.9-1.5l3.6-2.1
				c0.3-0.2,0.6-0.2,0.9-0.2c0.3,0,0.6,0.1,0.8,0.2l3.6,2.1c0.5,0.3,0.9,0.9,0.9,1.5v10.2c0,0.6,0.3,1.2,0.9,1.5l8.4,4.8
				c0.3,0.2,0.6,0.2,0.8,0c0.3-0.1,0.4-0.4,0.4-0.7L45.2,186.3"/>
		</g>
		<g>
			<defs>
				<rect id="SVGID_3_" x="13.7" y="156.2" width="210.5" height="56.6"/>
			</defs>
			<clipPath id="SVGID_4_">
				<use xlink:href="#SVGID_3_"  style="overflow:visible;"/>
			</clipPath>
			<path id="path24-1" inkscape:connector-curvature="0" class="st2" d="M119.1,197.7c0,0.2-0.1,0.3-0.2,0.4l-4.8,2.8
				c-0.1,0.1-0.3,0.1-0.4,0l-4.8-2.8c-0.1-0.1-0.2-0.2-0.2-0.4v-5.6c0-0.2,0.1-0.3,0.2-0.4l4.8-2.8c0.1-0.1,0.3-0.1,0.4,0l4.8,2.8
				c0.1,0.1,0.2,0.2,0.2,0.4V197.7z M120.4,156.3c-0.3-0.1-0.6-0.1-0.8,0c-0.3,0.2-0.4,0.4-0.4,0.7v21.6c0,0.2-0.1,0.4-0.3,0.5
				c-0.2,0.1-0.4,0.1-0.6,0l-3.5-2c-0.5-0.3-1.2-0.3-1.7,0L99,185.3c-0.5,0.3-0.9,0.9-0.9,1.5V203c0,0.6,0.3,1.2,0.9,1.5l14.1,8.1
				c0.5,0.3,1.2,0.3,1.7,0l14.1-8.1c0.5-0.3,0.9-0.9,0.9-1.5v-40.5c0-0.6-0.3-1.2-0.9-1.5L120.4,156.3"/>
		</g>
		<g>
			<defs>
				<rect id="SVGID_5_" x="13.7" y="156.2" width="210.5" height="56.6"/>
			</defs>
			<clipPath id="SVGID_6_">
				<use xlink:href="#SVGID_5_"  style="overflow:visible;"/>
			</clipPath>
			<path id="path26-8" inkscape:connector-curvature="0" class="st3" d="M170.8,191.9c0.5-0.3,0.8-0.9,0.8-1.5v-3.9
				c0-0.6-0.3-1.2-0.8-1.5l-14-8.1c-0.5-0.3-1.2-0.3-1.7,0l-14.1,8.1c-0.5,0.3-0.9,0.9-0.9,1.5v16.3c0,0.6,0.3,1.2,0.9,1.5l14,8
				c0.5,0.3,1.1,0.3,1.7,0l8.5-4.7c0.3-0.1,0.4-0.4,0.4-0.7s-0.2-0.6-0.4-0.7l-14.2-8.1c-0.3-0.1-0.4-0.4-0.4-0.7v-5.1
				c0-0.3,0.2-0.6,0.4-0.7l4.4-2.5c0.3-0.2,0.6-0.2,0.9,0l4.4,2.5c0.3,0.2,0.4,0.4,0.4,0.7v4c0,0.3,0.2,0.6,0.4,0.7
				c0.3,0.2,0.6,0.1,0.9,0L170.8,191.9"/>
		</g>
		<g>
			<defs>
				<rect id="SVGID_7_" x="13.7" y="156.2" width="210.5" height="56.6"/>
			</defs>
			<clipPath id="SVGID_8_">
				<use xlink:href="#SVGID_7_"  style="overflow:visible;"/>
			</clipPath>
			<path id="path28-8" inkscape:connector-curvature="0" class="st4" d="M70.9,176.8c0.5-0.3,1.2-0.3,1.7,0l14.1,8.1
				c0.5,0.3,0.9,0.9,0.9,1.5v16.3c0,0.6-0.3,1.2-0.8,1.5l-14.1,8.1c-0.5,0.3-1.2,0.3-1.7,0l-14.1-8.1c-0.5-0.3-0.9-0.9-0.9-1.5
				v-16.3c0-0.6,0.3-1.2,0.9-1.5L70.9,176.8"/>
		</g>
		<g>
			<defs>
				<rect id="SVGID_9_" x="13.7" y="156.2" width="210.5" height="56.6"/>
			</defs>
			<clipPath id="SVGID_10_">
				<use xlink:href="#SVGID_9_"  style="overflow:visible;"/>
			</clipPath>
			<path id="path30-1" inkscape:connector-curvature="0" class="st5" d="M198.2,212.5c-0.5,0-1-0.1-1.4-0.4l-4.4-2.6
				c-0.7-0.4-0.3-0.5-0.1-0.6c0.9-0.3,1.1-0.4,2-0.9c0.1-0.1,0.2,0,0.3,0l3.4,2c0.1,0.1,0.3,0.1,0.4,0l13.3-7.7
				c0.1-0.1,0.2-0.2,0.2-0.4v-15.3c0-0.1-0.1-0.3-0.2-0.4l-13.3-7.7c-0.1-0.1-0.3-0.1-0.4,0l-13.3,7.7c-0.1,0.1-0.2,0.2-0.2,0.4
				v15.3c0,0.1,0.1,0.3,0.2,0.4l3.6,2.1c2,1,3.2-0.2,3.2-1.3v-15.1c0-0.2,0.2-0.4,0.4-0.4h1.7c0.2,0,0.4,0.2,0.4,0.4v15.1
				c0,2.6-1.4,4.1-3.9,4.1c-0.8,0-1.4,0-3.1-0.8l-3.5-2c-0.9-0.5-1.4-1.4-1.4-2.4v-15.3c0-1,0.5-1.9,1.4-2.4l13.3-7.7
				c0.8-0.5,2-0.5,2.8,0l13.3,7.7c0.9,0.5,1.4,1.4,1.4,2.4v15.3c0,1-0.5,1.9-1.4,2.4l-13.3,7.7C199.2,212.4,198.7,212.5,198.2,212.5
				"/>
		</g>
		<g>
			<defs>
				<rect id="SVGID_11_" x="13.7" y="156.2" width="210.5" height="56.6"/>
			</defs>
			<clipPath id="SVGID_12_">
				<use xlink:href="#SVGID_11_"  style="overflow:visible;"/>
			</clipPath>
			<path id="path32-1" inkscape:connector-curvature="0" class="st6" d="M202.3,202c-5.8,0-7-2.7-7-4.9c0-0.2,0.2-0.4,0.4-0.4h1.7
				c0.2,0,0.4,0.1,0.4,0.3c0.3,1.7,1,2.6,4.5,2.6c2.8,0,4-0.6,4-2.1c0-0.9-0.3-1.5-4.7-1.9c-3.6-0.4-5.9-1.2-5.9-4.1
				c0-2.7,2.3-4.3,6-4.3c4.3,0,6.4,1.5,6.6,4.6c0,0.1,0,0.2-0.1,0.3c-0.1,0.1-0.2,0.1-0.3,0.1h-1.7c-0.2,0-0.3-0.1-0.4-0.3
				c-0.4-1.8-1.4-2.4-4.1-2.4c-3.1,0-3.4,1.1-3.4,1.9c0,1,0.4,1.2,4.5,1.8c4.1,0.5,6,1.3,6,4.2C208.9,200.3,206.5,202,202.3,202"/>
		</g>
		<g>
			<defs>
				<rect id="SVGID_13_" x="13.7" y="156.2" width="210.5" height="56.6"/>
			</defs>
			<clipPath id="SVGID_14_">
				<use xlink:href="#SVGID_13_"  style="overflow:visible;"/>
			</clipPath>
			<path id="path34-3" inkscape:connector-curvature="0" class="st7" d="M220.6,176.7v0.4h-1.1v2.9H219v-2.9h-1.1v-0.4H220.6"/>
		</g>
		<g>
			<defs>
				<rect id="SVGID_15_" x="13.7" y="156.2" width="210.5" height="56.6"/>
			</defs>
			<clipPath id="SVGID_16_">
				<use xlink:href="#SVGID_15_"  style="overflow:visible;"/>
			</clipPath>
			<path id="path36-5" inkscape:connector-curvature="0" class="st8" d="M221,176.7h0.6l0.9,2.8l0.9-2.8h0.6v3.3h-0.4v-2
				c0-0.1,0-0.2,0-0.3c0-0.2,0-0.3,0-0.5l-0.9,2.8h-0.4l-1-2.8v0.1c0,0.1,0,0.2,0,0.4c0,0.2,0,0.3,0,0.4v2H221L221,176.7"/>
		</g>
		<g>
			<defs>
				<rect id="SVGID_17_" x="13.7" y="156.2" width="210.5" height="56.6"/>
			</defs>
			<clipPath id="SVGID_18_">
				<use xlink:href="#SVGID_17_"  style="overflow:visible;"/>
			</clipPath>
			<path id="path38-6" inkscape:connector-curvature="0" class="st9" d="M155.8,191.2c0.1-0.1,0.2-0.1,0.3,0l2.7,1.6
				c0.1,0.1,0.2,0.2,0.2,0.3v3.1c0,0.1-0.1,0.2-0.2,0.3l-2.7,1.6c-0.1,0.1-0.2,0.1-0.3,0l-2.7-1.6c-0.1-0.1-0.2-0.2-0.2-0.3V193
				c0-0.1,0.1-0.2,0.2-0.3L155.8,191.2"/>
		</g>
	</g>
</g>
<g>
	<path id="rect35764-6" inkscape:connector-curvature="0" class="st0" d="M257.3,137.3c-4.2,0-7.7,3.4-7.7,7.7v79.1
		c0,4.2,3.4,7.7,7.7,7.7h79.1c4.2,0,7.7-3.4,7.7-7.7V145c0-4.2-3.4-7.7-7.7-7.7L257.3,137.3L257.3,137.3z M322.2,147.4
		c0.8,0,1.3,0,1.3,0V162c-13.8,0-18.3,14.8-18.3,14.8h10.9v14.1H300c-7.4,28.7-34.8,29.9-34.8,29.9v-15.3c8.2-1,11.4-2.7,14.1-5.9
		s6.9-12.1,8.9-19c2-6.9,2.7-13.1,12.4-23.7C308.4,148.2,318.6,147.4,322.2,147.4L322.2,147.4z"/>
</g>
<g>
	<path id="path46" inkscape:connector-curvature="0" class="st0" d="M592.9,185c0-7.9-2.3-12-6.8-12.2c-1.8-0.1-3.6,0.2-5.3,0.9
		c-1.4,0.5-2.3,1-2.8,1.5v19c2.9,1.8,5.5,2.7,7.7,2.5C590.6,196.3,592.9,192.4,592.9,185z M598.5,185.3c0,4-0.9,7.4-2.9,10.1
		c-2.1,3-5.1,4.6-8.8,4.7c-2.8,0.1-5.8-0.8-8.8-2.7v17.2l-4.9-1.7v-38.3c0.8-1,1.8-1.8,3.1-2.5c2.9-1.7,6.4-2.6,10.5-2.6l0.1,0.1
		c3.8,0,6.7,1.5,8.7,4.7C597.6,177.1,598.5,180.8,598.5,185.3z"/>
	<path id="path48" inkscape:connector-curvature="0" class="st0" d="M628.2,196.7c0,5.4-0.5,9.2-1.6,11.2c-1.1,2.1-3.2,3.7-6.2,5
		c-2.5,1-5.2,1.5-8.1,1.6l-0.8-3.1c2.9-0.4,5-0.8,6.2-1.2c2.4-0.8,4-2,4.9-3.7c0.7-1.3,1.1-3.9,1.1-7.7v-1.3
		c-3.3,1.5-6.8,2.3-10.4,2.3c-2.4,0-4.5-0.8-6.3-2.3c-2-1.6-3.1-3.7-3.1-6.3v-20.2l4.9-1.7v20.4c0,2.2,0.7,3.9,2.1,5
		c1.4,1.2,3.2,1.7,5.5,1.7c2.2,0,4.6-0.9,7.2-2.6v-23.8h4.9L628.2,196.7L628.2,196.7z"/>
	<path id="path50" inkscape:connector-curvature="0" class="st0" d="M647.2,199.8c-0.6,0-1.1,0.1-1.6,0.1c-2.8,0-4.9-0.7-6.4-2
		c-1.5-1.3-2.3-3.1-2.3-5.4v-19.1h-3.3v-3.1h3.3v-8.1l4.9-1.7v9.8h5.5v3.1h-5.5v19c0,1.8,0.5,3.1,1.5,3.9c0.8,0.6,2.2,1,4,1.1
		L647.2,199.8L647.2,199.8z"/>
	<path id="path52" inkscape:connector-curvature="0" class="st0" d="M676.6,199.4h-4.9v-18.8c0-1.9-0.4-3.6-1.3-4.9
		c-1-1.6-2.5-2.3-4.3-2.3c-2.2,0-5,1.2-8.4,3.5v22.5h-4.9v-44.8l4.9-1.5v20.4c3.1-2.3,6.5-3.4,10.2-3.4c2.6,0,4.7,0.9,6.3,2.6
		c1.6,1.7,2.4,3.9,2.4,6.5L676.6,199.4L676.6,199.4z"/>
	<path id="path54" inkscape:connector-curvature="0" class="st0" d="M702.5,184.2c0-3.1-0.6-5.6-1.7-7.6c-1.4-2.4-3.5-3.7-6.4-3.8
		c-5.3,0.3-8,4.1-8,11.4c0,3.4,0.6,6.2,1.7,8.4c1.4,2.9,3.6,4.3,6.4,4.2C699.8,196.9,702.5,192.7,702.5,184.2z M707.8,184.3
		c0,4.3-1.1,8-3.3,10.9c-2.4,3.2-5.8,4.9-10.1,4.9c-4.3,0-7.6-1.6-10-4.9c-2.2-2.9-3.3-6.5-3.3-10.9c0-4.1,1.2-7.5,3.5-10.3
		c2.5-3,5.7-4.5,9.8-4.5c4,0,7.3,1.5,9.9,4.5C706.6,176.8,707.8,180.2,707.8,184.3z"/>
	<path id="path56" inkscape:connector-curvature="0" class="st0" d="M735.7,199.4h-4.9v-19.8c0-2.2-0.7-3.9-2-5.1
		c-1.3-1.2-3.1-1.8-5.2-1.8c-2.3,0-4.5,0.8-6.6,2.3v24.4h-4.9v-25c2.8-2,5.4-3.4,7.7-4c2.2-0.6,4.2-0.9,5.9-0.9
		c1.2,0,2.2,0.1,3.3,0.3c1.9,0.4,3.5,1.3,4.7,2.5c1.3,1.3,2,2.9,2,4.8V199.4z"/>
	<path id="path1948" inkscape:connector-curvature="0" class="st0" d="M525.2,154.7c-2.5,0-4.9,0.2-7,0.6c-6.2,1.1-7.3,3.4-7.3,7.6
		v5.6h14.6v1.9h-14.6h-5.5c-4.3,0-8,2.6-9.1,7.4c-1.3,5.6-1.4,9,0,14.9c1,4.3,3.5,7.4,7.8,7.4h5v-6.7c0-4.8,4.2-9.1,9.1-9.1h14.6
		c4.1,0,7.3-3.3,7.3-7.4v-13.9c0-4-3.3-6.9-7.3-7.6C530.3,154.9,527.7,154.7,525.2,154.7z M517.3,159.2c1.5,0,2.7,1.3,2.7,2.8
		c0,1.5-1.2,2.8-2.7,2.8c-1.5,0-2.7-1.2-2.7-2.8C514.6,160.5,515.8,159.2,517.3,159.2z"/>
	<path id="path1950" inkscape:connector-curvature="0" class="st0" d="M542,170.3v6.5c0,5-4.3,9.3-9.1,9.3h-14.6
		c-4,0-7.3,3.4-7.3,7.4v13.9c0,4,3.4,6.3,7.3,7.4c4.6,1.4,9.1,1.6,14.6,0c3.7-1.1,7.3-3.2,7.3-7.4v-5.6h-14.6v-1.9h14.6h7.3
		c4.3,0,5.8-3,7.3-7.4c1.5-4.6,1.5-9,0-14.9c-1.1-4.2-3.1-7.4-7.3-7.4L542,170.3L542,170.3z M533.8,205.6c1.5,0,2.7,1.2,2.7,2.8
		c0,1.5-1.2,2.8-2.7,2.8c-1.5,0-2.7-1.3-2.7-2.8C531,206.9,532.3,205.6,533.8,205.6z"/>
	<path id="text3004" inkscape:connector-curvature="0" sodipodi:nodetypes="ccccccccccccccccccccccc" class="st0" d="M745.1,165.9
		h0.9v-5.3h2v-0.6h-4.9v0.6h2L745.1,165.9 M748.8,165.9h0.7V161l1.6,4.9h0.8l1.6-4.9v4.9h0.8v-6h-1.1l-1.8,5.1l-1.5-5.1h-1.2V165.9"
		/>
</g>
<g id="Layer_2_1_">
	<g>
		<path class="st10" d="M544.4,290.6c12.2,23.9,2.7,53.1-21.2,65.2c-23.9,12.2-53.1,2.7-65.2-21.2c-12.2-23.9-2.7-53.1,21.2-65.2
			c15.4-7.9,33.9-6.9,48.4,2.5"/>
		<polygon class="st11" points="491.1,328.6 478.9,328.6 478.9,306.7 475.8,306.7 475.8,331.3 491.1,331.3 491.1,331.3 		"/>
		<path class="st11" d="M505.1,313.6v9.8c0,3.6-1.9,6-4.8,6c-2.2,0-3.6-1.4-3.6-3.5v-12.3h-2.8V327c0,2.9,2.2,4.8,5.6,4.8
			c2.6,0,4.3-0.9,5.9-3.2v2.7h2.5v-17.7H505.1z"/>
		<path class="st11" d="M527.9,329.2c-1,0-1.5-0.5-1.5-1.4V318c0-3.1-2.3-4.8-6.7-4.8c-4.3,0-6.9,1.7-7.1,5.7h2.8
			c0.2-2.2,1.5-3.1,4.2-3.1c2.5,0,4,0.9,4,2.6v0.7c0,1.2-0.7,1.7-2.9,2c-4,0.5-4.6,0.6-5.7,1.1c-2.1,0.8-3.1,2.4-3.1,4.6
			c0,3.2,2.2,5.1,5.8,5.1c2.3,0,4.5-0.9,6-2.6c0.3,1.4,1.5,2.3,2.9,2.3c0.6,0,1-0.1,1.9-0.3l0,0v-2.1
			C528.2,329.2,528.1,329.2,527.9,329.2z M523.6,325.2c0,2.5-2.6,4.2-5.3,4.2c-2.2,0-3.5-0.8-3.5-2.7c0-1.9,1.2-2.7,4.3-3.1
			c3-0.4,3.6-0.5,4.5-1L523.6,325.2L523.6,325.2z"/>
		<path class="st0" d="M501.2,275.1c-20.7,0-37.5,16.8-37.5,37.5c0,20.7,16.8,37.5,37.5,37.5c20.7,0,37.5-16.8,37.5-37.5
			C538.7,291.9,521.9,275.1,501.2,275.1z M475.8,331.3v-24.6h3.1v21.8h12.2v2.8h0L475.8,331.3L475.8,331.3z M507.9,331.3
			L507.9,331.3h-2.5v-2.7c-1.7,2.3-3.3,3.2-5.9,3.2c-3.4,0-5.6-1.9-5.6-4.8v-13.4h2.8v12.3c0,2.1,1.4,3.5,3.6,3.5
			c2.9,0,4.8-2.4,4.8-6v-9.8h2.8L507.9,331.3L507.9,331.3L507.9,331.3z M505.8,297c0-6.1,4.9-11,11-11c6.1,0,11,4.9,11,11
			c0,6.1-4.9,11-11,11C510.7,308,505.8,303.1,505.8,297z M528.5,331.3c-0.9,0.2-1.4,0.3-1.9,0.3c-1.4,0-2.6-1-2.9-2.3
			c-1.6,1.7-3.7,2.6-6,2.6c-3.6,0-5.8-1.9-5.8-5.1c0-2.2,1-3.7,3.1-4.6c1.1-0.4,1.7-0.6,5.7-1.1c2.2-0.3,2.9-0.8,2.9-2v-0.7
			c0-1.7-1.4-2.6-4-2.6c-2.6,0-3.9,1-4.2,3.1h-2.8c0.2-4.1,2.8-5.7,7.1-5.7c4.4,0,6.7,1.7,6.7,4.8v9.9c0,0.9,0.5,1.4,1.5,1.4
			c0.2,0,0.3,0,0.6-0.1L528.5,331.3L528.5,331.3L528.5,331.3z"/>
		<path class="st0" d="M514.8,326.7c0,1.9,1.3,2.7,3.5,2.7c2.7,0,5.3-1.6,5.3-4.2v-2.6c-0.9,0.4-1.6,0.6-4.5,1
			C516.1,324,514.8,324.8,514.8,326.7z"/>
		<path class="st12" d="M507.9,331.3L507.9,331.3L507.9,331.3z"/>
		<circle class="st0" cx="538.7" cy="275.1" r="11"/>
	</g>
</g>
<g transform="matrix( 1, 0, 0, 1, 0,0) ">
	<g>
		<g id="HashLinkLogo">
			<path class="st13" d="M617.5,314.9V344l18.3-8.3v-14.2L617.5,314.9 M617.5,272.1v25.1l18.3,6.6v-25.1L617.5,272.1 M669.3,331.6
				v-21.3V291l-16.7-6.1v71.9v0.2l42.8-19.5v-17.7L669.3,331.6z"/>
			<path class="st0" d="M652.5,284.9l-16.8-6.1v25.1l-18.3-6.6v-25.1l-16.7-6.1v71.9l16.6,6.1l0.1,0v-29.1l18.3,6.6v14.2v14.9
				l16.8,6.1V284.9 M695.4,319.7l-26.1-9.5v21.3L695.4,319.7z"/>
		</g>
	</g>
</g>
</svg>
