<svg enable-background="new 0 0 768 374" viewBox="0 0 768 374" xmlns="http://www.w3.org/2000/svg" xmlns:xlink="http://www.w3.org/1999/xlink"><clipPath id="a"><path d="m13.7 156.2h210.5v56.6h-210.5z"/></clipPath><clipPath id="b"><path d="m13.7 156.2h210.5v56.6h-210.5z"/></clipPath><clipPath id="c"><path d="m13.7 156.2h210.5v56.6h-210.5z"/></clipPath><clipPath id="d"><path d="m13.7 156.2h210.5v56.6h-210.5z"/></clipPath><clipPath id="e"><path d="m13.7 156.2h210.5v56.6h-210.5z"/></clipPath><clipPath id="f"><path d="m13.7 156.2h210.5v56.6h-210.5z"/></clipPath><clipPath id="g"><path d="m13.7 156.2h210.5v56.6h-210.5z"/></clipPath><clipPath id="h"><path d="m13.7 156.2h210.5v56.6h-210.5z"/></clipPath><clipPath id="i"><path d="m13.7 156.2h210.5v56.6h-210.5z"/></clipPath><g fill="#f48821"><path d="m422.1 28.7 6.1 68.3 27.3 7.6 27.4-7.6 6.1-68.3c-.1 0-66.9 0-66.9 0zm12.3 13.8h42.1l-.8 8.5h-32l.9 8.6h30.4l-2.3 25.7-17.2 4.9s-17.3-4.5-17.3-4.9-1.2-13.2-1.2-13.2h8.3l.8 6.5 9.3 2.7 9.3-2.6.9-11h-28.8z"/><path d="m428.3 10.1h4.3v4.2h3.9v-4.2h4.3v12.7h-4.3v-4.3h-3.9v4.3h-4.3z"/><path d="m446.3 14.3h-3.7v-4.2h11.8v4.2h-3.7v8.5h-4.3v-8.5z"/><path d="m456.1 10.1h4.4l2.7 4.5 2.7-4.5h4.4v12.7h-4.2v-6.3l-2.9 4.5h-.1l-2.9-4.5v6.3h-4.2z"/><path d="m472.6 10.1h4.3v8.5h6v4.2h-10.2v-12.7z"/><path d="m153.2 45.2h8.8v38.3h-8.8z"/><path d="m193.1 30c-13.1 0-23.7 9.8-23.7 27.4s10.6 27.4 23.7 27.4 23.5-11.8 23.5-27.4c0-17.3-10.4-27.4-23.5-27.4zm.1 7.7c7.6 0 14 10.5 13.9 20.9-.1 10.5-6.3 18.6-13.9 18.6s-14.2-7-14.2-19.8c-.1-12.7 6.6-19.7 14.2-19.7z"/><path d="m163.4 35.1c0 2.9-2.6 5.3-5.7 5.3s-5.7-2.4-5.7-5.3 2.6-5.3 5.7-5.3 5.7 2.4 5.7 5.3z"/><path d="m222.8 72.8s5.5 3.5 12.8 3.4 8.7-4.4 8.5-8c-.1-3.6-5.1-6.6-11.7-8.7-8.4-2.6-11.8-11.5-10.8-17.9s9.4-11.6 18.7-11.2 11.4 2.8 11.4 2.8l-2.1 7.9s-4.8-3.4-8.7-3.3-9.5 2.1-9.9 5.5 2.8 6.8 7 8.8 16.6 6.5 15.9 17.1c-.6 10.5-9.3 13.2-13.3 14.4s-11 .1-14.2-.8c-3.1-.9-6.3-1.9-6.3-1.9z"/><path d="m319.1 34.7h37.8c3.3 0 6 2.7 6 6v37.8c0 3.3-2.7 6-6 6h-37.8c-3.3 0-6-2.7-6-6v-37.8c0-3.3 2.7-6 6-6z"/><path d="m321.7 11.3c-.9.5-1.2 1.6-.7 2.4l9.7 17.5c.5.9 1.6 1.2 2.4.7.9-.5 1.2-1.6.7-2.4l-9.7-17.5c-.5-.8-1.6-1.1-2.4-.7z"/><path d="m370.6 40.5c-3.6 0-6.6 2.9-6.6 6.6v23.3c0 3.6 2.9 6.6 6.6 6.6 3.6 0 6.6-2.9 6.6-6.6v-23.3c0-3.7-2.9-6.6-6.6-6.6z"/><path d="m347.3 67.1c-3.6 0-6.6 2.9-6.6 6.6v23.3c0 3.6 2.9 6.6 6.6 6.6 3.6 0 6.6-2.9 6.6-6.6v-23.3c0-3.7-2.9-6.6-6.6-6.6z"/><path d="m354.4 11.3c.9.5 1.2 1.6.7 2.4l-9.7 17.5c-.5.9-1.6 1.2-2.4.7-.9-.5-1.2-1.6-.7-2.4l9.7-17.5c.4-.8 1.5-1.1 2.4-.7z"/><path d="m305.4 40.5c3.6 0 6.6 2.9 6.6 6.6v23.3c0 3.6-2.9 6.6-6.6 6.6-3.6 0-6.6-2.9-6.6-6.6v-23.3c0-3.7 3-6.6 6.6-6.6z"/><path d="m328.7 67.1c3.6 0 6.6 2.9 6.6 6.6v23.3c0 3.6-2.9 6.6-6.6 6.6-3.6 0-6.6-2.9-6.6-6.6v-23.3c0-3.7 3-6.6 6.6-6.6z"/><path d="m338 17.3c-13.8 0-25 10.3-25 23s11.2 23 25 23 24.9-10.3 24.9-23-11.1-23-24.9-23zm-11.7 9.6c1.2 0 2.1.9 2.1 2.1s-.9 2.1-2.1 2.1-2.1-.9-2.1-2.1.9-2.1 2.1-2.1zm23.1 0c1.2 0 2.1.9 2.1 2.1s-.9 2.1-2.1 2.1-2.1-.9-2.1-2.1c0-1.1.9-2.1 2.1-2.1z"/><path d="m319.1 34.7h37.8c3.3 0 6 2.7 6 6v37.8c0 3.3-2.7 6-6 6h-37.8c-3.3 0-6-2.7-6-6v-37.8c0-3.3 2.7-6 6-6z"/><path d="m563.8 71.8s4.5-5.4 11.3-6.4c-4.2-.1-5.6 1.1-6.8.2s1.6-3.6 1.6-3.6-9.2 5.3-6.1 9.8z"/><path d="m573.5 43.2s6.7 5.5 8.2 3c1.6-2.5-3.3-3.1-8.2-3z"/><path d="m606.4 43.1s-6.7 5.5-8.2 3 3.4-3.1 8.2-3z"/><path d="m616.6 71.8s-4.5-5.4-11.3-6.4c4.2-.1 5.6 1.1 6.8.2s-1.6-3.6-1.6-3.6 9.2 5.3 6.1 9.8z"/><path d="m561.3 21c-.3 1.2.2 4 .2 4s2.3 3 3.3 5.8 1.3 4.7-1.6 11.2c-2.3 4.5-2.4 8-3.1 9.4-1.2 2.3-2 1.3-1.8 7.1 0 0 8.1-6.3 5.5-7.8-1.9-1.2 1.5-4.1 7.7-4.9-2.5-2.4-.5-6 3.9-5.4s7.5 3.7 11.4 5.6c1 .5 1.5-1.5.6-2.4-1.2-1.3-3-1.6-3-2.9 0-1 2.9-1.7 2.3-3.2-.9-2.5-4.9-.6-5.8-2.3-1-1.8-.2-2.7 1.7-3s-.1-6.3-5.1-4.2c-5.1 2.1-6.7.5-9.8-2.6-2.2-2.2-4.2-3.5-6.4-4.4zm2 4.9c6.5 2.2 8.3 6.1 8.3 6.1s-1.9 1.9-4.8 2.9c1.3-6.8-3.5-9-3.5-9z"/><path d="m617.9 21c.3 1.2-.2 4-.2 4s-2.3 3-3.3 5.8-1.3 4.7 1.6 11.2c2.3 4.5 2.4 8 3.1 9.4 1.2 2.3 2 1.3 1.8 7.1 0 0-8.1-6.3-5.5-7.8 1.9-1.2-1.5-4.1-7.7-4.9 2.5-2.4.5-6-3.9-5.4s-7.5 3.7-11.4 5.6c-1 .5-1.5-1.5-.6-2.4 1.2-1.3 3-1.6 3-2.9 0-1-2.9-1.7-2.3-3.2.9-2.5 4.9-.6 5.8-2.3 1-1.8.2-2.7-1.7-3s.1-6.3 5.2-4.2 6.7.5 9.8-2.6c2.1-2.2 4.1-3.5 6.3-4.4zm-1.9 4.9c-6.5 2.2-8.3 6.1-8.3 6.1s1.9 1.9 4.8 2.9c-1.3-6.8 3.5-9 3.5-9z"/><path d="m555.3 10.1c-1.2 11.3 5.4 21.5 5.9 22.8.5 1.4.3 3.5-1.2 5.1-4.4 5.4-6 21.9-5.9 28.2s1.8 7.1 1.8 7.1.2-.8 1.1-2.2c.1 3.1 1.2 8.9 7 14.3 1.6-12.9 13.1-13.4 16.2-12.9.1 1.6 3.3 10.1 3.7 10.6s7.9 3.1 11.8.1 1.3-6.5 4.4-10.7c12.4-1.6 16.2 8.9 15.7 13.1 4.8-4.8 5.8-10.6 5.8-10.6s1.3.9 2 1.6c6.1-18.7-3.6-38.1-5.7-41.8 7.3-15 6.3-20.6 5.7-24.1-5.2 4.6-16.4 12.1-19.9 12.1s-5.3-2-10.2-2.9c0 1.9-3.5 6-3.5 6s-2.5-3.1-3.9-6c-4.5-.2-7.3 3.6-10.8 2.7-7.5-1.9-20-12.5-20-12.5zm65.2 6s1 2.4.4 3.5-1.5 3.6-1.9 5.2c-.5 1.6-1.4 5.2-2.3 6.7-1 1.5-2.1 3 1.7 9.6s5.7 20.9 3.6 20.9c-2 0-5.2-5.3-9.3-7s-7.8-1.8-11.2-1.8c-2.1.1-4.7.8-4.9 2.3-.1 1 1.4.7 3.7 1.3 2.4.7 2 1.7 1.5 2.8s-2.7.2-4.9-.3c-2.1-.5-4.6-1.5-4.4-2.2.6-2 2.6-2.3 2.6-4.5 0-1.2-2.3-2.9-5.1-2.9s-3.8.8-4.6 2.1c-.8 1.4 1.2 3.4 1.9 4.5 1 1.8-3.9 4.7-7.2 3.9s.1-3.9 2.7-4.1c3.3-.3 0-2.7-4.5-2.7s-6.2.8-8.7 1.8-5.8 1.6-12.2 7.2c-1-12.2 4.7-21.8 5.6-23.1s1.9-3.1 1.2-4.9c-4.1-9.3-5.2-18.1-5.2-18.1s4.9 3.7 10.3 7.4 9.1 2.3 15 .4c1.6 8.7 6 12.2 6 12.2 3.5-3.1 4.8-8.7 4.4-10.3-.4-1.7-.1-3.4 3.5-1.9 5.9 1.9 7.1 1.8 12.3-.7s10-7.3 10-7.3zm-46.4 42c3.2 4 3.3 4 6.9 4.4 1.5 4 .6 5.3 5.3 13.6 0-.4.1-13.1.1-13.1s1.5.3 1.4 1.6c.1 1.5 0 2.9 0 2.9l1.3-1.4 1.1 1.4 1.3-1.3 1.2 1.3s.1-2.2.1-3.1c0-.6 1.4-1.6 1.4-1.6v6.5l-.7 7.1s3.5-5.1 4.7-13c4.7-1.6 6.9-3.4 6.9-5.2 3.4-.6 14.4 2.8 15 10.3-.2 3.8-1.8 8.2-1.8 8.2s-5-8.2-19.2-7.5c-2.8 4.5-3.4 7.9-3.8 10.4-.5 2.2-2.8 2.7-4.5 2.7s-4-.9-5.1-2.3c-1.2-1.5-2.7-9-4.3-10.8-2.9-1.3-14.8.8-19.4 7.9-2.7-8.5-1.3-18.2 12.1-19z"/><path d="m587.6 76.2h5.1v-3.1l-1.4 1.4-1.1-1.3-1.1 1.2-1.3-1.3z"/><path d="m543.8 92.2h3.4l10 8v-8h3.4v12.2h-3.4l-10.1-7.9v7.9h-3.3z"/><path d="m569.1 92.3h16.7v3.3h-16.7z"/><path d="m569.1 96.7h16.7v3.3h-16.7z"/><path d="m569.1 101.2h16.7v3.3h-16.7z"/><path d="m594.4 92.2h3.3v4.5h6l3.3-4.5h4.1l-3.3 4.5h3.3v7.8h-3.3v-4.5h-10.1v4.5h-3.3z"/><path d="m619.3 92.2v12.2h16.7v-12.2zm3.4 3.4h10v5.6h-10z"/><path d="m229.6 293.8h-19.6l-8.5 42.9h10.1l2.1-11.1h9.5c9 .5 19.1-6.9 19.1-19.6 0-7.4-4.2-11.6-12.7-12.2zm-7.4 23.9h-6.4l2.6-15.9h6.9c3.7 0 6.4 1.6 6.4 4.8-.5 8.9-4.7 10.5-9.5 11.1z"/><path d="m239.2 325.6 8.5-42.9h10.1l-2.1 11.1h9.5c8.5.5 11.6 4.8 10.6 10.1l-3.7 21.7h-10.6l3.7-19.6c.5-2.6.5-4.2-3.2-4.2h-8l-4.8 23.8z"/><path d="m300.6 293.8h-19.6l-8.5 42.9h10.1l2.1-11.1h9.5c9 .5 19.1-6.9 19.1-19.6 0-7.4-4.2-11.6-12.7-12.2zm-7.4 23.9h-6.4l2.6-15.9h6.9c3.7 0 6.4 1.6 6.4 4.8-.5 8.9-4.8 10.5-9.5 11.1z"/><path d="m153.5 294.2c0-4 0-8 0-12h2.5v11.3l5.7-1.5v6.3c-1.9.5-3.8 1-5.7 1.5v15.4l5.7-1.5v6.3c-1.9.5-3.8 1-5.7 1.5v11.2c-.8 0-1.7 0-2.5 0 0-3.5 0-7 0-10.5-3.8 1-7.6 2-11.3 3.1v12c-.9 0-1.7 0-2.6 0 0-3.8 0-7.5 0-11.3-1.9.5-3.8 1-5.7 1.5 0-2.1 0-4.2 0-6.3l5.7-1.5c0-5.1 0-10.3 0-15.4-1.9.5-3.8 1-5.7 1.5 0-2.1 0-4.2 0-6.3l5.7-1.5c0-3.7 0-7.5 0-11.2h2.6v10.5c3.7-1.1 7.5-2.1 11.3-3.1m-11.3 9.3v15.4c3.8-1 7.6-2 11.3-3.1 0-5.1 0-10.3 0-15.4-3.8 1.1-7.6 2.1-11.3 3.1z"/><path d="m96.2 285.2c4.5-2.2 9.6-2.8 14.6-2.2 4.7.5 9.3 2.6 12.5 6.1 2.3 2.5 3.9 5.6 4.8 8.9-2.2.5-4.5 1.1-6.7 1.6-1.2-3.8-3.4-7.6-7.1-9.4-4.1-2-9-1.8-13.3-.5-4.7 1.6-8 5.8-9.5 10.4-1.7 5.3-1.6 11-.7 16.4.8 4.4 2.9 8.6 6.6 11.2 4 3 9.5 3.5 14.2 2.3 3.6-.9 6.7-3.6 8.4-6.9 1-1.8 1.6-3.8 2.1-5.7 2.3.6 4.6 1.1 6.8 1.7-1.3 4.8-3.6 9.6-7.5 12.7-4.1 3.4-9.5 4.8-14.7 4.6-5.9-.1-12.1-1.7-16.3-6.1-4.2-4.5-6.5-10.5-7.2-16.6-.6-5.7-.2-11.6 1.9-16.9 2.2-5 6.2-9.2 11.1-11.6z"/><path d="m404.5 337h-.4v-.2h1v.2h-.4v1h-.2zm1.9 0-.4.9h-.2l-.4-.9v.9h-.2v-1.2h.3l.3.8.3-.8h.3v1.2h-.2z"/><path d="m372.7 312.6s-2.5 1.4 1.8 1.9c5.1.6 7.8.5 13.4-.6 0 0 1.5.9 3.6 1.7-12.8 5.5-28.8-.2-18.8-3"/><path d="m371.1 305.5s-2.8 2.1 1.5 2.5c5.5.6 9.8.6 17.3-.8 0 0 1 1 2.7 1.6-15.4 4.5-32.4.3-21.5-3.3"/><path d="m384.2 293.5c3.1 3.6-.8 6.8-.8 6.8s7.9-4.1 4.3-9.2c-3.4-4.8-6-7.2 8.1-15.3 0-.1-22.2 5.5-11.6 17.7"/><path d="m401 317.8s1.8 1.5-2 2.7c-7.3 2.2-30.5 2.9-36.9.1-2.3-1 2-2.4 3.4-2.7s2.2-.3 2.2-.3c-2.6-1.8-16.6 3.6-7.1 5.1 25.8 4.2 47.1-1.8 40.4-4.9"/><path d="m373.9 298.1s-11.8 2.8-4.2 3.8c3.2.4 9.6.3 15.6-.2 4.9-.4 9.8-1.3 9.8-1.3s-1.7.7-3 1.6c-12 3.1-35 1.7-28.4-1.5 5.6-2.7 10.2-2.4 10.2-2.4"/><path d="m395 310c12.1-6.3 6.5-12.4 2.6-11.6-1 .2-1.4.4-1.4.4s.4-.6 1-.8c7.8-2.7 13.7 8-2.5 12.3.1 0 .2-.2.3-.3"/><path d="m387.7 262.5s6.7 6.7-6.4 17.1c-10.5 8.3-2.4 13 0 18.4-6.1-5.5-10.6-10.4-7.6-14.9 4.4-6.7 16.7-9.9 14-20.6"/><path d="m375.1 327.1c11.7.7 29.6-.4 30-5.9 0 0-.8 2.1-9.6 3.8-10 1.9-22.2 1.7-29.5.5-.1-.2 1.4 1.1 9.1 1.6"/><path d="m373.2 348.1c-1.1 1-2.3 1.5-3.3 1.5-1.5 0-2.3-.9-2.3-2.3 0-1.5.9-2.7 4.3-2.7h1.3zm3 3.5v-10.6c0-2.7-1.5-4.5-5.3-4.5-2.2 0-4.1.5-5.6 1.2l.4 1.9c1.2-.4 2.8-.9 4.3-.9 2.1 0 3.1.9 3.1 2.6v1.3h-1.1c-5.2 0-7.6 2-7.6 5.1 0 2.6 1.5 4.1 4.5 4.1 1.9 0 3.3-.8 4.6-1.9l.2 1.6h2.5z"/><path d="m386.3 351.6h-3.8l-4.6-14.8h3.3l2.8 9.1.6 2.7c1.4-4 2.4-8 2.9-11.9h3.2c-.6 4.9-2.2 10.3-4.4 14.9"/><path d="m400.9 348.1c-1.1 1-2.3 1.5-3.3 1.5-1.5 0-2.3-.9-2.3-2.3 0-1.5.9-2.7 4.3-2.7h1.3zm3 3.5v-10.6c0-2.7-1.5-4.5-5.3-4.5-2.2 0-4.1.5-5.6 1.2l.4 1.9c1.2-.4 2.8-.9 4.3-.9 2.1 0 3.1.9 3.1 2.6v1.3h-1.1c-5.2 0-7.6 2-7.6 5.1 0 2.6 1.5 4.1 4.5 4.1 1.9 0 3.3-.8 4.6-1.9l.2 1.6h2.5z"/><path d="m361.2 354.1c-.9 1.3-2.3 2.3-3.8 2.8l-1.5-1.8c1.2-.6 2.2-1.6 2.6-2.5.4-.8.6-1.8.6-4.3v-16.9h3.2v16.7c0 3.4-.2 4.7-1.1 6"/><path d="m419.8 137.3c-3.3-.1-5.4 1.5-5.4 1.5s-26.5 15-32 18.5c-5.5 3.4-4.9 8.4-4.9 8.4v38.5c0 3.4.8 4.1.8 4.1 1.3 1.6 2.9 2.7 2.9 2.7s28.4 16.7 33.9 19.6c5.5 2.8 9.1 0 9.1 0s30.1-17.5 33.2-19.2c2.3-1.6 3-2.7 3.2-3l-16.6-9.8s-7.1 14.5-25.4 14.1c-12.5 0-19.9-6.3-23.7-13.8-2.6-5.1-3.6-10.7-3.6-15.5 0-11.8 10.7-26.9 28-26.9 17.3.1 24.7 14.1 24.7 14.1l16.9-9.7c-2.2-2.7-3.8-3.5-3.8-3.5s-26.1-15.1-32-18.5c-2-1.1-3.8-1.5-5.3-1.6zm24 33.3c-.6.4-1.2.7-1.9 1.1l-2.5 1.5-7.9 4.6c-1.2-2.6-6.5-7.2-12.5-7.2s-13.9 6.7-13.9 14.1c0 2.5.8 4.9 2.1 7 2.7 4.3 7.6 7.3 12.6 7.2 7.5-.1 11.6-7.5 11.6-7.5-21.2-12.4 22.6 13.3 29.1 17.1l.1-.1s1.3-1.7 1.2-3.9c0-1.2 0-40.2 0-40.2s-.1-1.7-1.1-3.3c-1.1.5-11 6.2-16.9 9.6zm-2.6 9.2h3.2v3.2h3.2v3.2h-3.2v3.2h-3.2v-3.2h-3.2v-3.2h3.2zm11.7 0h3.2v3.2h3.2v3.2h-3.2v3.2h-3.2v-3.2h-3.2v-3.2h3.2z"/><path clip-path="url(#a)" d="m45.2 186.3c0-.6-.3-1.2-.8-1.5l-14.1-8.1c-.2-.1-.5-.2-.8-.2h-.1c-.3 0-.5.1-.8.2l-14.1 8.1c-.5.3-.9.9-.9 1.5v21.8c0 .3.2.6.4.7.3.2.6.2.8 0l8.4-4.8c.5-.3.9-.9.9-1.5v-10.2c0-.6.3-1.2.9-1.5l3.6-2.1c.3-.2.6-.2.9-.2s.6.1.8.2l3.6 2.1c.5.3.9.9.9 1.5v10.2c0 .6.3 1.2.9 1.5l8.4 4.8c.3.2.6.2.8 0 .3-.1.4-.4.4-.7z"/><path clip-path="url(#b)" d="m119.1 197.7c0 .2-.1.3-.2.4l-4.8 2.8c-.1.1-.3.1-.4 0l-4.8-2.8c-.1-.1-.2-.2-.2-.4v-5.6c0-.2.1-.3.2-.4l4.8-2.8c.1-.1.3-.1.4 0l4.8 2.8c.1.1.2.2.2.4zm1.3-41.4c-.3-.1-.6-.1-.8 0-.3.2-.4.4-.4.7v21.6c0 .2-.1.4-.3.5s-.4.1-.6 0l-3.5-2c-.5-.3-1.2-.3-1.7 0l-14.1 8.2c-.5.3-.9.9-.9 1.5v16.2c0 .6.3 1.2.9 1.5l14.1 8.1c.5.3 1.2.3 1.7 0l14.1-8.1c.5-.3.9-.9.9-1.5v-40.5c0-.6-.3-1.2-.9-1.5z"/><path clip-path="url(#c)" d="m170.8 191.9c.5-.3.8-.9.8-1.5v-3.9c0-.6-.3-1.2-.8-1.5l-14-8.1c-.5-.3-1.2-.3-1.7 0l-14.1 8.1c-.5.3-.9.9-.9 1.5v16.3c0 .6.3 1.2.9 1.5l14 8c.5.3 1.1.3 1.7 0l8.5-4.7c.3-.1.4-.4.4-.7s-.2-.6-.4-.7l-14.2-8.1c-.3-.1-.4-.4-.4-.7v-5.1c0-.3.2-.6.4-.7l4.4-2.5c.3-.2.6-.2.9 0l4.4 2.5c.3.2.4.4.4.7v4c0 .3.2.6.4.7.3.2.6.1.9 0z"/><path clip-path="url(#d)" d="m70.9 176.8c.5-.3 1.2-.3 1.7 0l14.1 8.1c.5.3.9.9.9 1.5v16.3c0 .6-.3 1.2-.8 1.5l-14.1 8.1c-.5.3-1.2.3-1.7 0l-14.1-8.1c-.5-.3-.9-.9-.9-1.5v-16.3c0-.6.3-1.2.9-1.5z"/><path clip-path="url(#e)" d="m198.2 212.5c-.5 0-1-.1-1.4-.4l-4.4-2.6c-.7-.4-.3-.5-.1-.6.9-.3 1.1-.4 2-.9.1-.1.2 0 .3 0l3.4 2c.1.1.3.1.4 0l13.3-7.7c.1-.1.2-.2.2-.4v-15.3c0-.1-.1-.3-.2-.4l-13.3-7.7c-.1-.1-.3-.1-.4 0l-13.3 7.7c-.1.1-.2.2-.2.4v15.3c0 .1.1.3.2.4l3.6 2.1c2 1 3.2-.2 3.2-1.3v-15.1c0-.2.2-.4.4-.4h1.7c.2 0 .4.2.4.4v15.1c0 2.6-1.4 4.1-3.9 4.1-.8 0-1.4 0-3.1-.8l-3.5-2c-.9-.5-1.4-1.4-1.4-2.4v-15.3c0-1 .5-1.9 1.4-2.4l13.3-7.7c.8-.5 2-.5 2.8 0l13.3 7.7c.9.5 1.4 1.4 1.4 2.4v15.3c0 1-.5 1.9-1.4 2.4l-13.3 7.7c-.4.3-.9.4-1.4.4"/><path clip-path="url(#f)" d="m202.3 202c-5.8 0-7-2.7-7-4.9 0-.2.2-.4.4-.4h1.7c.2 0 .4.1.4.3.3 1.7 1 2.6 4.5 2.6 2.8 0 4-.6 4-2.1 0-.9-.3-1.5-4.7-1.9-3.6-.4-5.9-1.2-5.9-4.1 0-2.7 2.3-4.3 6-4.3 4.3 0 6.4 1.5 6.6 4.6 0 .1 0 .2-.1.3s-.2.1-.3.1h-1.7c-.2 0-.3-.1-.4-.3-.4-1.8-1.4-2.4-4.1-2.4-3.1 0-3.4 1.1-3.4 1.9 0 1 .4 1.2 4.5 1.8 4.1.5 6 1.3 6 4.2.1 2.9-2.3 4.6-6.5 4.6"/><path clip-path="url(#g)" d="m220.6 176.7v.4h-1.1v2.9h-.5v-2.9h-1.1v-.4z"/><path clip-path="url(#h)" d="m221 176.7h.6l.9 2.8.9-2.8h.6v3.3h-.4v-2c0-.1 0-.2 0-.3 0-.2 0-.3 0-.5l-.9 2.8h-.4l-1-2.8v.1.4.4 2h-.3z"/><path clip-path="url(#i)" d="m155.8 191.2c.1-.1.2-.1.3 0l2.7 1.6c.1.1.2.2.2.3v3.1c0 .1-.1.2-.2.3l-2.7 1.6c-.1.1-.2.1-.3 0l-2.7-1.6c-.1-.1-.2-.2-.2-.3v-3.2c0-.1.1-.2.2-.3z"/><path d="m257.3 137.3c-4.2 0-7.7 3.4-7.7 7.7v79.1c0 4.2 3.4 7.7 7.7 7.7h79.1c4.2 0 7.7-3.4 7.7-7.7v-79.1c0-4.2-3.4-7.7-7.7-7.7zm64.9 10.1h1.3v14.6c-13.8 0-18.3 14.8-18.3 14.8h10.9v14.1h-16.1c-7.4 28.7-34.8 29.9-34.8 29.9v-15.3c8.2-1 11.4-2.7 14.1-5.9s6.9-12.1 8.9-19 2.7-13.1 12.4-23.7c7.8-8.7 18-9.5 21.6-9.5z"/><path d="m592.9 185c0-7.9-2.3-12-6.8-12.2-1.8-.1-3.6.2-5.3.9-1.4.5-2.3 1-2.8 1.5v19c2.9 1.8 5.5 2.7 7.7 2.5 4.9-.4 7.2-4.3 7.2-11.7zm5.6.3c0 4-.9 7.4-2.9 10.1-2.1 3-5.1 4.6-8.8 4.7-2.8.1-5.8-.8-8.8-2.7v17.2l-4.9-1.7v-38.3c.8-1 1.8-1.8 3.1-2.5 2.9-1.7 6.4-2.6 10.5-2.6l.1.1c3.8 0 6.7 1.5 8.7 4.7 2.1 2.8 3 6.5 3 11z"/><path d="m628.2 196.7c0 5.4-.5 9.2-1.6 11.2-1.1 2.1-3.2 3.7-6.2 5-2.5 1-5.2 1.5-8.1 1.6l-.8-3.1c2.9-.4 5-.8 6.2-1.2 2.4-.8 4-2 4.9-3.7.7-1.3 1.1-3.9 1.1-7.7v-1.3c-3.3 1.5-6.8 2.3-10.4 2.3-2.4 0-4.5-.8-6.3-2.3-2-1.6-3.1-3.7-3.1-6.3v-20.2l4.9-1.7v20.4c0 2.2.7 3.9 2.1 5 1.4 1.2 3.2 1.7 5.5 1.7 2.2 0 4.6-.9 7.2-2.6v-23.8h4.9z"/><path d="m647.2 199.8c-.6 0-1.1.1-1.6.1-2.8 0-4.9-.7-6.4-2s-2.3-3.1-2.3-5.4v-19.1h-3.3v-3.1h3.3v-8.1l4.9-1.7v9.8h5.5v3.1h-5.5v19c0 1.8.5 3.1 1.5 3.9.8.6 2.2 1 4 1.1z"/><path d="m676.6 199.4h-4.9v-18.8c0-1.9-.4-3.6-1.3-4.9-1-1.6-2.5-2.3-4.3-2.3-2.2 0-5 1.2-8.4 3.5v22.5h-4.9v-44.8l4.9-1.5v20.4c3.1-2.3 6.5-3.4 10.2-3.4 2.6 0 4.7.9 6.3 2.6s2.4 3.9 2.4 6.5z"/><path d="m702.5 184.2c0-3.1-.6-5.6-1.7-7.6-1.4-2.4-3.5-3.7-6.4-3.8-5.3.3-8 4.1-8 11.4 0 3.4.6 6.2 1.7 8.4 1.4 2.9 3.6 4.3 6.4 4.2 5.3.1 8-4.1 8-12.6zm5.3.1c0 4.3-1.1 8-3.3 10.9-2.4 3.2-5.8 4.9-10.1 4.9s-7.6-1.6-10-4.9c-2.2-2.9-3.3-6.5-3.3-10.9 0-4.1 1.2-7.5 3.5-10.3 2.5-3 5.7-4.5 9.8-4.5 4 0 7.3 1.5 9.9 4.5 2.3 2.8 3.5 6.2 3.5 10.3z"/><path d="m735.7 199.4h-4.9v-19.8c0-2.2-.7-3.9-2-5.1s-3.1-1.8-5.2-1.8c-2.3 0-4.5.8-6.6 2.3v24.4h-4.9v-25c2.8-2 5.4-3.4 7.7-4 2.2-.6 4.2-.9 5.9-.9 1.2 0 2.2.1 3.3.3 1.9.4 3.5 1.3 4.7 2.5 1.3 1.3 2 2.9 2 4.8z"/><path d="m525.2 154.7c-2.5 0-4.9.2-7 .6-6.2 1.1-7.3 3.4-7.3 7.6v5.6h14.6v1.9h-14.6-5.5c-4.3 0-8 2.6-9.1 7.4-1.3 5.6-1.4 9 0 14.9 1 4.3 3.5 7.4 7.8 7.4h5v-6.7c0-4.8 4.2-9.1 9.1-9.1h14.6c4.1 0 7.3-3.3 7.3-7.4v-13.9c0-4-3.3-6.9-7.3-7.6-2.5-.5-5.1-.7-7.6-.7zm-7.9 4.5c1.5 0 2.7 1.3 2.7 2.8s-1.2 2.8-2.7 2.8-2.7-1.2-2.7-2.8c0-1.5 1.2-2.8 2.7-2.8z"/><path d="m542 170.3v6.5c0 5-4.3 9.3-9.1 9.3h-14.6c-4 0-7.3 3.4-7.3 7.4v13.9c0 4 3.4 6.3 7.3 7.4 4.6 1.4 9.1 1.6 14.6 0 3.7-1.1 7.3-3.2 7.3-7.4v-5.6h-14.6v-1.9h14.6 7.3c4.3 0 5.8-3 7.3-7.4 1.5-4.6 1.5-9 0-14.9-1.1-4.2-3.1-7.4-7.3-7.4zm-8.2 35.3c1.5 0 2.7 1.2 2.7 2.8 0 1.5-1.2 2.8-2.7 2.8s-2.7-1.3-2.7-2.8c-.1-1.5 1.2-2.8 2.7-2.8z"/><path d="m745.1 165.9h.9v-5.3h2v-.6h-4.9v.6h2zm3.7 0h.7v-4.9l1.6 4.9h.8l1.6-4.9v4.9h.8v-6h-1.1l-1.8 5.1-1.5-5.1h-1.2v6"/></g><path d="m544.4 290.6c12.2 23.9 2.7 53.1-21.2 65.2-23.9 12.2-53.1 2.7-65.2-21.2-12.2-23.9-2.7-53.1 21.2-65.2 15.4-7.9 33.9-6.9 48.4 2.5" fill="none" stroke="#f48821" stroke-dasharray="4.2331" stroke-width="1.1256"/><path d="m491.1 328.6h-12.2v-21.9h-3.1v24.6h15.3z" fill="none"/><path d="m505.1 313.6v9.8c0 3.6-1.9 6-4.8 6-2.2 0-3.6-1.4-3.6-3.5v-12.3h-2.8v13.4c0 2.9 2.2 4.8 5.6 4.8 2.6 0 4.3-.9 5.9-3.2v2.7h2.5v-17.7z" fill="none"/><path d="m527.9 329.2c-1 0-1.5-.5-1.5-1.4v-9.8c0-3.1-2.3-4.8-6.7-4.8-4.3 0-6.9 1.7-7.1 5.7h2.8c.2-2.2 1.5-3.1 4.2-3.1 2.5 0 4 .9 4 2.6v.7c0 1.2-.7 1.7-2.9 2-4 .5-4.6.6-5.7 1.1-2.1.8-3.1 2.4-3.1 4.6 0 3.2 2.2 5.1 5.8 5.1 2.3 0 4.5-.9 6-2.6.3 1.4 1.5 2.3 2.9 2.3.6 0 1-.1 1.9-.3v-2.1c-.3 0-.4 0-.6 0zm-4.3-4c0 2.5-2.6 4.2-5.3 4.2-2.2 0-3.5-.8-3.5-2.7s1.2-2.7 4.3-3.1c3-.4 3.6-.5 4.5-1z" fill="none"/><path d="m501.2 275.1c-20.7 0-37.5 16.8-37.5 37.5s16.8 37.5 37.5 37.5 37.5-16.8 37.5-37.5-16.8-37.5-37.5-37.5zm-25.4 56.2v-24.6h3.1v21.8h12.2v2.8zm32.1 0h-2.5v-2.7c-1.7 2.3-3.3 3.2-5.9 3.2-3.4 0-5.6-1.9-5.6-4.8v-13.4h2.8v12.3c0 2.1 1.4 3.5 3.6 3.5 2.9 0 4.8-2.4 4.8-6v-9.8h2.8zm-2.1-34.3c0-6.1 4.9-11 11-11s11 4.9 11 11-4.9 11-11 11-11-4.9-11-11zm22.7 34.3c-.9.2-1.4.3-1.9.3-1.4 0-2.6-1-2.9-2.3-1.6 1.7-3.7 2.6-6 2.6-3.6 0-5.8-1.9-5.8-5.1 0-2.2 1-3.7 3.1-4.6 1.1-.4 1.7-.6 5.7-1.1 2.2-.3 2.9-.8 2.9-2v-.7c0-1.7-1.4-2.6-4-2.6s-3.9 1-4.2 3.1h-2.8c.2-4.1 2.8-5.7 7.1-5.7 4.4 0 6.7 1.7 6.7 4.8v9.9c0 .9.5 1.4 1.5 1.4.2 0 .3 0 .6-.1z" fill="#f48821"/><path d="m514.8 326.7c0 1.9 1.3 2.7 3.5 2.7 2.7 0 5.3-1.6 5.3-4.2v-2.6c-.9.4-1.6.6-4.5 1-3 .4-4.3 1.2-4.3 3.1z" fill="#f48821"/><circle cx="538.7" cy="275.1" fill="#f48821" r="11"/><path d="m617.5 314.9v29.1l18.3-8.3v-14.2zm0-42.8v25.1l18.3 6.6v-25.1zm51.8 59.5v-21.3-19.3l-16.7-6.1v71.9.2l42.8-19.5v-17.7z" fill="none" stroke="#f48821" stroke-miterlimit="10" stroke-width=".5"/><path d="m652.5 284.9-16.8-6.1v25.1l-18.3-6.6v-25.1l-16.7-6.1v71.9l16.6 6.1h.1v-29.1l18.3 6.6v14.2 14.9l16.8 6.1zm42.9 34.8-26.1-9.5v21.3z" fill="#f48821"/></svg>