<?xml version="1.0" encoding="UTF-8" standalone="no"?>
<svg
   xmlns:dc="http://purl.org/dc/elements/1.1/"
   xmlns:cc="http://creativecommons.org/ns#"
   xmlns:rdf="http://www.w3.org/1999/02/22-rdf-syntax-ns#"
   xmlns:svg="http://www.w3.org/2000/svg"
   xmlns="http://www.w3.org/2000/svg"
   xmlns:sodipodi="http://sodipodi.sourceforge.net/DTD/sodipodi-0.dtd"
   xmlns:inkscape="http://www.inkscape.org/namespaces/inkscape"
   width="128"
   height="128"
   id="svg2"
   version="1.1"
   inkscape:version="0.48.3.1 r9886"
   sodipodi:docname="Flash Logo.svg">
  <metadata
     id="metadata32776">
    <rdf:RDF>
      <cc:Work
         rdf:about="">
        <dc:format>image/svg+xml</dc:format>
        <dc:type
           rdf:resource="http://purl.org/dc/dcmitype/StillImage" />
      </cc:Work>
    </rdf:RDF>
  </metadata>
  <defs
     id="defs32774" />
  <sodipodi:namedview
     pagecolor="#ffffff"
     bordercolor="#666666"
     borderopacity="1"
     objecttolerance="10"
     gridtolerance="10"
     guidetolerance="10"
     inkscape:pageopacity="0"
     inkscape:pageshadow="2"
     inkscape:window-width="1317"
     inkscape:window-height="744"
     id="namedview32772"
     showgrid="false"
     inkscape:zoom="0.921875"
     inkscape:cx="122.86001"
     inkscape:cy="-24.264349"
     inkscape:window-x="49"
     inkscape:window-y="24"
     inkscape:window-maximized="1"
     inkscape:current-layer="svg2" />
  <rect
     style="fill:#ba1322;fill-opacity:1;stroke:none"
     id="rect35764"
     width="113.35593"
     height="113.35593"
     x="7.3220358"
     y="7.3220339"
     ry="9.1990414" />
  <path
     style="fill:#ffffff;fill-opacity:1;stroke:none"
     d="m 26.016859,89.223178 0,18.398092 c 0,0 32.938504,-1.48373 41.840803,-35.905946 8.308812,0 19.288313,0 19.288313,0 l 0,-16.914366 -13.056704,0 c 0,0 5.341379,-17.804596 21.959002,-17.804596 0,-7.715326 0,-17.507854 0,-17.507854 0,0 -16.024136,-1.483716 -27.597125,11.276245 -11.572988,12.759961 -12.463217,20.178543 -14.837164,28.487354 -2.373945,8.308812 -7.418582,18.99157 -10.682758,22.849233 -3.264175,3.857663 -7.121838,5.934866 -16.914367,7.121838 z"
     id="path36534"
     inkscape:connector-curvature="0" />
</svg>
