<?xml version="1.0" encoding="UTF-8" standalone="no"?>
<!-- Created with Inkscape (http://www.inkscape.org/) -->

<svg
   xmlns:dc="http://purl.org/dc/elements/1.1/"
   xmlns:cc="http://creativecommons.org/ns#"
   xmlns:rdf="http://www.w3.org/1999/02/22-rdf-syntax-ns#"
   xmlns:svg="http://www.w3.org/2000/svg"
   xmlns="http://www.w3.org/2000/svg"
   xmlns:xlink="http://www.w3.org/1999/xlink"
   xmlns:sodipodi="http://sodipodi.sourceforge.net/DTD/sodipodi-0.dtd"
   xmlns:inkscape="http://www.inkscape.org/namespaces/inkscape"
   width="400"
   height="400"
   id="svg4887"
   version="1.1"
   inkscape:version="0.48.3.1 r9886"
   sodipodi:docname="New document 23">
  <defs
     id="defs4889">
    <linearGradient
       id="linearGradient5471">
      <stop
         style="stop-color:#fec878;stop-opacity:1"
         offset="0"
         id="stop5473" />
      <stop
         style="stop-color:#ffa150;stop-opacity:1;"
         offset="1"
         id="stop5475" />
    </linearGradient>
    <linearGradient
       id="linearGradient5463">
      <stop
         style="stop-color:#fec070;stop-opacity:1;"
         offset="0"
         id="stop5465" />
      <stop
         style="stop-color:#fec070;stop-opacity:0;"
         offset="1"
         id="stop5467" />
    </linearGradient>
    <linearGradient
       inkscape:collect="always"
       xlink:href="#linearGradient5471"
       id="linearGradient5477"
       x1="419.55002"
       y1="41.974888"
       x2="419.55002"
       y2="555.80579"
       gradientUnits="userSpaceOnUse"
       gradientTransform="matrix(0.79301694,0,0,0.76964008,-116.82244,169.96201)" />
  </defs>
  <sodipodi:namedview
     id="base"
     pagecolor="#ffffff"
     bordercolor="#666666"
     borderopacity="1.0"
     inkscape:pageopacity="0.0"
     inkscape:pageshadow="2"
     inkscape:zoom="0.6"
     inkscape:cx="253.84708"
     inkscape:cy="230.71409"
     inkscape:current-layer="layer1"
     inkscape:document-units="px"
     showgrid="false"
     showguides="true"
     inkscape:guide-bbox="true"
     inkscape:window-width="1317"
     inkscape:window-height="744"
     inkscape:window-x="49"
     inkscape:window-y="24"
     inkscape:window-maximized="1" />
  <metadata
     id="metadata4892">
    <rdf:RDF>
      <cc:Work
         rdf:about="">
        <dc:format>image/svg+xml</dc:format>
        <dc:type
           rdf:resource="http://purl.org/dc/dcmitype/StillImage" />
        <dc:title></dc:title>
      </cc:Work>
    </rdf:RDF>
  </metadata>
  <g
     id="layer1"
     inkscape:label="Layer 1"
     inkscape:groupmode="layer"
     transform="translate(0,-200)">
    <rect
       style="fill:url(#linearGradient5477);fill-opacity:1;stroke:none"
       id="rect4904"
       width="400"
       height="400"
       x="0"
       y="200" />
    <g
       id="g5521"
       transform="translate(32.222781,-1.1785113)">
      <path
         inkscape:connector-curvature="0"
         id="path4902"
         d="m 64.777646,457.92374 c 0,0 17.604287,-21.12515 44.416974,-25.3231 -16.385524,-0.40625 -21.954511,4.22053 -26.742257,0.77336 -4.78773,-3.44716 6.22406,-14.26745 6.22406,-14.26745 0,0 -36.019732,21.04334 -23.898777,38.81719 z"
         style="fill:#ffffff;fill-opacity:1;stroke:none" />
      <path
         inkscape:connector-curvature="0"
         id="path4906"
         d="m 103.1354,344.99239 c 0,0 26.23678,21.83208 32.36508,11.87358 6.12831,-9.95848 -13.21414,-12.2566 -32.36508,-11.87358 z"
         style="fill:#ffffff;fill-opacity:1;stroke:none" />
      <path
         inkscape:connector-curvature="0"
         id="path4906-0"
         d="m 232.82065,344.66842 c 0,0 -26.23681,21.83208 -32.3651,11.87359 -6.1283,-9.95849 13.21415,-12.25661 32.3651,-11.87359 z"
         style="fill:#ffffff;fill-opacity:1;stroke:none" />
      <path
         style="fill:#ffffff;fill-opacity:1;stroke:none"
         d="m 273.10298,457.92374 c 0,0 -17.60429,-21.12515 -44.41697,-25.3231 16.38554,-0.40625 21.95452,4.22053 26.74226,0.77336 4.78772,-3.44716 -6.22407,-14.26745 -6.22407,-14.26745 0,0 36.01974,21.04334 23.89878,38.81719 z"
         id="path4937"
         inkscape:connector-curvature="0" />
      <path
         inkscape:connector-curvature="0"
         id="path4939"
         d="m 55.068201,257.65461 c -1.149052,4.59623 0.771881,15.72199 0.771881,15.72199 0,0 9.119025,11.63653 13.020403,22.97359 3.847427,11.18031 4.973129,18.37556 -6.134417,44.03782 -9.19245,17.61887 -9.357928,31.59112 -12.248524,37.15182 -4.62364,8.8946 -8.055358,4.98939 -6.906299,27.97052 0,0 31.79458,-24.9065 21.836089,-30.65178 -7.660379,-4.59623 5.752633,-16.07037 30.265837,-19.13452 -9.958488,-9.57547 -1.920109,-23.74826 15.315739,-21.45014 17.23585,2.2981 29.61317,14.66838 44.8097,22.20171 3.92643,1.94645 5.74624,-5.81047 2.27501,-9.6485 -4.64504,-5.13589 -11.81442,-6.12657 -11.84227,-11.41571 -0.0212,-4.03732 11.47942,-6.50617 9.18132,-12.63446 -3.71972,-9.91928 -19.14342,-2.30729 -22.97361,-9.20163 -3.83019,-6.89435 -0.77439,-10.71353 6.88599,-11.86259 7.66037,-1.14906 -0.37535,-24.89997 -20.29233,-16.47355 -19.916986,8.42641 -26.438977,1.91747 -38.695595,-10.33913 -8.721559,-8.72157 -16.459489,-13.79827 -25.268924,-17.24544 z m 7.657867,19.35794 c 25.662262,8.61793 32.743986,24.13143 32.743986,24.13143 0,0 -7.652644,7.65515 -18.951703,11.29383 5.170758,-27.00283 -13.792283,-35.42526 -13.792283,-35.42526 z"
         style="fill:#ffffff;fill-opacity:1;stroke:none" />
      <path
         inkscape:connector-curvature="0"
         style="fill:#ffffff;fill-opacity:1;stroke:none"
         d="m 278.19557,257.65461 c 1.14904,4.59623 -0.77189,15.72199 -0.77189,15.72199 0,0 -9.11902,11.63653 -13.02041,22.97359 -3.84743,11.18031 -4.97313,18.37556 6.13443,44.03782 9.19244,17.61887 9.35792,31.59112 12.24852,37.15182 4.62364,8.8946 8.05536,4.98939 6.9063,27.97052 0,0 -31.79458,-24.9065 -21.8361,-30.65178 7.66039,-4.59623 -5.75263,-16.07037 -30.26584,-19.13452 9.9585,-9.57547 1.92012,-23.74826 -15.31573,-21.45014 -17.23584,2.2981 -29.61317,14.66838 -44.80969,22.20171 -3.92644,1.94645 -5.74625,-5.81047 -2.27502,-9.6485 4.64505,-5.13589 11.81443,-6.12657 11.84227,-11.41571 0.0212,-4.03732 -11.47942,-6.50617 -9.18132,-12.63446 3.71973,-9.91928 19.14342,-2.30729 22.97361,-9.20163 3.83019,-6.89435 0.77439,-10.71353 -6.88599,-11.86259 -7.66038,-1.14906 0.37536,-24.89997 20.29233,-16.47355 19.91699,8.42641 26.43899,1.91747 38.69559,-10.33913 8.72156,-8.72157 16.45949,-13.79827 25.26894,-17.24544 z m -7.65787,19.35794 c -25.66228,8.61793 -32.74399,24.13143 -32.74399,24.13143 0,0 7.65264,7.65515 18.95169,11.29383 -5.17075,-27.00283 13.7923,-35.42526 13.7923,-35.42526 z"
         id="path4944" />
      <path
         sodipodi:nodetypes="cscsccccssccccccsccccccsssssssscssssssssssscsccsccscscccccccccccscccccccccssccc"
         inkscape:connector-curvature="0"
         id="path4946"
         d="m 31.32272,214.77462 c -4.596222,44.43019 21.444446,84.64306 23.359542,90.00532 1.915094,5.36226 1.154628,13.77809 -4.590659,19.9064 -17.235847,21.44906 -23.742563,86.19362 -23.359541,111.08984 0.383015,24.89624 7.271928,27.9502 7.271928,27.9502 0,0 0.75754,-3.07039 4.204716,-8.81568 0.383016,12.25661 4.603437,35.24061 27.584569,56.30665 6.128299,-50.94152 51.707915,-52.85921 63.964525,-50.94411 0.38301,6.1283 13.01177,39.8477 14.54385,41.76279 1.53208,1.91509 31.0327,12.25953 46.35345,0.38594 15.32075,-11.87358 4.98883,-25.67892 17.24544,-42.14873 49.02641,-6.1283 63.94991,35.24618 62.03481,51.71599 18.76793,-18.76793 22.99391,-41.74249 22.99391,-41.74249 0,0 4.97967,3.43298 8.04382,6.11411 24.13019,-73.53963 -14.18157,-150.14021 -22.60798,-164.69492 28.72642,-58.98491 24.90609,-81.19324 22.60798,-94.98192 -20.30001,18.00188 -64.74001,47.8769 -78.52869,47.8769 -13.78867,0 -21.0681,-8.04979 -40.21904,-11.49696 0,7.66039 -13.79228,23.74548 -13.79228,23.74548 0,0 -9.95347,-12.25491 -15.31574,-23.74548 -17.61887,-0.76604 -28.72567,14.17225 -42.51435,10.72508 -29.875485,-7.27737 -79.28026,-49.01441 -79.28026,-49.01441 z m 256.99558,23.74547 c 0,0 3.84187,9.55878 1.54376,13.77198 -2.29812,4.21321 -5.74278,14.18434 -7.65787,20.31264 -1.9151,6.12831 -5.37144,20.68147 -9.20163,26.42676 -3.83018,5.74528 -8.41737,11.87842 6.52036,37.9237 14.93773,26.04528 22.40444,82.53896 14.36104,82.34746 -8.0434,-0.19151 -20.48758,-21.06455 -36.76588,-27.76739 -16.2783,-6.70282 -30.65247,-7.28931 -44.05813,-6.90629 -8.38209,0.23949 -18.67099,3.12264 -19.31733,9.05943 -0.41591,3.82025 5.53421,2.62917 14.72667,5.1188 9.38395,2.68112 7.68416,6.82797 5.93129,11.11101 -1.81343,4.43102 -10.70898,0.88056 -19.37826,-1.15782 -8.34461,-1.96203 -18.20944,-5.73618 -17.38762,-8.61256 2.29811,-8.0434 10.43478,-9.24636 10.33913,-17.61107 -0.0547,-4.78786 -9.20217,-11.49695 -19.9267,-11.49695 -10.72454,0 -14.93286,3.06748 -17.997,8.42975 -3.06416,5.36226 4.91013,13.32329 7.29224,17.61106 3.83018,6.89434 -15.33381,18.37989 -28.35645,15.31574 -13.02266,-3.06415 0.54441,-15.18933 10.72507,-16.08762 13.02265,-1.14907 0.007,-10.72508 -17.61106,-10.72508 -17.61887,0 -24.51207,3.07611 -34.470565,6.9063 -9.95848,3.8302 -22.983587,6.12105 -48.262838,28.33614 -3.830184,-48.26038 18.37153,-85.80088 22.201721,-91.16315 3.830187,-5.36226 7.675115,-12.24017 4.610967,-19.13451 -16.086792,-36.76982 -20.678269,-71.25676 -20.678269,-71.25676 0,0 19.135609,14.5533 40.584658,29.10803 21.449066,14.55471 36.006786,9.20413 58.987936,1.54376 6.12829,34.4717 23.74547,48.26284 23.74547,48.26284 13.78869,-12.2566 18.77751,-34.09366 17.24544,-40.60498 -1.53208,-6.51132 -0.37941,-13.40314 13.79227,-7.65786 23.36416,7.66037 27.94546,6.89419 48.62848,-2.68127 20.68302,-9.57548 39.8331,-28.72209 39.8331,-28.72209 z M 105.62637,403.9869 c 12.63963,15.70377 13.02694,15.69305 27.19863,17.22512 5.74529,15.70379 2.29629,20.68577 21.06421,53.62538 0,-1.53208 0.38595,-51.71599 0.38595,-51.71599 0,0 5.7368,1.34376 5.35377,6.32301 0.38303,5.74528 -0.0958,11.39827 -0.0958,11.39827 l 5.08111,-5.5571 4.39039,5.55418 5.08682,-5.07541 4.60241,5.08703 c 0,0 0.36545,-8.53368 0.47008,-12.37036 0.0662,-2.42824 5.55982,-6.11119 5.55982,-6.11119 l 0,25.47205 -2.88439,28.13302 c 0,0 13.78671,-19.90218 18.38294,-51.30974 18.3849,-6.1283 27.19863,-13.41831 27.19863,-20.31265 13.40566,-2.29811 56.6898,11.11253 58.98792,40.60498 -0.76604,14.93774 -7.27193,32.17523 -7.27193,32.17523 0,0 -19.54072,-32.17509 -75.46147,-29.49395 -11.10755,17.61887 -13.39773,31.03241 -14.9298,40.99091 -1.91509,8.80943 -11.12005,10.72508 -17.63137,10.72508 -6.51132,0 -15.69611,-3.45635 -20.29233,-9.20163 -4.59623,-5.74528 -10.7312,-35.62002 -16.8595,-42.51436 -11.49057,-4.97925 -58.214077,3.05702 -76.59898,31.0174 -10.341508,-33.32264 -4.593764,-71.60513 48.26284,-74.66928 z"
         style="fill:#ffffff;fill-opacity:1;stroke:none" />
      <path
         sodipodi:nodetypes="cccccccc"
         inkscape:connector-curvature="0"
         id="path5458"
         d="m 158.48162,475.21882 19.91699,0 0,-12.06509 -5.55378,5.55377 -4.40471,-5.17076 -4.44136,4.6047 -5.25243,-5.06091 z"
         style="fill:#ffffff;fill-opacity:1;stroke:none" />
    </g>
    <g
       id="g5512"
       transform="matrix(1.4655382,0,0,1.4655382,11.192734,-495.12562)">
      <path
         transform="translate(0,200)"
         inkscape:connector-curvature="0"
         id="path5490"
         d="m 4.7877022,504.37191 9.1334628,0 26.884789,21.43417 0,-21.43417 9.133463,0 0,32.92466 -9.133463,0 -27.10576,-21.13955 0,21.2132 -8.8388349,0 z"
         style="fill:#ffffff;fill-opacity:1;stroke:none" />
      <g
         style="fill:#ffffff;fill-opacity:1;stroke:none"
         id="g5507">
        <path
           style="fill:#ffffff;fill-opacity:1;stroke:none"
           d="m 72.920387,504.44556 44.857083,0 0,8.9125 -44.93074,0 z"
           id="path5494"
           inkscape:connector-curvature="0"
           transform="translate(0,200)" />
        <path
           inkscape:connector-curvature="0"
           id="path5496"
           d="m 72.920387,716.44556 44.857083,0 0,8.9125 -44.93074,0 z"
           style="fill:#ffffff;fill-opacity:1;stroke:none" />
        <path
           style="fill:#ffffff;fill-opacity:1;stroke:none"
           d="m 72.920387,728.44556 44.857083,0 0,8.9125 -44.93074,0 z"
           id="path5498"
           inkscape:connector-curvature="0" />
      </g>
      <path
         transform="translate(0,200)"
         inkscape:connector-curvature="0"
         id="path5500"
         d="m 140.90576,504.37191 8.83883,0 0,12.00608 16.05722,0 8.91249,-12.07974 11.1222,0 -8.98615,12.1534 8.98615,0 0,20.91857 -8.98615,0 0,-12.00608 -27.0321,0 0,12.07974 -8.91249,0 z"
         style="fill:#ffffff;fill-opacity:1;stroke:none" />
      <path
         id="path5502"
         transform="translate(0,200)"
         d="m 207.875,504.375 0,32.90625 45,0 0,-32.90625 -45,0 z m 9.03125,8.96875 26.90625,0 0,15.1875 -26.90625,0 0,-15.1875 z"
         style="fill:#ffffff;fill-opacity:1;stroke:none"
         inkscape:connector-curvature="0" />
    </g>
  </g>
</svg>
