<?xml version="1.0" encoding="UTF-8" standalone="no"?>
<!-- Created with Inkscape (http://www.inkscape.org/) -->

<svg
   xmlns:dc="http://purl.org/dc/elements/1.1/"
   xmlns:cc="http://creativecommons.org/ns#"
   xmlns:rdf="http://www.w3.org/1999/02/22-rdf-syntax-ns#"
   xmlns:svg="http://www.w3.org/2000/svg"
   xmlns="http://www.w3.org/2000/svg"
   xmlns:sodipodi="http://sodipodi.sourceforge.net/DTD/sodipodi-0.dtd"
   xmlns:inkscape="http://www.inkscape.org/namespaces/inkscape"
   version="1.1"
   width="385.71515"
   height="55.738033"
   id="svg4278"
   inkscape:version="0.47 r22583"
   sodipodi:docname="Nickelodeon.svg">
  <metadata
     id="metadata31">
    <rdf:RDF>
      <cc:Work
         rdf:about="">
        <dc:format>image/svg+xml</dc:format>
        <dc:type
           rdf:resource="http://purl.org/dc/dcmitype/StillImage" />
        <dc:title></dc:title>
      </cc:Work>
    </rdf:RDF>
  </metadata>
  <sodipodi:namedview
     pagecolor="#ffffff"
     bordercolor="#666666"
     borderopacity="1"
     objecttolerance="10"
     gridtolerance="10"
     guidetolerance="10"
     inkscape:pageopacity="0"
     inkscape:pageshadow="2"
     inkscape:window-width="1024"
     inkscape:window-height="712"
     id="namedview29"
     showgrid="false"
     inkscape:zoom="1.3999969"
     inkscape:cx="192.85757"
     inkscape:cy="27.86902"
     inkscape:window-x="-4"
     inkscape:window-y="-4"
     inkscape:window-maximized="1"
     inkscape:current-layer="svg4278" />
  <defs
     id="defs4280">
    <inkscape:perspective
       sodipodi:type="inkscape:persp3d"
       inkscape:vp_x="0 : 27.869017 : 1"
       inkscape:vp_y="0 : 1000 : 0"
       inkscape:vp_z="385.71515 : 27.869017 : 1"
       inkscape:persp3d-origin="192.85757 : 18.579344 : 1"
       id="perspective33" />
  </defs>
  <path
     d="M 18.75717,18.19431 C 13.598328,18.188049 8.8652164,20.304176 5.4906829,23.691231 2.1098887,27.059504 -0.00623811,31.792616 2.26204e-5,36.957718 l 0,17.135618 14.2369003796,0 0,-7.500354 0,-9.34727 c 0.0063,-2.05352 0.494598,-3.806524 1.327275,-5.165103 0.838937,-1.339796 1.922044,-2.134909 3.192972,-2.141169 1.270928,0.0063 2.354035,0.801373 3.192972,2.141169 0.832677,1.358579 1.321014,3.111583 1.327275,5.165103 l 0,16.847624 14.243161,0 0,-17.135618 c 0,-5.165102 -2.116127,-9.898214 -5.496921,-13.266487 C 28.649124,20.304176 23.916012,18.188049 18.75717,18.19431"
     id="path96604"
     style="fill:#f57c14;fill-opacity:1;fill-rule:nonzero;stroke:none" />
  <path
     d="m 359.67708,18.19431 c -5.15884,-0.0063 -9.89195,2.109866 -13.26649,5.496921 -3.38079,3.368273 -5.49692,8.101385 -5.49066,13.266487 l 0,17.135618 14.2369,0 0,-7.500354 0,-9.34727 c 0.006,-2.05352 0.4946,-3.806524 1.32728,-5.165103 0.83894,-1.339796 1.92204,-2.134909 3.19297,-2.141169 1.27093,0.0063 2.35403,0.801373 3.19297,2.141169 0.83268,1.358579 1.32102,3.111583 1.32728,5.165103 l 0,16.847624 14.24316,0 0,-17.135618 c 0,-5.165102 -2.11613,-9.898214 -5.49692,-13.266487 -3.37454,-3.387055 -8.10765,-5.503182 -13.26649,-5.496921"
     id="path96608"
     style="fill:#f57c14;fill-opacity:1;fill-rule:nonzero;stroke:none" />
  <path
     d="m 52.84496,13.58265 c 1.433707,-1.433707 2.31647,-3.412098 2.31647,-5.5970927 0,-2.1912555 -0.882763,-4.1696463 -2.31647,-5.5970927 -1.433707,-1.43370721 -3.412098,-2.32273089 -5.597093,-2.32273089 -2.184995,0 -4.163385,0.88902368 -5.597092,2.32273089 -1.433708,1.4274464 -2.322731,3.4058372 -2.322731,5.5970927 0,2.1849947 0.889023,4.1633857 2.322731,5.5970927 l 1.746743,1.746744 c 2.917501,2.923761 3.124105,3.69383 0.350601,6.467334 0,0 -1.590225,1.590225 -1.590225,1.590225 -1.302232,1.308493 -2.109866,3.105322 -2.109866,5.096235 l 0,25.606386 14.393418,0 0,-25.606386 c 0,-1.990913 -0.801373,-3.787742 -2.103605,-5.096235 l -1.590226,-1.583964 c -2.773503,-2.773504 -2.566899,-3.549834 0.350601,-6.473595 L 52.84496,13.58265 z"
     id="path96612"
     style="fill:#f57c14;fill-opacity:1;fill-rule:nonzero;stroke:none" />
  <path
     d="m 78.35806,42.9411 c -0.838938,1.5464 -1.928305,2.466728 -3.192972,2.472988 -1.270929,-0.0063 -2.360296,-0.926588 -3.199233,-2.472988 -0.826417,-1.565183 -1.321014,-3.593659 -1.321014,-5.966476 0,-2.372816 0.494597,-4.395032 1.321014,-5.966476 0.838937,-1.5464 1.928304,-2.466727 3.199233,-2.472988 1.264667,0.0063 2.354034,0.926588 3.192972,2.472988 0.613552,1.164496 1.039281,2.579421 1.220842,4.20095 l 14.261944,0 c -0.419469,-4.4639 -2.416642,-8.514593 -5.409271,-11.500961 -3.374534,-3.387055 -8.113906,-5.496921 -13.266487,-5.496921 -5.158842,0 -9.898215,2.109866 -13.266487,5.496921 -3.387055,3.374534 -5.503182,8.107646 -5.496921,13.266487 -0.0063,5.158842 2.109866,9.891954 5.496921,13.266487 2.598203,2.598203 7.11845,5.496921 13.266487,5.496921 4.614158,0 8.890236,-1.696658 12.158338,-4.476422 2.379077,-2.022216 5.910129,-6.079169 6.51742,-12.52146 l -14.261944,0 c -0.181561,1.621529 -0.60729,3.036454 -1.220842,4.20095"
     id="path96616"
     style="fill:#f57c14;fill-opacity:1;fill-rule:nonzero;stroke:none" />
  <path
     d="m 144.34929,33.5957 c 0.25669,-1.095628 0.60103,-2.05978 0.93911,-2.779764 0.63233,-1.358579 1.92204,-2.466728 3.19297,-2.472989 1.28345,0.0063 2.32899,0.914067 3.21802,2.523075 0.38816,0.694941 0.7325,1.903262 0.90154,2.704635 l -8.25164,0.02504 z m 4.13208,-15.413918 c -5.15884,-0.0063 -9.89195,2.109867 -13.26649,5.490661 -3.38079,3.374533 -5.49692,8.113906 -5.49692,13.272748 0,5.158841 2.11613,9.891953 5.49692,13.266487 3.28689,3.286883 7.93861,5.49066 13.34788,5.49066 5.57205,0 10.18621,-2.48551 13.29779,-5.609614 3.91922,-4.495204 4.10704,-9.303445 4.10704,-9.303445 l -12.69676,0 c 0,0 -1.75926,4.432597 -4.78946,4.432597 -1.27093,-0.0063 -2.35403,-0.920328 -3.19297,-2.472989 -0.56973,-1.070584 -0.97667,-2.366556 -1.17702,-3.831566 l 22.10664,0 c 0,0 1.5151,-9.021712 -4.53277,-15.125924 -3.51227,-3.556095 -7.98869,-5.615875 -13.20388,-5.609615"
     id="path96620"
     style="fill:#f57c14;fill-opacity:1;fill-rule:nonzero;stroke:none" />
  <path
     d="m 277.66402,33.5957 c 0.25669,-1.095628 0.60103,-2.05978 0.93911,-2.779764 0.63233,-1.358579 1.92204,-2.466728 3.19297,-2.472989 1.28345,0.0063 2.32899,0.914067 3.21802,2.523075 0.38816,0.694941 0.7325,1.903262 0.90154,2.704635 l -8.25164,0.02504 z m 4.13208,-15.413918 c -5.15884,-0.0063 -9.89195,2.109867 -13.26649,5.490661 -3.38079,3.374533 -5.49692,8.113906 -5.49692,13.272748 0,5.158841 2.11613,9.891953 5.49692,13.266487 3.28689,3.286883 7.93861,5.49066 13.34788,5.49066 5.57205,0 10.17995,-2.48551 13.29779,-5.609614 3.91922,-4.495204 4.10704,-9.303445 4.10704,-9.303445 l -12.69676,0 c 0,0 -1.75926,4.432597 -4.78946,4.432597 -1.27093,-0.0063 -2.35403,-0.920328 -3.19297,-2.472989 -0.56973,-1.070584 -0.97667,-2.366556 -1.17702,-3.831566 l 22.10664,0 c 0,0 1.5151,-9.021712 -4.53277,-15.125924 -3.51227,-3.556095 -7.98869,-5.615875 -13.20388,-5.609615"
     id="path96624"
     style="fill:#f57c14;fill-opacity:1;fill-rule:nonzero;stroke:none" />
  <path
     d="m 175.36432,0 c -3.93174,0 -7.11845,3.1929724 -7.11845,7.1247109 l 0.0188,46.9617361 14.24316,0 -0.0188,-46.9679969 C 182.48903,3.1867116 179.29606,0 175.36432,0"
     id="path96628"
     style="fill:#f57c14;fill-opacity:1;fill-rule:nonzero;stroke:none" />
  <path
     d="m 203.23396,45.40469 c -2.49177,0 -4.52025,-3.781481 -4.52025,-8.451986 0,-4.664244 2.02848,-8.445725 4.52025,-8.445725 2.49803,0 4.52025,3.781481 4.52025,8.445725 0,4.670505 -2.02222,8.451986 -4.52025,8.451986 m 0,-27.209133 c -10.36151,0 -18.76341,8.395639 -18.76341,18.757147 0,10.361509 8.4019,18.763408 18.76341,18.763408 10.36151,0 18.76341,-8.401899 18.76341,-18.763408 0,-10.361508 -8.4019,-18.757147 -18.76341,-18.757147"
     id="path96632"
     style="fill:#f57c14;fill-opacity:1;fill-rule:nonzero;stroke:none" />
  <path
     d="m 320.39413,45.40469 c -2.49177,0 -4.52025,-3.781481 -4.52025,-8.451986 0,-4.664244 2.02848,-8.445725 4.52025,-8.445725 2.49177,0 4.52025,3.781481 4.52025,8.445725 0,4.670505 -2.02848,8.451986 -4.52025,8.451986 m 0,-27.209133 c -10.36151,0 -18.76341,8.395639 -18.76341,18.757147 0,10.361509 8.4019,18.763408 18.76341,18.763408 10.36151,0 18.76341,-8.401899 18.76341,-18.763408 0,-10.361508 -8.4019,-18.757147 -18.76341,-18.757147"
     id="path96636"
     style="fill:#f57c14;fill-opacity:1;fill-rule:nonzero;stroke:none" />
  <path
     d="m 242.46557,45.40469 c -2.49177,0 -4.52025,-3.781481 -4.52025,-8.451986 0,-4.664244 2.02848,-8.445725 4.52025,-8.445725 2.49803,0 4.52025,3.781481 4.52025,8.445725 0,4.670505 -2.02222,8.451986 -4.52025,8.451986 m 18.75715,-8.445725 0.0313,0.01252 -0.0188,-29.8574223 c -0.006,-3.9317385 -3.19297,-7.11845012 -7.12471,-7.11218939 -3.93174,0 -7.11845,3.19297239 -7.11845,7.12471089 l 0.006,11.6449578 c -1.45875,-0.363122 -2.97385,-0.557205 -4.53277,-0.557205 -5.15884,-0.0063 -9.89195,2.109866 -13.26649,5.496921 -3.38079,3.368273 -5.49692,8.107646 -5.49066,13.260227 -0.006,5.158841 2.10987,9.898214 5.49066,13.266487 l 0,0 c 2.15995,2.172473 6.79916,5.503181 13.26649,5.496921 6.47359,0.0063 11.10654,-3.324448 13.26649,-5.496921 l 0,0 c 3.38079,-3.368273 5.49692,-8.107646 5.49692,-13.266487 0,-0.0063 -0.006,-0.01252 -0.006,-0.01252"
     id="path96640"
     style="fill:#f57c14;fill-opacity:1;fill-rule:nonzero;stroke:none" />
  <path
     d="m 131.78588,51.60219 c 0,-0.475815 -0.144,-0.920327 -0.37564,-1.295971 l -7.80087,-11.795216 5.40301,-9.804303 c 1.99717,-3.387055 0.87024,-7.757045 -2.51682,-9.754217 -3.38705,-1.997173 -7.75704,-0.870242 -9.75421,2.523074 l -6.44856,11.526004 0,-7.688177 c 0,-3.931738 -3.18671,-7.11845 -7.11845,-7.11845 -3.931735,0 -7.124707,3.186712 -7.124707,7.11845 l 0,28.780577 14.243157,0 0,-11.269315 7.51288,11.263054 11.50096,-0.0063 0,0 c 1.3711,0 2.47925,-1.108149 2.47925,-2.479249"
     id="path96644"
     style="fill:#f57c14;fill-opacity:1;fill-rule:nonzero;stroke:none" />
  <path
     d="m 382.88493,18.1943 0.082,0 1.336,1.494212 1.33014,-1.494212 0.082,0 0,2.800915 -0.49807,0 0,-1.734458 -0.86723,1.0313 -0.0937,0 -0.86723,-1.0313 0,1.734458 -0.50393,0 0,-2.800915 z m -1.93369,0.474632 -0.83207,0 0,-0.427755 2.16808,0 0,0.427755 -0.83208,0 0,2.326283 -0.50393,0 0,-2.326283 z"
     id="path4115"
     style="fill:#f58113;fill-opacity:1;fill-rule:nonzero;stroke:none" />
</svg>
