<svg height="240.95" width="240.95" xmlns="http://www.w3.org/2000/svg"><g fill="#231f20" fill-rule="evenodd" transform="matrix(.125 0 0 -.125 0 240.95)"><path d="m969.543 1266.3c13.109-.68 24.844-5.52 34.507-13.8 13.11-12.42 16.56-33.12 10.35-49.69-24.154-49.7-81.556-82.88-120.779-93.87-23.465-5.52-53.144-5.52-74.539 2.76-10.355-6.21-19.094-26.28-31.75-17.94-18.312 14.31-2.457 36.68-13.035 52.56-2.18 3.28-7.668 3.52-10.43 8.86-14.496 31.75 3.453 62.12 23.465 86.28 33.359 37.21 129.066 78.68 182.211 24.84zm-111.121-24.84c-18.637-3.45-39.684-11.57-51.07-24.85-11.391-13.28-18.637-26.23-11.735-40.03 24.153 17.95 35.887 42.8 62.805 57.97 0 2.77 4.14 4.84 0 6.91zm112.5-6.91c-47.625 4.15-83.512-31.74-117.332-66.25-2.067-5.52-14.492-11.73-4.832-17.95 45.554-4.14 89.035 8.98 122.164 39.35 9.66 8.97 16.562 20.7 11.73 33.12-2.07 4.83-6.898 9.66-11.73 11.73z"/><path d="m1383.65 1028.88c22.09-53.837 40.72-138.724 0-190.489-11.04-12.422-30.36-23.868-42.79-14.493-45.55 36.579-64.88 89.032-93.17 135.965-4.15 2.071-4.15-3.449-6.22-5.519-10.35-47.625 8.98-109.742-23.46-147.012-12.42-2.07-24.04 4.316-28.3 16.566-15.87 49.004.69 100.079 4.83 149.079 9.66 24.847 13.81 53.833 35.2 72.473 34.51-13.81 51.08-52.458 71.09-80.755 14.49-21.394 26.22-45.554 42.79-64.879 14.5 6.215 7.36 25.137 6.9 36.582-5.52 44.86-17.94 86.272-29.67 129.062-.69 11.04-6.9 29.68 4.83 36.58 31.05-13.8 44.17-46.24 57.97-73.16z"/><path d="m1175.21 1045.45c0-10.36-8.28-23.3-15.18-24.85-66.26-10.35-140.11-4.14-202.221-24.85-2.071-7.59 6.902-8.969 11.734-11.043 53.147-8.281 109.047-10.352 160.817-23.461 27.37-6.961 37.26-39.344 39.34-66.262 1.26-21.222-6.91-46.933-27.61-61.425-51.07-32.438-129.07-31.055-180.832-1.379-19.785 11.097-38.649 28.988-40.028 51.074.114 17.543 7.594 31.344 20.016 37.961 49.692 20.015 111.114 8.973 153.904-16.567 2.76-13.804-12.19-13.054-19.32-17.941-47.62-27.609-83.514 31.055-127.682 9.66-6.214-4.14-10.699-15.703-3.453-19.324 54.524-24.156 115.265-6.902 169.095 8.281 6.21 2.071 13.8 8.281 14.49 14.492-2.07 22.086-26.92 26.922-42.79 33.129-46.93 11.735-98.697 11.735-149.076 16.567-9.664 2.07-21.973 8.8-24.848 16.562-5.519 16.563-5.519 39.336 6.903 53.136 64.183 56.6 161.501 51.77 242.941 36.59 5.52-2.07 11.74-4.14 13.8-10.35z"/><path d="m873.605 1019.21c6.211-66.249 9.661-127.675 8.286-197.382-1.383-8.973-11.735-11.047-18.637-14.496-11.043-2.07-25.309.289-29.68 6.211-15.875 25.539-10.351 60.047-11.73 91.105 2.07 49.004 1.379 102.152 15.183 147.692 2.645 6.62 10.352 12.43 16.563 8.29 16.566-8.29 19.328-24.85 20.015-41.42z"/><path d="m1640.4 1028.88c3.34-5.58 6.79-14.2 0-17.94-31.06-13.807-73.16-7.6-109.05-11.737-9.66-8.281-17.25-22.086-13.8-34.508 3.45-2.074 6.56-5.234 10.35-4.832 22.09-1.379 55.22 10.352 69.71-10.351 3.57-6.157-.46-29.16-10.35-29.676-26.92-3.453-71.21 3.391-84.2-3.453-16.57-11.043-15.19-32.438-21.4-49.695 11.73-7.59 24.04.175 37.96 2.07 25.54 4.144 53.84 11.734 79.37 6.211 4.83-8.969 11.74-18.633 6.9-29.676-43.48-34.512-99.61-69.883-159.43-44.863-22.43 10.066-32.44 44.172-24.85 73.16 4.84 20.707 26.23 40.722 13.12 62.808-2.07 9.661 3.45 17.946 11.73 20.016 22.78 0 17.94 28.293 29.68 41.41-13.11 14.496-46.25 13.796-42.79 42.786 15.87 8.28 35.19 5.52 53.14 8.28 40.72 8.29 86.27 13.12 127.69 8.29 8.28-1.67 19.32-17.95 26.22-28.3z"/><path d="m654.816 1186.24c63.692-52.06 146.321-140.79 135.969-242.939-12.426-80.754-98.008-141.489-170.476-160.817-70.399-20.703-158.743-18.636-230.524-2.07-4.832-13.113-9.664-28.984-24.847-34.508-9.665-3.449-22.086-1.379-29.68 4.828-21.391 20.016-4.141 58.672-35.196 71.094-60.738 25.535-126.308 75.918-157.363 138.035-4.14 12.422.688 24.844 8.281 34.508 47.625 37.959 107.668 53.149 167.715 64.879 3.45-1.38 2.071 3.45 4.832 4.83 3.453 41.41 4.828 83.51 17.946 120.78 2.988 5.24 10.351 6.91 15.183 3.46 37.961-28.99 20.016-83.52 36.582-122.86 72.469-3.45 144.938-6.9 202.223-47.62 19.324-15.88 24.039-46.188 17.945-63.496-6.097-17.317-26.226-29.68-44.863-31.059-12.422 0-35.891-1.211-34.512 8.281 1.383 9.493 42.219 25.024 29.68 37.961-18.027 18.606-108.242 29.676-164.149 36.583-6.902 1.37-13.226-.7-13.226-8.286-1.383-52.453-5.524-110.429 3.449-160.812.692-3.453 4.832-7.594 8.285-8.282 98.692-15.875 202.91-6.902 280.211 49.688 35.895 28.992 47.625 69.715 41.414 114.574-31.058 124.918-161.504 200.148-268.484 248.468-104.215 45.55-219.477 69.02-343.02 62.81-19.6715-1.44-50.8472-8.23-51.0738-15.19-.2305-6.96 35.3125-4.77 31.0547-17.94-4.2539-13.18-40.375-5.35-51.0703-2.07-10.6993 3.27-9.6641 18.63-6.9024 28.29 26.918 47.62 102.0308 51.48 135.9648 53.15 187.731 4.83 369.25-66.66 488.652-164.27zm-338.191-184.97c-47.621-.69-98.008-5.52-142.18-22.082-8.968-3.454-20.015-13.114-13.109-24.844 17.941-24.156 43.594-44 67.637-57.977 24.039-13.976 55.902-31.75 84.894-35.89 6.899 44.863 6.899 89.035 6.211 135.273-2.762 1.383 0 4.145-3.453 5.52z"/><path d="m1743.24 1064.08c-2.07-60.04-57.97-97.314-57.97-157.361 2.07-2.071 3.44-4.832 6.21-3.449 44.86 49.003 89.03 118.71 154.6 139.41 17.26 1.39 32.9-13.63 39.34-24.84 22.78-45.555 17.26-109.738-14.49-151.152-32.79-40.661-89.73-81.442-154.61-74.54-26.91-66.257-45.55-135.968-55.9-208.437-5.52-14.496-18.64-1.379-26.92 1.383-55.9 44.172-10 161.097-6.21 175.996 3.79 14.898 18.75 49.98 29.68 79.371-26.23 46.934-9.67 103.527 11.73 147.008 16.57 28.991 39.34 57.981 66.26 80.061 3.45 0 6.21-.69 8.28-3.45zm111.12-74.541c-8.28 1.383-11.73-9.66-18.63-11.734-31.75-35.887-63.5-71.774-79.38-114.567 21.4-2.761 39.35 11.043 57.98 18.633 31.75 20.016 51.76 53.145 49.69 91.106-1.38 6.211-6.9 11.043-9.66 16.562z"/></g></svg>