<svg enable-background="new 214.5 51.108 186 243.392" height="243.392" viewBox="214.5 51.108 186 243.392" width="186" xmlns="http://www.w3.org/2000/svg"><path d="m330.61 133.705c.779.833 5.232.897 9.751 1.186 3.067.196 6.917.538 9.806.865 10.189 1.153 19.417 3.076 25.954 7.113 4.221 2.607 6.473 4.935 8.266 8.972 2.422 5.449 1.73 13.329.48 18.424-.465 2.367-5.382 19.898-7.785 27.396-2.413 7.529-10.766 31.145-16.148 37.042-4.812 5.272-8.268 7.753-20.764 6.856-4.753-.503-12.934-1.227-17.688-1.73-.433.245-1.355 3.624-1.54 4.405-.82 3.484-1.042 9.055-.818 13.414.07 1.382.208 2.973.392 4.14 1.038.559 3.04.805 4.775 1.134 2.2.205 5.756.514 7.954.718 3.354.383 5.589-.248 8.53.958 3.439 1.412 5.771 3.732 7.187 7.187.517 1.262 2.562 7.141 2.204 8.674-.196.838-.892 1.634-1.497 2.083-2.552 1.894-8.328 3.07-12.806 2.037-7.786-1.796-14.859-4.728-21.275-8.002-2.173-1.107-4.219-2.028-6.253-3.234-.593-.352-1.868-1.03-2.251-1.461-.303-.339.979-3.223 1.293-3.977 1.138-2.719 2.068-4.942 3.02-7.811 2.491-7.522 1.688-13.952.129-20.584-3.396 0-5.127 0-8.972-.065-.392 1.304-.257 1.089-.549 2.489-.847 3.306-1.15 6.568-1.845 10.068-.372 1.957-.585 4.003-.958 5.961-.731 4.344 4.364 8.476 2.587 12.578-1.138 2.628-7.062 4.826-9.847 6.037-4.73 2.056-8.408 3.45-14.016 5.462-2.898 1.041-6.811 2.243-9.989 2.947-4.901 1.087-11.876-1.923-13.801-4.41-2.271-2.93 1.218-6.642 2.778-8.502 3.738-4.457 10.687-10.495 16.627-11.549 3.14-.556 7.345.148 9.729.96 1.548.525 3 1.571 4.455.334 2.863-2.432 3.562-5.808 4.396-10.901.238-1.451.503-6.397.396-8.049-.121-1.859-.05-1.436-.41-3.232-11.151.128-26.614 1.436-34.606-3.333-6.662-3.976-8.717-11.174-11.15-18.648-5.383-16.534-9.07-29.915-11.92-46.91-1.44-8.589-1.829-15.752 1.846-22.037 3.411-5.833 11.035-8.723 17.38-10.261 6.507-1.578 12.496-2.884 20.981-3.992 3.131-.335 7.184-.526 10.548-.814 5.191-.192 8.62-.362 13.242-.367.237-15.621-5.437-24.876-14.988-30.702-2.891-1.763-9.537-4.588-14.065-3.223-3.617 1.091-6.72 4.625-8.84 7.259-.843 1.046-2.912 3.025-5 2.507-2.009-.499-3.366-1.931-4.418-3.412-4.56-6.42-3.308-18.374.447-24.773.828-1.409 1.616-2.924 2.853-3.915.841-.674 1.736-1.341 2.796-1.79 2.285-.966 5.391-.46 6.99.783 1.521 1.182 2.312 3.728 3.132 5.592 1.127 2.565 2.975 4.997 5.146 6.542 2.06 1.467 4.662 2.241 7.158 3.3 2.704 1.147 5.374 2.47 7.772 3.97 11.513 7.201 19.902 19.271 19.886 37.907 4.754.112 9.362.176 14.115.288.261-1.137.521-2.274.783-3.411.666-2.426 1.174-4.771 1.957-6.99 3.509-9.932 7.497-16.572 13.364-23.991 1.604-1.715 3.206-3.43 4.81-5.145 1.632-1.313 3.428-2.935 4.307-4.977.518-1.199.913-3.12.615-4.865-.877-5.14-3.227-10.678 1.175-13.925.913-.674 2.373-1.326 4.082-1.007.876.261 1.753.522 2.628.783 6.066 2.622 10.189 8.243 12.087 15.132.743 2.696 1.169 7.371-.479 9.488-.808 1.038-3.748 1.489-5.847 1.15-3.506-.567-8.015-.498-10.254 1.149-2.995 2.204-4.72 4.145-7.529 7.528-5.096 6.131-8.709 12.959-11.708 21.485-.85 2.411-1.311 7.138-.793 7.692z"/><path d="m355.167 266.419c2.1 0 3.859 1.657 3.859 3.829 0 2.212-1.761 3.869-3.859 3.869-2.109 0-3.881-1.657-3.881-3.869 0-2.172 1.772-3.829 3.881-3.829zm0 7.132c1.779 0 3.158-1.421 3.158-3.303 0-1.845-1.379-3.263-3.158-3.263-1.801 0-3.18 1.418-3.18 3.263 0 1.882 1.379 3.303 3.18 3.303zm-1.502-5.537h1.738c1.069 0 1.573.421 1.573 1.287 0 .813-.514 1.15-1.184 1.225l1.288 1.985h-.753l-1.224-1.934h-.742v1.934h-.698zm.698 1.997h.73c.617 0 1.185-.031 1.185-.741 0-.598-.516-.691-.988-.691h-.927z"/><path d="m256.278 158.642c1.293-.182 5.913-.273 11.174-1.197 4.337-.75 8.778-1.012 11.274-.92 2.491.092 4.614.092 4.893 1.66.277 1.567.46 3.416 0 4.343-.46.921-.924 1.29-2.585 1.66-1.664.376-5.409.841-6.748 1.567-1.045.574-1.678 3.812-2.026 6.469-.739 5.54-.062 10.736.186 15.708.166 3.497 1.567 6.833.738 8.587-.637 1.327-2.484 2.641-4.805 2.219-2.035-.371-2.861-2.127-3.509-5.544-.649-3.417-.096-13.947 0-15.521.093-1.567-.185-6.832-1.019-8.406-.829-1.568-1.66-3.513-3.047-3.321-1.384.179-4.713.452-6.281-.835-1.327-1.083-2.491-2.307-1.754-3.878.74-1.571 2.216-2.404 3.509-2.591z" fill="#ed1b2f"/><path d="m292.763 157.907c1.016 0 2.282.837 2.406 1.939.185 1.574-.091 1.848-.467 2.681-.366.832.376 2.583-.366 3.786-.428.703-.743 1.207-3.974 1.386-3.232.188-3.461-2.782-3.325-4.156.188-1.752 1.018-3.509 2.311-4.436 1.293-.923 2.4-1.2 3.415-1.2z" fill="#34b228"/><path d="m289.255 177.86c1.386-.187 3.069-.23 4.338 2.585 1.666 3.696 1.652 6.545 1.485 9.332-.19 3.045-.742 5.36-.834 5.915-.096.547.092 1.567-.555 2.118-.647.557-1.941 1.017-3.694.192-1.862-.889-2.219-1.017-2.865-4.808-.644-3.788-.462-6.28-.555-7.761-.061-1.006-1.026-2.712-.739-4.521.281-1.731 2.032-2.868 3.419-3.052z" fill="#34b228"/><path d="m300.433 160.771c.829-.736 3.326-2.026 5.73 0 2.395 2.033 3.813 6.889 4.334 8.222.743 1.848 2.038 8.867 2.5 10.898.458 2.033 1.845 6.278 2.307 7.022.462.741.554 1.935 1.109 1.473.554-.456 4.154-5.723 5.078-7.567.926-1.846 5.545-11.271 6.47-13.49s6.002-13.208 6.37-13.944c.373-.743 1.294-2.868 3.786-1.759 2.496 1.105 2.312 2.496 1.48 4.807-.834 2.312-5.083 13.573-6.003 15.883-.924 2.311-5.171 12.751-6.474 15.521-.901 1.94-5.267 9.423-6.185 10.621-.928 1.201-2.862 4.248-4.155 4.248s-2.479.291-3.975-1.664c-1.846-2.394-2.968-5.325-3.603-6.83-1.016-2.403-2.492-9.336-3.232-13.027-.739-3.697-2.677-10.628-3.415-12.192-.637-1.345-3.328-3.416-3.328-5.45.003-1.016.373-2.032 1.206-2.772z" fill="#ffaa16"/><path d="m346.709 167.419c1.79-.419 5.062-.301 7.851.738 3.234 1.205 6.691 3.403 7.484 4.532 1.109 1.567 1.754 2.398 1.479 4.706-.175 1.453-2.681 1.942-2.955 2.406-.276.455-1.021 2.219-1.663 4.339-.354 1.181-1.398 6.222-3.612 7.61-2.217 1.383-3.688 1.07-6.363.793-2.494-.245-5.267-1.017-7.208-3.051-1.638-1.719-4.152-6.741-3.69-11.173.454-4.433 2.213-7.299 4.156-8.685 1.934-1.38 2.952-1.844 4.521-2.215zm2.307 8.036c-1.657.739-2.676 2.779-2.858 4.252-.233 1.825.089 2.495.553 3.51.463 1.016 1.572 1.757 2.68 1.568.82-.131 2.4-.829 3.325-1.761 1.017-1.004.926-2.95.461-3.779-.461-.833-.182-1.939 0-2.867.188-.924-.646-1.291-1.477-1.383-.837-.09-1.018-.28-2.684.46z" fill="#00a9e0"/><path d="m280.939 210.191c.371-.645 1.847-2.398 3.972-1.479 2.126.924 7.207 4.063 9.977 5.078 2.771 1.019 8.594 4.065 18.013 3.327 9.423-.741 13.213-2.123 17.645-4.153 4.434-2.036 9.607-5.915 10.254-6.377.646-.461 2.244-2.361 3.513-.647 1.091 1.473-1.664 4.074-2.962 5.356-1.288 1.294-7.571 7.39-15.421 9.982-7.015 2.3-11.263 2.957-16.536 2.76-5.813-.198-15.354-2.608-22.446-6.089-4.896-2.396-6.107-3.182-6.56-4.618-.39-1.262.184-2.493.551-3.14z" fill="#fff"/></svg>