<svg height="165" viewBox="-.714 -.432 1001 165" width="1001" xmlns="http://www.w3.org/2000/svg"><g clip-rule="evenodd" fill="#e2001a" fill-rule="evenodd"><path d="m118.271 156.034c-13.232-8.288-22.98-36.89-22.98-70.873 0-1.247.008-2.476.036-3.705l.016.018c-36.803-5.784-63.394-21.63-64.075-40.368l-.108.216c-9.005 11.191-14.145 24.13-14.145 37.917 0 40.569 44.533 73.81 101.018 76.75zm-118.271-73.835c0-45.394 56.49-82.199 126.179-82.199 69.687 0 126.179 36.805 126.179 82.199s-56.493 82.2-126.179 82.2c-69.689 0-126.179-36.807-126.179-82.2zm126.179-70.336c13.453 0 24.896 20.407 29.135 48.881l.016-.043c26.172-4.074 44.497-13.472 44.497-24.408 0-14.678-32.977-26.563-73.648-26.563-40.674 0-73.648 11.886-73.648 26.563 0 10.936 18.322 20.334 44.497 24.408l.016.043c4.239-28.473 15.685-48.881 29.135-48.881zm8.144 144.125c56.485-2.939 101.024-36.181 101.024-76.75 0-13.786-5.146-26.725-14.15-37.917l-.11-.216c-.681 18.738-27.265 34.584-64.072 40.368l.016-.018c.025 1.229.038 2.458.038 3.705 0 33.983-9.755 62.585-22.979 70.873zm-8.144-93.128c6.027 0 11.886-.257 17.492-.751l-.008.009c-2.79-18.253-9.566-31.135-17.484-31.135s-14.693 12.882-17.487 31.135l-.007-.009c5.606.494 11.467.751 17.494.751zm0 67.594c10.128 0 18.39-21.077 18.831-47.513l.054.019c-6.105.565-12.42.86-18.884.86-6.47 0-12.779-.295-18.884-.86l.057-.019c.434 26.435 8.694 47.513 18.826 47.513z"/><path d="m643.849 82.199c0-34.696 28.133-62.824 62.821-62.824 34.706 0 62.835 28.127 62.835 62.824 0 34.7-28.129 62.824-62.835 62.824-34.688 0-62.821-28.124-62.821-62.824zm62.821 39.787c19.379 0 35.087-17.815 35.087-39.787 0-21.971-15.708-39.788-35.087-39.788-19.365 0-35.07 17.817-35.07 39.788s15.705 39.787 35.07 39.787z"/><path d="m840.788 45.551v96.62h-26.469v-96.62h.087-37.018v-21.844h100.325v21.844h-36.838z"/><path d="m909.736 115.517-.026.025-10.154 26.629h-30.912l48.873-118.465h16.479 16.463l48.878 118.465h-30.918l-10.155-26.629-.025-.025h-24.242zm24.259-19.994h16.653l-.01.005-16.53-43.359h-.232l-16.54 43.359-.006-.005z"/><path d="m352.844 45.551v96.62h-26.471v-96.62h.09-37.021v-21.844h100.329v21.844h-36.835z"/><path d="m396.541 82.199c0-34.696 28.132-62.824 62.832-62.824 34.698 0 62.827 28.127 62.827 62.824 0 34.7-28.129 62.824-62.827 62.824-34.7 0-62.832-28.124-62.832-62.824zm62.832 39.787c19.369 0 35.078-17.815 35.078-39.787 0-21.971-15.708-39.788-35.078-39.788-19.372 0-35.081 17.817-35.081 39.788s15.709 39.787 35.081 39.787z"/><path d="m583.024 142.171h13.422v-44.429-.554l46.179-73.481h-30.907l-28.694 49.793-28.69-49.793h-30.917l46.184 73.481v.554 44.429z"/></g></svg>