<?xml version="1.0" encoding="utf-8"?>
<!-- Generator: Adobe Illustrator 15.0.0, SVG Export Plug-In . SVG Version: 6.00 Build 0)  -->
<!DOCTYPE svg PUBLIC "-//W3C//DTD SVG 1.1//EN" "http://www.w3.org/Graphics/SVG/1.1/DTD/svg11.dtd">
<svg version="1.1" id="_x32_011_logo" xmlns="http://www.w3.org/2000/svg" xmlns:xlink="http://www.w3.org/1999/xlink" x="0px"
	 y="0px" width="186px" height="243.392px" viewBox="214.5 51.108 186 243.392" enable-background="new 214.5 51.108 186 243.392"
	 xml:space="preserve">
<g>
	<g>
		<g>
			<path d="M330.61,133.705c0.779,0.833,5.232,0.897,9.751,1.186c3.067,0.196,6.917,0.538,9.806,0.865
				c10.189,1.153,19.417,3.076,25.954,7.113c4.221,2.607,6.473,4.935,8.266,8.972c2.422,5.449,1.73,13.329,0.48,18.424
				c-0.465,2.367-5.382,19.898-7.785,27.396c-2.413,7.529-10.766,31.145-16.148,37.042c-4.812,5.272-8.268,7.753-20.764,6.856
				c-4.753-0.503-12.934-1.227-17.688-1.73c-0.433,0.245-1.355,3.624-1.54,4.405c-0.82,3.484-1.042,9.055-0.818,13.414
				c0.07,1.382,0.208,2.973,0.392,4.14c1.038,0.559,3.04,0.805,4.775,1.134c2.2,0.205,5.756,0.514,7.954,0.718
				c3.354,0.383,5.589-0.248,8.53,0.958c3.439,1.412,5.771,3.732,7.187,7.187c0.517,1.262,2.562,7.141,2.204,8.674
				c-0.196,0.838-0.892,1.634-1.497,2.083c-2.552,1.894-8.328,3.07-12.806,2.037c-7.786-1.796-14.859-4.728-21.275-8.002
				c-2.173-1.107-4.219-2.028-6.253-3.234c-0.593-0.352-1.868-1.03-2.251-1.461c-0.303-0.339,0.979-3.223,1.293-3.977
				c1.138-2.719,2.068-4.942,3.02-7.811c2.491-7.522,1.688-13.952,0.129-20.584c-3.396,0-5.127,0-8.972-0.065
				c-0.392,1.304-0.257,1.089-0.549,2.489c-0.847,3.306-1.15,6.568-1.845,10.068c-0.372,1.957-0.585,4.003-0.958,5.961
				c-0.731,4.344,4.364,8.476,2.587,12.578c-1.138,2.628-7.062,4.826-9.847,6.037c-4.73,2.056-8.408,3.45-14.016,5.462
				c-2.898,1.041-6.811,2.243-9.989,2.947c-4.901,1.087-11.876-1.923-13.801-4.41c-2.271-2.93,1.218-6.642,2.778-8.502
				c3.738-4.457,10.687-10.495,16.627-11.549c3.14-0.556,7.345,0.148,9.729,0.96c1.548,0.525,3,1.571,4.455,0.334
				c2.863-2.432,3.562-5.808,4.396-10.901c0.238-1.451,0.503-6.397,0.396-8.049c-0.121-1.859-0.05-1.436-0.41-3.232
				c-11.151,0.128-26.614,1.436-34.606-3.333c-6.662-3.976-8.717-11.174-11.15-18.648c-5.383-16.534-9.07-29.915-11.92-46.91
				c-1.44-8.589-1.829-15.752,1.846-22.037c3.411-5.833,11.035-8.723,17.38-10.261c6.507-1.578,12.496-2.884,20.981-3.992
				c3.131-0.335,7.184-0.526,10.548-0.814c5.191-0.192,8.62-0.362,13.242-0.367c0.237-15.621-5.437-24.876-14.988-30.702
				c-2.891-1.763-9.537-4.588-14.065-3.223c-3.617,1.091-6.72,4.625-8.84,7.259c-0.843,1.046-2.912,3.025-5,2.507
				c-2.009-0.499-3.366-1.931-4.418-3.412c-4.56-6.42-3.308-18.374,0.447-24.773c0.828-1.409,1.616-2.924,2.853-3.915
				c0.841-0.674,1.736-1.341,2.796-1.79c2.285-0.966,5.391-0.46,6.99,0.783c1.521,1.182,2.312,3.728,3.132,5.592
				c1.127,2.565,2.975,4.997,5.146,6.542c2.06,1.467,4.662,2.241,7.158,3.3c2.704,1.147,5.374,2.47,7.772,3.97
				c11.513,7.201,19.902,19.271,19.886,37.907c4.754,0.112,9.362,0.176,14.115,0.288c0.261-1.137,0.521-2.274,0.783-3.411
				c0.666-2.426,1.174-4.771,1.957-6.99c3.509-9.932,7.497-16.572,13.364-23.991c1.604-1.715,3.206-3.43,4.81-5.145
				c1.632-1.313,3.428-2.935,4.307-4.977c0.518-1.199,0.913-3.12,0.615-4.865c-0.877-5.14-3.227-10.678,1.175-13.925
				c0.913-0.674,2.373-1.326,4.082-1.007c0.876,0.261,1.753,0.522,2.628,0.783c6.066,2.622,10.189,8.243,12.087,15.132
				c0.743,2.696,1.169,7.371-0.479,9.488c-0.808,1.038-3.748,1.489-5.847,1.15c-3.506-0.567-8.015-0.498-10.254,1.149
				c-2.995,2.204-4.72,4.145-7.529,7.528c-5.096,6.131-8.709,12.959-11.708,21.485C330.553,128.424,330.092,133.151,330.61,133.705z
				"/>
		</g>
		<g>
			<path d="M355.167,266.419c2.1,0,3.859,1.657,3.859,3.829c0,2.212-1.761,3.869-3.859,3.869c-2.109,0-3.881-1.657-3.881-3.869
				C351.286,268.076,353.058,266.419,355.167,266.419z M355.167,273.551c1.779,0,3.158-1.421,3.158-3.303
				c0-1.845-1.379-3.263-3.158-3.263c-1.801,0-3.18,1.418-3.18,3.263C351.987,272.13,353.366,273.551,355.167,273.551z
				 M353.665,268.014h1.738c1.069,0,1.573,0.421,1.573,1.287c0,0.813-0.514,1.15-1.184,1.225l1.288,1.985h-0.753l-1.224-1.934
				h-0.742v1.934h-0.698L353.665,268.014L353.665,268.014z M354.363,270.011h0.73c0.617,0,1.185-0.031,1.185-0.741
				c0-0.598-0.516-0.691-0.988-0.691h-0.927V270.011L354.363,270.011z"/>
		</g>
	</g>
	<g>
		<path fill="#ED1B2F" d="M256.278,158.642c1.293-0.182,5.913-0.273,11.174-1.197c4.337-0.75,8.778-1.012,11.274-0.92
			c2.491,0.092,4.614,0.092,4.893,1.66c0.277,1.567,0.46,3.416,0,4.343c-0.46,0.921-0.924,1.29-2.585,1.66
			c-1.664,0.376-5.409,0.841-6.748,1.567c-1.045,0.574-1.678,3.812-2.026,6.469c-0.739,5.54-0.062,10.736,0.186,15.708
			c0.166,3.497,1.567,6.833,0.738,8.587c-0.637,1.327-2.484,2.641-4.805,2.219c-2.035-0.371-2.861-2.127-3.509-5.544
			c-0.649-3.417-0.096-13.947,0-15.521c0.093-1.567-0.185-6.832-1.019-8.406c-0.829-1.568-1.66-3.513-3.047-3.321
			c-1.384,0.179-4.713,0.452-6.281-0.835c-1.327-1.083-2.491-2.307-1.754-3.878C253.509,159.662,254.985,158.829,256.278,158.642
			L256.278,158.642z"/>
		<path fill="#34B228" d="M292.763,157.907c1.016,0,2.282,0.837,2.406,1.939c0.185,1.574-0.091,1.848-0.467,2.681
			c-0.366,0.832,0.376,2.583-0.366,3.786c-0.428,0.703-0.743,1.207-3.974,1.386c-3.232,0.188-3.461-2.782-3.325-4.156
			c0.188-1.752,1.018-3.509,2.311-4.436C290.641,158.184,291.748,157.907,292.763,157.907L292.763,157.907z"/>
		<path fill="#34B228" d="M289.255,177.86c1.386-0.187,3.069-0.23,4.338,2.585c1.666,3.696,1.652,6.545,1.485,9.332
			c-0.19,3.045-0.742,5.36-0.834,5.915c-0.096,0.547,0.092,1.567-0.555,2.118c-0.647,0.557-1.941,1.017-3.694,0.192
			c-1.862-0.889-2.219-1.017-2.865-4.808c-0.644-3.788-0.462-6.28-0.555-7.761c-0.061-1.006-1.026-2.712-0.739-4.521
			C286.117,179.181,287.868,178.044,289.255,177.86L289.255,177.86z"/>
		<path fill="#FFAA16" d="M300.433,160.771c0.829-0.736,3.326-2.026,5.73,0c2.395,2.033,3.813,6.889,4.334,8.222
			c0.743,1.848,2.038,8.867,2.5,10.898c0.458,2.033,1.845,6.278,2.307,7.022c0.462,0.741,0.554,1.935,1.109,1.473
			c0.554-0.456,4.154-5.723,5.078-7.567c0.926-1.846,5.545-11.271,6.47-13.49c0.925-2.219,6.002-13.208,6.37-13.944
			c0.373-0.743,1.294-2.868,3.786-1.759c2.496,1.105,2.312,2.496,1.48,4.807c-0.834,2.312-5.083,13.573-6.003,15.883
			c-0.924,2.311-5.171,12.751-6.474,15.521c-0.901,1.94-5.267,9.423-6.185,10.621c-0.928,1.201-2.862,4.248-4.155,4.248
			s-2.479,0.291-3.975-1.664c-1.846-2.394-2.968-5.325-3.603-6.83c-1.016-2.403-2.492-9.336-3.232-13.027
			c-0.739-3.697-2.677-10.628-3.415-12.192c-0.637-1.345-3.328-3.416-3.328-5.45C299.23,162.527,299.6,161.511,300.433,160.771
			L300.433,160.771z"/>
		<path fill="#00A9E0" d="M346.709,167.419c1.79-0.419,5.062-0.301,7.851,0.738c3.234,1.205,6.691,3.403,7.484,4.532
			c1.109,1.567,1.754,2.398,1.479,4.706c-0.175,1.453-2.681,1.942-2.955,2.406c-0.276,0.455-1.021,2.219-1.663,4.339
			c-0.354,1.181-1.398,6.222-3.612,7.61c-2.217,1.383-3.688,1.07-6.363,0.793c-2.494-0.245-5.267-1.017-7.208-3.051
			c-1.638-1.719-4.152-6.741-3.69-11.173c0.454-4.433,2.213-7.299,4.156-8.685C344.122,168.254,345.14,167.79,346.709,167.419
			L346.709,167.419z M349.016,175.455c-1.657,0.739-2.676,2.779-2.858,4.252c-0.233,1.825,0.089,2.495,0.553,3.51
			c0.463,1.016,1.572,1.757,2.68,1.568c0.82-0.131,2.4-0.829,3.325-1.761c1.017-1.004,0.926-2.95,0.461-3.779
			c-0.461-0.833-0.182-1.939,0-2.867c0.188-0.924-0.646-1.291-1.477-1.383C350.863,174.905,350.682,174.715,349.016,175.455
			L349.016,175.455z"/>
		<path fill="#FFFFFF" d="M280.939,210.191c0.371-0.645,1.847-2.398,3.972-1.479c2.126,0.924,7.207,4.063,9.977,5.078
			c2.771,1.019,8.594,4.065,18.013,3.327c9.423-0.741,13.213-2.123,17.645-4.153c4.434-2.036,9.607-5.915,10.254-6.377
			c0.646-0.461,2.244-2.361,3.513-0.647c1.091,1.473-1.664,4.074-2.962,5.356c-1.288,1.294-7.571,7.39-15.421,9.982
			c-7.015,2.3-11.263,2.957-16.536,2.76c-5.813-0.198-15.354-2.608-22.446-6.089c-4.896-2.396-6.107-3.182-6.56-4.618
			C279.998,212.069,280.572,210.838,280.939,210.191L280.939,210.191z"/>
	</g>
</g>
</svg>
