<svg enable-background="new 0 0 195.1 120" viewBox="0 0 195.1 120" xmlns="http://www.w3.org/2000/svg"><path d="m0 0h195.1v120h-195.1z" fill="#fff"/><path d="m0 0h195.1v9.2h-195.1z" fill="#b22234"/><path d="m0 18.5h195.1v9.2h-195.1z" fill="#b22234"/><path d="m0 36.9h195.1v9.2h-195.1z" fill="#b22234"/><path d="m0 55.4h195.1v9.2h-195.1z" fill="#b22234"/><path d="m0 73.8h195.1v9.2h-195.1z" fill="#b22234"/><path d="m0 92.3h195.1v9.2h-195.1z" fill="#b22234"/><path d="m0 110.8h195.1v9.2h-195.1z" fill="#b22234"/><path d="m0 0h91.7v64.6h-91.7z" fill="#3c3b6e"/><g fill="#fff"><path d="m7.8 2.7-.8 2.5h-2.7l2.2 1.6-.8 2.6 2.1-1.6 2.2 1.6-.8-2.6 2.2-1.6h-2.7z"/><path d="m23 2.7-.8 2.5h-2.7l2.2 1.6-.8 2.6 2.1-1.6 2.2 1.6-.8-2.6 2.2-1.6h-2.7z"/><path d="m38.2 2.7-.8 2.5h-2.7l2.2 1.6-.9 2.6 2.2-1.6 2.2 1.6-.8-2.6 2.2-1.6h-2.7z"/><path d="m53.4 2.7-.8 2.5h-2.7l2.2 1.6-.9 2.6 2.2-1.6 2.2 1.6-.8-2.6 2.2-1.6h-2.7z"/><path d="m68.6 2.7-.8 2.5h-2.7l2.2 1.6-.9 2.6 2.2-1.6 2.2 1.6-.8-2.6 2.2-1.6h-2.7z"/><path d="m82.5 6.8-.9 2.6 2.2-1.6 2.2 1.6-.8-2.6 2.1-1.6h-2.7l-.8-2.5-.8 2.5h-2.7z"/><path d="m15.4 9.2-.8 2.5h-2.7l2.2 1.6-.8 2.6 2.1-1.6 2.2 1.6-.8-2.6 2.2-1.6h-2.7z"/><path d="m30.6 9.2-.8 2.5h-2.7l2.2 1.6-.9 2.6 2.2-1.6 2.2 1.6-.8-2.6 2.2-1.6h-2.7z"/><path d="m45.8 9.2-.8 2.5h-2.7l2.2 1.6-.9 2.6 2.2-1.6 2.2 1.6-.8-2.6 2.2-1.6h-2.7z"/><path d="m61 9.2-.8 2.5h-2.7l2.2 1.6-.9 2.6 2.2-1.6 2.2 1.6-.8-2.6 2.2-1.6h-2.7z"/><path d="m76.2 9.2-.8 2.5h-2.7l2.2 1.6-.9 2.6 2.2-1.6 2.2 1.6-.8-2.6 2.1-1.6h-2.7z"/><path d="m7.8 15.7-.8 2.5h-2.7l2.2 1.6-.8 2.5 2.1-1.5 2.2 1.5-.8-2.5 2.2-1.6h-2.7z"/><path d="m23 15.7-.8 2.5h-2.7l2.2 1.6-.8 2.5 2.1-1.5 2.2 1.5-.8-2.5 2.2-1.6h-2.7z"/><path d="m38.2 15.7-.8 2.5h-2.7l2.2 1.6-.9 2.5 2.2-1.5 2.2 1.5-.8-2.5 2.2-1.6h-2.7z"/><path d="m53.4 15.7-.8 2.5h-2.7l2.2 1.6-.9 2.5 2.2-1.5 2.2 1.5-.8-2.5 2.2-1.6h-2.7z"/><path d="m68.6 15.7-.8 2.5h-2.7l2.2 1.6-.9 2.5 2.2-1.5 2.2 1.5-.8-2.5 2.2-1.6h-2.7z"/><path d="m83.8 15.7-.8 2.5h-2.7l2.2 1.6-.9 2.5 2.2-1.5 2.2 1.5-.8-2.5 2.1-1.6h-2.7z"/><path d="m15.4 22.1-.8 2.6h-2.7l2.2 1.6-.8 2.5 2.1-1.6 2.2 1.6-.8-2.5 2.2-1.6h-2.7z"/><path d="m30.6 22.1-.8 2.6h-2.7l2.2 1.6-.9 2.5 2.2-1.6 2.2 1.6-.8-2.5 2.2-1.6h-2.7z"/><path d="m45.8 22.1-.8 2.6h-2.7l2.2 1.6-.9 2.5 2.2-1.6 2.2 1.6-.8-2.5 2.2-1.6h-2.7z"/><path d="m61 22.1-.8 2.6h-2.7l2.2 1.6-.9 2.5 2.2-1.6 2.2 1.6-.8-2.5 2.2-1.6h-2.7z"/><path d="m76.2 22.1-.8 2.6h-2.7l2.2 1.6-.9 2.5 2.2-1.6 2.2 1.6-.8-2.5 2.1-1.6h-2.7z"/><path d="m7.8 28.6-.8 2.6h-2.7l2.2 1.5-.8 2.6 2.1-1.6 2.2 1.6-.8-2.6 2.2-1.5h-2.7z"/><path d="m23 28.6-.8 2.6h-2.7l2.2 1.5-.8 2.6 2.1-1.6 2.2 1.6-.8-2.6 2.2-1.5h-2.7z"/><path d="m38.2 28.6-.8 2.6h-2.7l2.2 1.5-.9 2.6 2.2-1.6 2.2 1.6-.8-2.6 2.2-1.5h-2.7z"/><path d="m53.4 28.6-.8 2.6h-2.7l2.2 1.5-.9 2.6 2.2-1.6 2.2 1.6-.8-2.6 2.2-1.5h-2.7z"/><path d="m68.6 28.6-.8 2.6h-2.7l2.2 1.5-.9 2.6 2.2-1.6 2.2 1.6-.8-2.6 2.2-1.5h-2.7z"/><path d="m83.8 28.6-.8 2.6h-2.7l2.2 1.5-.9 2.6 2.2-1.6 2.2 1.6-.8-2.6 2.1-1.5h-2.7z"/><path d="m15.4 35.1-.8 2.6h-2.7l2.2 1.6-.8 2.6 2.2-1.6 2.2 1.6-.8-2.6 2.2-1.6h-2.7z"/><path d="m30.6 35.1-.8 2.6h-2.7l2.2 1.6-.8 2.6 2.2-1.6 2.2 1.6-.9-2.7 2.2-1.6h-2.7z"/><path d="m45.8 35.1-.8 2.5h-2.7l2.2 1.6-.8 2.6 2.2-1.6 2.2 1.6-.8-2.6 2.2-1.6h-2.7z"/><path d="m61 35.1-.8 2.6h-2.7l2.2 1.6-.8 2.6 2.2-1.6 2.2 1.6-.8-2.6 2.2-1.6h-2.7z"/><path d="m76.2 35.1-.8 2.6h-2.7l2.2 1.6-.9 2.5 2.2-1.6 2.2 1.6-.8-2.6 2.2-1.6h-2.8z"/><path d="m7.8 41.6-.8 2.5h-2.7l2.2 1.6-.8 2.6 2.1-1.6 2.2 1.6-.8-2.6 2.2-1.6h-2.7z"/><path d="m23 41.6-.8 2.5h-2.7l2.2 1.6-.8 2.6 2.1-1.6 2.2 1.6-.8-2.6 2.2-1.6h-2.7z"/><path d="m38.2 41.6-.8 2.6h-2.7l2.2 1.6-.9 2.5 2.2-1.6 2.2 1.6-.8-2.6 2.2-1.6h-2.7z"/><path d="m53.4 41.6-.8 2.5h-2.7l2.2 1.6-.9 2.6 2.2-1.6 2.2 1.6-.8-2.6 2.2-1.6h-2.7z"/><path d="m68.6 41.6-.8 2.5h-2.7l2.2 1.6-.9 2.6 2.2-1.6 2.2 1.6-.8-2.6 2.2-1.6h-2.7z"/><path d="m83.8 41.6-.8 2.5h-2.7l2.2 1.6-.9 2.6 2.2-1.6 2.2 1.6-.8-2.6 2.1-1.6h-2.7z"/><path d="m16.3 50.6-.9-2.5-.8 2.5h-2.7l2.2 1.6-.8 2.5 2.1-1.5 2.2 1.5-.8-2.5 2.2-1.6z"/><path d="m31.5 50.6-.9-2.5-.8 2.5h-2.7l2.2 1.6-.9 2.5 2.2-1.5 2.2 1.5-.8-2.5 2.2-1.6z"/><path d="m46.7 50.6-.9-2.5-.8 2.5h-2.7l2.2 1.6-.9 2.5 2.2-1.5 2.2 1.5-.8-2.5 2.2-1.6z"/><path d="m61.9 50.6-.9-2.5-.8 2.5h-2.7l2.2 1.6-.9 2.5 2.2-1.5 2.2 1.5-.8-2.5 2.2-1.6z"/><path d="m77 50.6-.8-2.5-.8 2.5h-2.7l2.2 1.6-.9 2.5 2.2-1.5 2.2 1.5-.8-2.5 2.1-1.6z"/><path d="m8.7 57.1-.9-2.6-.8 2.6h-2.7l2.2 1.6-.8 2.5 2.1-1.6 2.2 1.6-.8-2.5 2.2-1.6z"/><path d="m23.9 57.1-.9-2.6-.8 2.6h-2.7l2.2 1.6-.8 2.5 2.1-1.6 2.2 1.6-.8-2.5 2.2-1.6z"/><path d="m39.1 57.1-.9-2.6-.8 2.6h-2.7l2.2 1.6-.9 2.5 2.2-1.6 2.2 1.6-.8-2.5 2.2-1.6z"/><path d="m54.3 57.1-.9-2.6-.8 2.6h-2.7l2.2 1.6-.9 2.5 2.2-1.6 2.2 1.6-.8-2.5 2.2-1.6z"/><path d="m69.5 57.1-.9-2.6-.8 2.6h-2.7l2.2 1.6-.9 2.5 2.2-1.6 2.2 1.6-.8-2.5 2.2-1.6z"/><path d="m84.6 57.1-.8-2.6-.8 2.6h-2.7l2.2 1.6-.9 2.5 2.2-1.6 2.2 1.6-.8-2.5 2.1-1.6z"/></g></svg>