<?xml version="1.0" encoding="utf-8"?>
<!-- Generator: Adobe Illustrator 21.0.2, SVG Export Plug-In . SVG Version: 6.00 Build 0)  -->
<svg version="1.1" id="Ebene_1" xmlns="http://www.w3.org/2000/svg" xmlns:xlink="http://www.w3.org/1999/xlink" x="0px" y="0px"
	 viewBox="0 0 195.1 120" style="enable-background:new 0 0 195.1 120;" xml:space="preserve">
<style type="text/css">
	.st0{fill:#FFFFFF;}
	.st1{fill:#B22234;}
	.st2{fill:#3C3B6E;}
</style>
<g>
	<rect class="st0" width="195.1" height="120"/>
	<rect class="st1" width="195.1" height="9.2"/>
	<rect y="18.5" class="st1" width="195.1" height="9.2"/>
	<rect y="36.9" class="st1" width="195.1" height="9.2"/>
	<rect y="55.4" class="st1" width="195.1" height="9.2"/>
	<rect y="73.8" class="st1" width="195.1" height="9.2"/>
	<rect y="92.3" class="st1" width="195.1" height="9.2"/>
	<rect y="110.8" class="st1" width="195.1" height="9.2"/>
	<rect class="st2" width="91.7" height="64.6"/>
	<g>
		<polygon class="st0" points="7.8,2.7 7,5.2 4.3,5.2 6.5,6.8 5.7,9.4 7.8,7.8 10,9.4 9.2,6.8 11.4,5.2 8.7,5.2 		"/>
		<polygon class="st0" points="23,2.7 22.2,5.2 19.5,5.2 21.7,6.8 20.9,9.4 23,7.8 25.2,9.4 24.4,6.8 26.6,5.2 23.9,5.2 		"/>
		<polygon class="st0" points="38.2,2.7 37.4,5.2 34.7,5.2 36.9,6.8 36,9.4 38.2,7.8 40.4,9.4 39.6,6.8 41.8,5.2 39.1,5.2 		"/>
		<polygon class="st0" points="53.4,2.7 52.6,5.2 49.9,5.2 52.1,6.8 51.2,9.4 53.4,7.8 55.6,9.4 54.8,6.8 57,5.2 54.3,5.2 		"/>
		<polygon class="st0" points="68.6,2.7 67.8,5.2 65.1,5.2 67.3,6.8 66.4,9.4 68.6,7.8 70.8,9.4 70,6.8 72.2,5.2 69.5,5.2 		"/>
		<polygon class="st0" points="82.5,6.8 81.6,9.4 83.8,7.8 86,9.4 85.2,6.8 87.3,5.2 84.6,5.2 83.8,2.7 83,5.2 80.3,5.2 		"/>
		<polygon class="st0" points="15.4,9.2 14.6,11.7 11.9,11.7 14.1,13.3 13.3,15.9 15.4,14.3 17.6,15.9 16.8,13.3 19,11.7 16.3,11.7 
					"/>
		<polygon class="st0" points="30.6,9.2 29.8,11.7 27.1,11.7 29.3,13.3 28.4,15.9 30.6,14.3 32.8,15.9 32,13.3 34.2,11.7 31.5,11.7 
					"/>
		<polygon class="st0" points="45.8,9.2 45,11.7 42.3,11.7 44.5,13.3 43.6,15.9 45.8,14.3 48,15.9 47.2,13.3 49.4,11.7 46.7,11.7 		
			"/>
		<polygon class="st0" points="61,9.2 60.2,11.7 57.5,11.7 59.7,13.3 58.8,15.9 61,14.3 63.2,15.9 62.4,13.3 64.6,11.7 61.9,11.7 		
			"/>
		<polygon class="st0" points="76.2,9.2 75.4,11.7 72.7,11.7 74.9,13.3 74,15.9 76.2,14.3 78.4,15.9 77.6,13.3 79.7,11.7 77,11.7 		
			"/>
		<polygon class="st0" points="7.8,15.7 7,18.2 4.3,18.2 6.5,19.8 5.7,22.3 7.8,20.8 10,22.3 9.2,19.8 11.4,18.2 8.7,18.2 		"/>
		<polygon class="st0" points="23,15.7 22.2,18.2 19.5,18.2 21.7,19.8 20.9,22.3 23,20.8 25.2,22.3 24.4,19.8 26.6,18.2 23.9,18.2 
					"/>
		<polygon class="st0" points="38.2,15.7 37.4,18.2 34.7,18.2 36.9,19.8 36,22.3 38.2,20.8 40.4,22.3 39.6,19.8 41.8,18.2 
			39.1,18.2 		"/>
		<polygon class="st0" points="53.4,15.7 52.6,18.2 49.9,18.2 52.1,19.8 51.2,22.3 53.4,20.8 55.6,22.3 54.8,19.8 57,18.2 
			54.3,18.2 		"/>
		<polygon class="st0" points="68.6,15.7 67.8,18.2 65.1,18.2 67.3,19.8 66.4,22.3 68.6,20.8 70.8,22.3 70,19.8 72.2,18.2 
			69.5,18.2 		"/>
		<polygon class="st0" points="83.8,15.7 83,18.2 80.3,18.2 82.5,19.8 81.6,22.3 83.8,20.8 86,22.3 85.2,19.8 87.3,18.2 84.6,18.2 
					"/>
		<polygon class="st0" points="15.4,22.1 14.6,24.7 11.9,24.7 14.1,26.3 13.3,28.8 15.4,27.2 17.6,28.8 16.8,26.3 19,24.7 
			16.3,24.7 		"/>
		<polygon class="st0" points="30.6,22.1 29.8,24.7 27.1,24.7 29.3,26.3 28.4,28.8 30.6,27.2 32.8,28.8 32,26.3 34.2,24.7 
			31.5,24.7 		"/>
		<polygon class="st0" points="45.8,22.1 45,24.7 42.3,24.7 44.5,26.3 43.6,28.8 45.8,27.2 48,28.8 47.2,26.3 49.4,24.7 46.7,24.7 
					"/>
		<polygon class="st0" points="61,22.1 60.2,24.7 57.5,24.7 59.7,26.3 58.8,28.8 61,27.2 63.2,28.8 62.4,26.3 64.6,24.7 61.9,24.7 
					"/>
		<polygon class="st0" points="76.2,22.1 75.4,24.7 72.7,24.7 74.9,26.3 74,28.8 76.2,27.2 78.4,28.8 77.6,26.3 79.7,24.7 77,24.7 
					"/>
		<polygon class="st0" points="7.8,28.6 7,31.2 4.3,31.2 6.5,32.7 5.7,35.3 7.8,33.7 10,35.3 9.2,32.7 11.4,31.2 8.7,31.2 		"/>
		<polygon class="st0" points="23,28.6 22.2,31.2 19.5,31.2 21.7,32.7 20.9,35.3 23,33.7 25.2,35.3 24.4,32.7 26.6,31.2 23.9,31.2 
					"/>
		<polygon class="st0" points="38.2,28.6 37.4,31.2 34.7,31.2 36.9,32.7 36,35.3 38.2,33.7 40.4,35.3 39.6,32.7 41.8,31.2 
			39.1,31.2 		"/>
		<polygon class="st0" points="53.4,28.6 52.6,31.2 49.9,31.2 52.1,32.7 51.2,35.3 53.4,33.7 55.6,35.3 54.8,32.7 57,31.2 
			54.3,31.2 		"/>
		<polygon class="st0" points="68.6,28.6 67.8,31.2 65.1,31.2 67.3,32.7 66.4,35.3 68.6,33.7 70.8,35.3 70,32.7 72.2,31.2 
			69.5,31.2 		"/>
		<polygon class="st0" points="83.8,28.6 83,31.2 80.3,31.2 82.5,32.7 81.6,35.3 83.8,33.7 86,35.3 85.2,32.7 87.3,31.2 84.6,31.2 
					"/>
		<path class="st0" d="M15.4,35.1l-0.8,2.6h-2.7l2.2,1.6l-0.8,2.6l2.2-1.6l2.2,1.6l-0.8-2.6l2.2-1.6h-2.7L15.4,35.1z M15.4,38.8
			L15.4,38.8L15.4,38.8L15.4,38.8L15.4,38.8L15.4,38.8z"/>
		<path class="st0" d="M30.6,35.1l-0.8,2.6h-2.7l2.2,1.6l-0.8,2.6l2.2-1.6l2.2,1.6L32,39.2l2.2-1.6h-2.7L30.6,35.1z M30.6,38.8
			L30.6,38.8L30.6,38.8L30.6,38.8L30.6,38.8L30.6,38.8z"/>
		<path class="st0" d="M45.8,35.1L45,37.6h-2.7l2.2,1.6l-0.8,2.6l2.2-1.6l2.2,1.6l-0.8-2.6l2.2-1.6h-2.7L45.8,35.1z M45.8,38.8
			L45.8,38.8L45.8,38.8L45.8,38.8L45.8,38.8L45.8,38.8z"/>
		<path class="st0" d="M61,35.1l-0.8,2.6h-2.7l2.2,1.6l-0.8,2.6l2.2-1.6l2.2,1.6l-0.8-2.6l2.2-1.6h-2.7L61,35.1z M61,38.8L61,38.8
			L61,38.8L61,38.8L61,38.8L61,38.8z"/>
		<path class="st0" d="M76.2,35.1l-0.8,2.6h-2.7l2.2,1.6L74,41.8l2.2-1.6l2.2,1.6l-0.8-2.6l2.2-1.6H77L76.2,35.1z M76.2,38.8
			L76.2,38.8L76.2,38.8L76.2,38.8L76.2,38.8L76.2,38.8z"/>
		<polygon class="st0" points="7.8,41.6 7,44.1 4.3,44.1 6.5,45.7 5.7,48.3 7.8,46.7 10,48.3 9.2,45.7 11.4,44.1 8.7,44.1 		"/>
		<polygon class="st0" points="23,41.6 22.2,44.1 19.5,44.1 21.7,45.7 20.9,48.3 23,46.7 25.2,48.3 24.4,45.7 26.6,44.1 23.9,44.1 
					"/>
		<path class="st0" d="M38.2,41.6l-0.8,2.6h-2.7l2.2,1.6L36,48.3l2.2-1.6l2.2,1.6l-0.8-2.6l2.2-1.6h-2.7L38.2,41.6z M38.2,45.3
			L38.2,45.3L38.2,45.3L38.2,45.3L38.2,45.3z"/>
		<polygon class="st0" points="53.4,41.6 52.6,44.1 49.9,44.1 52.1,45.7 51.2,48.3 53.4,46.7 55.6,48.3 54.8,45.7 57,44.1 
			54.3,44.1 		"/>
		<polygon class="st0" points="68.6,41.6 67.8,44.1 65.1,44.1 67.3,45.7 66.4,48.3 68.6,46.7 70.8,48.3 70,45.7 72.2,44.1 
			69.5,44.1 		"/>
		<polygon class="st0" points="83.8,41.6 83,44.1 80.3,44.1 82.5,45.7 81.6,48.3 83.8,46.7 86,48.3 85.2,45.7 87.3,44.1 84.6,44.1 
					"/>
		<polygon class="st0" points="16.3,50.6 15.4,48.1 14.6,50.6 11.9,50.6 14.1,52.2 13.3,54.7 15.4,53.2 17.6,54.7 16.8,52.2 
			19,50.6 		"/>
		<polygon class="st0" points="31.5,50.6 30.6,48.1 29.8,50.6 27.1,50.6 29.3,52.2 28.4,54.7 30.6,53.2 32.8,54.7 32,52.2 
			34.2,50.6 		"/>
		<polygon class="st0" points="46.7,50.6 45.8,48.1 45,50.6 42.3,50.6 44.5,52.2 43.6,54.7 45.8,53.2 48,54.7 47.2,52.2 49.4,50.6 
					"/>
		<polygon class="st0" points="61.9,50.6 61,48.1 60.2,50.6 57.5,50.6 59.7,52.2 58.8,54.7 61,53.2 63.2,54.7 62.4,52.2 64.6,50.6 
					"/>
		<polygon class="st0" points="77,50.6 76.2,48.1 75.4,50.6 72.7,50.6 74.9,52.2 74,54.7 76.2,53.2 78.4,54.7 77.6,52.2 79.7,50.6 
					"/>
		<polygon class="st0" points="8.7,57.1 7.8,54.5 7,57.1 4.3,57.1 6.5,58.7 5.7,61.2 7.8,59.6 10,61.2 9.2,58.7 11.4,57.1 		"/>
		<polygon class="st0" points="23.9,57.1 23,54.5 22.2,57.1 19.5,57.1 21.7,58.7 20.9,61.2 23,59.6 25.2,61.2 24.4,58.7 26.6,57.1 
					"/>
		<polygon class="st0" points="39.1,57.1 38.2,54.5 37.4,57.1 34.7,57.1 36.9,58.7 36,61.2 38.2,59.6 40.4,61.2 39.6,58.7 
			41.8,57.1 		"/>
		<polygon class="st0" points="54.3,57.1 53.4,54.5 52.6,57.1 49.9,57.1 52.1,58.7 51.2,61.2 53.4,59.6 55.6,61.2 54.8,58.7 
			57,57.1 		"/>
		<polygon class="st0" points="69.5,57.1 68.6,54.5 67.8,57.1 65.1,57.1 67.3,58.7 66.4,61.2 68.6,59.6 70.8,61.2 70,58.7 
			72.2,57.1 		"/>
		<polygon class="st0" points="84.6,57.1 83.8,54.5 83,57.1 80.3,57.1 82.5,58.7 81.6,61.2 83.8,59.6 86,61.2 85.2,58.7 87.3,57.1 
					"/>
	</g>
</g>
</svg>
